<svg width="115" height="34" viewBox="0 0 115 34" fill="none" xmlns="http://www.w3.org/2000/svg">
<path fill-rule="evenodd" clip-rule="evenodd" d="M11.5749 1.26484C10.2419 2.0033 9.26093 2.68678 9.34349 2.81991C9.42419 2.95048 9.37907 2.98852 9.24279 2.90456C9.0407 2.78001 3.07186 6.01074 2.67442 6.45975C2.61047 6.53188 2.29419 6.75824 1.97163 6.96233C1.64884 7.16666 1.07326 7.89467 0.692558 8.58048L0 9.82731V16.901C0 24.5256 0.041628 24.8248 1.3007 26.269C2.06907 27.1503 5.16791 29.0259 5.52093 28.8232C5.68209 28.7306 5.73791 28.7388 5.64488 28.8415C5.48977 29.0124 8.85907 31.1216 12.364 33.0473C14.096 33.9991 15.4651 34.2271 16.7591 33.779C18.517 33.1704 28.077 27.5024 29.1879 26.41C30.7593 24.8651 30.8663 24.1768 30.7742 16.2053L30.6977 9.59538L30.0474 8.51322C29.2609 7.20423 28.6544 6.73133 25.3488 4.85065C23.9419 4.05004 22.2974 3.08569 21.6944 2.70765C21.0823 2.32358 20.4758 2.09537 20.3212 2.19069C20.1653 2.28694 20.1053 2.26305 20.1842 2.13596C20.2609 2.01188 19.623 1.50396 18.7665 1.00741C17.4351 0.235325 16.9733 0.0929231 15.5814 0.0256646C13.9774 -0.0517986 13.9186 -0.0334764 11.5749 1.26484ZM20.334 3.95147C22.5805 5.24817 25.1265 6.72206 25.9916 7.22673C27.6321 8.18388 28.6323 9.16168 28.8477 10.0191C28.9172 10.2963 28.9435 13.6205 28.9058 17.4064C28.8414 23.8802 28.8095 24.3266 28.37 24.9134C27.9856 25.4264 24.7065 27.5719 23.3721 28.1833C23.1802 28.2714 21.7674 29.0843 20.2326 29.99C18.6977 30.8957 17.1491 31.7652 16.7914 31.9224C15.2672 32.592 14.694 32.3832 8.93953 29.0609C3.30023 25.8049 2.62209 25.3325 2.07093 24.2763C1.59395 23.362 1.59395 10.4401 2.07093 9.52581C2.52349 8.6584 3.25442 8.04148 4.88372 7.15182C5.65116 6.73273 6.64535 6.16056 7.09302 5.8804C8.48093 5.0116 13.9344 1.89359 14.3023 1.75861C15.4872 1.32375 16.2816 1.6125 20.334 3.95147ZM79.5184 5.27994C78.397 5.78786 77.1735 7.18521 76.857 8.31979C76.7323 8.76625 76.63 9.83612 76.6293 10.697L76.6279 12.2625H75.3488C74.0467 12.2625 74.0116 12.2899 74.0116 13.3062C74.0116 13.4975 74.0247 14.0716 74.0407 14.5818L74.0698 15.5095H75.3449H76.62L76.6821 21.3192L76.7442 27.129L78.5347 27.1805C80.2726 27.2303 80.3293 27.2148 80.4739 26.647C80.556 26.3253 80.5881 23.7139 80.5453 20.8438L80.4677 15.6255L82.8607 15.5594L85.2535 15.493L85.1849 13.9359L85.1163 12.3785L82.803 12.2625L80.4898 12.1466L80.5539 10.7805C80.6337 9.08492 80.9009 8.64542 82.1407 8.17345C83.0728 7.81837 83.6851 7.83228 85.4188 8.24766C85.9398 8.37267 85.9521 8.33696 85.8839 6.90412C85.8221 5.60116 85.7472 5.39892 85.2326 5.14009C84.306 4.67438 80.6584 4.76344 79.5184 5.27994ZM41.0816 6.35074C40.3974 6.66825 39.6909 6.92824 39.5119 6.92824C39.2374 6.92824 39.186 8.52992 39.186 17.075L39.1863 27.2217L40.6395 27.1985C41.4391 27.1856 42.273 27.1596 42.493 27.1406C42.8449 27.11 42.9009 26.7495 42.9581 24.1487L43.0233 21.1917L44.4186 21.1311L45.814 21.0706L46.6528 22.4067C47.1144 23.1417 47.9877 24.5256 48.594 25.4823L49.6958 27.2217L51.7602 27.2561L53.8246 27.2902L53.4842 26.6763C53.297 26.3383 52.7798 25.4881 52.3351 24.7865C51.8902 24.0849 51.2993 23.0935 51.0221 22.5832C50.7447 22.073 50.2181 21.2193 49.8519 20.6861C49.4856 20.1529 49.186 19.6547 49.186 19.5793C49.186 19.5037 50.1279 17.8867 51.2791 15.9859C52.4302 14.085 53.3721 12.4696 53.3721 12.3961C53.3721 12.3226 52.4519 12.2625 51.3274 12.2625H49.2828L48.3623 13.8164C47.856 14.6708 47.3626 15.532 47.2656 15.7298C47.1688 15.9274 46.8395 16.5068 46.5342 17.017C45.9851 17.9343 45.9616 17.9454 44.443 18.0134L42.907 18.0818V11.9253C42.907 7.15344 42.8416 5.76907 42.6163 5.77093C42.4565 5.77209 41.7658 6.033 41.0816 6.35074ZM12.2695 9.05871L11.7612 9.56547L12.7993 10.6722C13.3702 11.2808 13.8372 11.9425 13.8372 12.1426C13.8372 12.3428 13.2421 13.1302 12.5144 13.892C10.8842 15.5997 10.3695 15.6684 9.12093 14.345C8.36721 13.5462 8.17465 13.4493 7.77046 13.6648C6.89907 14.13 6.97674 14.5725 8.11232 15.6122C9.37442 16.7677 9.36116 16.9873 7.93977 18.4689L6.99186 19.4566L7.5786 20.042L8.16558 20.6274L9.15372 19.5758C9.69721 18.9977 10.3314 18.5245 10.5633 18.5245C11.0902 18.5245 13.834 21.284 13.8358 21.8158C13.8365 22.0315 13.7309 22.2736 13.6009 22.3536C13.4709 22.4339 13.4347 22.6127 13.5205 22.7511C13.6063 22.8896 13.5723 22.9385 13.4449 22.8599C13.3174 22.7815 12.8812 23.0589 12.4753 23.4764L11.7377 24.2357L12.3177 24.7791L12.8977 25.3225L14.0551 24.2429C14.6919 23.6489 15.2921 23.163 15.3891 23.163C15.486 23.163 16.06 23.6487 16.6642 24.2424C17.7505 25.3093 17.77 25.3172 18.3584 24.9329C18.6856 24.719 18.9535 24.4637 18.9535 24.3656C18.9535 24.2675 18.4826 23.7264 17.907 23.163C17.3314 22.5997 16.8605 21.9689 16.8605 21.7613C16.8605 21.5537 17.5995 20.6722 18.5028 19.8024L20.1453 18.2212L21.3644 19.4218L22.5835 20.6223L23.1384 20.0332L23.6935 19.4441L22.7188 18.4538C22.1828 17.909 21.7442 17.2517 21.7442 16.9929C21.7442 16.7343 22.2216 16.0464 22.8051 15.4645L23.8663 14.4062L23.2374 13.9131L22.6088 13.4198L21.4679 14.4841L20.327 15.5485L19.6984 15.1421C18.8126 14.5693 16.8605 12.4989 16.8605 12.1322C16.8605 11.9638 17.3428 11.3378 17.9326 10.7413L19.0047 9.65684L18.3909 9.04642L17.7772 8.43576L16.7174 9.5374C16.1344 10.1432 15.5312 10.6391 15.3772 10.6391C15.223 10.6391 14.6347 10.1694 14.0698 9.59538C13.5049 9.02137 12.983 8.55172 12.9102 8.55172C12.8374 8.55172 12.5491 8.7797 12.2695 9.05871ZM90 12.224L88.1395 12.6104L88.0707 14.3209C88.0074 15.8861 88.0372 16.0176 88.4195 15.8704C90.5777 15.0396 94.1023 14.855 95.4849 15.5004C96.2363 15.8511 96.8309 16.8315 96.9135 17.8559C96.9672 18.521 96.906 18.6324 96.5116 18.5871C96.2558 18.5577 95.1453 18.4649 94.0442 18.3807C89.6679 18.0463 86.6279 20.0214 86.6279 23.1988C86.6279 26.3198 89.6907 28.2325 93.4263 27.4449C94.8419 27.1461 95.847 26.7588 96.1628 26.3903C96.2267 26.3156 96.4856 26.1417 96.7379 26.0041C97.12 25.7956 97.3381 25.8812 98.0409 26.5144C98.976 27.3567 100.362 27.6812 101.744 27.3813C102.535 27.2097 102.56 27.1703 102.628 25.9955C102.695 24.8549 102.667 24.7865 102.141 24.7865C100.98 24.7865 100.814 24.2473 100.814 20.4618C100.814 16.2558 100.531 15.0774 99.1935 13.7167C97.3974 11.8894 94.1502 11.3622 90 12.224ZM112.906 12.1287C111.362 12.5541 110.793 12.8938 109.833 13.9651L108.967 14.9297L108.96 13.5961L108.953 12.2625H107.209H105.465V19.6577V27.0531L106.453 27.1647C106.997 27.2259 107.86 27.263 108.372 27.2468L109.302 27.2173L109.419 22.5468C109.551 17.2408 109.509 17.3598 111.589 16.3263C112.356 15.945 113.155 15.7414 113.883 15.7414H115V13.77C115 11.5334 115.017 11.547 112.906 12.1287ZM56.4356 18.0027C56.5072 23.4112 56.5414 23.7985 57.0281 24.706C58.0467 26.6057 59.9367 27.6309 62.3672 27.6019C63.8291 27.5845 65.757 26.8187 66.4039 25.9986C66.6551 25.6801 66.8621 25.512 66.864 25.6249C66.8661 25.7379 66.9588 25.6864 67.0707 25.5106C67.3977 24.9957 67.746 25.4148 67.7056 26.2743C67.6686 27.0564 67.6842 27.0696 68.7177 27.145C69.2951 27.1872 70.0553 27.1888 70.407 27.1485L71.0465 27.0749V19.6688V12.2625H69.0698H67.093V17.3408V22.4193L66.2533 23.1545C65.7914 23.5589 65.1567 23.9873 64.8428 24.1063C63.9851 24.4314 62.5047 24.367 61.7365 23.9708C60.4619 23.3136 60.3488 22.7671 60.3488 17.2605V12.2625H58.3542H56.3595L56.4356 18.0027ZM17.1512 15.1537C18.0147 15.972 18.7209 16.761 18.7209 16.9071C18.7209 17.4029 15.8765 20.148 15.3628 20.148C14.7274 20.148 12.2093 17.6314 12.2093 16.9964C12.2093 16.5128 14.8963 13.649 15.3395 13.6601C15.4726 13.6636 16.2877 14.3357 17.1512 15.1537ZM95.9351 20.6346L97.1256 20.8892L97.0019 22.316C96.934 23.1009 96.8744 23.7586 96.8693 23.7779C96.8065 24.0249 94.9484 24.8343 94.2146 24.9345C92.6628 25.1467 91.3284 24.6736 90.8895 23.7558C89.7853 21.4466 92.3405 19.8658 95.9351 20.6346Z" fill="#575757"/>
</svg>
