<svg width="55" height="52" viewBox="0 0 55 52" fill="none" xmlns="http://www.w3.org/2000/svg">
<path fill-rule="evenodd" clip-rule="evenodd" d="M24.6898 0.902581C24.2951 1.36943 23.7978 1.75543 23.5848 1.76005C23.3718 1.76496 22.8355 2.15847 22.3931 2.63485C21.9507 3.11122 21.4339 3.50098 21.2447 3.50098C21.0555 3.50098 20.5388 3.89074 20.0964 4.36711C19.654 4.84349 19.1372 5.23325 18.948 5.23325C18.7588 5.23325 18.2421 5.62301 17.7996 6.09938C17.3572 6.57576 16.8405 6.96552 16.6513 6.96552C16.4621 6.96552 15.9453 7.35528 15.5029 7.83165C15.0605 8.30802 14.5202 8.69778 14.3029 8.69778C14.0853 8.69778 13.7209 8.95762 13.4933 9.2752C13.2656 9.59279 12.9013 9.85263 12.6837 9.85263C12.4664 9.85263 11.9261 10.2424 11.4836 10.7188C11.0412 11.1951 10.5245 11.5849 10.3353 11.5849C10.1461 11.5849 9.62932 11.9747 9.18691 12.451C8.74451 12.9274 8.22774 13.3172 8.03855 13.3172C7.84936 13.3172 7.33259 13.7069 6.89019 14.1833C6.44778 14.6597 5.93101 15.0494 5.74182 15.0494C5.55263 15.0494 5.03586 15.4392 4.59346 15.9156C4.15105 16.3919 3.63429 16.7817 3.44509 16.7817C3.2559 16.7817 2.73914 17.1715 2.29673 17.6478C1.85432 18.1242 1.341 18.514 1.15612 18.514C0.81132 18.514 0 19.2086 0 19.504C0 19.5946 0.848928 19.6688 1.88648 19.6688C3.13877 19.6688 3.91104 19.8074 4.1832 20.0814C4.52082 20.4206 4.59346 22.0556 4.59346 29.3201C4.59346 35.0118 4.69537 38.1463 4.88055 38.1463C5.03845 38.1463 5.16764 37.8865 5.16764 37.5689C5.16764 37.2513 5.29683 36.9915 5.45473 36.9915C5.61263 36.9915 5.74182 36.7316 5.74182 36.4141C5.74182 36.0965 5.87101 35.8366 6.02891 35.8366C6.18681 35.8366 6.316 35.5768 6.316 35.2592C6.316 34.9416 6.44519 34.6818 6.60309 34.6818C6.76099 34.6818 6.89019 34.422 6.89019 34.1044C6.89019 33.7868 7.01938 33.5269 7.17728 33.5269C7.33518 33.5269 7.46437 33.1372 7.46437 32.6608C7.46437 32.1844 7.59356 31.7947 7.75146 31.7947C7.90936 31.7947 8.03855 31.5348 8.03855 31.2173C8.03855 30.8997 8.16774 30.6398 8.32564 30.6398C8.48354 30.6398 8.61273 30.38 8.61273 30.0624C8.61273 29.7448 8.74192 29.485 8.89982 29.485C9.05772 29.485 9.18691 29.2251 9.18691 28.9076C9.18691 28.59 9.31611 28.3301 9.47401 28.3301C9.63191 28.3301 9.7611 28.0703 9.7611 27.7527C9.7611 27.4351 9.89029 27.1753 10.0482 27.1753C10.2061 27.1753 10.3353 26.7855 10.3353 26.3092C10.3353 25.8328 10.4645 25.443 10.6224 25.443C10.7803 25.443 10.9095 25.1832 10.9095 24.8656C10.9095 24.548 11.0387 24.2882 11.1966 24.2882C11.3545 24.2882 11.4836 24.0283 11.4836 23.7108C11.4836 23.3932 11.6128 23.1333 11.7707 23.1333C11.9286 23.1333 12.0578 22.8735 12.0578 22.5559C12.0578 22.2383 12.187 21.9785 12.3449 21.9785C12.5028 21.9785 12.632 21.5887 12.632 21.1124C12.632 20.636 12.7612 20.2462 12.9191 20.2462C13.077 20.2462 13.2062 19.9864 13.2062 19.6688C13.2062 19.3512 13.3354 19.0914 13.4933 19.0914C13.6512 19.0914 13.7804 18.8315 13.7804 18.514C13.7804 18.1964 13.9096 17.9365 14.0675 17.9365C14.2254 17.9365 14.3546 17.6767 14.3546 17.3591C14.3546 16.8074 14.1631 16.7817 10.0482 16.7817C7.67969 16.7817 5.74182 16.7075 5.74182 16.6168C5.74182 16.2779 6.57812 15.6269 7.01335 15.6269C7.26139 15.6269 7.46437 15.4969 7.46437 15.3381C7.46437 15.1793 7.69433 15.0494 7.9751 15.0494C8.25616 15.0494 8.67216 14.7896 8.89982 14.472C9.12749 14.1544 9.51506 13.8946 9.7611 13.8946C10.0071 13.8946 10.3947 13.6347 10.6224 13.3172C10.85 12.9996 11.266 12.7397 11.5471 12.7397C11.8279 12.7397 12.0578 12.6098 12.0578 12.451C12.0578 12.2922 12.2878 12.1623 12.5686 12.1623C12.8496 12.1623 13.2656 11.9025 13.4933 11.5849C13.7209 11.2673 14.1085 11.0075 14.3546 11.0075C14.6006 11.0075 14.9882 10.7476 15.2158 10.43C15.4435 10.1125 15.8595 9.85263 16.1405 9.85263C16.4213 9.85263 16.6513 9.72271 16.6513 9.56392C16.6513 9.40512 16.8812 9.2752 17.162 9.2752C17.4431 9.2752 17.8591 9.01536 18.0867 8.69778C18.3144 8.3802 18.702 8.12036 18.948 8.12036C19.194 8.12036 19.5816 7.86052 19.8093 7.54294C20.0369 7.22536 20.4529 6.96552 20.734 6.96552C21.0148 6.96552 21.2447 6.8356 21.2447 6.6768C21.2447 6.51801 21.4747 6.38809 21.7555 6.38809C22.0365 6.38809 22.4525 6.12825 22.6802 5.81067C22.9079 5.49309 23.2954 5.23325 23.5415 5.23325C23.7875 5.23325 24.1751 4.97341 24.4027 4.65583C24.691 4.25365 25.146 4.0784 25.9016 4.0784C26.4982 4.0784 26.9866 4.20832 26.9866 4.36711C26.9866 4.52591 27.2165 4.65583 27.4973 4.65583C27.7784 4.65583 28.1944 4.91567 28.422 5.23325C28.6497 5.55083 29.0657 5.81067 29.3467 5.81067C29.6275 5.81067 29.8575 5.94059 29.8575 6.09938C29.8575 6.25817 30.0874 6.38809 30.3682 6.38809C30.6493 6.38809 31.0653 6.64793 31.2929 6.96552C31.5206 7.2831 31.9366 7.54294 32.2176 7.54294C32.4984 7.54294 32.7284 7.67286 32.7284 7.83165C32.7284 7.99044 32.9583 8.12036 33.2391 8.12036C33.5202 8.12036 33.9362 8.3802 34.1638 8.69778C34.3915 9.01536 34.8075 9.2752 35.0886 9.2752C35.3693 9.2752 35.5993 9.40512 35.5993 9.56392C35.5993 9.72271 35.8293 9.85263 36.11 9.85263C36.3911 9.85263 36.8071 10.1125 37.0347 10.43C37.2624 10.7476 37.6784 11.0075 37.9595 11.0075C38.2402 11.0075 38.4702 11.1374 38.4702 11.2962C38.4702 11.455 38.7002 11.5849 38.9809 11.5849C39.262 11.5849 39.678 11.8447 39.9057 12.1623C40.1333 12.4799 40.5493 12.7397 40.8304 12.7397C41.1112 12.7397 41.3411 12.8697 41.3411 13.0285C41.3411 13.1872 41.5711 13.3172 41.8519 13.3172C42.1329 13.3172 42.5489 13.577 42.7766 13.8946C43.0042 14.2122 43.4202 14.472 43.7013 14.472C43.9821 14.472 44.212 14.6019 44.212 14.7607C44.212 14.9195 44.442 15.0494 44.7228 15.0494C45.0038 15.0494 45.4198 15.3093 45.6475 15.6269C45.8751 15.9444 46.2911 16.2043 46.5722 16.2043C46.853 16.2043 47.0829 16.3342 47.0829 16.493C47.0829 16.6518 47.3129 16.7817 47.5937 16.7817C47.8747 16.7817 48.2907 17.0415 48.5184 17.3591C48.7461 17.6767 49.162 17.9365 49.4431 17.9365C49.7239 17.9365 49.9538 18.0665 49.9538 18.2253C49.9538 18.384 50.1838 18.514 50.4646 18.514C50.7456 18.514 51.1616 18.7738 51.3893 19.0914C51.617 19.409 52.0045 19.6688 52.2506 19.6688C52.4966 19.6688 52.8842 19.9286 53.1119 20.2462C53.3395 20.5638 53.7449 20.8237 54.0125 20.8237C54.2803 20.8237 54.5571 20.9862 54.6277 21.1845C54.698 21.3832 54.8519 21.4559 54.969 21.3465C55.2217 21.1106 53.8591 19.6688 53.3837 19.6688C53.2029 19.6688 52.693 19.279 52.2506 18.8027C51.8082 18.3263 51.2679 17.9365 51.0505 17.9365C50.8329 17.9365 50.4686 17.6767 50.2409 17.3591C50.0133 17.0415 49.649 16.7817 49.4313 16.7817C49.214 16.7817 48.6737 16.3919 48.2313 15.9156C47.7889 15.4392 47.2721 15.0494 47.0829 15.0494C46.8937 15.0494 46.377 14.6597 45.9346 14.1833C45.4922 13.7069 44.9754 13.3172 44.7862 13.3172C44.597 13.3172 44.0802 12.9274 43.6378 12.451C43.1954 11.9747 42.6787 11.5849 42.4895 11.5849C42.3003 11.5849 41.7835 11.1951 41.3411 10.7188C40.8987 10.2424 40.3584 9.85263 40.1411 9.85263C39.9235 9.85263 39.5591 9.59279 39.3315 9.2752C39.1038 8.95762 38.7395 8.69778 38.5219 8.69778C38.3046 8.69778 37.7642 8.30802 37.3218 7.83165C36.8794 7.35528 36.3627 6.96552 36.1735 6.96552C35.9843 6.96552 35.4675 6.57576 35.0251 6.09938C34.5827 5.62301 34.0659 5.23325 33.8767 5.23325C33.6876 5.23325 33.1708 4.84349 32.7284 4.36711C32.286 3.89074 31.7457 3.50098 31.5283 3.50098C31.3107 3.50098 30.9464 3.24114 30.7187 2.92356C30.4911 2.60598 30.1268 2.34614 29.9091 2.34614C29.6918 2.34614 29.1515 1.95638 28.7091 1.48C28.2667 1.00363 27.698 0.613869 27.4456 0.613869C27.193 0.613869 26.9866 0.483949 26.9866 0.325158C26.9866 -0.327907 25.3909 0.073402 24.6898 0.902581ZM17.0101 21.2556C16.8129 21.4811 16.6513 21.8659 16.6513 22.1107C16.6513 22.3556 16.5221 22.5559 16.3642 22.5559C16.2063 22.5559 16.0771 22.9457 16.0771 23.4221C16.0771 23.8984 15.9479 24.2882 15.79 24.2882C15.6321 24.2882 15.5029 24.548 15.5029 24.8656C15.5029 25.1832 15.3737 25.443 15.2158 25.443C15.0579 25.443 14.9287 25.7029 14.9287 26.0205C14.9287 26.338 14.7995 26.5979 14.6416 26.5979C14.4837 26.5979 14.3546 26.9876 14.3546 27.464C14.3546 27.9404 14.2254 28.3301 14.0675 28.3301C13.9096 28.3301 13.7804 28.59 13.7804 28.9076C13.7804 29.2251 13.6512 29.485 13.4933 29.485C13.3354 29.485 13.2062 29.8748 13.2062 30.3511C13.2062 30.8275 13.077 31.2173 12.9191 31.2173C12.7612 31.2173 12.632 31.4771 12.632 31.7947C12.632 32.1123 12.5028 32.3721 12.3449 32.3721C12.187 32.3721 12.0578 32.6319 12.0578 32.9495C12.0578 33.2671 11.9286 33.5269 11.7707 33.5269C11.6128 33.5269 11.4836 33.9167 11.4836 34.3931C11.4836 34.8695 11.3545 35.2592 11.1966 35.2592C11.0387 35.2592 10.9095 35.5191 10.9095 35.8366C10.9095 36.1542 10.7803 36.4141 10.6224 36.4141C10.4645 36.4141 10.3353 36.6182 10.3353 36.8676C10.3353 37.3965 9.66176 38.1463 9.18691 38.1463C8.84815 38.1463 8.03855 38.8441 8.03855 39.1363C8.03855 39.227 9.33046 39.3012 10.9095 39.3012C12.632 39.3012 13.7804 39.1857 13.7804 39.0125C13.7804 38.8537 13.5808 38.7237 13.3368 38.7237C13.0928 38.7237 12.576 38.4047 12.1885 38.015C11.475 37.2975 11.2445 36.4141 11.7707 36.4141C11.9286 36.4141 12.0578 36.1542 12.0578 35.8366C12.0578 35.5191 12.187 35.2592 12.3449 35.2592C12.5028 35.2592 12.632 34.9994 12.632 34.6818C12.632 34.1393 12.8235 34.1044 15.79 34.1044C18.7565 34.1044 18.948 34.1393 18.948 34.6818C18.948 34.9994 19.0772 35.2592 19.2351 35.2592C19.393 35.2592 19.5222 35.5191 19.5222 35.8366C19.5222 36.1542 19.6514 36.4141 19.8093 36.4141C20.2451 36.4141 20.1524 37.8426 19.6861 38.3112C19.4608 38.5381 19.0732 38.7237 18.8248 38.7237C18.5768 38.7237 18.3738 38.8537 18.3738 39.0125C18.3738 39.1912 19.9049 39.3012 22.3931 39.3012C24.6037 39.3012 26.4124 39.2261 26.4124 39.1343C26.4124 39.0422 25.8956 38.4679 25.264 37.8576C24.5064 37.1257 24.1157 36.4946 24.1157 36.0035C24.1157 35.5941 23.9865 35.2592 23.8286 35.2592C23.6707 35.2592 23.5415 34.9994 23.5415 34.6818C23.5415 34.3642 23.4123 34.1044 23.2544 34.1044C23.0965 34.1044 22.9673 33.7146 22.9673 33.2382C22.9673 32.7619 22.8381 32.3721 22.6802 32.3721C22.5223 32.3721 22.3931 32.1123 22.3931 31.7947C22.3931 31.4771 22.2639 31.2173 22.106 31.2173C21.9481 31.2173 21.8189 30.9574 21.8189 30.6398C21.8189 30.3223 21.6897 30.0624 21.5318 30.0624C21.3739 30.0624 21.2447 29.6727 21.2447 29.1963C21.2447 28.7199 21.1155 28.3301 20.9576 28.3301C20.7997 28.3301 20.6706 28.0703 20.6706 27.7527C20.6706 27.4351 20.5414 27.1753 20.3835 27.1753C20.2256 27.1753 20.0964 26.7855 20.0964 26.3092C20.0964 25.8328 19.9672 25.443 19.8093 25.443C19.6514 25.443 19.5222 25.1832 19.5222 24.8656C19.5222 24.548 19.393 24.2882 19.2351 24.2882C19.0772 24.2882 18.948 24.0283 18.948 23.7108C18.948 23.3932 18.8188 23.1333 18.6609 23.1333C18.503 23.1333 18.3738 22.7993 18.3738 22.3911C18.3738 21.9825 18.1892 21.4629 17.9636 21.2362C17.4698 20.7393 17.4617 20.7396 17.0101 21.2556ZM27.5607 24.4611C27.5607 24.5561 27.9483 24.9981 28.422 25.443L29.2833 26.252V31.7947V37.3374L28.422 38.1463C27.9483 38.5912 27.5607 39.0332 27.5607 39.1282C27.5607 39.2235 28.4651 39.3012 29.5704 39.3012C30.7187 39.3012 31.58 39.1773 31.58 39.0125C31.58 38.8537 31.377 38.7237 31.129 38.7237C29.9829 38.7237 29.8575 38.1134 29.8575 32.537C29.8575 29.5881 29.9313 27.1753 30.0214 27.1753C30.4417 27.1753 31.0058 28.0738 31.0058 28.7427C31.0058 29.151 31.135 29.485 31.2929 29.485C31.4508 29.485 31.58 29.8748 31.58 30.3511C31.58 30.8275 31.7092 31.2173 31.8671 31.2173C32.025 31.2173 32.1542 31.4771 32.1542 31.7947C32.1542 32.1123 32.2834 32.3721 32.4413 32.3721C32.5992 32.3721 32.7284 32.7619 32.7284 33.2382C32.7284 33.7146 32.8576 34.1044 33.0155 34.1044C33.1734 34.1044 33.3026 34.3642 33.3026 34.6818C33.3026 34.9994 33.4318 35.2592 33.5897 35.2592C33.7476 35.2592 33.8767 35.5191 33.8767 35.8366C33.8767 36.1542 34.0059 36.4141 34.1638 36.4141C34.3217 36.4141 34.4509 36.8038 34.4509 37.2802C34.4509 37.7566 34.5801 38.1463 34.738 38.1463C34.8959 38.1463 35.0251 38.4062 35.0251 38.7237C35.0251 39.0413 35.1543 39.3012 35.3122 39.3012C35.4701 39.3012 35.5993 39.0413 35.5993 38.7237C35.5993 38.4062 35.7285 38.1463 35.8864 38.1463C36.0443 38.1463 36.1735 37.7566 36.1735 37.2802C36.1735 36.8038 36.3027 36.4141 36.4606 36.4141C36.6185 36.4141 36.7477 36.1542 36.7477 35.8366C36.7477 35.5191 36.8769 35.2592 37.0347 35.2592C37.1926 35.2592 37.3218 34.8695 37.3218 34.3931C37.3218 33.9167 37.451 33.5269 37.6089 33.5269C37.7668 33.5269 37.896 33.2671 37.896 32.9495C37.896 32.6319 38.0252 32.3721 38.1831 32.3721C38.341 32.3721 38.4702 31.9823 38.4702 31.506C38.4702 31.0296 38.5994 30.6398 38.7573 30.6398C38.9152 30.6398 39.0444 30.38 39.0444 30.0624C39.0444 29.7448 39.1736 29.485 39.3315 29.485C39.4894 29.485 39.6186 29.151 39.6186 28.7427C39.6186 28.0738 40.1827 27.1753 40.603 27.1753C40.6931 27.1753 40.7669 29.5881 40.7669 32.537C40.7669 38.1134 40.6415 38.7237 39.4954 38.7237C39.2474 38.7237 39.0444 38.8537 39.0444 39.0125C39.0444 39.1874 40.2884 39.3012 42.2024 39.3012C44.1164 39.3012 45.3604 39.1874 45.3604 39.0125C45.3604 38.8537 45.102 38.7237 44.7862 38.7237C44.3395 38.7237 44.212 38.5312 44.212 37.8576C44.212 37.3812 44.0828 36.9915 43.9249 36.9915C43.5081 36.9915 43.5721 35.3383 43.9967 35.1388C44.2838 35.0043 44.2838 34.9367 43.9967 34.8022C43.7421 34.6827 43.6378 33.7259 43.6378 31.506C43.6378 29.2861 43.7421 28.3293 43.9967 28.2098C44.2838 28.0752 44.2838 28.0077 43.9967 27.8731C43.5709 27.6733 43.5107 26.5979 43.9249 26.5979C44.0828 26.5979 44.212 26.338 44.212 26.0205C44.212 25.6356 44.4035 25.443 44.7862 25.443C45.1689 25.443 45.3604 25.2505 45.3604 24.8656C45.3604 24.3393 45.1689 24.2882 43.1943 24.2882C41.2771 24.2882 40.9469 24.3696 40.3234 24.997C39.9358 25.3867 39.6186 26.0363 39.6186 26.4405C39.6186 26.8447 39.4894 27.1753 39.3315 27.1753C39.1736 27.1753 39.0444 27.4351 39.0444 27.7527C39.0444 28.0703 38.9152 28.3301 38.7573 28.3301C38.5994 28.3301 38.4702 28.7199 38.4702 29.1963C38.4702 29.6727 38.341 30.0624 38.1831 30.0624C38.0252 30.0624 37.896 30.3223 37.896 30.6398C37.896 30.9574 37.7668 31.2173 37.6089 31.2173C37.451 31.2173 37.3218 31.5513 37.3218 31.9595C37.3218 32.6285 36.7577 33.5269 36.3374 33.5269C36.2473 33.5269 36.1735 33.2671 36.1735 32.9495C36.1735 32.6319 36.0443 32.3721 35.8864 32.3721C35.7285 32.3721 35.5993 32.1123 35.5993 31.7947C35.5993 31.4771 35.4701 31.2173 35.3122 31.2173C35.1543 31.2173 35.0251 30.8275 35.0251 30.3511C35.0251 29.8748 34.8959 29.485 34.738 29.485C34.5801 29.485 34.4509 29.0952 34.4509 28.6189C34.4509 28.1425 34.3217 27.7527 34.1638 27.7527C34.0059 27.7527 33.8767 27.4929 33.8767 27.1753C33.8767 26.8577 33.7476 26.5979 33.5897 26.5979C33.4318 26.5979 33.3026 26.3972 33.3026 26.1518C33.3026 25.9064 32.9853 25.3867 32.5978 24.997C31.9742 24.3696 31.644 24.2882 29.7268 24.2882C28.5354 24.2882 27.5607 24.3659 27.5607 24.4611ZM47.0829 24.5131C47.0829 24.637 47.3413 24.9254 47.6571 25.1543C48.2023 25.5496 48.2313 25.9018 48.2313 32.1472C48.2313 38.5312 48.2144 38.7237 47.6571 38.7237C47.3413 38.7237 47.0829 38.8537 47.0829 39.0125C47.0829 39.1874 48.3269 39.3012 50.2409 39.3012C52.155 39.3012 53.3989 39.1874 53.3989 39.0125C53.3989 38.8537 53.196 38.7237 52.9479 38.7237C51.7881 38.7237 51.6764 38.1403 51.6764 32.0756V26.252L52.5377 25.443C53.0114 24.9981 53.3989 24.5561 53.3989 24.4611C53.3989 24.3659 51.9778 24.2882 50.2409 24.2882C48.504 24.2882 47.0829 24.3895 47.0829 24.5131ZM16.241 27.5879C16.4667 27.8145 16.6513 28.3342 16.6513 28.7427C16.6513 29.151 16.7805 29.485 16.9384 29.485C17.0963 29.485 17.2255 29.7448 17.2255 30.0624C17.2255 30.38 17.3547 30.6398 17.5126 30.6398C17.6705 30.6398 17.7996 30.8997 17.7996 31.2173C17.7996 31.5348 17.9288 31.7947 18.0867 31.7947C18.2446 31.7947 18.3738 32.0545 18.3738 32.3721C18.3738 32.9068 18.1823 32.9495 15.79 32.9495C14.259 32.9495 13.2062 32.832 13.2062 32.6608C13.2062 32.502 13.3354 32.3721 13.4933 32.3721C13.6512 32.3721 13.7804 31.9823 13.7804 31.506C13.7804 31.0296 13.9096 30.6398 14.0675 30.6398C14.2254 30.6398 14.3546 30.38 14.3546 30.0624C14.3546 29.7448 14.4837 29.485 14.6416 29.485C14.7995 29.485 14.9287 29.2251 14.9287 28.9076C14.9287 28.59 15.0579 28.3301 15.2158 28.3301C15.3737 28.3301 15.5029 28.0703 15.5029 27.7527C15.5029 27.0688 15.6849 27.0283 16.241 27.5879ZM34.4509 43.8966C34.4509 44.2009 34.6126 44.5257 34.8098 44.6184C35.0969 44.7529 35.0969 44.8205 34.8098 44.955C34.6126 45.0477 34.4509 45.3725 34.4509 45.6768C34.4509 46.0377 34.2511 46.2302 33.8767 46.2302C33.2434 46.2302 33.0947 45.7755 33.6614 45.572C33.8589 45.5012 33.9296 45.3451 33.8188 45.2249C33.5808 44.9674 32.7284 45.753 32.7284 46.2302C32.7284 46.7736 33.666 47.588 33.8058 47.1659C33.9468 46.7407 35.0251 46.6789 35.0251 47.0964C35.0251 47.2552 35.2281 47.3851 35.4761 47.3851C36.0273 47.3851 36.8903 46.5663 36.6228 46.2969C36.5163 46.1901 36.319 46.2822 36.1838 46.5019C35.9817 46.8308 35.8456 46.8079 35.4127 46.3726C35.0395 45.9972 34.9901 45.809 35.243 45.7241C35.4391 45.6583 35.5993 45.2258 35.5993 44.7627C35.5993 44.1131 35.7305 43.9205 36.1735 43.9205C36.4893 43.9205 36.7477 43.7906 36.7477 43.6318C36.7477 43.473 36.2309 43.3431 35.5993 43.3431C34.6591 43.3431 34.4509 43.4433 34.4509 43.8966ZM14.5592 44.5736C14.1415 45.0991 13.9997 45.1435 13.7959 44.8118C13.5834 44.4662 13.4761 44.474 13.0888 44.8635C12.8376 45.1161 12.632 45.5269 12.632 45.7767C12.632 46.0261 12.5028 46.2302 12.3449 46.2302C12.187 46.2302 12.0578 46.4901 12.0578 46.8077C12.0578 47.1252 12.1586 47.3851 12.2815 47.3851C12.4046 47.3851 12.6914 47.1252 12.9191 46.8077C13.1468 46.4901 13.4336 46.2302 13.5567 46.2302C13.6796 46.2302 13.7804 46.4901 13.7804 46.8077C13.7804 47.2569 13.9719 47.3851 14.6416 47.3851C15.1153 47.3851 15.5029 47.2552 15.5029 47.0964C15.5029 46.6772 17.1557 46.7413 17.2964 47.1659C17.4546 47.6429 18.3738 46.7389 18.3738 46.1064C18.3738 45.8569 18.503 45.6528 18.6609 45.6528C18.8188 45.6528 18.948 46.0426 18.948 46.5189C18.948 46.9953 19.0772 47.3851 19.2351 47.3851C19.393 47.3851 19.5222 47.2552 19.5222 47.0964C19.5222 46.9376 19.7806 46.8077 20.0964 46.8077C20.4122 46.8077 20.6706 46.9376 20.6706 47.0964C20.6706 47.2552 20.9289 47.3851 21.2447 47.3851C21.5605 47.3851 21.8189 47.2552 21.8189 47.0964C21.8189 46.9376 22.2065 46.8077 22.6802 46.8077C23.1539 46.8077 23.5415 46.6777 23.5415 46.5189C23.5415 46.0085 24.5494 46.2112 24.9769 46.8077C25.2046 47.1252 25.4914 47.3851 25.6146 47.3851C25.9829 47.3851 25.8669 46.2917 25.4793 46.1098C25.1922 45.9753 25.1922 45.9077 25.4793 45.7732C26.133 45.4663 25.8514 45.0754 24.9769 45.0754C24.5032 45.0754 24.1157 44.9455 24.1157 44.7867C24.1157 44.6279 23.9865 44.498 23.8286 44.498C23.6707 44.498 23.5415 44.7578 23.5415 45.0754C23.5415 45.4366 23.35 45.6528 23.0307 45.6528C22.7497 45.6528 22.3337 45.9127 22.106 46.2302C21.5238 47.0424 21.2447 46.9488 21.2447 45.9415C21.2447 45.4652 21.1155 45.0754 20.9576 45.0754C20.7997 45.0754 20.6706 45.2053 20.6706 45.3641C20.6706 45.876 19.749 45.6713 19.2032 45.0381L18.6733 44.4238L17.8341 45.3269C16.8933 46.3399 16.6513 46.4335 16.6513 45.7842C16.6513 45.4152 15.4432 43.9116 15.157 43.9243C15.1105 43.9266 14.8415 44.2188 14.5592 44.5736ZM27.3454 44.9426C26.3079 46.0351 26.222 46.3688 26.8226 46.9725C27.2929 47.4457 28.1349 47.5251 28.1349 47.0964C28.1349 46.9376 28.3824 46.8077 28.6853 46.8077C28.9879 46.8077 29.2933 46.6454 29.3642 46.4468C29.4515 46.2019 29.678 46.2949 30.0679 46.7355C30.384 47.0929 30.798 47.3851 30.9883 47.3851C31.4761 47.3851 32.2667 46.5328 32.0055 46.2886C31.8861 46.1771 31.7307 46.2484 31.6604 46.4468C31.3874 47.2156 31.0058 46.7531 31.0058 45.6528C31.0058 44.3383 30.8583 44.2477 30.1173 45.1069C29.6447 45.6548 29.548 45.6716 29.1507 45.272C28.9078 45.0278 28.7091 44.6238 28.7091 44.3741C28.7091 43.7095 28.3907 43.842 27.3454 44.9426ZM42.4895 44.2093C42.4895 44.368 42.29 44.498 42.0459 44.498C41.3483 44.498 40.1927 45.8399 40.1927 46.6503C40.1927 47.1925 40.0423 47.3851 39.6186 47.3851C39.3028 47.3851 39.0444 47.515 39.0444 47.6738C39.0444 47.8326 38.786 47.9625 38.4702 47.9625C38.1544 47.9625 37.896 48.0924 37.896 48.2512C37.896 48.41 37.6965 48.5399 37.4525 48.5399C36.8039 48.5399 35.5993 49.8585 35.5993 50.5684C35.5993 50.9045 35.7839 51.3653 36.0095 51.5919C36.4732 52.0584 38.4702 52.1586 38.4702 51.7157C38.4702 51.557 38.7286 51.427 39.0444 51.427C39.3602 51.427 39.6186 51.2971 39.6186 51.1383C39.6186 50.9795 39.8215 50.8496 40.0696 50.8496C40.6231 50.8496 41.3411 50.1633 41.3411 49.6347C41.3411 49.4202 41.5995 49.0576 41.9153 48.8286C42.2311 48.5997 42.4895 48.1813 42.4895 47.8987C42.4895 47.5777 42.7045 47.3851 43.0637 47.3851C43.3795 47.3851 43.6378 47.2552 43.6378 47.0964C43.6378 46.9376 43.5087 46.8077 43.3508 46.8077C43.1929 46.8077 43.0637 46.4179 43.0637 45.9415C43.0637 45.4652 43.1929 45.0754 43.3508 45.0754C43.5087 45.0754 43.6378 44.8156 43.6378 44.498C43.6378 44.1131 43.4464 43.9205 43.0637 43.9205C42.7479 43.9205 42.4895 44.0505 42.4895 44.2093ZM45.1451 44.3525C44.9478 44.5779 44.7862 44.9628 44.7862 45.2076C44.7862 45.4524 44.657 45.6528 44.4991 45.6528C44.0728 45.6528 44.1517 46.4996 44.6223 46.9725C45.0925 47.4457 45.9346 47.5251 45.9346 47.0964C45.9346 46.9376 46.193 46.8077 46.5088 46.8077C47.3376 46.8077 47.2604 45.5163 46.3781 44.6293C45.5625 43.8088 45.6113 43.8198 45.1451 44.3525ZM9.7611 45.0754C9.7611 45.7097 9.30491 45.8644 9.116 45.2945C8.91877 44.6992 8.03855 45.8003 8.03855 46.6428C8.03855 47.1925 7.88955 47.3851 7.46437 47.3851C7.14857 47.3851 6.89019 47.515 6.89019 47.6738C6.89019 47.8326 6.5629 47.9625 6.16298 47.9625C5.26726 47.9625 3.44509 49.7121 3.44509 50.5719C3.44509 50.9062 3.62969 51.3653 3.85535 51.5919C4.319 52.0584 6.316 52.1586 6.316 51.7157C6.316 51.557 6.57439 51.427 6.89019 51.427C7.20599 51.427 7.46437 51.2971 7.46437 51.1383C7.46437 50.9795 7.66734 50.8496 7.91539 50.8496C8.4956 50.8496 9.18691 50.1544 9.18691 49.5709C9.18691 49.3215 9.31611 49.1173 9.47401 49.1173C9.63191 49.1173 9.7611 48.9132 9.7611 48.6638C9.7611 48.0803 10.4524 47.3851 11.0326 47.3851C11.2807 47.3851 11.4836 47.2552 11.4836 47.0964C11.4836 46.9376 11.3545 46.8077 11.1966 46.8077C11.0387 46.8077 10.9095 46.288 10.9095 45.6528C10.9095 44.6905 10.8139 44.498 10.3353 44.498C9.95259 44.498 9.7611 44.6905 9.7611 45.0754ZM49.9538 44.9515C49.9538 45.2013 49.7692 45.591 49.5436 45.8177C49.0733 46.2909 48.2313 46.3703 48.2313 45.9415C48.2313 45.7827 48.1021 45.6528 47.9442 45.6528C47.5179 45.6528 47.5968 46.4996 48.0674 46.9725C48.5376 47.4457 49.3797 47.5251 49.3797 47.0964C49.3797 46.9376 49.7566 46.8077 50.2171 46.8077C50.6776 46.8077 51.1123 46.6454 51.1832 46.4468C51.2704 46.2019 51.497 46.2949 51.8868 46.7355C52.2029 47.0929 52.5431 47.3851 52.643 47.3851C52.9812 47.3851 52.8273 46.2796 52.4659 46.1098C52.1788 45.9753 52.1788 45.9077 52.4659 45.7732C52.8535 45.5913 52.9694 44.498 52.6011 44.498C52.478 44.498 52.1911 44.7578 51.9635 45.0754C51.7358 45.393 51.449 45.6528 51.3259 45.6528C51.203 45.6528 51.1022 45.393 51.1022 45.0754C51.1022 44.6905 50.9107 44.498 50.528 44.498C50.1973 44.498 49.9538 44.6905 49.9538 44.9515ZM16.0771 45.2402C16.0771 45.4548 15.306 46.2302 15.0927 46.2302C15.0025 46.2302 14.9287 45.9704 14.9287 45.6528C14.9287 45.268 15.1202 45.0754 15.5029 45.0754C15.8187 45.0754 16.0771 45.1496 16.0771 45.2402ZM41.9153 45.6528C41.9153 46.0377 41.7238 46.2302 41.3411 46.2302C40.6748 46.2302 40.6286 46.0752 41.1258 45.5073C41.6325 44.9284 41.9153 44.9807 41.9153 45.6528ZM46.5088 45.2402C46.5088 45.3312 46.3242 45.591 46.0985 45.8177C45.5424 46.3772 45.3604 46.3368 45.3604 45.6528C45.3604 45.268 45.5519 45.0754 45.9346 45.0754C46.2504 45.0754 46.5088 45.1496 46.5088 45.2402ZM53.3989 46.5189C53.3989 46.6777 53.5281 46.8077 53.686 46.8077C53.8439 46.8077 53.9731 46.6777 53.9731 46.5189C53.9731 46.3602 53.8439 46.2302 53.686 46.2302C53.5281 46.2302 53.3989 46.3602 53.3989 46.5189ZM9.18691 47.9625C9.18691 48.2801 9.05772 48.5399 8.89982 48.5399C8.74192 48.5399 8.61273 48.7406 8.61273 48.986C8.61273 49.5637 7.33403 50.8496 6.75956 50.8496C6.51553 50.8496 6.316 50.9795 6.316 51.1383C6.316 51.5838 4.89203 51.4796 4.41431 50.9995C4.0388 50.6218 4.10712 50.4532 4.9994 49.5559C5.55521 48.9972 6.20777 48.5399 6.45008 48.5399C6.69209 48.5399 6.89019 48.41 6.89019 48.2512C6.89019 48.0924 7.27776 47.9625 7.75146 47.9625C8.22516 47.9625 8.61273 47.8326 8.61273 47.6738C8.61273 47.515 8.74192 47.3851 8.89982 47.3851C9.05772 47.3851 9.18691 47.6449 9.18691 47.9625ZM41.3411 48.1164C41.3411 48.9297 39.6338 50.8496 38.9103 50.8496C38.6683 50.8496 38.4702 50.9795 38.4702 51.1383C38.4702 51.2971 38.0826 51.427 37.6089 51.427C36.8774 51.427 36.7477 51.3162 36.7477 50.6923C36.7477 49.8819 37.9032 48.5399 38.6008 48.5399C38.8449 48.5399 39.0444 48.41 39.0444 48.2512C39.0444 48.0924 39.432 47.9625 39.9057 47.9625C40.3794 47.9625 40.7669 47.8326 40.7669 47.6738C40.7669 47.515 40.8961 47.3851 41.054 47.3851C41.2119 47.3851 41.3411 47.7142 41.3411 48.1164Z" fill="#575757"/>
</svg>
