<svg width="138" height="33" viewBox="0 0 138 33" fill="none" xmlns="http://www.w3.org/2000/svg">
<path fill-rule="evenodd" clip-rule="evenodd" d="M0.131763 0.467968C0.0592609 0.712345 0 1.02835 0 1.1702C0 1.31486 1.38644 1.42806 3.1621 1.42806C6.07066 1.42806 6.31552 1.46739 6.21502 1.91962C6.15489 2.18984 5.65974 4.25469 5.11489 6.50773C4.57025 8.76049 4.12439 10.945 4.12439 11.3621C4.12439 12.6127 4.70462 14.0205 5.46807 14.6227C6.16878 15.1755 6.52434 15.1896 19.7536 15.1845C32.8677 15.1797 33.3528 15.1606 34.2808 14.6157C34.8089 14.3059 35.2974 14.1632 35.3662 14.2991C35.7951 15.1446 36.6072 15.1918 50.764 15.1918H65.0882L65.7562 12.4093C66.1237 10.8787 66.4243 9.48829 66.4243 9.31947C66.4243 9.10571 67.9677 9.01217 71.488 9.01217H76.5516L76.3339 10.3869C76.0515 12.1705 76.4637 13.6685 77.4805 14.5553L78.2105 15.1918H89.1236H100.037L100.729 12.3127C101.11 10.7293 101.781 7.91669 102.221 6.0628L103.021 2.69208L104.576 2.60978C105.903 2.53955 106.195 2.61146 106.573 3.10134C106.817 3.41706 107.017 3.96761 107.017 4.32519C107.017 4.68277 106.48 7.20603 105.823 9.93238C105.166 12.6587 104.629 14.9576 104.629 15.0407C104.629 15.1238 107.994 15.1918 112.106 15.1918H119.583L120.372 11.8913C120.806 10.0762 121.482 7.26362 121.873 5.64146L122.585 2.69208L124.126 2.60978C125.439 2.53955 125.732 2.61203 126.11 3.10134C126.354 3.41706 126.554 3.96761 126.554 4.32519C126.554 4.68277 126.016 7.20603 125.36 9.93238C124.703 12.6587 124.166 14.9576 124.166 15.0407C124.166 15.1238 127.197 15.1918 130.902 15.1918H137.638L137.819 14.5598L138 13.9278L134.339 13.8508C132.325 13.8087 130.678 13.7051 130.678 13.6205C130.678 13.5362 131.166 11.425 131.763 8.92931C132.36 6.4333 132.849 4.09121 132.849 3.72464C132.849 2.65163 132.177 1.12273 131.455 0.55336C130.839 0.0674147 130.26 0.0255616 124.145 0.0247189C118.094 0.0235954 117.473 0.0674143 117.163 0.515158C116.975 0.785377 116.145 3.85076 115.318 7.32682L113.815 13.6469L112.478 13.7306C111.743 13.7764 111.141 13.75 111.141 13.6713C111.141 13.593 111.636 11.4065 112.241 8.81274C113.393 3.86677 113.453 2.95837 112.721 1.51317C111.998 0.0842683 111.666 0.0235949 104.565 0.0235949C98.4951 0.0235949 97.939 0.0640432 97.6147 0.527517C97.4208 0.804758 96.6459 3.61734 95.8926 6.77739L94.5231 12.5233L88.515 12.5981C81.6489 12.6832 81.8775 12.7672 82.4239 10.3607L82.7237 9.04082L87.7932 8.95628C93.6364 8.85881 93.4621 8.93465 94.0976 6.21785C94.6392 3.90329 94.4675 2.19406 93.578 1.04267L92.899 0.164041H87.2049C81.97 0.164041 81.4408 0.208704 80.6426 0.719368C79.4435 1.48649 78.0364 3.43392 77.5912 4.94231L77.2189 6.20324H72.2558C68.9888 6.20324 67.2926 6.10409 67.2926 5.91336C67.2926 5.21057 67.9412 3.71846 68.4895 3.16061C69.0429 2.59742 69.3324 2.55163 72.3426 2.55163H75.5976L76.5071 1.28761L77.4169 0.0235949H71.0454C66.1851 0.0235949 64.5073 0.113481 63.9718 0.403082C62.6724 1.1056 61.9472 2.55163 61.0993 6.13105C60.6688 7.94731 60.0712 10.413 59.771 11.6104L59.2253 13.7874H57.8321C57.0659 13.7874 56.439 13.7534 56.439 13.7115C56.439 13.6699 57.1138 10.8065 57.9389 7.34845C58.7638 3.89037 59.3894 0.894083 59.3289 0.690435C59.1702 0.155334 58.1452 -0.0171341 55.6968 0.0792123L53.5436 0.164041L52.9441 2.55163C52.6141 3.86481 51.9293 6.68217 51.4222 8.81246L50.5001 12.6857L48.8792 12.6045C47.4122 12.5309 47.2175 12.4523 46.8278 11.7756L46.3972 11.0276L47.6453 5.7364C48.3319 2.82607 48.9365 0.350274 48.9888 0.234265C49.0413 0.118256 47.6829 0.0235949 45.9702 0.0235949H42.8561L41.6072 5.29034C40.3497 10.5925 40.1987 11.7444 40.5872 13.0669C40.7986 13.7862 40.7973 13.7874 39.6006 13.7874C38.6177 13.7874 38.3064 13.6635 37.8695 13.0978C37.5764 12.7186 37.3365 12.166 37.3365 11.87C37.3365 11.5739 37.6782 9.89334 38.0956 8.13551C39.0953 3.92632 39.0987 2.60528 38.1132 1.21318L37.3704 0.164041L30.8393 0.0820207L24.3085 0L24.1222 0.643807C24.0198 0.998013 23.8676 1.57216 23.7838 1.91962L23.6316 2.55163H28.2117C33.3793 2.55163 33.3224 2.52551 32.7598 4.63137L32.4524 5.7819L27.9831 5.92235L23.5136 6.0628L22.6127 6.87149C21.1056 8.22427 19.9531 12.1703 20.605 13.7463C20.8449 14.3264 20.8123 14.3491 19.7397 14.3491C18.7814 14.3491 18.5402 14.2312 18.0171 13.5065L17.4088 12.6638H14.3965C10.9785 12.6638 10.4195 12.4225 10.4195 10.9461C10.4195 10.3001 12.1415 2.49742 12.7526 0.374711C12.832 0.0988743 11.504 0.0235949 6.55864 0.0235949C1.01851 0.0235949 0.24768 0.0769648 0.131763 0.467968ZM87.9158 3.3196C88.3778 4.07997 88.393 5.41562 87.9458 5.99426C87.8483 6.12038 86.7706 6.1878 85.551 6.14341L83.3336 6.0628L83.8386 4.82827C84.752 2.59573 86.9755 1.773 87.9158 3.3196ZM31.5687 9.63014C30.9767 11.8014 29.9949 12.6638 28.1149 12.6638C27.2355 12.6638 26.8691 12.5478 26.7779 12.2402C26.5786 11.5689 26.888 9.97845 27.3727 9.18099C27.7947 8.4869 27.9184 8.45039 29.8536 8.45039H31.8904L31.5687 9.63014ZM102.675 25.5849C102.675 29.6109 102.695 29.7983 103.11 29.7983C103.524 29.7983 103.544 29.6109 103.544 25.5849C103.544 21.5588 103.524 21.3715 103.11 21.3715C102.695 21.3715 102.675 21.5588 102.675 25.5849ZM29.1963 21.9333C28.9677 22.4119 29.3016 22.7759 29.9689 22.7759H30.6073V25.575C30.6073 28.1331 30.568 28.4014 30.1503 28.6904C29.8896 28.871 29.3689 28.9283 28.938 28.8236C28.2866 28.6654 28.1928 28.7104 28.257 29.1491C28.3895 30.0533 30.4191 30.0016 31.1348 29.0755C31.4078 28.7222 31.4756 27.9413 31.4756 25.1436V21.6524H30.403C29.813 21.6524 29.2701 21.7788 29.1963 21.9333ZM72.5024 22.2142C72.5024 22.5886 72.6471 22.7759 72.9365 22.7759C73.2259 22.7759 73.3707 22.5886 73.3707 22.2142C73.3707 21.8397 73.2259 21.6524 72.9365 21.6524C72.6471 21.6524 72.5024 21.8397 72.5024 22.2142ZM85.9609 21.8507C85.2782 22.1737 84.6584 23.172 84.6584 23.9484C84.6584 25.0908 85.3073 25.7691 86.7556 26.1408C88.5664 26.6056 88.7288 26.6826 88.8644 27.1405C89.345 28.7612 86.6916 29.5407 85.1469 28.2326C84.6845 27.841 84.6584 27.8573 84.6584 28.5348C84.6584 30.5286 89.2606 30.1474 89.7599 28.1121C90.1528 26.5104 89.3073 25.488 87.3067 25.1444C85.9837 24.9175 85.372 24.2366 85.7247 23.3838C86.1222 22.4229 87.6758 22.3445 89.2904 23.2043C89.6199 23.3799 89.6765 23.3018 89.616 22.7568C89.5691 22.3352 89.3464 22.0265 88.9999 21.9026C88.3465 21.6687 86.4152 21.6358 85.9609 21.8507ZM92.1837 22.1206C92.104 22.2234 92.0389 22.6026 92.0389 22.9633C92.0389 23.3237 91.9412 23.6186 91.8219 23.6186C91.7025 23.6186 91.6048 23.8714 91.6048 24.1804C91.6048 24.4894 91.6918 24.7422 91.7982 24.7422C91.9046 24.7422 92.0289 25.7026 92.0747 26.8764C92.142 28.6 92.2406 29.089 92.5868 29.4171C93.1538 29.9539 94.7523 29.8205 94.7523 29.2365C94.7523 28.9317 94.5615 28.8399 94.0625 28.9045C93.1814 29.0185 92.9072 28.4056 92.9072 26.3217V24.7745L93.8298 24.688C94.4753 24.6276 94.7523 24.4753 94.7523 24.1804C94.7523 23.8855 94.4753 23.7332 93.8298 23.6728C92.9687 23.5919 92.9072 23.5313 92.9072 22.7599C92.9072 21.9824 92.5406 21.6585 92.1837 22.1206ZM34.0637 24.4397C33.5267 25.1349 33.4292 25.4829 33.4292 26.7084C33.4292 27.934 33.5267 28.282 34.0637 28.9772C34.5832 29.6494 34.8815 29.7983 35.7085 29.7983C36.5355 29.7983 36.8338 29.6494 37.3533 28.9772C37.8903 28.282 37.9878 27.934 37.9878 26.7084C37.9878 25.4829 37.8903 25.1349 37.3533 24.4397C36.8338 23.7675 36.5355 23.6186 35.7085 23.6186C34.8815 23.6186 34.5832 23.7675 34.0637 24.4397ZM39.9414 26.2231C39.9414 28.4292 40.0074 28.9458 40.3384 29.3334C40.7839 29.855 42.1365 29.9516 42.7777 29.5075C43.0671 29.307 43.1975 29.307 43.1975 29.5075C43.1975 29.6674 43.3929 29.7983 43.6317 29.7983C44.0398 29.7983 44.0658 29.6109 44.0658 26.6879C44.0658 23.877 44.0291 23.5866 43.6859 23.6714C43.3679 23.7501 43.2958 24.1352 43.2435 26.0394C43.1851 28.1581 43.1439 28.3354 42.6364 28.6345C41.231 29.4632 40.8497 28.9252 40.7654 25.9958C40.7118 24.1341 40.6384 23.7495 40.3213 23.6714C39.9814 23.5872 39.9414 23.8548 39.9414 26.2231ZM46.3813 23.806C46.3017 23.9088 46.2365 25.2992 46.2365 26.8958C46.2365 29.6109 46.2645 29.7983 46.6707 29.7983C47.0655 29.7983 47.1048 29.6109 47.1048 27.7258C47.1048 25.3618 47.2644 25.0548 48.6159 24.8203C49.1666 24.7248 49.4926 24.522 49.4926 24.2751C49.4926 23.6459 48.9547 23.5498 48.0806 24.0225C47.089 24.5585 47.1048 24.5582 47.1048 24.04C47.1048 23.6124 46.6457 23.4638 46.3813 23.806ZM51.2292 26.7289C51.2292 29.5398 51.2659 29.8303 51.6091 29.7455C51.9278 29.6668 51.9992 29.28 52.0519 27.3475L52.1149 25.0433L52.897 24.7638C54.2233 24.2899 54.4577 24.6605 54.5309 27.3444C54.5869 29.4008 54.6396 29.6578 55.0061 29.6578C55.3831 29.6578 55.4148 29.4435 55.3783 27.1298C55.3443 24.9529 55.2761 24.5335 54.888 24.1102C54.3779 23.554 53.3711 23.4686 52.7112 23.9256C52.3906 24.1475 52.2024 24.1475 52.0309 23.9256C51.9004 23.7568 51.6666 23.6186 51.5114 23.6186C51.2969 23.6186 51.2292 24.3641 51.2292 26.7289ZM58.3438 24.0565C57.5617 24.6057 57.3073 25.2829 57.3073 26.8146C57.3073 28.6901 57.9667 29.5671 59.4956 29.7255C60.8432 29.8654 61.8658 29.4612 61.8658 28.7893C61.8658 28.4404 61.747 28.3758 61.3774 28.5241C59.9024 29.1157 59.1385 29.0379 58.5164 28.2328C57.7577 27.2511 58.0746 26.9893 60.0207 26.9893C61.8347 26.9893 61.8658 26.9778 61.8658 26.3003C61.8658 24.0582 60.0178 22.881 58.3438 24.0565ZM63.1682 23.8902C63.1682 24.0621 63.3599 24.6891 63.5941 25.2832C63.8286 25.8776 64.2562 27.0542 64.5447 27.8983C65.0659 29.4236 65.0667 29.4401 64.6688 30.5286C64.1639 31.9097 64.1626 32.0454 64.6547 32.0454C64.9571 32.0454 65.4106 31.0755 66.4999 28.0991C67.2939 25.9287 67.9438 24.0234 67.9438 23.8652C67.9438 23.7068 67.7736 23.6197 67.5659 23.6717C67.3425 23.7273 66.8821 24.5981 66.441 25.7989C66.0301 26.9171 65.6385 27.825 65.5708 27.8163C65.5031 27.8076 65.1056 26.8913 64.6877 25.7798C64.239 24.5866 63.7723 23.722 63.5481 23.6683C63.3393 23.6183 63.1682 23.7181 63.1682 23.8902ZM72.6471 23.806C72.5675 23.9088 72.5024 25.2992 72.5024 26.8958C72.5024 29.6109 72.5304 29.7983 72.9365 29.7983C73.3444 29.7983 73.3707 29.6109 73.3707 26.7084C73.3707 24.3209 73.3049 23.6186 73.0813 23.6186C72.922 23.6186 72.7266 23.7029 72.6471 23.806ZM75.6862 23.806C75.6065 23.9088 75.5414 25.2992 75.5414 26.8958C75.5414 29.6109 75.5694 29.7983 75.9755 29.7983C76.3736 29.7983 76.4097 29.6109 76.4097 27.5368V25.2753L77.1573 24.8711C77.9027 24.468 78.5459 24.5714 78.8485 25.143C78.9362 25.3088 79.0093 26.4242 79.0113 27.6213C79.0143 29.6095 79.0521 29.7983 79.4487 29.7983C79.8483 29.7983 79.8828 29.6109 79.8828 27.4486C79.8828 25.4967 79.8066 24.9736 79.4328 24.3588C78.9412 23.5498 77.8493 23.3535 77.0233 23.9256C76.7027 24.1475 76.5145 24.1475 76.343 23.9256C76.0704 23.5728 75.8915 23.5402 75.6862 23.806ZM96.1633 23.8439C96.1633 23.9902 96.5907 25.302 97.1134 26.759L98.0633 29.4078L97.6652 30.3755C97.1545 31.6165 97.1503 32.0454 97.6496 32.0454C97.9531 32.0454 98.4111 31.0544 99.5314 27.973C100.346 25.7332 100.951 23.8217 100.876 23.7251C100.54 23.2894 100.023 24.0312 99.3929 25.8556C99.0174 26.9427 98.6499 27.8295 98.5763 27.8261C98.5027 27.823 98.1007 26.9065 97.6828 25.7896C97.2328 24.5869 96.7683 23.722 96.5432 23.6683C96.3344 23.6183 96.1633 23.6973 96.1633 23.8439ZM106.316 24.1709C104.402 26.1188 105.406 29.8036 107.848 29.7943C109.304 29.789 109.839 29.5466 109.839 28.8927C109.839 28.4722 109.745 28.3828 109.459 28.532C108.077 29.2528 106.715 28.9039 106.382 27.7435C106.211 27.1483 106.262 27.1256 108.076 26.9893C109.927 26.8503 109.948 26.8405 110.016 26.0736C110.127 24.8293 109.045 23.6186 107.823 23.6186C107.193 23.6186 106.67 23.8099 106.316 24.1709ZM36.6853 25.0231C37.2156 25.7093 37.266 27.4365 36.7815 28.3312C36.3159 29.1915 35.1011 29.1915 34.6355 28.3312C33.826 26.836 34.4844 24.4613 35.7085 24.4613C36.007 24.4613 36.4465 24.7141 36.6853 25.0231ZM60.6565 24.9026C61.3652 25.82 61.0845 26.1467 59.5865 26.1467C58.5016 26.1467 58.1755 26.0528 58.1755 25.7413C58.1755 24.6734 60.002 24.056 60.6565 24.9026ZM108.85 25.0857C109.036 25.429 109.188 25.8082 109.188 25.9284C109.188 26.0483 108.553 26.1467 107.777 26.1467C106.236 26.1467 105.928 25.7326 106.848 24.8986C107.55 24.2624 108.45 24.3464 108.85 25.0857Z" fill="#575757"/>
</svg>
