<svg width="57" height="57" viewBox="0 0 57 57" fill="none" xmlns="http://www.w3.org/2000/svg">
<path fill-rule="evenodd" clip-rule="evenodd" d="M23.75 0.271429C23.75 0.420714 23.3938 0.542857 22.9583 0.542857C22.5229 0.542857 22.1667 0.665 22.1667 0.814286C22.1667 0.963571 21.8104 1.08571 21.375 1.08571C20.9396 1.08571 20.5833 1.20786 20.5833 1.35714C20.5833 1.50643 20.3458 1.62857 20.0556 1.62857C19.7653 1.62857 19.5278 1.75071 19.5278 1.9C19.5278 2.04929 19.3164 2.17143 19.0583 2.17143C18.8 2.17143 18.4176 2.41571 18.2083 2.71429C17.9991 3.01286 17.6742 3.25714 17.4866 3.25714C17.0066 3.25714 12.6667 7.77507 12.6667 8.27477C12.6667 8.50087 12.5479 8.68571 12.4028 8.68571C12.2521 8.68571 12.1389 9.5 12.1389 10.5857C12.1389 11.6714 12.2521 12.4857 12.4028 12.4857C12.5479 12.4857 12.6667 12.73 12.6667 13.0286C12.6667 13.3271 12.7854 13.5714 12.9306 13.5714C13.0757 13.5714 13.1944 13.7888 13.1944 14.0543C13.1944 14.32 13.4319 14.7133 13.7222 14.9286C14.3951 15.4275 14.3951 15.7429 13.7222 15.7429C13.4319 15.7429 13.1944 15.6207 13.1944 15.4714C13.1944 15.3221 12.9569 15.2 12.6667 15.2C12.3764 15.2 12.1389 15.0779 12.1389 14.9286C12.1389 14.7793 11.9014 14.6571 11.6111 14.6571C11.3208 14.6571 11.0833 14.535 11.0833 14.3857C11.0833 14.2364 10.7271 14.1143 10.2917 14.1143C9.85625 14.1143 9.5 13.9921 9.5 13.8429C9.5 13.6936 9.025 13.5714 8.44444 13.5714C7.86389 13.5714 7.38889 13.4493 7.38889 13.3C7.38889 13.1507 6.79514 13.0286 6.06944 13.0286C5.34375 13.0286 4.75 13.1507 4.75 13.3C4.75 13.4493 4.5666 13.5714 4.34229 13.5714C3.84354 13.5714 2.63889 14.7682 2.63889 15.2635C2.63889 15.4611 2.40139 15.799 2.11111 16.0143C1.80131 16.2442 1.58333 16.717 1.58333 17.16C1.58333 17.5747 1.46458 17.9143 1.31944 17.9143C1.17431 17.9143 1.05556 18.2807 1.05556 18.7286C1.05556 19.1764 0.936806 19.5429 0.791667 19.5429C0.646528 19.5429 0.527778 20.0314 0.527778 20.6286C0.527778 21.2257 0.409028 21.7143 0.263889 21.7143C0.103972 21.7143 0 22.8904 0 24.7C0 26.5096 0.103972 27.6857 0.263889 27.6857C0.409028 27.6857 0.527778 28.1743 0.527778 28.7714C0.527778 29.3686 0.646528 29.8571 0.791667 29.8571C0.936806 29.8571 1.05556 30.1014 1.05556 30.4C1.05556 30.6986 1.17431 30.9429 1.31944 30.9429C1.46458 30.9429 1.58333 31.1348 1.58333 31.3693C1.58333 31.9178 2.21878 32.5714 2.7521 32.5714C2.9801 32.5714 3.16667 32.6936 3.16667 32.8429C3.16667 32.9921 3.76042 33.1143 4.48611 33.1143C5.21181 33.1143 5.80556 33.2364 5.80556 33.3857C5.80556 33.535 6.16181 33.6571 6.59722 33.6571C7.34482 33.6571 7.38889 33.7174 7.38889 34.7429C7.38889 35.34 7.50764 35.8286 7.65278 35.8286C7.79792 35.8286 7.91667 36.195 7.91667 36.6429C7.91667 37.0907 8.03542 37.4571 8.18056 37.4571C8.3257 37.4571 8.44444 37.7014 8.44444 38C8.44444 38.2986 8.56319 38.5429 8.70833 38.5429C8.85347 38.5429 8.97222 38.7356 8.97222 38.9712C8.97222 39.207 9.44722 39.8691 10.0278 40.4429C10.6083 41.0167 11.0833 41.6233 11.0833 41.791C11.0833 42.2147 12.3028 43.4286 12.7284 43.4286C12.9205 43.4286 13.2491 43.6729 13.4583 43.9714C13.6818 44.2901 14.1415 44.5143 14.5722 44.5143C15.1295 44.5143 15.3056 44.6446 15.3056 45.0571C15.3056 45.3557 15.1868 45.6 15.0417 45.6C14.8965 45.6 14.7778 45.9664 14.7778 46.4143C14.7778 46.8621 14.659 47.2286 14.5139 47.2286C14.36 47.2286 14.25 48.1332 14.25 49.4C14.25 50.6668 14.36 51.5714 14.5139 51.5714C14.659 51.5714 14.7778 51.7633 14.7778 51.9978C14.7778 52.4986 15.3979 53.2 15.8405 53.2C16.0104 53.2 16.4822 53.5664 16.8889 54.0143C17.3436 54.5151 17.8925 54.8286 18.3142 54.8286C18.6915 54.8286 19 54.9507 19 55.1C19 55.2493 19.2375 55.3714 19.5278 55.3714C19.8181 55.3714 20.0556 55.4936 20.0556 55.6429C20.0556 55.7921 20.4118 55.9143 20.8472 55.9143C21.2826 55.9143 21.6389 56.0364 21.6389 56.1857C21.6389 56.335 21.9951 56.4571 22.4306 56.4571C22.866 56.4571 23.2222 56.5793 23.2222 56.7286C23.2222 56.8966 24.6295 57 26.9167 57C29.2038 57 30.6111 56.8966 30.6111 56.7286C30.6111 56.5793 30.9119 56.4571 31.2795 56.4571C32.0229 56.4571 33.7778 54.843 33.7778 54.159C33.7778 53.9301 33.8965 53.7429 34.0417 53.7429C34.1868 53.7429 34.3056 53.2543 34.3056 52.6571C34.3056 52.06 34.4243 51.5714 34.5694 51.5714C34.7233 51.5714 34.8333 50.6668 34.8333 49.4C34.8333 48.2057 34.9019 47.2286 34.9859 47.2286C35.07 47.2286 35.5949 47.7171 36.1528 48.3143C36.7106 48.9114 37.3543 49.4 37.5836 49.4C37.8126 49.4 38 49.5221 38 49.6714C38 49.8207 38.3563 49.9429 38.7917 49.9429C39.2271 49.9429 39.5833 49.8207 39.5833 49.6714C39.5833 49.5221 39.9396 49.4 40.375 49.4C40.8104 49.4 41.1667 49.2779 41.1667 49.1286C41.1667 48.9793 41.3469 48.8571 41.5675 48.8571C42.0892 48.8571 45.3889 45.4632 45.3889 44.9266C45.3889 44.6997 45.5076 44.5143 45.6528 44.5143C45.7979 44.5143 45.9167 44.2969 45.9167 44.0314C45.9167 43.7657 46.1542 43.3724 46.4444 43.1571C46.7542 42.9272 46.9722 42.4544 46.9722 42.0114C46.9722 41.5967 47.091 41.2571 47.2361 41.2571C47.3813 41.2571 47.5 40.5821 47.5 39.7572C47.5 38.3425 47.4327 38.1881 46.3194 37.0429C45.6702 36.375 45.0086 35.8286 44.8492 35.8286C44.5471 35.8286 43.8056 35.1674 43.8056 34.8978C43.8056 34.8126 44.1618 34.7429 44.5972 34.7429C45.0326 34.7429 45.3889 34.865 45.3889 35.0143C45.3889 35.1812 46.7083 35.2857 48.8194 35.2857C50.9306 35.2857 52.25 35.1812 52.25 35.0143C52.25 34.865 52.6063 34.7429 53.0417 34.7429C53.4771 34.7429 53.8333 34.6207 53.8333 34.4714C53.8333 34.3221 54.0708 34.2 54.3611 34.2C54.6514 34.2 54.8889 34.0779 54.8889 33.9286C54.8889 33.7793 55.1264 33.6571 55.4167 33.6571C55.7684 33.6571 55.9444 33.4761 55.9444 33.1143C55.9444 32.8157 56.0632 32.5714 56.2083 32.5714C56.3535 32.5714 56.4722 32.3271 56.4722 32.0286C56.4722 31.73 56.591 31.4857 56.7361 31.4857C56.8984 31.4857 57 30.1286 57 27.9571C57 25.7857 56.8984 24.4286 56.7361 24.4286C56.591 24.4286 56.4722 23.94 56.4722 23.3429C56.4722 22.7457 56.3535 22.2571 56.2083 22.2571C56.0632 22.2571 55.9444 21.8907 55.9444 21.4429C55.9444 20.995 55.8257 20.6286 55.6806 20.6286C55.5354 20.6286 55.4167 20.2621 55.4167 19.8143C55.4167 19.3664 55.2979 19 55.1528 19C55.0076 19 54.8889 18.7826 54.8889 18.5171C54.8889 18.2514 54.6514 17.8581 54.3611 17.6429C54.0708 17.4276 53.8333 17.0921 53.8333 16.8972C53.8333 16.403 51.5605 14.1143 51.0694 14.1143C50.848 14.1143 50.6667 13.9921 50.6667 13.8429C50.6667 13.6936 50.0729 13.5714 49.3472 13.5714C48.6215 13.5714 48.0278 13.6936 48.0278 13.8429C48.0278 13.9921 47.6715 14.1143 47.2361 14.1143C46.8007 14.1143 46.4444 14.2364 46.4444 14.3857C46.4444 14.535 46.0882 14.6571 45.6528 14.6571C45.2174 14.6571 44.8611 14.7793 44.8611 14.9286C44.8611 15.0779 44.6236 15.2 44.3333 15.2C44.0431 15.2 43.8056 15.3221 43.8056 15.4714C43.8056 15.6207 43.5681 15.7429 43.2778 15.7429C42.9875 15.7429 42.75 15.865 42.75 16.0143C42.75 16.1636 42.5386 16.2857 42.2805 16.2857C42.0222 16.2857 41.6398 16.53 41.4306 16.8286C41.2213 17.1271 40.9577 17.3714 40.8445 17.3714C40.4246 17.3714 40.6571 16.3921 41.1667 16.0143C41.4569 15.799 41.6944 15.4326 41.6944 15.2C41.6944 14.9674 41.9319 14.601 42.2222 14.3857C42.5898 14.1132 42.75 13.683 42.75 12.9686C42.75 12.4046 42.8688 11.9429 43.0139 11.9429C43.159 11.9429 43.2778 11.5764 43.2778 11.1286C43.2778 10.6807 43.159 10.3143 43.0139 10.3143C42.8688 10.3143 42.75 10.127 42.75 9.89819C42.75 9.39007 41.055 7.6 40.574 7.6C40.3834 7.6 40.0565 7.35571 39.8472 7.05714C39.638 6.75857 39.2556 6.51429 38.9972 6.51429C38.7392 6.51429 38.5278 6.39214 38.5278 6.24286C38.5278 6.09357 38.1715 5.97143 37.7361 5.97143C37.3007 5.97143 36.9444 5.84929 36.9444 5.7C36.9444 5.55071 36.4694 5.42857 35.8889 5.42857C35.3083 5.42857 34.8333 5.30643 34.8333 5.15714C34.8333 5.00216 34.0417 4.88571 32.9861 4.88571C31.3149 4.88571 31.1389 4.83414 31.1389 4.34286C31.1389 4.04429 31.0201 3.8 30.875 3.8C30.7299 3.8 30.6111 3.58259 30.6111 3.31713C30.6111 3.0514 30.3736 2.6581 30.0833 2.44286C29.7931 2.22761 29.5556 1.8867 29.5556 1.68503C29.5556 1.18804 28.8956 0.542857 28.3868 0.542857C28.1588 0.542857 27.9722 0.420714 27.9722 0.271429C27.9722 0.113186 27.0927 0 25.8611 0C24.6295 0 23.75 0.113186 23.75 0.271429ZM17.5863 19.95C17.9381 20.3118 17.9381 20.4025 17.5863 20.7643C16.7226 21.6527 15.8853 20.89 16.691 19.9489C17.1079 19.462 17.1119 19.462 17.5863 19.95ZM37.159 19.9961C37.4793 20.3257 37.5102 20.4798 37.2719 20.5615C36.3771 20.8682 37.2822 22.2571 38.3771 22.2571C38.8795 22.2571 39.0556 22.398 39.0556 22.8C39.0556 23.202 38.8795 23.3429 38.3771 23.3429C37.3173 23.3429 36.9444 23.9384 36.9444 25.6307C36.9444 26.4624 37.0632 27.1429 37.2083 27.1429C37.3535 27.1429 37.4722 27.5093 37.4722 27.9571C37.4722 28.7261 37.5308 28.7714 38.5278 28.7714C39.4073 28.7714 39.5833 28.8618 39.5833 29.3143C39.5833 29.7779 39.4073 29.8571 38.3771 29.8571C37.1318 29.8571 36.4167 29.4188 36.4167 28.655C36.4167 28.4205 36.2979 28.2286 36.1528 28.2286C36.0076 28.2286 35.8889 27.9843 35.8889 27.6857C35.8889 27.3871 36.0076 27.1429 36.1528 27.1429C36.2979 27.1429 36.4167 26.4624 36.4167 25.6307C36.4167 24.0744 36.043 23.3429 35.2479 23.3429C35.0093 23.3429 34.8333 23.1127 34.8333 22.8C34.8333 22.4873 35.0093 22.2571 35.2479 22.2571C36.1219 22.2571 36.8434 20.8202 36.0979 20.5645C35.8625 20.4839 35.8797 20.3384 36.1639 20.0094C36.6455 19.4511 36.6294 19.4514 37.159 19.9961ZM13.7222 22.5286C13.7222 22.6779 13.9597 22.8 14.25 22.8C14.8752 22.8 14.9121 22.9721 14.4007 23.4978C13.9684 23.9427 13.1944 24.0174 13.1944 23.6143C13.1944 23.465 12.7194 23.3429 12.1389 23.3429C11.5583 23.3429 11.0833 23.465 11.0833 23.6143C11.0833 23.7636 10.8458 23.8857 10.5556 23.8857C10.2038 23.8857 10.0278 24.0668 10.0278 24.4286C10.0278 24.7904 10.2038 24.9714 10.5556 24.9714C10.8458 24.9714 11.0833 25.0936 11.0833 25.2429C11.0833 25.3921 11.5583 25.5143 12.1389 25.5143C12.7194 25.5143 13.1944 25.6364 13.1944 25.7857C13.1944 25.935 13.3778 26.0571 13.6022 26.0571C13.8265 26.0571 14.3015 26.3571 14.6577 26.7235C15.3135 27.398 15.5254 28.2286 15.0417 28.2286C14.8965 28.2286 14.7778 28.4205 14.7778 28.655C14.7778 29.5526 14.0803 29.8571 12.0257 29.8571C10.8696 29.8571 10.0278 29.7429 10.0278 29.5857C10.0278 29.4364 9.79028 29.3143 9.5 29.3143C9.14824 29.3143 8.97222 29.1332 8.97222 28.7714C8.97222 28.3491 9.14824 28.2286 9.76389 28.2286C10.1993 28.2286 10.5556 28.3507 10.5556 28.5C10.5556 28.9226 12.9171 28.8241 13.3451 28.3836C13.9967 27.7137 13.8059 27.1429 12.9306 27.1429C12.4951 27.1429 12.1389 27.0207 12.1389 26.8714C12.1389 26.7221 11.7826 26.6 11.3472 26.6C10.9118 26.6 10.5556 26.4779 10.5556 26.3286C10.5556 26.1793 10.369 26.0571 10.141 26.0571C9.91272 26.0571 9.55647 25.8826 9.34932 25.6693C8.92076 25.2287 8.83553 23.8857 9.23611 23.8857C9.38125 23.8857 9.5 23.6414 9.5 23.3429C9.5 22.981 9.67601 22.8 10.0278 22.8C10.3181 22.8 10.5556 22.6779 10.5556 22.5286C10.5556 22.3777 11.2593 22.2571 12.1389 22.2571C13.0184 22.2571 13.7222 22.3777 13.7222 22.5286ZM17.4167 26.0571C17.4167 29.6761 17.3916 29.8571 16.8889 29.8571C16.3862 29.8571 16.3611 29.6761 16.3611 26.0571C16.3611 22.4382 16.3862 22.2571 16.8889 22.2571C17.3916 22.2571 17.4167 22.4382 17.4167 26.0571ZM24.2778 22.5286C24.2778 22.6779 24.4612 22.8 24.6855 22.8C25.3267 22.8 26.3889 24.0616 26.3889 24.8235C26.3889 25.2035 26.5076 25.5143 26.6528 25.5143C26.7979 25.5143 26.9167 25.7586 26.9167 26.0571C26.9167 26.5699 26.7407 26.6 23.75 26.6H20.5833V27.4143C20.5833 28.0475 20.7005 28.2286 21.1111 28.2286C21.4014 28.2286 21.6389 28.3507 21.6389 28.5C21.6389 28.6493 22.1891 28.7714 22.8615 28.7714C23.7767 28.7714 24.2052 28.6276 24.5667 28.199C25.0011 27.6838 25.09 27.6681 25.4552 28.0437C26.0295 28.6346 25.9643 29.3143 25.3333 29.3143C25.0431 29.3143 24.8056 29.4364 24.8056 29.5857C24.8056 29.7407 24.0139 29.8571 22.9583 29.8571C21.9028 29.8571 21.1111 29.7407 21.1111 29.5857C21.1111 29.4364 20.9245 29.3143 20.6965 29.3143C20.1632 29.3143 19.5278 28.6607 19.5278 28.1121C19.5278 27.8776 19.409 27.6857 19.2639 27.6857C19.1187 27.6857 19 27.0109 19 26.1866C19 24.7912 19.0778 24.6045 20.1215 23.4919C21.1842 22.3592 21.3228 22.2954 22.7604 22.2767C23.6088 22.2658 24.2778 22.3768 24.2778 22.5286ZM32.7222 22.5286C32.7222 22.6779 32.9597 22.8 33.25 22.8C33.6018 22.8 33.7778 22.981 33.7778 23.3429C33.7778 23.7652 33.6018 23.8857 32.9861 23.8857C32.5507 23.8857 32.1944 23.7636 32.1944 23.6143C32.1944 23.1979 30.3588 23.2921 29.9327 23.7307C29.3832 24.2956 29.4656 24.9714 30.0833 24.9714C30.3736 24.9714 30.6111 25.0936 30.6111 25.2429C30.6111 25.3921 30.9674 25.5143 31.4028 25.5143C31.8382 25.5143 32.1944 25.6364 32.1944 25.7857C32.1944 25.935 32.3778 26.0571 32.6022 26.0571C32.8265 26.0571 33.3015 26.3571 33.6577 26.7235C34.3135 27.398 34.5254 28.2286 34.0417 28.2286C33.8965 28.2286 33.7778 28.4205 33.7778 28.655C33.7778 29.5526 33.0803 29.8571 31.0257 29.8571C29.8696 29.8571 29.0278 29.7429 29.0278 29.5857C29.0278 29.4364 28.7903 29.3143 28.5 29.3143C28.1482 29.3143 27.9722 29.1332 27.9722 28.7714C27.9722 28.3491 28.1482 28.2286 28.7639 28.2286C29.1993 28.2286 29.5556 28.3507 29.5556 28.5C29.5556 28.9226 31.9171 28.8241 32.3451 28.3836C32.8945 27.8187 32.8122 27.1429 32.1944 27.1429C31.9042 27.1429 31.6667 27.0207 31.6667 26.8714C31.6667 26.7221 31.3104 26.6 30.875 26.6C30.4396 26.6 30.0833 26.4779 30.0833 26.3286C30.0833 26.1793 29.778 26.0571 29.4049 26.0571C29.0315 26.0571 28.5565 25.8826 28.3493 25.6693C27.9208 25.2287 27.8355 23.8857 28.2361 23.8857C28.3813 23.8857 28.5 23.6414 28.5 23.3429C28.5 22.981 28.676 22.8 29.0278 22.8C29.3181 22.8 29.5556 22.6779 29.5556 22.5286C29.5556 22.3777 30.2593 22.2571 31.1389 22.2571C32.0184 22.2571 32.7222 22.3777 32.7222 22.5286ZM45.6528 22.8C45.862 23.0986 46.2444 23.3429 46.5028 23.3429C46.7962 23.3429 46.9722 23.5462 46.9722 23.8857C46.9722 24.1843 47.091 24.4286 47.2361 24.4286C47.6758 24.4286 47.572 29.5504 47.1229 30.0121C46.6118 30.5382 46.4444 30.5002 46.4444 29.8571C46.4444 29.5586 46.3257 29.3143 46.1806 29.3143C46.0354 29.3143 45.9167 29.4364 45.9167 29.5857C45.9167 29.7426 45.077 29.8571 43.9256 29.8571C42.1634 29.8571 41.8599 29.7806 41.2867 29.1908C40.9305 28.8244 40.6389 28.3358 40.6389 28.1051C40.6389 27.8744 40.5201 27.6857 40.375 27.6857C40.2283 27.6857 40.1111 26.9618 40.1111 26.0571C40.1111 25.1525 40.2283 24.4286 40.375 24.4286C40.5201 24.4286 40.6389 24.2367 40.6389 24.0022C40.6389 23.4536 41.2743 22.8 41.8077 22.8C42.0357 22.8 42.2222 22.6779 42.2222 22.5286C42.2222 22.379 42.9065 22.2571 43.7472 22.2571C44.9696 22.2571 45.348 22.3649 45.6528 22.8ZM21.1771 24.0282C20.0421 25.2752 20.3284 25.5143 22.9583 25.5143C24.9415 25.5143 25.3333 25.444 25.3333 25.0879C25.3333 24.5393 24.6979 23.8857 24.1646 23.8857C23.9366 23.8857 23.75 23.7636 23.75 23.6143C23.75 23.465 23.3048 23.3505 22.7604 23.3594C22.0703 23.3711 21.5911 23.5733 21.1771 24.0282ZM42.75 23.6143C42.75 23.7636 42.5125 23.8857 42.2222 23.8857C41.8705 23.8857 41.6944 24.0668 41.6944 24.4286C41.6944 24.7271 41.5757 24.9714 41.4306 24.9714C41.2854 24.9714 41.1667 25.5265 41.1667 26.2051C41.1667 27.9756 41.9871 28.7714 43.8124 28.7714C45.2034 28.7714 45.9167 28.364 45.9167 27.5693C45.9167 27.3348 46.0354 27.1429 46.1806 27.1429C46.3257 27.1429 46.4444 26.6543 46.4444 26.0571C46.4444 25.46 46.3257 24.9714 46.1806 24.9714C46.0354 24.9714 45.9167 24.7271 45.9167 24.4286C45.9167 24.0668 45.7407 23.8857 45.3889 23.8857C45.0986 23.8857 44.8611 23.7636 44.8611 23.6143C44.8611 23.465 44.3861 23.3429 43.8056 23.3429C43.225 23.3429 42.75 23.465 42.75 23.6143Z" fill="#575757"/>
</svg>
