<svg width="83" height="33" viewBox="0 0 83 33" fill="none" xmlns="http://www.w3.org/2000/svg">
<path fill-rule="evenodd" clip-rule="evenodd" d="M0 0.634615C0 0.983654 0.144767 1.26923 0.321705 1.26923C0.498643 1.26923 0.643411 1.6976 0.643411 2.22115C0.643411 2.74471 0.788178 3.17308 0.965116 3.17308C1.14205 3.17308 1.28682 3.57003 1.28682 4.05487C1.28682 4.57272 1.55255 5.12547 1.93023 5.39423C2.28411 5.64586 2.57364 6.0409 2.57364 6.2719C2.57364 6.50322 2.92913 7.04264 3.36343 7.47101C4.10174 8.19955 4.3723 8.25 7.5456 8.25C9.59261 8.25 10.938 8.12403 10.938 7.93269C10.938 7.75817 10.7932 7.61538 10.6163 7.61538C10.4393 7.61538 10.2946 7.36122 10.2946 7.05089C10.2946 6.74025 10.005 6.28047 9.65116 6.02885C9.29729 5.77722 9.00775 5.31744 9.00775 5.0068C9.00775 4.69647 8.86298 4.44231 8.68605 4.44231C8.50911 4.44231 8.36434 4.01394 8.36434 3.49038C8.36434 2.96683 8.21957 2.53846 8.04264 2.53846C7.8657 2.53846 7.72093 1.96731 7.72093 1.26923V0H3.86047C0.214577 0 0 0.0352211 0 0.634615ZM9.65116 1.26923C9.65116 1.96731 9.79593 2.53846 9.97287 2.53846C10.1498 2.53846 10.2946 2.96683 10.2946 3.49038C10.2946 4.01394 10.4393 4.44231 10.6163 4.44231C10.7932 4.44231 10.938 4.69647 10.938 5.0068C10.938 5.31744 11.2275 5.77722 11.5814 6.02885C11.9353 6.28047 12.2248 6.67901 12.2248 6.91477C12.2248 8.00345 13.0818 8.25 16.8667 8.25C19.1338 8.25 20.5891 8.12593 20.5891 7.93269C20.5891 7.75817 20.4444 7.61538 20.2674 7.61538C20.0905 7.61538 19.9457 7.36122 19.9457 7.05089C19.9457 6.74025 19.6562 6.28047 19.3023 6.02885C18.9485 5.77722 18.6589 5.31744 18.6589 5.0068C18.6589 4.69647 18.5141 4.44231 18.3372 4.44231C18.1603 4.44231 18.0155 4.01394 18.0155 3.49038C18.0155 2.96683 17.8707 2.53846 17.6938 2.53846C17.5169 2.53846 17.3721 2.17134 17.3721 1.72266C17.3721 0.243692 16.7612 0 13.0519 0H9.65116V1.26923ZM0 13.6442V17.1346H6.6104H13.2211L15.4419 14.9135C16.6634 13.6918 17.855 12.6923 18.0898 12.6923C18.3247 12.6923 18.7255 12.4067 18.9806 12.0577C19.2357 11.7087 19.7846 11.4231 20.2005 11.4231C20.8883 11.4231 21.876 10.7818 21.876 10.335C21.876 10.2354 16.9539 10.1538 10.938 10.1538H0V13.6442ZM29.5969 10.4712C29.5969 10.6457 28.8731 10.7885 27.9884 10.7885C27.1037 10.7885 26.3798 10.9312 26.3798 11.1058C26.3798 11.2803 25.9455 11.4231 25.4147 11.4231C24.8839 11.4231 24.4496 11.5659 24.4496 11.7404C24.4496 11.9149 24.1601 12.0577 23.8062 12.0577C23.4523 12.0577 23.1628 12.2005 23.1628 12.375C23.1628 12.5495 22.8733 12.6923 22.5194 12.6923C22.1655 12.6923 21.876 12.8351 21.876 13.0096C21.876 13.1841 21.5864 13.3269 21.2326 13.3269C20.8787 13.3269 20.5891 13.4697 20.5891 13.6442C20.5891 13.8187 20.3578 13.9615 20.0747 13.9615C19.792 13.9615 19.1547 14.3899 18.6589 14.9135C18.1632 15.437 17.5944 15.8654 17.3953 15.8654C16.9243 15.8654 14.155 18.5968 14.155 19.0613C14.155 19.2577 13.7207 19.8187 13.1899 20.3077C12.6591 20.7967 12.2248 21.4252 12.2248 21.7042C12.2248 21.9834 12.08 22.2115 11.9031 22.2115C11.7262 22.2115 11.5814 22.4971 11.5814 22.8462C11.5814 23.1952 11.4366 23.4808 11.2597 23.4808C11.0828 23.4808 10.938 23.7663 10.938 24.1154C10.938 24.4644 10.7932 24.75 10.6163 24.75C10.4393 24.75 10.2946 25.1784 10.2946 25.7019C10.2946 26.2255 10.1498 26.6538 9.97287 26.6538C9.794 26.6538 9.65116 27.5001 9.65116 28.5577C9.65116 29.6153 9.50833 30.4615 9.32946 30.4615C9.15252 30.4615 9.00775 31.0327 9.00775 31.7308V33H12.5465H16.0853V31.0962C16.0853 30.0386 16.2281 29.1923 16.407 29.1923C16.5839 29.1923 16.7287 28.7639 16.7287 28.2404C16.7287 27.7168 16.8734 27.2885 17.0504 27.2885C17.2273 27.2885 17.3721 27.0029 17.3721 26.6538C17.3721 26.3048 17.5169 26.0192 17.6938 26.0192C17.8707 26.0192 18.0155 25.7337 18.0155 25.3846C18.0155 25.0356 18.1603 24.75 18.3372 24.75C18.5141 24.75 18.6589 24.5326 18.6589 24.2671C18.6589 23.6791 22.0166 20.3077 22.6024 20.3077C22.8324 20.3077 23.2294 20.0221 23.4845 19.6731C23.7396 19.324 24.2058 19.0385 24.5207 19.0385C24.8353 19.0385 25.093 18.8957 25.093 18.7212C25.093 18.5466 25.3826 18.4038 25.7364 18.4038C26.0903 18.4038 26.3798 18.2611 26.3798 18.0865C26.3798 17.912 26.8141 17.7692 27.345 17.7692C27.8758 17.7692 28.3101 17.6264 28.3101 17.4519C28.3101 17.2463 32.2777 17.1346 39.5698 17.1346H50.8295V13.6442V10.1538H40.2132C33.3502 10.1538 29.5969 10.2662 29.5969 10.4712ZM52.1163 10.4712C52.1163 10.6457 52.3437 10.7885 52.6217 10.7885C53.9214 10.7885 54.0465 11.4304 54.0465 18.0865C54.0465 24.7427 53.9214 25.3846 52.6217 25.3846C52.3437 25.3846 52.1163 25.5274 52.1163 25.7019C52.1163 25.9002 54.0465 26.0192 57.2636 26.0192C60.4806 26.0192 62.4109 25.9002 62.4109 25.7019C62.4109 25.5274 62.7776 25.3846 63.2257 25.3846C63.727 25.3846 64.4704 24.9607 65.156 24.2845C66.1352 23.3189 66.2713 22.9883 66.2713 21.5769C66.2713 20.1655 66.1352 19.8349 65.156 18.8693C64.3044 18.0291 63.7723 17.7692 62.904 17.7692C62.279 17.7692 61.7674 17.6264 61.7674 17.4519C61.7674 17.2755 60.9095 17.1346 59.8372 17.1346H57.907V14.2788V11.4231H60.4806C61.982 11.4231 63.0543 11.5554 63.0543 11.7404C63.0543 11.9149 63.3438 12.0577 63.6977 12.0577C64.1265 12.0577 64.3411 12.2693 64.3411 12.6923C64.3411 13.0413 64.4859 13.3269 64.6628 13.3269C64.8397 13.3269 64.9845 13.6125 64.9845 13.9615C64.9845 14.3106 65.1293 14.5962 65.3062 14.5962C65.8174 14.5962 65.6974 11.1289 65.1682 10.6073C64.8014 10.2452 63.4403 10.1538 58.4124 10.1538C54.4293 10.1538 52.1163 10.2703 52.1163 10.4712ZM66.2713 10.4712C66.2713 10.6457 66.4988 10.7885 66.7767 10.7885C67.9069 10.7885 68.2016 11.6039 68.2016 14.7323C68.2016 16.5454 68.3312 17.7692 68.5233 17.7692C68.7002 17.7692 68.845 17.9936 68.845 18.2677C68.845 18.909 69.6196 19.6731 70.2698 19.6731C70.5478 19.6731 70.7752 19.8159 70.7752 19.9904C70.7752 20.1649 71.3543 20.3077 72.062 20.3077C72.7698 20.3077 73.3488 20.1649 73.3488 19.9904C73.3488 19.8159 73.7831 19.6731 74.314 19.6731C74.8448 19.6731 75.2791 19.5303 75.2791 19.3558C75.2791 19.1812 75.7134 19.0385 76.2442 19.0385H77.2093V21.7581C77.2093 24.5568 76.8841 25.3846 75.7845 25.3846C75.5065 25.3846 75.2791 25.5274 75.2791 25.7019C75.2791 25.8958 76.7805 26.0192 79.1395 26.0192C81.4986 26.0192 83 25.8958 83 25.7019C83 25.5274 82.7726 25.3846 82.4946 25.3846C81.1827 25.3846 81.0698 24.7697 81.0698 17.6331V10.7885H82.0349C82.5657 10.7885 83 10.6457 83 10.4712C83 10.2789 81.606 10.1538 79.4612 10.1538C77.5149 10.1538 75.9225 10.2652 75.9225 10.401C75.9225 10.5372 76.212 10.8541 76.5659 11.1058C77.1337 11.5094 77.2093 11.9273 77.2093 14.6663C77.2093 17.5576 77.1656 17.7692 76.5659 17.7692C76.212 17.7692 75.9225 17.912 75.9225 18.0865C75.9225 18.5806 73.0435 18.4654 72.5217 17.9504C72.1888 17.6223 72.062 16.6786 72.062 14.5302C72.062 11.9273 72.1408 11.5072 72.7054 11.1058C73.0593 10.8541 73.3488 10.5372 73.3488 10.401C73.3488 10.2652 71.7564 10.1538 69.8101 10.1538C67.6653 10.1538 66.2713 10.2789 66.2713 10.4712ZM60.9777 19.1828C61.412 19.6112 61.7674 20.1824 61.7674 20.4521C61.7674 20.7218 61.9122 20.9423 62.0891 20.9423C62.2661 20.9423 62.4109 21.3707 62.4109 21.8942C62.4109 22.4178 62.2661 22.8462 62.0891 22.8462C61.9122 22.8462 61.7674 23.0705 61.7674 23.3446C61.7674 24.1411 60.931 24.75 59.8372 24.75C58.2071 24.75 57.907 24.1861 57.907 21.1235V18.4038H59.0474C59.8295 18.4038 60.4362 18.6488 60.9777 19.1828ZM0 22.5288V26.0192H3.72245C7.56555 26.0192 8.36434 25.7774 8.36434 24.6139C8.36434 24.3397 8.50911 24.1154 8.68605 24.1154C8.86298 24.1154 9.00775 23.8298 9.00775 23.4808C9.00775 23.1317 9.15252 22.8462 9.32946 22.8462C9.5064 22.8462 9.65116 22.5606 9.65116 22.2115C9.65116 21.8625 9.79593 21.5769 9.97287 21.5769C10.1498 21.5769 10.2946 21.2913 10.2946 20.9423C10.2946 20.5933 10.4393 20.3077 10.6163 20.3077C10.7932 20.3077 10.938 20.0221 10.938 19.6731C10.938 19.0632 10.7234 19.0385 5.46899 19.0385H0V22.5288ZM28.9535 19.3558C28.9535 19.5303 28.5192 19.6731 27.9884 19.6731C27.4576 19.6731 27.0233 19.8159 27.0233 19.9904C27.0233 20.1649 26.7337 20.3077 26.3798 20.3077C26.026 20.3077 25.7364 20.4505 25.7364 20.625C25.7364 20.7995 25.4787 20.9423 25.1641 20.9423C24.8492 20.9423 24.383 21.2279 24.1279 21.5769C23.8728 21.926 23.4723 22.2115 23.2381 22.2115C22.6857 22.2115 21.2326 23.6448 21.2326 24.1896C21.2326 24.4206 20.943 24.8157 20.5891 25.0673C20.2353 25.3189 19.9457 25.7787 19.9457 26.0894C19.9457 26.3997 19.801 26.6538 19.624 26.6538C19.4471 26.6538 19.3023 26.9394 19.3023 27.2885C19.3023 27.6375 19.1576 27.9231 18.9806 27.9231C18.8037 27.9231 18.6589 28.3514 18.6589 28.875C18.6589 29.3986 18.5141 29.8269 18.3372 29.8269C18.1603 29.8269 18.0155 30.5409 18.0155 31.4135V33H21.2326C24.235 33 24.4496 32.9578 24.4496 32.3654C24.4496 32.0163 24.5944 31.7308 24.7713 31.7308C24.9483 31.7308 25.093 31.3338 25.093 30.849C25.093 30.3311 25.3588 29.7784 25.7364 29.5096C26.0903 29.258 26.3798 28.8595 26.3798 28.6237C26.3798 28.0427 27.1844 27.2885 27.8047 27.2885C28.0826 27.2885 28.3101 27.1457 28.3101 26.9712C28.3101 26.7966 28.5996 26.6538 28.9535 26.6538C29.3074 26.6538 29.5969 26.5111 29.5969 26.3365C29.5969 26.1316 33.3502 26.0192 40.2132 26.0192H50.8295V22.5288V19.0385H39.8915C32.814 19.0385 28.9535 19.1505 28.9535 19.3558Z" fill="#575757"/>
</svg>
