<svg width="117" height="30" viewBox="0 0 117 30" fill="none" xmlns="http://www.w3.org/2000/svg">
<path fill-rule="evenodd" clip-rule="evenodd" d="M24.2399 1.91489C24.2399 2.97862 24.3781 3.82979 24.5511 3.82979C24.7223 3.82979 24.8624 3.55436 24.8624 3.21798C24.8624 2.8816 25.0376 2.52255 25.2514 2.42011C25.5626 2.27138 25.5626 2.1967 25.2514 2.04798C25.0376 1.94553 24.8624 1.44287 24.8624 0.930957C24.8624 0.419043 24.7223 0 24.5511 0C24.3781 0 24.2399 0.85117 24.2399 1.91489ZM26.7297 0.930957C26.7297 1.44287 26.5548 1.94553 26.3407 2.04798C26.0294 2.1967 26.0294 2.27138 26.3407 2.42011C26.5548 2.52255 26.7297 2.8816 26.7297 3.21798C26.7297 3.55436 26.8697 3.82979 27.0409 3.82979C27.2139 3.82979 27.3521 2.97862 27.3521 1.91489C27.3521 0.85117 27.2139 0 27.0409 0C26.8697 0 26.7297 0.419043 26.7297 0.930957ZM28.986 0.477447C28.7722 0.726702 28.597 1.58298 28.597 2.38021C28.597 3.59617 28.6932 3.82979 29.1936 3.82979C29.5216 3.82979 29.8717 4.00915 29.9716 4.22872C30.1167 4.54787 30.1895 4.54787 30.3345 4.22872C30.4344 4.00915 30.7846 3.82979 31.1126 3.82979C31.4932 3.82979 31.7092 3.6083 31.7092 3.21798C31.7092 2.8816 31.8844 2.52255 32.0982 2.42011C32.4094 2.27138 32.4094 2.1967 32.0982 2.04798C31.8844 1.94553 31.7092 1.64808 31.7092 1.3867C31.7092 0.176808 29.7933 -0.463085 28.986 0.477447ZM32.9541 0.820532C32.9541 1.74415 33.5977 2.55319 34.3325 2.55319C34.6138 2.55319 34.8214 2.82383 34.8214 3.19149C34.8214 3.61691 34.6138 3.82979 34.1989 3.82979C33.8566 3.82979 33.5765 3.9734 33.5765 4.14894C33.5765 4.62287 34.4893 4.53511 34.9991 4.01202C35.6125 3.38298 35.5814 1.91489 34.9549 1.91489C34.4831 1.91489 33.5765 1.19521 33.5765 0.820532C33.5765 0.720319 33.9966 0.638298 34.5102 0.638298C35.0237 0.638298 35.4438 0.494681 35.4438 0.319149C35.4438 0.143617 34.8836 0 34.1989 0C33.0692 0 32.9541 0.0759575 32.9541 0.820532ZM36.6887 1.91489C36.6887 2.97862 36.8269 3.82979 36.9999 3.82979C37.1711 3.82979 37.3111 3.54255 37.3111 3.19149C37.3111 2.76606 37.5187 2.55319 37.9336 2.55319C38.2759 2.55319 38.556 2.40957 38.556 2.23404C38.556 2.05851 38.8361 1.91489 39.1784 1.91489C39.537 1.91489 39.8009 1.70202 39.8009 1.41351C39.8009 0.581809 38.9771 0 37.8001 0H36.6887V1.91489ZM40.4233 0.319149C40.4233 0.494681 40.5634 0.638298 40.7345 0.638298C40.9057 0.638298 41.0458 1.21277 41.0458 1.91489C41.0458 2.61702 40.9057 3.19149 40.7345 3.19149C40.5634 3.19149 40.4233 3.33511 40.4233 3.51064C40.4233 3.68617 40.7034 3.82979 41.0458 3.82979C41.5851 3.82979 41.6682 3.61691 41.6682 2.23404C41.6682 1.35638 41.8082 0.638298 41.9794 0.638298C42.1506 0.638298 42.2906 0.494681 42.2906 0.319149C42.2906 0.143617 41.8705 0 41.357 0C40.8435 0 40.4233 0.143617 40.4233 0.319149ZM43.5355 0.319149C43.5355 0.494681 43.6756 0.638298 43.8467 0.638298C44.0179 0.638298 44.158 1.35638 44.158 2.23404C44.158 3.1117 44.298 3.82979 44.4692 3.82979C44.6403 3.82979 44.7804 3.1117 44.7804 2.23404C44.7804 0.85117 44.8635 0.638298 45.4028 0.638298C45.7452 0.638298 46.0253 0.494681 46.0253 0.319149C46.0253 0.143617 45.4651 0 44.7804 0C44.0957 0 43.5355 0.143617 43.5355 0.319149ZM47.2701 0.638298C47.2701 0.989362 47.1301 1.2766 46.9589 1.2766C46.7878 1.2766 46.6477 1.69564 46.6477 2.20755C46.6477 2.71947 46.4728 3.20234 46.2587 3.28085C46.0449 3.35904 45.968 3.5317 46.0881 3.66447C46.4501 4.06372 47.2701 2.97638 47.2701 2.09713C47.2701 1.64585 47.4102 1.2766 47.5814 1.2766C47.7525 1.2766 47.8926 1.56383 47.8926 1.91489C47.8926 2.26596 48.0326 2.55319 48.2038 2.55319C48.375 2.55319 48.515 2.84043 48.515 3.19149C48.515 3.61691 48.7226 3.82979 49.1375 3.82979C49.4798 3.82979 49.7599 3.68617 49.7599 3.51064C49.7599 3.33511 49.6198 3.19149 49.4487 3.19149C49.2775 3.19149 49.1375 2.90426 49.1375 2.55319C49.1375 2.20213 48.9974 1.91489 48.8262 1.91489C48.6551 1.91489 48.515 1.48404 48.515 0.957447C48.515 0.212872 48.3768 0 47.8926 0C47.4777 0 47.2701 0.212872 47.2701 0.638298ZM50.7714 0.477447C50.5575 0.726702 50.3823 1.58298 50.3823 2.38021C50.3823 3.61691 50.4738 3.82979 51.0048 3.82979C51.5581 3.82979 51.6272 3.61691 51.6272 1.91489C51.6272 -0.0405319 51.4588 -0.323298 50.7714 0.477447ZM31.0867 1.77798C31.0867 2.40511 30.8767 3.1334 30.6199 3.3967C30.2051 3.82213 30.1011 3.82213 29.6863 3.3967C29.4295 3.1334 29.2194 2.40511 29.2194 1.77798C29.2194 0.724468 29.2901 0.638298 30.1531 0.638298C31.0161 0.638298 31.0867 0.724468 31.0867 1.77798ZM38.556 1.2766C38.556 1.70202 38.3484 1.91489 37.9336 1.91489C37.5187 1.91489 37.3111 1.70202 37.3111 1.2766C37.3111 0.85117 37.5187 0.638298 37.9336 0.638298C38.3484 0.638298 38.556 0.85117 38.556 1.2766ZM52.2496 4.14894C52.2496 4.32447 52.3897 4.46808 52.5609 4.46808C52.732 4.46808 52.8721 4.32447 52.8721 4.14894C52.8721 3.9734 52.732 3.82979 52.5609 3.82979C52.3897 3.82979 52.2496 3.9734 52.2496 4.14894ZM90.6074 4.95957C90.0509 5.55702 89.5959 6.26521 89.5959 6.53362C89.5959 6.91245 89.211 7.02128 87.8702 7.02128C86.4137 7.02128 86.0141 7.15468 85.3114 7.87532C84.7789 8.42138 84.6155 8.77628 84.8586 8.85926C85.0677 8.93075 85.2389 9.26457 85.2389 9.60096C85.2389 10.0679 85.4598 10.2128 86.1725 10.2128C87.2892 10.2128 87.4597 11.0872 86.4838 11.8085C86.1414 12.0616 85.8613 12.4924 85.8613 12.766C85.8613 13.0395 85.5812 13.4703 85.2389 13.7234C84.8965 13.9765 84.6164 14.4073 84.6164 14.6809C84.6164 14.9544 84.3363 15.3852 83.994 15.6383C83.6517 15.8914 83.3716 16.3538 83.3716 16.6663C83.3716 16.9784 83.2315 17.234 83.0603 17.234C82.8892 17.234 82.7491 17.5213 82.7491 17.8723C82.7491 18.2234 82.6091 18.5106 82.4379 18.5106C81.8674 18.5106 82.1173 19.4872 82.8907 20.2803C83.6317 21.0405 83.7902 21.0638 88.1814 21.0638C92.4352 21.0638 92.7081 21.0268 92.7081 20.452C92.7081 20.1156 92.8793 19.7818 93.0884 19.7103C93.3315 19.6273 93.1681 19.2724 92.6356 18.7264C91.9329 18.0057 91.5333 17.8723 90.0768 17.8723H88.3511V16.5957C88.3511 15.8936 88.211 15.3191 88.0399 15.3191C87.5624 15.3191 87.6704 13.0991 88.1734 12.5837C88.4177 12.3329 88.8378 12.1277 89.107 12.1277C89.3759 12.1277 89.5959 11.984 89.5959 11.8085C89.5959 11.347 90.7649 11.4153 90.9177 11.8854C91.0892 12.4127 92.0857 11.4134 92.0857 10.7141C92.0857 10.2935 92.5631 10.2128 95.0563 10.2128C97.8103 10.2128 98.0838 10.1544 98.8052 9.41489L99.5833 8.61702L98.8052 7.81915C98.1339 7.13074 97.748 7.02128 95.99 7.02128C94.8394 7.02128 93.953 6.88245 93.953 6.70213C93.953 6.5266 94.0931 6.38298 94.2642 6.38298C94.4354 6.38298 94.5755 6.01372 94.5755 5.56245C94.5755 3.54957 92.2497 3.1966 90.6074 4.95957ZM21.7502 7.34043C21.7502 7.51596 21.33 7.65957 20.8165 7.65957C20.303 7.65957 19.8829 7.80319 19.8829 7.97872C19.8829 8.15425 19.6336 8.29787 19.3292 8.29787C19.0245 8.29787 18.5736 8.58511 18.3268 8.93617C18.08 9.28723 17.629 9.57447 17.3243 9.57447C17.02 9.57447 16.7707 9.71809 16.7707 9.89362C16.7707 10.0691 16.5214 10.2128 16.217 10.2128C15.9123 10.2128 15.4614 10.5 15.2146 10.8511C14.9678 11.2021 14.5728 11.4894 14.3369 11.4894C14.1013 11.4894 13.5156 11.9202 13.036 12.4468C12.5565 12.9734 11.9963 13.4043 11.7912 13.4043C11.5861 13.4043 11.0259 13.8351 10.5463 14.3617C10.0667 14.8883 9.51771 15.3191 9.32631 15.3191C9.13522 15.3191 8.07085 16.2501 6.96135 17.3876C4.91042 19.4911 4.54692 20.3828 5.38907 21.2461C6.19295 22.0707 7.11727 21.7503 8.67897 20.1064C9.51273 19.2287 10.3829 18.5106 10.6129 18.5106C10.8432 18.5106 11.2331 18.2234 11.4799 17.8723C11.7267 17.5213 12.1777 17.234 12.4824 17.234C12.7868 17.234 13.036 17.0904 13.036 16.9149C13.036 16.7394 13.5962 16.5957 14.2809 16.5957C14.9656 16.5957 15.5258 16.4521 15.5258 16.2766C15.5258 15.7541 20.1602 15.877 20.683 16.4135C21.1931 16.9363 21.2787 17.8723 20.8165 17.8723C20.6453 17.8723 20.5053 18.5904 20.5053 19.4681C20.5053 20.851 20.5884 21.0638 21.1277 21.0638C21.4701 21.0638 21.7502 21.2074 21.7502 21.383C21.7502 21.968 22.7025 21.7117 23.4759 20.9186C23.896 20.4878 24.2399 19.9133 24.2399 19.642C24.2399 19.3707 24.38 19.1489 24.5511 19.1489C24.7223 19.1489 24.8624 18.7181 24.8624 18.1915C24.8624 17.6649 25.0024 17.234 25.1736 17.234C25.3448 17.234 25.4848 16.8032 25.4848 16.2766C25.4848 15.75 25.6249 15.3191 25.796 15.3191C25.9846 15.3191 26.1072 13.9363 26.1072 11.8085C26.1072 9.68074 25.9846 8.29787 25.796 8.29787C25.6249 8.29787 25.4848 8.01064 25.4848 7.65957C25.4848 7.09213 25.2772 7.02128 23.6175 7.02128C22.5802 7.02128 21.7502 7.16298 21.7502 7.34043ZM35.4438 7.34043C35.4438 7.51596 34.8836 7.65957 34.1989 7.65957C33.5143 7.65957 32.9541 7.80319 32.9541 7.97872C32.9541 8.15425 32.6002 8.29787 32.1679 8.29787C30.9794 8.29787 28.597 10.8626 28.597 12.142C28.597 13.3455 29.2166 14.0426 30.2866 14.0426C30.7267 14.0426 31.0867 14.1862 31.0867 14.3617C31.0867 14.5478 32.124 14.6809 33.5765 14.6809C35.029 14.6809 36.0663 14.8139 36.0663 15C36.0663 15.1755 36.6264 15.3191 37.3111 15.3191C38.2264 15.3191 38.556 15.4497 38.556 15.8122C38.556 16.5878 37.1095 17.8723 36.2359 17.8723C35.8002 17.8723 35.4438 18.016 35.4438 18.1915C35.4438 18.3897 33.7246 18.5106 30.909 18.5106C26.3385 18.5106 25.4848 18.7114 25.4848 19.7872C25.4848 20.8889 26.313 21.0638 31.5315 21.0638C34.7622 21.0638 36.6887 20.9445 36.6887 20.7447C36.6887 20.5691 37.1088 20.4255 37.6223 20.4255C38.1359 20.4255 38.556 20.2819 38.556 20.1064C38.556 19.9309 38.9453 19.7872 39.4209 19.7872C39.9288 19.7872 40.4709 19.5236 40.7345 19.1489C40.9813 18.7979 41.3722 18.5106 41.6035 18.5106C42.1453 18.5106 42.9131 17.7233 42.9131 17.1677C42.9131 16.9305 43.1932 16.5297 43.5355 16.2766C43.8779 16.0235 44.158 15.4826 44.158 15.0747C44.158 14.0891 42.8284 12.766 41.8378 12.766C41.4021 12.766 41.0458 12.6223 41.0458 12.4468C41.0458 12.2607 40.0085 12.1277 38.556 12.1277C37.1035 12.1277 36.0663 11.9946 36.0663 11.8085C36.0663 11.633 35.6461 11.4894 35.1326 11.4894C34.4065 11.4894 34.1989 11.3477 34.1989 10.8511C34.1989 10.2386 34.4065 10.2128 39.3481 10.2128C44.4259 10.2128 44.5084 10.2016 45.2755 9.41489L46.0536 8.61702L45.2755 7.81915C44.5168 7.04106 44.3842 7.02128 39.9705 7.02128C37.1602 7.02128 35.4438 7.14223 35.4438 7.34043ZM52.8721 7.34043C52.8721 7.51596 52.1718 7.65957 51.316 7.65957C50.4601 7.65957 49.7599 7.80319 49.7599 7.97872C49.7599 8.15425 49.5461 8.29787 49.285 8.29787C48.6818 8.29787 46.0253 11.0004 46.0253 11.6138C46.0253 11.8672 45.8541 12.1331 45.645 12.2046C45.1495 12.3737 46.7529 14.0426 47.4117 14.0426C47.6763 14.0426 47.8926 14.1862 47.8926 14.3617C47.8926 14.551 49.0338 14.6809 50.6936 14.6809C52.3533 14.6809 53.4945 14.8107 53.4945 15C53.4945 15.1755 54.0547 15.3191 54.7394 15.3191C56.2239 15.3191 56.3814 15.8984 55.2202 17.0888C54.6965 17.626 54.1095 17.8723 53.3529 17.8723C52.746 17.8723 52.2496 18.016 52.2496 18.1915C52.2496 18.39 50.486 18.5106 47.5814 18.5106H42.9131V19.7872V21.0638H48.515C52.0421 21.0638 54.117 20.9457 54.117 20.7447C54.117 20.5691 54.5371 20.4255 55.0506 20.4255C55.5641 20.4255 55.9843 20.2819 55.9843 20.1064C55.9843 19.9309 56.2644 19.7872 56.6067 19.7872C56.9491 19.7872 57.2292 19.6436 57.2292 19.4681C57.2292 19.2926 57.443 19.1489 57.7041 19.1489C58.3218 19.1489 60.9638 16.4397 60.9638 15.8062C60.9638 15.5384 61.1038 15.3191 61.275 15.3191C61.8455 15.3191 61.5956 14.3426 60.8222 13.5495C60.402 13.1186 59.7018 12.766 59.2661 12.766C58.8304 12.766 58.474 12.6223 58.474 12.4468C58.474 12.2607 57.4367 12.1277 55.9843 12.1277C54.5318 12.1277 53.4945 11.9946 53.4945 11.8085C53.4945 11.633 52.9343 11.4894 52.2496 11.4894C50.8962 11.4894 50.7726 11.3627 51.4495 10.6688C51.7981 10.3111 52.9788 10.2128 56.9179 10.2128C62.2765 10.2128 62.8311 10.0631 62.8311 8.61702C62.8311 7.19425 62.2432 7.02128 57.4069 7.02128C54.5913 7.02128 52.8721 7.14223 52.8721 7.34043ZM68.433 7.34043C68.433 7.51596 68.1529 7.65957 67.8106 7.65957C67.4213 7.65957 67.1882 7.87245 67.1882 8.22734C67.1882 8.53979 66.9081 9.00223 66.5657 9.25532C66.2234 9.5084 65.9433 9.93925 65.9433 10.2128C65.9433 10.4863 65.6632 10.9171 65.3209 11.1702C64.9785 11.4233 64.6984 11.8541 64.6984 12.1277C64.6984 12.4012 64.4183 12.832 64.076 13.0851C63.7336 13.3382 63.4535 13.769 63.4535 14.0426C63.4535 14.3161 63.1734 14.7469 62.8311 15C62.4888 15.2531 62.2087 15.7155 62.2087 16.028C62.2087 16.3401 62.0686 16.5957 61.8974 16.5957C61.7263 16.5957 61.5862 17.2484 61.5862 18.0463C61.5862 19.1611 61.763 19.6784 62.3503 20.2803C63.0729 21.0217 63.3073 21.0638 66.7073 21.0638C68.8952 21.0638 70.3004 20.939 70.3004 20.7447C70.3004 20.5691 70.709 20.4255 71.2082 20.4255C71.7074 20.4255 72.1786 20.2458 72.2554 20.0266C72.35 19.756 72.5956 19.8587 73.0182 20.3457C73.4947 20.895 73.9799 21.0638 75.0829 21.0638C75.8758 21.0638 76.5247 20.9202 76.5247 20.7447C76.5247 20.5691 76.8048 20.4255 77.1472 20.4255C77.5365 20.4255 77.7696 20.2127 77.7696 19.8578C77.7696 19.5453 78.0497 19.0829 78.3921 18.8298C78.7344 18.5767 79.0145 18.1459 79.0145 17.8723C79.0145 17.5988 79.2946 17.168 79.6369 16.9149C79.9793 16.6618 80.2594 16.1994 80.2594 15.8869C80.2594 15.5748 80.3994 15.3191 80.5706 15.3191C80.7418 15.3191 80.8818 15.0635 80.8818 14.7514C80.8818 14.4389 81.1619 13.9765 81.5042 13.7234C81.8466 13.4703 82.1267 13.0395 82.1267 12.766C82.1267 12.4924 82.4068 12.0616 82.7491 11.8085C83.0915 11.5554 83.3716 11.093 83.3716 10.7805C83.3716 10.4684 83.5116 10.2128 83.6828 10.2128C84.1602 10.2128 84.0522 7.99277 83.5493 7.47734C82.8434 6.75319 81.2662 6.91723 80.401 7.80479C79.9808 8.23564 79.6369 8.77819 79.6369 9.01085C79.6369 9.24319 79.3568 9.64053 79.0145 9.89362C78.6721 10.1467 78.3921 10.5776 78.3921 10.8511C78.3921 11.1246 78.112 11.5554 77.7696 11.8085C77.4273 12.0616 77.1472 12.524 77.1472 12.8365C77.1472 13.1486 77.0071 13.4043 76.836 13.4043C76.6648 13.4043 76.5247 13.6235 76.5247 13.8913C76.5247 14.5248 73.8828 17.234 73.265 17.234C73.0039 17.234 72.7901 17.3777 72.7901 17.5532C72.7901 17.7287 72.37 17.8723 71.8565 17.8723C71.3429 17.8723 70.9228 18.016 70.9228 18.1915C70.9228 18.367 70.2864 18.5106 69.5083 18.5106C68.3895 18.5106 67.9192 18.3319 67.2607 17.6566C66.7282 17.1105 66.5648 16.7556 66.8079 16.6727C67.017 16.6012 67.1882 16.2989 67.1882 16.0012C67.1882 15.7037 67.4683 15.2531 67.8106 15C68.1529 14.7469 68.433 14.3161 68.433 14.0426C68.433 13.769 68.7131 13.3382 69.0555 13.0851C69.3978 12.832 69.6779 12.3696 69.6779 12.0571C69.6779 11.745 69.818 11.4894 69.9891 11.4894C70.1603 11.4894 70.3004 11.2021 70.3004 10.8511C70.3004 10.5 70.4404 10.2128 70.6116 10.2128C71.089 10.2128 70.981 7.99277 70.4781 7.47734C69.973 6.95904 68.433 6.85596 68.433 7.34043ZM102.434 7.49872C101.914 8.10383 101.941 9.19436 102.489 9.7567C102.831 10.1071 103.912 10.2128 107.158 10.2128C110.79 10.2128 111.381 10.283 111.381 10.7141C111.381 11.8845 110.609 12.1277 106.891 12.1277C104.698 12.1277 103.29 12.2524 103.29 12.4468C103.29 12.6223 102.729 12.766 102.045 12.766C101.36 12.766 100.8 12.9096 100.8 13.0851C100.8 13.2606 100.38 13.4043 99.8662 13.4043C99.3527 13.4043 98.9325 13.5479 98.9325 13.7234C98.9325 13.8989 98.6524 14.0426 98.3101 14.0426C97.9677 14.0426 97.6876 14.1862 97.6876 14.3617C97.6876 14.5372 97.4729 14.6809 97.2105 14.6809C96.5909 14.6809 94.5755 16.7477 94.5755 17.3831C94.5755 17.6521 94.4354 17.8723 94.2642 17.8723C93.7918 17.8723 93.8923 19.4515 94.3977 19.9695C94.6421 20.2203 95.0622 20.4255 95.3314 20.4255C95.6003 20.4255 95.8203 20.5691 95.8203 20.7447C95.8203 20.941 97.3764 21.0638 99.8662 21.0638C102.356 21.0638 103.912 20.941 103.912 20.7447C103.912 20.5691 104.321 20.4255 104.82 20.4255C105.319 20.4255 105.79 20.2458 105.867 20.0266C105.962 19.756 106.207 19.8587 106.63 20.3457C107.525 21.3776 109.58 21.344 110.617 20.2803C111.037 19.8495 111.381 19.3069 111.381 19.0743C111.381 18.8419 111.661 18.4446 112.004 18.1915C112.346 17.9384 112.626 17.5076 112.626 17.234C112.626 16.9605 112.906 16.5297 113.249 16.2766C113.591 16.0235 113.871 15.5927 113.871 15.3191C113.871 15.0456 114.151 14.6148 114.493 14.3617C114.836 14.1086 115.116 13.6462 115.116 13.3337C115.116 13.0216 115.256 12.766 115.427 12.766C115.598 12.766 115.738 12.5103 115.738 12.1982C115.738 11.8857 116.018 11.4233 116.361 11.1702C117.54 10.2989 116.971 7.65957 115.605 7.65957C115.336 7.65957 115.116 7.51596 115.116 7.34043C115.116 7.13808 112.867 7.02574 108.969 7.0334C104.061 7.04298 102.744 7.13681 102.434 7.49872ZM22.3726 10.2128C22.3726 10.5638 22.5127 10.8511 22.6838 10.8511C23.1563 10.8511 23.0557 12.4302 22.5503 12.9482C22.2344 13.2724 21.3353 13.4043 19.4381 13.4043C17.8674 13.4043 16.7707 13.5354 16.7707 13.7234C16.7707 13.8989 16.4906 14.0426 16.1482 14.0426C15.8059 14.0426 15.5258 13.9605 15.5258 13.8603C15.5258 13.4856 16.4324 12.766 16.9042 12.766C17.1731 12.766 17.3931 12.6223 17.3931 12.4468C17.3931 12.2713 17.6424 12.1277 17.9468 12.1277C18.2514 12.1277 18.7024 11.8404 18.9492 11.4894C19.196 11.1383 19.6161 10.8511 19.8829 10.8511C20.1496 10.8511 20.5697 10.5638 20.8165 10.2128C21.0633 9.8617 21.5143 9.57447 21.819 9.57447C22.165 9.57447 22.3726 9.81351 22.3726 10.2128ZM88.7401 13.2434C88.5263 13.4927 88.3511 13.8527 88.3511 14.0435C88.3511 14.4948 89.7783 15.9574 90.2184 15.9574C90.6634 15.9574 92.0857 14.4926 92.0857 14.0343C92.0857 12.8907 89.5561 12.2927 88.7401 13.2434ZM109.514 14.8487C109.514 15.2483 106.685 17.8723 106.254 17.8723C105.993 17.8723 105.779 18.016 105.779 18.1915C105.779 18.383 104.534 18.5106 102.667 18.5106H99.555V17.6901C99.555 16.7665 100.199 15.9574 100.933 15.9574C101.202 15.9574 101.422 15.8138 101.422 15.6383C101.422 15.4628 101.842 15.3191 102.356 15.3191C102.869 15.3191 103.29 15.1755 103.29 15C103.29 14.8085 104.534 14.6809 106.402 14.6809C108.113 14.6809 109.514 14.7565 109.514 14.8487ZM0.665079 26.3378C-0.241814 27.3313 -0.221896 28.2418 0.728879 29.2165L1.49261 30H16.6011H31.7092V28.222C31.7092 27.1063 31.5436 26.2739 31.2645 25.988C30.8913 25.605 28.4597 25.5351 16.0925 25.5514L1.36532 25.5709L0.665079 26.3378ZM34.588 26.0094C34.3742 26.2586 34.1989 26.9713 34.1989 27.593C34.1989 28.2147 34.0589 28.7234 33.8877 28.7234C33.7165 28.7234 33.5765 28.867 33.5765 29.0426C33.5765 29.2181 33.8566 29.3617 34.1989 29.3617C34.6138 29.3617 34.8214 29.1488 34.8214 28.7234C34.8214 28.3723 34.9614 28.0851 35.1326 28.0851C35.3038 28.0851 35.4438 28.3723 35.4438 28.7234C35.4438 29.1488 35.6514 29.3617 36.0663 29.3617C36.4086 29.3617 36.6887 29.2181 36.6887 29.0426C36.6887 28.867 36.5486 28.7234 36.3775 28.7234C36.2063 28.7234 36.0663 28.4362 36.0663 28.0851C36.0663 27.734 36.2063 27.4468 36.3775 27.4468C36.5486 27.4468 36.6887 27.1596 36.6887 26.8085C36.6887 26.3831 36.4811 26.1702 36.0663 26.1702C35.7239 26.1702 35.4438 26.0266 35.4438 25.8511C35.4438 25.4017 35.0464 25.4751 34.588 26.0094ZM41.3701 26.0805C41.0349 26.4673 41.0146 26.6384 41.2922 26.7332C41.7429 26.8873 41.8026 28.7234 41.357 28.7234C41.1858 28.7234 41.0458 29.0106 41.0458 29.3617C41.0458 29.7871 41.2533 30 41.6682 30C42.2315 30 42.2906 29.7871 42.2906 27.766C42.2906 25.4566 42.1434 25.1869 41.3701 26.0805ZM44.158 25.8511C44.158 26.0266 43.8779 26.1702 43.5355 26.1702C43.177 26.1702 42.9131 26.3831 42.9131 26.6716C42.9131 27.3166 43.6625 28.0851 44.2915 28.0851C44.5728 28.0851 44.7804 28.3557 44.7804 28.7234C44.7804 29.1488 44.5728 29.3617 44.158 29.3617C43.8156 29.3617 43.5355 29.5053 43.5355 29.6809C43.5355 30.1548 44.4483 30.067 44.9581 29.5439C45.5743 28.9123 45.5139 28.3082 44.7804 27.766C44.1374 27.2907 43.9189 26.1702 44.4692 26.1702C44.6403 26.1702 44.7804 26.0266 44.7804 25.8511C44.7804 25.6755 44.6403 25.5319 44.4692 25.5319C44.298 25.5319 44.158 25.6755 44.158 25.8511ZM52.9499 26.3378C52.0109 27.3664 51.9596 29.3617 52.8721 29.3617C53.2144 29.3617 53.4945 29.5053 53.4945 29.6809C53.4945 29.8564 53.7146 30 53.9834 30C54.5536 30 55.3618 29.2513 55.3618 28.7234C55.3618 28.3468 54.6096 27.4468 54.2947 27.4468C54.1969 27.4468 54.117 27.8777 54.117 28.4043C54.117 29.475 53.9648 29.5704 53.3168 28.9056C52.4267 27.9932 53.0489 26.1702 54.2505 26.1702C54.5194 26.1702 54.7394 26.0266 54.7394 25.8511C54.7394 25.2667 53.6598 25.5606 52.9499 26.3378ZM62.2087 27.766C62.2087 29.0426 62.3422 30 62.5199 30C62.6911 30 62.8311 29.5813 62.8311 29.069C62.8311 28.5571 63.0063 28.0545 63.2201 27.952C63.5313 27.8033 63.5313 27.7286 63.2201 27.5799C62.5712 27.2694 62.7533 26.1702 63.4535 26.1702C63.7959 26.1702 64.076 26.0266 64.076 25.8511C64.076 25.6755 63.6558 25.5319 63.1423 25.5319H62.2087V27.766ZM70.9228 25.8511C70.9228 26.0266 71.0628 26.1702 71.234 26.1702C71.4052 26.1702 71.5452 26.8883 71.5452 27.766C71.5452 28.6436 71.6853 29.3617 71.8565 29.3617C72.0276 29.3617 72.1677 28.7872 72.1677 28.0851C72.1677 27.383 72.3077 26.8085 72.4789 26.8085C72.6501 26.8085 72.7901 26.6649 72.7901 26.4894C72.7901 26.3138 72.51 26.1702 72.1677 26.1702C71.8253 26.1702 71.5452 26.0266 71.5452 25.8511C71.5452 25.6755 71.4052 25.5319 71.234 25.5319C71.0628 25.5319 70.9228 25.6755 70.9228 25.8511ZM80.026 26.0094C79.8121 26.2586 79.6369 26.6224 79.6369 26.8178C79.6369 27.3377 80.4498 28.0851 81.0153 28.0851C81.2967 28.0851 81.5042 28.3557 81.5042 28.7234C81.5042 29.22 81.2967 29.3617 80.5706 29.3617C80.0571 29.3617 79.6369 29.5053 79.6369 29.6809C79.6369 29.8564 79.997 30 80.4371 30C81.2702 30 82.1267 29.3531 82.1267 28.7234C82.1267 28.1955 81.3185 27.4468 80.7483 27.4468C80.467 27.4468 80.2594 27.1762 80.2594 26.8085C80.2594 26.3831 80.467 26.1702 80.8818 26.1702C81.2242 26.1702 81.5042 26.0266 81.5042 25.8511C81.5042 25.3774 80.4738 25.4876 80.026 26.0094ZM82.7491 25.8511C82.7491 26.0266 82.8892 26.1702 83.0603 26.1702C83.2315 26.1702 83.3716 26.8883 83.3716 27.766C83.3716 28.6436 83.5116 29.3617 83.6828 29.3617C83.854 29.3617 83.994 28.7872 83.994 28.0851C83.994 27.383 84.1341 26.8085 84.3052 26.8085C84.4764 26.8085 84.6164 26.6649 84.6164 26.4894C84.6164 26.3138 84.3363 26.1702 83.994 26.1702C83.6517 26.1702 83.3716 26.0266 83.3716 25.8511C83.3716 25.6755 83.2315 25.5319 83.0603 25.5319C82.8892 25.5319 82.7491 25.6755 82.7491 25.8511ZM93.0972 26.0094C92.2049 27.0485 92.8379 30 93.953 30C94.4678 30 95.1979 29.1712 95.1979 28.5865C95.1979 28.3107 95.3379 28.0851 95.5091 28.0851C96.0796 28.0851 95.8297 27.1085 95.0563 26.3154C94.1945 25.4314 93.6645 25.3487 93.0972 26.0094ZM99.944 26.0094C99.7302 26.2586 99.555 27.1149 99.555 27.9121C99.555 29.1488 99.6465 29.3617 100.177 29.3617C100.52 29.3617 100.8 29.2181 100.8 29.0426C100.8 28.867 100.66 28.7234 100.489 28.7234C100.317 28.7234 100.177 28.5798 100.177 28.4043C100.177 28.2287 100.457 28.0851 100.8 28.0851C101.158 28.0851 101.422 28.298 101.422 28.5865C101.422 29.0703 102.124 30 102.489 30C102.587 30 102.667 29.7128 102.667 29.3617C102.667 29.0106 102.527 28.7234 102.356 28.7234C101.91 28.7234 101.971 27.5253 102.425 27.3699C102.89 27.211 101.332 25.5262 100.736 25.544C100.514 25.5507 100.158 25.7601 99.944 26.0094ZM103.679 26.0094C103.149 26.626 103.186 28.9822 103.734 29.5439C104.359 30.1851 104.761 30.1159 105.638 29.2165C106.411 28.4234 106.661 27.4468 106.091 27.4468C105.919 27.4468 105.779 27.2212 105.779 26.9454C105.779 26.3288 105.036 25.5278 104.479 25.544C104.253 25.5507 103.893 25.7601 103.679 26.0094ZM107.647 25.8511C107.647 26.0266 107.367 26.1702 107.024 26.1702C106.183 26.1702 106.238 26.3955 107.335 27.4468C108.415 28.4809 108.558 29.3617 107.647 29.3617C107.304 29.3617 107.024 29.5053 107.024 29.6809C107.024 29.8564 107.304 30 107.647 30C107.989 30 108.269 29.8564 108.269 29.6809C108.269 29.5053 108.549 29.3617 108.892 29.3617C109.25 29.3617 109.514 29.1488 109.514 28.8603C109.514 28.2153 108.765 27.4468 108.136 27.4468C107.854 27.4468 107.647 27.1762 107.647 26.8085C107.647 26.3831 107.854 26.1702 108.269 26.1702C108.611 26.1702 108.892 26.0266 108.892 25.8511C108.892 25.6755 108.611 25.5319 108.269 25.5319C107.927 25.5319 107.647 25.6755 107.647 25.8511ZM35.6215 26.6263C36.2247 27.2445 36.1811 27.4468 35.4438 27.4468C35.029 27.4468 34.8214 27.2339 34.8214 26.8085C34.8214 26.0524 35.0187 26.0078 35.6215 26.6263ZM37.9336 27.1277C37.9336 27.6543 37.7935 28.0851 37.6223 28.0851C37.4512 28.0851 37.3111 28.3723 37.3111 28.7234C37.3111 29.0745 37.3911 29.3617 37.4888 29.3617C37.8542 29.3617 38.556 28.432 38.556 27.9482C38.556 27.6724 38.6961 27.4468 38.8672 27.4468C39.0384 27.4468 39.1784 27.8777 39.1784 28.4043C39.1784 29.1488 39.3166 29.3617 39.8009 29.3617C40.1432 29.3617 40.4233 29.2181 40.4233 29.0426C40.4233 28.867 40.2833 28.7234 40.1121 28.7234C39.9409 28.7234 39.8009 28.3541 39.8009 27.9029C39.8009 26.9793 39.1573 26.1702 38.4225 26.1702C38.0867 26.1702 37.9336 26.4699 37.9336 27.1277ZM46.6477 28.0851C46.6477 29.1488 46.7859 30 46.9589 30C47.132 30 47.2701 29.1488 47.2701 28.0851C47.2701 27.0214 47.132 26.1702 46.9589 26.1702C46.7859 26.1702 46.6477 27.0214 46.6477 28.0851ZM48.515 27.766C48.515 28.6436 48.6551 29.3617 48.8262 29.3617C48.9974 29.3617 49.1375 28.9309 49.1375 28.4043C49.1375 27.8777 49.2174 27.4468 49.3152 27.4468C49.6805 27.4468 50.3823 28.3765 50.3823 28.8603C50.3823 29.1488 50.6462 29.3617 51.0048 29.3617C51.5441 29.3617 51.6272 29.1488 51.6272 27.766C51.6272 26.8883 51.4872 26.1702 51.316 26.1702C51.1448 26.1702 51.0048 26.6011 51.0048 27.1277C51.0048 27.6543 50.9248 28.0851 50.8271 28.0851C50.4617 28.0851 49.7599 27.1554 49.7599 26.6716C49.7599 26.3831 49.496 26.1702 49.1375 26.1702C48.5981 26.1702 48.515 26.3831 48.515 27.766ZM57.8516 27.766C57.8516 28.6436 57.9916 29.3617 58.1628 29.3617C58.334 29.3617 58.474 29.0745 58.474 28.7234C58.474 28.2268 58.6816 28.0851 59.4077 28.0851C60.1338 28.0851 60.3413 28.2268 60.3413 28.7234C60.3413 29.0745 60.4814 29.3617 60.6526 29.3617C60.8237 29.3617 60.9638 28.6436 60.9638 27.766C60.9638 26.8883 60.8237 26.1702 60.6526 26.1702C60.4814 26.1702 60.3413 26.4574 60.3413 26.8085C60.3413 27.3051 60.1338 27.4468 59.4077 27.4468C58.6816 27.4468 58.474 27.3051 58.474 26.8085C58.474 26.4574 58.334 26.1702 58.1628 26.1702C57.9916 26.1702 57.8516 26.8883 57.8516 27.766ZM65.7099 26.6477C65.4961 26.8969 65.3209 27.3223 65.3209 27.593C65.3209 27.8636 65.1808 28.0851 65.0096 28.0851C64.8385 28.0851 64.6984 28.3723 64.6984 28.7234C64.6984 29.0745 64.7784 29.3617 64.8761 29.3617C65.2415 29.3617 65.9433 28.432 65.9433 27.9482C65.9433 27.6724 66.0833 27.4468 66.2545 27.4468C66.4257 27.4468 66.5657 27.6724 66.5657 27.9482C66.5657 28.5801 67.4552 29.5194 67.7477 29.1964C67.8679 29.0636 67.7913 28.891 67.5772 28.8128C67.3634 28.7343 67.1882 28.313 67.1882 27.8761C67.1882 27.4395 66.9881 26.8768 66.7434 26.6263C66.2081 26.077 66.1994 26.0773 65.7099 26.6477ZM68.433 27.629C68.433 29.1351 68.9357 30 69.8114 30C70.4812 30 70.4248 29.5947 69.6779 29.0426C69.2444 28.7221 69.0555 28.2163 69.0555 27.3763C69.0555 26.7131 68.9154 26.1702 68.7443 26.1702C68.5731 26.1702 68.433 26.8267 68.433 27.629ZM74.035 27.766C74.035 28.6436 74.175 29.3617 74.3462 29.3617C74.5174 29.3617 74.6574 29.0745 74.6574 28.7234C74.6574 28.2268 74.865 28.0851 75.5911 28.0851C76.3172 28.0851 76.5247 28.2268 76.5247 28.7234C76.5247 29.0745 76.6648 29.3617 76.836 29.3617C77.0071 29.3617 77.1472 28.6436 77.1472 27.766C77.1472 26.8883 77.0071 26.1702 76.836 26.1702C76.6648 26.1702 76.5247 26.4574 76.5247 26.8085C76.5247 27.3051 76.3172 27.4468 75.5911 27.4468C74.865 27.4468 74.6574 27.3051 74.6574 26.8085C74.6574 26.4574 74.5174 26.1702 74.3462 26.1702C74.175 26.1702 74.035 26.8883 74.035 27.766ZM85.8613 26.8085C85.8613 27.1596 85.7213 27.4468 85.5501 27.4468C85.3789 27.4468 85.2389 27.8777 85.2389 28.4043C85.2389 28.9309 85.3789 29.3617 85.5501 29.3617C85.7213 29.3617 85.8613 29.2181 85.8613 29.0426C85.8613 28.867 86.1414 28.7234 86.4838 28.7234C86.8261 28.7234 87.1062 28.867 87.1062 29.0426C87.1062 29.2181 87.3863 29.3617 87.7286 29.3617C88.071 29.3617 88.3511 29.2181 88.3511 29.0426C88.3511 28.867 88.211 28.7234 88.0399 28.7234C87.8687 28.7234 87.7286 28.4362 87.7286 28.0851C87.7286 27.3811 87.2385 27.2157 87.0191 27.8457C86.9384 28.0778 86.7648 28.1263 86.6042 27.9616C86.4436 27.7969 86.4909 27.6188 86.7172 27.5362C87.3732 27.2959 87.1809 26.1702 86.4838 26.1702C86.0689 26.1702 85.8613 26.3831 85.8613 26.8085ZM88.9735 27.766C88.9735 28.6436 89.1136 29.3617 89.2847 29.3617C89.4559 29.3617 89.5959 28.943 89.5959 28.4307C89.5959 27.9188 89.7696 27.4407 89.9822 27.368C90.2632 27.2719 90.2268 27.0906 89.849 26.7032C89.0712 25.9056 88.9735 26.024 88.9735 27.766ZM90.8408 26.4894C90.8408 26.6649 91.1209 26.8085 91.4633 26.8085C91.8056 26.8085 92.0857 26.6649 92.0857 26.4894C92.0857 26.3138 91.8056 26.1702 91.4633 26.1702C91.1209 26.1702 90.8408 26.3138 90.8408 26.4894ZM94.5755 26.782C94.5755 27.1184 94.7507 27.4774 94.9645 27.5799C95.2757 27.7286 95.2757 27.8033 94.9645 27.952C94.7507 28.0545 94.5755 28.4135 94.5755 28.7499C94.5755 29.1488 94.3588 29.3617 93.953 29.3617C93.4137 29.3617 93.3306 29.1488 93.3306 27.766C93.3306 26.3831 93.4137 26.1702 93.953 26.1702C94.3588 26.1702 94.5755 26.3831 94.5755 26.782ZM96.8318 26.6477C96.618 26.8969 96.4428 27.4538 96.4428 27.8853C96.4428 28.3171 96.2679 28.7343 96.0537 28.8128C95.8399 28.891 95.7631 29.0636 95.8832 29.1964C96.1757 29.5194 97.0652 28.5801 97.0652 27.9482C97.0652 27.6724 97.2053 27.4468 97.3764 27.4468C97.5476 27.4468 97.6876 27.6724 97.6876 27.9482C97.6876 28.432 98.3894 29.3617 98.7548 29.3617C98.8525 29.3617 98.9325 29.0745 98.9325 28.7234C98.9325 28.3723 98.7925 28.0851 98.6213 28.0851C98.4501 28.0851 98.3101 27.6543 98.3101 27.1277C98.3101 26.0713 97.5411 25.8217 96.8318 26.6477ZM101.422 26.8085C101.422 27.1596 101.282 27.4468 101.111 27.4468C100.94 27.4468 100.8 27.1596 100.8 26.8085C100.8 26.4574 100.94 26.1702 101.111 26.1702C101.282 26.1702 101.422 26.4574 101.422 26.8085ZM104.712 26.6263C104.957 26.8768 105.157 27.3897 105.157 27.766C105.157 28.395 104.511 29.3617 104.09 29.3617C103.992 29.3617 103.912 28.6436 103.912 27.766C103.912 26.0598 104.016 25.912 104.712 26.6263ZM90.2184 27.9482C90.2184 28.432 90.9202 29.3617 91.2856 29.3617C91.6385 29.3617 91.4533 28.3484 91.0185 27.9029C90.444 27.3134 90.2184 27.3262 90.2184 27.9482Z" fill="#575757"/>
</svg>
