<svg width="110" height="11" viewBox="0 0 110 11" fill="none" xmlns="http://www.w3.org/2000/svg">
<path fill-rule="evenodd" clip-rule="evenodd" d="M0 5.5V11H3.02472C5.72758 11 6.09265 10.9414 6.45408 10.45C6.67661 10.1475 7.08321 9.9 7.35793 9.9C7.66997 9.9 7.85714 9.69403 7.85714 9.35C7.85714 9.0475 7.98342 8.8 8.13775 8.8C8.29209 8.8 8.41837 8.35477 8.41837 7.81028C8.41837 7.0653 8.21015 6.63025 7.57653 6.05C6.59158 5.14855 6.52227 4.67142 7.29592 4.125C7.87426 3.71662 8.0951 2.2 7.57653 2.2C7.42219 2.2 7.29592 2.00557 7.29592 1.76797C7.29592 1.2122 6.6202 0.55 6.05309 0.55C5.81064 0.55 5.61224 0.42625 5.61224 0.275C5.61224 0.11 4.4898 0 2.80612 0H0V5.5ZM12.3469 0.275C12.3469 0.42625 12.4732 0.55 12.6276 0.55C12.7819 0.55 12.9082 0.770275 12.9082 1.03922C12.9082 1.30845 13.1607 1.70693 13.4694 1.925C13.7781 2.14307 14.0306 2.51433 14.0306 2.75C14.0306 2.98568 14.2832 3.35693 14.5918 3.575C14.9005 3.79308 15.1531 4.16433 15.1531 4.4C15.1531 4.63567 15.4056 5.00693 15.7143 5.225C16.2096 5.5748 16.2755 5.93698 16.2755 8.31078V11H17.1173H17.9592V8.36028C17.9592 5.78187 17.9788 5.70268 18.801 4.95C19.264 4.52623 19.6429 4.00868 19.6429 3.8005C19.6429 3.59205 19.8954 3.24308 20.2041 3.025C20.5128 2.80693 20.7653 2.43568 20.7653 2.2C20.7653 1.96433 21.0179 1.59308 21.3265 1.375C22.2065 0.7535 22.0528 0 21.0459 0C20.426 0 20.2041 0.128975 20.2041 0.489225C20.2041 0.75845 19.9515 1.15693 19.6429 1.375C19.3342 1.59308 19.0816 1.99155 19.0816 2.26078C19.0816 2.52973 18.9554 2.75 18.801 2.75C18.6467 2.75 18.5204 2.94113 18.5204 3.17488C18.5204 3.57088 17.3312 4.95 16.9897 4.95C16.9055 4.95 16.8367 4.72973 16.8367 4.46078C16.8367 4.19155 16.5842 3.79308 16.2755 3.575C15.9668 3.35693 15.7143 2.98568 15.7143 2.75C15.7143 2.51433 15.4617 2.14307 15.1531 1.925C14.8444 1.70693 14.5918 1.36153 14.5918 1.1572C14.5918 0.952875 14.4114 0.60885 14.1908 0.392975C13.7354 -0.053625 12.3469 -0.14245 12.3469 0.275ZM29.7449 0.275C29.7449 0.42625 29.5521 0.55 29.3167 0.55C29.081 0.55 28.3233 1.10357 27.633 1.78035L26.3776 3.01042V5.56958C26.3776 7.81303 26.4469 8.1774 26.9388 8.525C27.2474 8.74308 27.5 9.14155 27.5 9.41078C27.5 9.71658 27.7102 9.9 28.0612 9.9C28.3699 9.9 28.6224 10.0238 28.6224 10.175C28.6224 10.3263 28.875 10.45 29.1837 10.45C29.4923 10.45 29.7449 10.5738 29.7449 10.725C29.7449 10.8763 30.3763 11 31.148 11C31.9196 11 32.551 10.8763 32.551 10.725C32.551 10.5738 32.746 10.45 32.9846 10.45C33.5461 10.45 34.7959 9.22515 34.7959 8.67488C34.7959 8.44112 34.9222 8.25 35.0765 8.25C35.2309 8.25 35.3571 8.0025 35.3571 7.7C35.3571 6.8288 34.57 7.04908 33.3929 8.25C32.4099 9.25265 32.1873 9.35 30.8766 9.35C29.7241 9.35 29.3021 9.21607 28.7501 8.67488C28.3713 8.30363 28.0612 7.80863 28.0612 7.57488C28.0612 7.34113 27.9349 7.15 27.7806 7.15C27.6246 7.15 27.5 6.41657 27.5 5.5C27.5 4.58343 27.6246 3.85 27.7806 3.85C27.9349 3.85 28.0612 3.65887 28.0612 3.42513C28.0612 3.19138 28.3713 2.69638 28.7501 2.32512C29.3027 1.78338 29.7239 1.65 30.8822 1.65C32.1245 1.65 32.4357 1.76523 33.1122 2.475C33.873 3.27305 35.3571 3.6366 35.3571 3.025C35.3571 2.87375 35.2309 2.75 35.0765 2.75C34.9222 2.75 34.7959 2.55888 34.7959 2.32512C34.7959 1.77485 33.5461 0.55 32.9846 0.55C32.746 0.55 32.551 0.42625 32.551 0.275C32.551 0.12375 31.9196 0 31.148 0C30.3763 0 29.7449 0.12375 29.7449 0.275ZM40.7589 0.4114C40.5075 0.69135 40.4082 2.13455 40.4082 5.50798C40.4082 10.3961 40.5448 11 41.651 11C42.0127 11 42.0918 10.6279 42.0918 8.92513C42.0918 7.07823 42.169 6.77435 42.7934 6.16248L43.4949 5.47498L44.1964 6.16248C44.5823 6.5406 44.898 6.9916 44.898 7.16458C44.898 7.33782 45.2768 7.82623 45.7398 8.25C46.2028 8.67377 46.5816 9.16218 46.5816 9.33542C46.5816 9.91155 47.9493 11 48.6736 11C49.0665 11 49.3878 10.8763 49.3878 10.725C49.3878 10.5738 49.2615 10.45 49.1071 10.45C48.9528 10.45 48.8265 10.2523 48.8265 10.0103C48.8265 9.76855 48.4477 9.22377 47.9847 8.8C47.5217 8.37623 47.1429 7.88123 47.1429 7.7C47.1429 7.51877 46.764 7.02378 46.301 6.6C45.838 6.17623 45.4592 5.63145 45.4592 5.38973C45.4592 5.14773 45.3329 4.95 45.1786 4.95C45.0242 4.95 44.898 4.76108 44.898 4.53035C44.898 4.05185 47.2486 1.65 47.7167 1.65C48.1702 1.65 48.8265 0.9295 48.8265 0.432025C48.8265 0.1529 48.5748 0 48.1143 0C47.5899 0 46.7416 0.65285 44.898 2.475C43.5207 3.83625 42.3261 4.95 42.2428 4.95C42.1597 4.95 42.0918 3.83625 42.0918 2.475C42.0918 0.297275 42.0329 0.001375 41.6008 0.01045C41.3305 0.016225 40.952 0.196625 40.7589 0.4114ZM57.2449 0.275C57.2449 0.42625 56.9923 0.55 56.6837 0.55C56.375 0.55 56.1224 0.67375 56.1224 0.825C56.1224 0.97625 55.9274 1.1 55.6889 1.1C55.007 1.1 53.8775 2.3782 53.8775 3.15013C53.8775 3.53513 53.7513 3.85 53.5969 3.85C53.4409 3.85 53.3163 4.58343 53.3163 5.5C53.3163 6.41657 53.4409 7.15 53.5969 7.15C53.7513 7.15 53.8775 7.3975 53.8775 7.7C53.8775 8.0025 54.0038 8.25 54.1582 8.25C54.3125 8.25 54.4388 8.44442 54.4388 8.68202C54.4388 9.2378 55.1145 9.9 55.6816 9.9C55.9241 9.9 56.1224 10.0238 56.1224 10.175C56.1224 10.3263 56.375 10.45 56.6837 10.45C56.9923 10.45 57.2449 10.5738 57.2449 10.725C57.2449 10.8763 57.75 11 58.3673 11C58.9847 11 59.4898 10.8763 59.4898 10.725C59.4898 10.5738 59.7423 10.45 60.051 10.45C60.3597 10.45 60.6122 10.3263 60.6122 10.175C60.6122 10.0238 60.8073 9.9 61.0458 9.9C61.6073 9.9 62.8571 8.67515 62.8571 8.12488C62.8571 7.89113 62.9834 7.7 63.1378 7.7C63.3013 7.7 63.4184 6.78343 63.4184 5.5C63.4184 4.21658 63.3013 3.3 63.1378 3.3C62.9834 3.3 62.8571 3.10888 62.8571 2.87512C62.8571 2.32485 61.6073 1.1 61.0458 1.1C60.8073 1.1 60.6122 0.97625 60.6122 0.825C60.6122 0.67375 60.3597 0.55 60.051 0.55C59.7423 0.55 59.4898 0.42625 59.4898 0.275C59.4898 0.12375 58.9847 0 58.3673 0C57.75 0 57.2449 0.12375 57.2449 0.275ZM67.9082 1.1C67.9082 1.705 68.0344 2.2 68.1888 2.2C68.3431 2.2 68.4694 2.57125 68.4694 3.025C68.4694 3.47875 68.5957 3.85 68.75 3.85C68.9043 3.85 69.0306 4.0975 69.0306 4.4C69.0306 4.7025 69.1569 4.95 69.3112 4.95C69.4656 4.95 69.5918 5.32125 69.5918 5.775C69.5918 6.22875 69.7181 6.6 69.8724 6.6C70.0268 6.6 70.1531 6.97125 70.1531 7.425C70.1531 7.87875 70.2793 8.25 70.4337 8.25C70.588 8.25 70.7143 8.62125 70.7143 9.075C70.7143 9.52875 70.8406 9.9 70.9949 9.9C71.1492 9.9 71.2755 10.1475 71.2755 10.45C71.2755 10.8573 71.4627 11 71.997 11C72.9177 11 73.5204 10.4093 73.5204 9.50702C73.5204 9.11817 73.6467 8.8 73.801 8.8C73.9554 8.8 74.0816 8.5525 74.0816 8.25C74.0816 7.9475 74.2079 7.7 74.3622 7.7C74.5166 7.7 74.6429 7.32875 74.6429 6.875C74.6429 6.42125 74.7691 6.05 74.9235 6.05C75.0778 6.05 75.2041 5.67875 75.2041 5.225C75.2041 4.77125 75.3304 4.4 75.4847 4.4C75.639 4.4 75.7653 4.1525 75.7653 3.85C75.7653 3.5475 75.8916 3.3 76.0459 3.3C76.2002 3.3 76.3265 2.92875 76.3265 2.475C76.3265 2.02125 76.4528 1.65 76.6071 1.65C76.7615 1.65 76.8877 1.27875 76.8877 0.825C76.8877 0.183425 76.7632 0 76.3265 0C75.9525 0 75.7653 0.183425 75.7653 0.55C75.7653 0.8525 75.639 1.1 75.4847 1.1C75.3304 1.1 75.2041 1.47125 75.2041 1.925C75.2041 2.37875 75.0778 2.75 74.9235 2.75C74.7691 2.75 74.6429 2.9975 74.6429 3.3C74.6429 3.6025 74.5166 3.85 74.3622 3.85C74.2079 3.85 74.0816 4.22125 74.0816 4.675C74.0816 5.12875 73.9554 5.5 73.801 5.5C73.6467 5.5 73.5204 5.87125 73.5204 6.325C73.5204 6.77875 73.3941 7.15 73.2398 7.15C73.0855 7.15 72.9592 7.52125 72.9592 7.975C72.9592 8.61658 72.8346 8.8 72.398 8.8C71.9613 8.8 71.8367 8.61658 71.8367 7.975C71.8367 7.52125 71.7105 7.15 71.5561 7.15C71.4018 7.15 71.2755 6.77875 71.2755 6.325C71.2755 5.87125 71.1492 5.5 70.9949 5.5C70.8406 5.5 70.7143 5.12875 70.7143 4.675C70.7143 4.22125 70.588 3.85 70.4337 3.85C70.2793 3.85 70.1531 3.47875 70.1531 3.025C70.1531 2.57125 70.0268 2.2 69.8724 2.2C69.7181 2.2 69.5918 1.9525 69.5918 1.65C69.5918 1.3475 69.4656 1.1 69.3112 1.1C69.1569 1.1 69.0306 0.8525 69.0306 0.55C69.0306 0.183425 68.8434 0 68.4694 0C68.0016 0 67.9082 0.183425 67.9082 1.1ZM84.1837 0.275C84.1837 0.42625 83.9853 0.55 83.7428 0.55C83.1757 0.55 82.5 1.2122 82.5 1.76797C82.5 2.00557 82.3737 2.2 82.2194 2.2C82.065 2.2 81.9388 2.57125 81.9388 3.025C81.9388 3.47875 82.065 3.85 82.2194 3.85C82.3737 3.85 82.5 4.0975 82.5 4.4C82.5 4.76657 82.6872 4.95 83.0612 4.95C83.3699 4.95 83.6224 5.07375 83.6224 5.225C83.6224 5.37625 83.875 5.5 84.1837 5.5C84.4923 5.5 84.7449 5.62375 84.7449 5.775C84.7449 5.92625 85.25 6.05 85.8673 6.05C86.4847 6.05 86.9898 6.17375 86.9898 6.325C86.9898 6.47625 87.1882 6.6 87.4306 6.6C87.9411 6.6 88.6735 7.24405 88.6735 7.69285C88.6735 7.8617 88.3634 8.30363 87.9846 8.67488C86.9985 9.6415 84.7362 9.6415 83.7501 8.67488C83.3713 8.30363 83.0612 7.80863 83.0612 7.57488C83.0612 7.28613 82.7915 7.15 82.2194 7.15C81.5647 7.15 81.3775 7.2721 81.3775 7.7C81.3775 8.0025 81.5038 8.25 81.6582 8.25C81.8125 8.25 81.9388 8.44112 81.9388 8.67488C81.9388 9.34313 83.243 10.45 84.0307 10.45C84.4236 10.45 84.7449 10.5738 84.7449 10.725C84.7449 10.8763 85.3763 11 86.148 11C86.9196 11 87.551 10.8763 87.551 10.725C87.551 10.5738 87.746 10.45 87.9846 10.45C88.2231 10.45 88.7282 10.1461 89.107 9.77487C89.6365 9.25622 89.7959 8.81045 89.7959 7.84987C89.7959 7.16237 89.6696 6.6 89.5153 6.6C89.361 6.6 89.2347 6.3525 89.2347 6.05C89.2347 5.68342 89.0475 5.5 88.6735 5.5C88.3648 5.5 88.1122 5.37625 88.1122 5.225C88.1122 5.07375 87.6071 4.95 86.9898 4.95C86.3724 4.95 85.8673 4.82625 85.8673 4.675C85.8673 4.52375 85.546 4.4 85.1532 4.4C84.7603 4.4 84.1231 4.09063 83.7372 3.7125L83.0357 3.025L83.7372 2.3375C84.3038 1.78228 84.7166 1.65 85.8822 1.65C87.1245 1.65 87.4357 1.76523 88.1122 2.475C88.9577 3.36188 89.7959 3.5629 89.7959 2.87843C89.7959 2.3309 87.9787 0.55 87.42 0.55C87.1834 0.55 86.9898 0.42625 86.9898 0.275C86.9898 0.12375 86.3584 0 85.5867 0C84.815 0 84.1837 0.12375 84.1837 0.275ZM95.1977 0.4114C94.9463 0.69135 94.8469 2.13455 94.8469 5.50798C94.8469 10.3961 94.9836 11 96.0898 11C96.4515 11 96.5306 10.6279 96.5306 8.92513C96.5306 7.07823 96.6078 6.77435 97.2321 6.16248L97.9337 5.47498L98.6352 6.16248C99.021 6.5406 99.3367 6.9916 99.3367 7.16458C99.3367 7.33782 99.7156 7.82623 100.179 8.25C100.642 8.67377 101.02 9.16218 101.02 9.33542C101.02 9.91155 102.388 11 103.112 11C103.505 11 103.827 10.8763 103.827 10.725C103.827 10.5738 103.7 10.45 103.546 10.45C103.392 10.45 103.265 10.2523 103.265 10.0103C103.265 9.76855 102.886 9.22377 102.423 8.8C101.96 8.37623 101.582 7.88123 101.582 7.7C101.582 7.51877 101.203 7.02378 100.74 6.6C100.277 6.17623 99.898 5.63145 99.898 5.38973C99.898 5.14773 99.7717 4.95 99.6173 4.95C99.463 4.95 99.3367 4.76108 99.3367 4.53035C99.3367 4.05185 101.687 1.65 102.155 1.65C102.609 1.65 103.265 0.9295 103.265 0.432025C103.265 0.1529 103.014 0 102.553 0C102.029 0 101.18 0.65285 99.3367 2.475C97.9595 3.83625 96.7649 4.95 96.6816 4.95C96.5985 4.95 96.5306 3.83625 96.5306 2.475C96.5306 0.297275 96.4717 0.001375 96.0395 0.01045C95.7696 0.016225 95.3908 0.196625 95.1977 0.4114ZM108.316 5.5V11H109.158H110V5.5V0H109.158H108.316V5.5ZM6.10809 2.3859C6.58821 2.85643 6.73554 3.16223 6.51638 3.23373C6.32781 3.29533 6.17347 3.58298 6.17347 3.87283C6.17347 4.34858 5.95375 4.4 3.92857 4.4H1.68367V3.025V1.65H3.52028C5.13773 1.65 5.44696 1.738 6.10809 2.3859ZM60.051 1.925C60.051 2.07625 60.3036 2.2 60.6122 2.2C60.9863 2.2 61.1735 2.38342 61.1735 2.75C61.1735 3.0525 61.2997 3.3 61.4541 3.3C61.6084 3.3 61.7347 3.67125 61.7347 4.125C61.7347 4.57875 61.861 4.95 62.0153 4.95C62.1696 4.95 62.2959 5.1975 62.2959 5.5C62.2959 5.8025 62.1696 6.05 62.0153 6.05C61.861 6.05 61.7347 6.42125 61.7347 6.875C61.7347 7.32875 61.6084 7.7 61.4541 7.7C61.2997 7.7 61.1735 7.9475 61.1735 8.25C61.1735 8.61658 60.9863 8.8 60.6122 8.8C60.3036 8.8 60.051 8.92375 60.051 9.075C60.051 9.22625 59.3523 9.35 58.4984 9.35C57.1007 9.35 56.8484 9.25485 55.9729 8.39657C55.0466 7.4888 55 7.35047 55 5.50137C55 3.68582 55.0592 3.49855 55.912 2.6235C56.7359 1.77815 56.9797 1.68603 58.4375 1.66897C59.3388 1.65825 60.051 1.77128 60.051 1.925ZM6.3337 6.44298C6.85059 6.94925 6.85059 8.45075 6.3337 8.95702C6.05701 9.22845 5.27551 9.35 3.80819 9.35H1.68367V7.7V6.05H3.80819C5.27551 6.05 6.05701 6.17155 6.3337 6.44298Z" fill="#575757"/>
</svg>
