<svg width="132" height="64" viewBox="0 0 132 64" fill="none" xmlns="http://www.w3.org/2000/svg">
<path fill-rule="evenodd" clip-rule="evenodd" d="M61.8562 0.441375C61.6491 0.679736 61.4795 1.07497 61.4795 1.31974C61.4795 1.56481 61.3137 1.82118 61.1112 1.88955C60.6314 2.0513 62.1841 3.64719 62.8221 3.64719C63.0782 3.64719 63.2877 3.78453 63.2877 3.95239C63.2877 4.12025 63.5589 4.25759 63.8904 4.25759C64.2219 4.25759 64.4931 4.39493 64.4931 4.56279C64.4931 4.73065 64.8382 4.86799 65.2601 4.86799C66.0283 4.86799 67.5068 3.66306 67.5068 3.03679C67.5068 2.53596 66.0937 1.20559 65.5615 1.20559C65.3053 1.20559 65.0959 1.06825 65.0959 0.900395C65.0959 0.732535 64.8247 0.595195 64.4931 0.595195C64.1616 0.595195 63.8904 0.457855 63.8904 0.289996C63.8904 -0.172077 62.2856 -0.0527436 61.8562 0.441375ZM55.4521 4.25759C55.4521 4.59331 55.3164 4.86799 55.1507 4.86799C54.5983 4.86799 54.8403 5.8019 55.5892 6.56032C56.1576 7.13624 56.6461 7.30959 57.6988 7.30959C58.4522 7.30959 59.0685 7.44693 59.0685 7.61479C59.0685 7.78265 59.3397 7.91999 59.6712 7.91999C60.0027 7.91999 60.274 8.05733 60.274 8.22519C60.274 8.39305 60.651 8.53039 61.1115 8.53039C61.6033 8.53039 62.1283 8.78248 62.3836 9.14079C62.6225 9.47651 63.0592 9.75119 63.3543 9.75119C63.649 9.75119 63.8904 9.88853 63.8904 10.0564C63.8904 10.2242 64.1616 10.3616 64.4931 10.3616C64.8247 10.3616 65.0959 10.4989 65.0959 10.6668C65.0959 10.8346 65.3053 10.972 65.5615 10.972C66.0904 10.972 67.5068 9.64284 67.5068 9.14659C67.5068 8.64331 64.8699 6.08879 64.3503 6.08879C64.0974 6.08879 63.8904 5.95145 63.8904 5.78359C63.8904 5.61573 63.6192 5.47839 63.2877 5.47839C62.9562 5.47839 62.6849 5.34105 62.6849 5.17319C62.6849 5.00533 62.2781 4.86799 61.7808 4.86799C61.2836 4.86799 60.8767 4.73065 60.8767 4.56279C60.8767 4.39493 60.4699 4.25759 59.9726 4.25759C59.4753 4.25759 59.0685 4.12025 59.0685 3.95239C59.0685 3.7827 58.2647 3.64719 57.2603 3.64719C55.6531 3.64719 55.4521 3.71495 55.4521 4.25759ZM52.5137 8.69062C52.1406 9.09409 51.8356 9.57264 51.8356 9.75424C51.8356 10.3778 53.3159 11.5824 54.0823 11.5824C54.5042 11.5824 54.8493 11.7197 54.8493 11.8876C54.8493 12.0554 55.3918 12.1928 56.0548 12.1928C56.7178 12.1928 57.2603 12.3301 57.2603 12.498C57.2603 12.6658 57.6671 12.8032 58.1644 12.8032C58.6616 12.8032 59.0685 12.9405 59.0685 13.1084C59.0685 13.2762 59.3397 13.4136 59.6712 13.4136C60.0027 13.4136 60.274 13.5509 60.274 13.7188C60.274 13.8866 60.5154 14.024 60.8101 14.024C61.1051 14.024 61.5418 14.2987 61.7808 14.6344C62.0198 14.9701 62.4022 15.2448 62.6307 15.2448C62.8588 15.2448 63.426 15.6568 63.8904 16.1604C65.2535 17.6382 67.5068 17.2661 67.5068 15.5637C67.5068 14.8672 65.0555 12.1928 64.4169 12.1928C64.2005 12.1928 63.828 11.9181 63.589 11.5824C63.3501 11.2467 62.9134 10.972 62.6183 10.972C62.3236 10.972 62.0822 10.8346 62.0822 10.6668C62.0822 10.4989 61.811 10.3616 61.4795 10.3616C61.1479 10.3616 60.8767 10.2242 60.8767 10.0564C60.8767 9.88853 60.4699 9.75119 59.9726 9.75119C59.4753 9.75119 59.0685 9.61385 59.0685 9.44599C59.0685 9.27813 58.7973 9.14079 58.4658 9.14079C58.1342 9.14079 57.863 9.00345 57.863 8.83559C57.863 8.66773 57.1849 8.53039 56.3562 8.53039C55.5274 8.53039 54.8493 8.39305 54.8493 8.22519C54.8493 7.63096 53.1873 7.96241 52.5137 8.69062ZM51.3082 14.1842C50.748 14.7903 50.6301 15.2646 50.6301 16.9124C50.6301 18.0389 50.7612 18.9072 50.9315 18.9072C51.0973 18.9072 51.2329 19.4565 51.2329 20.128C51.2329 20.7994 51.3685 21.3488 51.5342 21.3488C51.7 21.3488 51.8356 21.7608 51.8356 22.2644C51.8356 22.768 51.9712 23.18 52.137 23.18C52.3027 23.18 52.4384 23.4244 52.4384 23.7229C52.4384 24.0217 52.7096 24.4639 53.0411 24.706C53.3726 24.948 53.6438 25.3243 53.6438 25.5419C53.6438 26.058 57.4321 29.8944 57.9417 29.8944C58.1565 29.8944 58.5281 30.169 58.7671 30.5048C59.0061 30.8405 59.4428 31.1152 59.7378 31.1152C60.0326 31.1152 60.274 31.2525 60.274 31.4204C60.274 31.5882 60.5452 31.7256 60.8767 31.7256C61.2082 31.7256 61.4795 31.8629 61.4795 32.0308C61.4795 32.1986 62.1575 32.336 62.9863 32.336C63.8151 32.336 64.4931 32.4733 64.4931 32.6412C64.4931 32.8191 65.4976 32.9464 66.9041 32.9464C68.3106 32.9464 69.3151 32.8191 69.3151 32.6412C69.3151 32.4733 69.8575 32.336 70.5205 32.336C71.1836 32.336 71.726 32.1986 71.726 32.0308C71.726 31.8629 72.1329 31.7256 72.6301 31.7256C73.1274 31.7256 73.5342 31.5882 73.5342 31.4204C73.5342 31.2525 73.7756 31.1152 74.0704 31.1152C74.3654 31.1152 74.8021 30.8405 75.0411 30.5048C75.2801 30.169 75.6517 29.8944 75.8665 29.8944C76.415 29.8944 80.1644 26.0385 80.1644 25.4748C80.1644 25.2196 80.3 25.0112 80.4658 25.0112C80.6315 25.0112 80.7671 24.7365 80.7671 24.4008C80.7671 24.0651 80.9027 23.7904 81.0685 23.7904C81.2342 23.7904 81.3699 23.5157 81.3699 23.18C81.3699 22.8443 81.5055 22.5696 81.6712 22.5696C81.837 22.5696 81.9726 22.1576 81.9726 21.654C81.9726 21.1504 82.1082 20.7384 82.274 20.7384C82.7791 20.7384 82.6597 14.371 82.1447 13.8497C81.6559 13.3544 78.9589 13.2436 78.9589 13.7188C78.9589 13.8866 78.4164 14.024 77.7534 14.024C77.0904 14.024 76.5479 14.1613 76.5479 14.3292C76.5479 14.497 76.1411 14.6344 75.6438 14.6344C75.1466 14.6344 74.7397 14.7717 74.7397 14.9396C74.7397 15.1074 74.4983 15.2448 74.2036 15.2448C73.9085 15.2448 73.4719 15.5195 73.2329 15.8552C72.9939 16.1909 72.6223 16.4656 72.4074 16.4656C71.8589 16.4656 68.1096 20.3215 68.1096 20.8852C68.1096 21.1403 67.974 21.3488 67.8082 21.3488C67.6425 21.3488 67.5068 21.6235 67.5068 21.9592C67.5068 22.366 67.3058 22.5696 66.9041 22.5696C66.5271 22.5696 66.3014 22.366 66.3014 22.0266C66.3014 21.7278 66.0301 21.2856 65.6986 21.0436C65.3671 20.8016 65.0959 20.4249 65.0959 20.2067C65.0959 19.6894 61.9125 16.4656 61.4017 16.4656C61.1862 16.4656 60.8143 16.1909 60.5753 15.8552C60.3201 15.4969 59.7951 15.2448 59.3033 15.2448C58.8428 15.2448 58.4658 15.1074 58.4658 14.9396C58.4658 14.7717 58.1945 14.6344 57.863 14.6344C57.5315 14.6344 57.2603 14.497 57.2603 14.3292C57.2603 14.1613 56.7178 14.024 56.0548 14.024C55.3918 14.024 54.8493 13.8866 54.8493 13.7188C54.8493 13.5509 54.2053 13.4221 53.4178 13.4322C52.31 13.4465 51.8329 13.6168 51.3082 14.1842ZM78.9589 18.9072C78.9589 19.9244 78.8251 20.7384 78.6575 20.7384C78.4918 20.7384 78.3562 21.0131 78.3562 21.3488C78.3562 21.6845 78.2205 21.9592 78.0548 21.9592C77.889 21.9592 77.7534 22.2339 77.7534 22.5696C77.7534 22.9053 77.6178 23.18 77.452 23.18C77.2863 23.18 77.1507 23.3906 77.1507 23.6478C77.1507 24.2192 75.215 26.232 74.6656 26.232C74.448 26.232 74.0746 26.5066 73.8356 26.8424C73.5966 27.1781 73.1599 27.4528 72.8649 27.4528C72.5702 27.4528 72.3288 27.5901 72.3288 27.758C72.3288 27.9258 72.0575 28.0632 71.726 28.0632C71.3945 28.0632 71.1233 28.2005 71.1233 28.3684C71.1233 28.5362 70.7164 28.6736 70.2192 28.6736C69.3353 28.6736 69.3151 28.6397 69.3151 27.1476C69.3151 26.3083 69.4507 25.6216 69.6164 25.6216C69.7822 25.6216 69.9178 25.3469 69.9178 25.0112C69.9178 24.6754 70.0534 24.4008 70.2192 24.4008C70.3849 24.4008 70.5205 24.1261 70.5205 23.7904C70.5205 23.4547 70.6562 23.18 70.8219 23.18C70.9877 23.18 71.1233 22.9703 71.1233 22.7142C71.1233 22.1463 73.6644 19.5176 74.2132 19.5176C74.4296 19.5176 74.8021 19.2429 75.0411 18.9072C75.2964 18.5489 75.8213 18.2968 76.3132 18.2968C76.7737 18.2968 77.1507 18.1594 77.1507 17.9916C77.1507 17.8237 77.4219 17.6864 77.7534 17.6864C78.0849 17.6864 78.3562 17.549 78.3562 17.3812C78.3562 17.2133 78.4918 17.076 78.6575 17.076C78.8251 17.076 78.9589 17.8899 78.9589 18.9072ZM56.6575 17.9916C56.6575 18.1594 56.9288 18.2968 57.2603 18.2968C57.5918 18.2968 57.863 18.4341 57.863 18.602C57.863 18.7698 58.1342 18.9072 58.4658 18.9072C58.7973 18.9072 59.0685 19.0445 59.0685 19.2124C59.0685 19.3802 59.2764 19.5176 59.5305 19.5176C60.0947 19.5176 62.0822 21.4779 62.0822 22.0343C62.0822 22.2546 62.3534 22.6327 62.6849 22.8748C63.0164 23.1168 63.2877 23.559 63.2877 23.8578C63.2877 24.1563 63.4233 24.4008 63.589 24.4008C63.7548 24.4008 63.8904 24.9501 63.8904 25.6216C63.8904 26.293 64.026 26.8424 64.1918 26.8424C64.3575 26.8424 64.4931 27.2544 64.4931 27.758C64.4931 28.5719 64.3928 28.6736 63.589 28.6736C63.0918 28.6736 62.6849 28.5362 62.6849 28.3684C62.6849 28.2005 62.3079 28.0632 61.8474 28.0632C61.3556 28.0632 60.8306 27.8111 60.5753 27.4528C60.3364 27.117 59.9639 26.8424 59.7475 26.8424C59.2355 26.8424 56.6575 24.2317 56.6575 23.7132C56.6575 23.494 56.3863 23.1168 56.0548 22.8748C55.701 22.6163 55.4521 22.0846 55.4521 21.5865C55.4521 21.1202 55.3164 20.7384 55.1507 20.7384C54.9849 20.7384 54.8493 20.3264 54.8493 19.8228C54.8493 19.3192 54.7137 18.9072 54.5479 18.9072C54.3822 18.9072 54.2466 18.6325 54.2466 18.2968C54.2466 17.788 54.4476 17.6864 55.4521 17.6864C56.1151 17.6864 56.6575 17.8237 56.6575 17.9916ZM0.678082 44.0938C0.0412877 44.7826 0 45.089 0 49.125C0 53.2809 0.024411 53.4472 0.739863 54.1715C1.3631 54.8029 1.76784 54.9207 3.31507 54.9207C4.8623 54.9207 5.26704 54.8029 5.89027 54.1715C6.29712 53.7595 6.63014 53.2101 6.63014 52.9507C6.63014 52.6913 6.76575 52.4791 6.93151 52.4791C7.10359 52.4791 7.23288 51.5635 7.23288 50.3427C7.23288 49.1219 7.10359 48.2063 6.93151 48.2063C6.76575 48.2063 6.63014 47.9906 6.63014 47.7269C6.63014 46.9315 5.83241 46.3751 4.69263 46.3751C4.10074 46.3751 3.61644 46.2378 3.61644 46.0699C3.61644 45.9021 2.93836 45.7647 2.10959 45.7647C1.28082 45.7647 0.60274 45.6863 0.60274 45.5905C0.60274 45.2322 1.48063 44.5439 1.93751 44.5439C2.19789 44.5439 2.41096 44.4066 2.41096 44.2387C2.41096 44.0645 3.31507 43.9335 4.52055 43.9335C5.72603 43.9335 6.63014 43.8026 6.63014 43.6283C6.63014 43.4468 5.56238 43.3308 3.99315 43.3418C1.61022 43.3586 1.29077 43.4312 0.678082 44.0938ZM98.2466 43.6283C98.2466 43.7962 97.9753 43.9335 97.6438 43.9335C97.2421 43.9335 97.0411 44.1371 97.0411 44.5439C97.0411 44.8797 96.9055 45.1543 96.7397 45.1543C96.5544 45.1543 96.4384 46.6803 96.4384 49.1219C96.4384 51.5635 96.5544 53.0895 96.7397 53.0895C96.9055 53.0895 97.0411 53.3642 97.0411 53.6999C97.0411 54.1068 97.2421 54.3103 97.6438 54.3103C97.9753 54.3103 98.2466 54.4477 98.2466 54.6155C98.2466 54.7898 99.1507 54.9207 100.356 54.9207C101.562 54.9207 102.466 54.7898 102.466 54.6155C102.466 54.4477 102.679 54.3103 102.939 54.3103C103.986 54.3103 104.274 53.5208 104.274 50.6479C104.274 47.7751 103.986 46.9855 102.939 46.9855C102.679 46.9855 102.466 46.8482 102.466 46.6803C102.466 46.5061 101.562 46.3751 100.356 46.3751C99.1959 46.3751 98.2466 46.3004 98.2466 46.2088C98.2466 46.1173 98.5796 45.7052 98.9864 45.2932C99.641 44.63 99.9876 44.5439 102 44.5439C104.073 44.5439 104.274 44.4899 104.274 43.9335C104.274 43.3637 104.073 43.3232 101.26 43.3232C99.452 43.3232 98.2466 43.4452 98.2466 43.6283ZM11.4521 46.0699C11.4521 46.2378 10.9678 46.3751 10.3759 46.3751C9.23608 46.3751 8.43836 46.9315 8.43836 47.7269C8.43836 47.9906 8.30274 48.2063 8.13699 48.2063C7.9649 48.2063 7.83562 49.1219 7.83562 50.3427C7.83562 51.5635 7.9649 52.4791 8.13699 52.4791C8.30274 52.4791 8.43836 52.6913 8.43836 52.9507C8.43836 53.2101 8.77137 53.7595 9.17822 54.1715C9.84816 54.8502 10.1607 54.9207 12.4933 54.9207C13.9097 54.9207 15.0685 54.8423 15.0685 54.7465C15.0685 54.0631 14.0224 53.6999 12.0548 53.6999C9.56096 53.6999 9.0411 53.3615 9.0411 51.7378V50.6479H11.9255C14.0236 50.6479 14.9275 50.5292 15.2406 50.2118C15.7345 49.7119 15.8174 48.8167 15.3699 48.8167C15.2041 48.8167 15.0685 48.4047 15.0685 47.9011C15.0685 47.1891 14.9347 46.9855 14.4658 46.9855C14.1342 46.9855 13.863 46.8482 13.863 46.6803C13.863 46.5125 13.4562 46.3751 12.9589 46.3751C12.4616 46.3751 12.0548 46.2378 12.0548 46.0699C12.0548 45.9021 11.9192 45.7647 11.7534 45.7647C11.5877 45.7647 11.4521 45.9021 11.4521 46.0699ZM19.0616 46.2213C18.8546 46.4597 18.6849 46.8665 18.6849 47.1253C18.6849 47.3841 18.5493 47.5959 18.3836 47.5959C18.2178 47.5959 18.0822 48.008 18.0822 48.5115C18.0822 49.0151 17.9466 49.4271 17.7808 49.4271C17.6151 49.4271 17.4795 49.7018 17.4795 50.0375C17.4795 50.3733 17.3438 50.6479 17.1781 50.6479C17.0123 50.6479 16.8767 51.06 16.8767 51.5635C16.8767 52.0671 16.7411 52.4791 16.5753 52.4791C16.4096 52.4791 16.274 52.7538 16.274 53.0895C16.274 53.4253 16.1384 53.6999 15.9726 53.6999C15.8068 53.6999 15.6712 53.9746 15.6712 54.3103C15.6712 54.7172 15.8722 54.9207 16.274 54.9207C16.6757 54.9207 16.8767 54.7172 16.8767 54.3103C16.8767 53.9746 17.0123 53.6999 17.1781 53.6999C17.3438 53.6999 17.4795 53.2879 17.4795 52.7843C17.4795 52.2808 17.6151 51.8687 17.7808 51.8687C17.9466 51.8687 18.0822 51.5941 18.0822 51.2583C18.0822 50.9226 18.2178 50.6479 18.3836 50.6479C18.5493 50.6479 18.6849 50.2359 18.6849 49.7323C18.6849 49.2288 18.8205 48.8167 18.9863 48.8167C19.1521 48.8167 19.2877 48.5421 19.2877 48.2063C19.2877 47.8706 19.3651 47.5959 19.4598 47.5959C19.901 47.5959 20.4931 48.5457 20.4931 49.2529C20.4931 49.6844 20.6288 50.0375 20.7945 50.0375C20.9603 50.0375 21.0959 50.3122 21.0959 50.6479C21.0959 50.9837 21.2315 51.2583 21.3973 51.2583C21.563 51.2583 21.6986 51.6704 21.6986 52.1739C21.6986 52.6775 21.8342 53.0895 22 53.0895C22.1658 53.0895 22.3014 53.3053 22.3014 53.569C22.3014 54.0317 22.981 54.9207 23.3348 54.9207C23.4294 54.9207 23.5068 54.5087 23.5068 54.0051C23.5068 53.5016 23.3712 53.0895 23.2055 53.0895C23.0397 53.0895 22.9041 52.8149 22.9041 52.4791C22.9041 52.1434 22.7685 51.8687 22.6027 51.8687C22.437 51.8687 22.3014 51.4567 22.3014 50.9531C22.3014 50.4496 22.1658 50.0375 22 50.0375C21.8342 50.0375 21.6986 49.7629 21.6986 49.4271C21.6986 49.0914 21.563 48.8167 21.3973 48.8167C21.2315 48.8167 21.0959 48.4673 21.0959 48.04C21.0959 47.6127 20.7629 46.926 20.356 46.514C19.4998 45.6466 19.5511 45.6582 19.0616 46.2213ZM60.8767 46.0699C60.8767 46.2378 60.6055 46.3751 60.274 46.3751C59.6999 46.3751 59.6712 46.5787 59.6712 50.6479C59.6712 52.998 59.7487 54.9207 59.8433 54.9207C59.9382 54.9207 60.242 54.6915 60.519 54.4111C60.8848 54.0405 60.9201 53.8672 60.648 53.7753C60.0832 53.5846 60.1329 48.0006 60.7046 47.4217C61.0018 47.1204 61.8411 46.9855 63.417 46.9855H65.6986V50.9531C65.6986 53.3947 65.8147 54.9207 66 54.9207C66.1862 54.9207 66.3014 53.3368 66.3014 50.7789C66.3014 47.5959 66.2016 46.5357 65.8707 46.2009C65.3644 45.6878 60.8767 45.5703 60.8767 46.0699ZM69.3151 46.0699C69.3151 46.2378 69.0438 46.3751 68.7123 46.3751C68.1307 46.3751 68.1096 46.5787 68.1096 52.1739V57.9727H34.0548C11.5524 57.9727 0 58.0762 0 58.2779C0 58.4806 22.201 58.5831 66 58.5831C109.799 58.5831 132 58.4806 132 58.2779C132 58.0765 121.251 57.9727 100.356 57.9727H68.7123V56.4467V54.9207H70.8219C72.0274 54.9207 72.9315 54.7898 72.9315 54.6155C72.9315 54.4477 73.1446 54.3103 73.405 54.3103C74.4513 54.3103 74.7397 53.5205 74.7397 50.6559C74.7397 48.1087 74.6773 47.8102 73.9999 47.1244C73.593 46.7124 72.9149 46.3751 72.493 46.3751C72.0711 46.3751 71.726 46.2378 71.726 46.0699C71.726 45.9021 71.1836 45.7647 70.5205 45.7647C69.8575 45.7647 69.3151 45.9021 69.3151 46.0699ZM78.9589 46.0699C78.9589 46.2378 78.6102 46.3751 78.1841 46.3751C77.3119 46.3751 76.5479 47.0063 76.5479 47.7269C76.5479 47.9906 76.4123 48.2063 76.2466 48.2063C76.0745 48.2063 75.9452 49.1219 75.9452 50.3427C75.9452 51.5635 76.0745 52.4791 76.2466 52.4791C76.4123 52.4791 76.5479 52.6913 76.5479 52.9507C76.5479 53.2101 76.881 53.7595 77.2878 54.1715C77.9339 54.8261 78.2974 54.9207 80.1644 54.9207C82.0314 54.9207 82.3948 54.8261 83.041 54.1715C83.4478 53.7595 83.7808 53.2101 83.7808 52.9507C83.7808 52.6913 83.9164 52.4791 84.0822 52.4791C84.2543 52.4791 84.3836 51.5635 84.3836 50.3427C84.3836 49.1219 84.2543 48.2063 84.0822 48.2063C83.9164 48.2063 83.7808 47.9906 83.7808 47.7269C83.7808 47.0063 83.0168 46.3751 82.1447 46.3751C81.7185 46.3751 81.3699 46.2378 81.3699 46.0699C81.3699 45.9021 80.8274 45.7647 80.1644 45.7647C79.5014 45.7647 78.9589 45.9021 78.9589 46.0699ZM85.9658 46.2213C85.7039 46.5223 85.589 47.9158 85.589 50.7877C85.589 54.7172 85.6186 54.9207 86.1918 54.9207C86.758 54.9207 86.7945 54.7172 86.7945 51.5635C86.7945 49.5288 86.9133 48.2063 87.0959 48.2063C87.2616 48.2063 87.3973 48.6184 87.3973 49.1219C87.3973 49.6255 87.5329 50.0375 87.6986 50.0375C87.8644 50.0375 88 50.3122 88 50.6479C88 50.9837 88.1356 51.2583 88.3014 51.2583C88.4671 51.2583 88.6027 51.6704 88.6027 52.1739C88.6027 52.6775 88.7384 53.0895 88.9041 53.0895C89.0699 53.0895 89.2055 53.3053 89.2055 53.569C89.2055 54.1858 89.9312 54.9207 90.5402 54.9207C90.8127 54.9207 91.0137 54.6619 91.0137 54.3103C91.0137 53.9746 91.1493 53.6999 91.3151 53.6999C91.4808 53.6999 91.6164 53.4253 91.6164 53.0895C91.6164 52.7538 91.752 52.4791 91.9178 52.4791C92.0836 52.4791 92.2192 52.0671 92.2192 51.5635C92.2192 51.06 92.3548 50.6479 92.5205 50.6479C92.6863 50.6479 92.8219 50.3733 92.8219 50.0375C92.8219 49.7018 92.9575 49.4271 93.1233 49.4271C93.289 49.4271 93.4247 49.1525 93.4247 48.8167C93.4247 48.481 93.5603 48.2063 93.726 48.2063C93.9087 48.2063 94.0274 49.5288 94.0274 51.5635C94.0274 54.7172 94.0639 54.9207 94.6301 54.9207C95.2033 54.9207 95.2329 54.7172 95.2329 50.7789C95.2329 47.52 95.1373 46.54 94.7847 46.1829C94.3881 45.7812 94.2495 45.8172 93.5793 46.496C93.1628 46.9178 92.8219 47.4754 92.8219 47.7348C92.8219 47.9942 92.6863 48.2063 92.5205 48.2063C92.3548 48.2063 92.2192 48.6184 92.2192 49.1219C92.2192 49.6255 92.0836 50.0375 91.9178 50.0375C91.752 50.0375 91.6164 50.3122 91.6164 50.6479C91.6164 50.9837 91.4808 51.2583 91.3151 51.2583C91.1493 51.2583 91.0137 51.6704 91.0137 52.1739C91.0137 52.886 90.8799 53.0895 90.4109 53.0895C90.0092 53.0895 89.8082 52.886 89.8082 52.4791C89.8082 52.1434 89.6726 51.8687 89.5068 51.8687C89.3411 51.8687 89.2055 51.5941 89.2055 51.2583C89.2055 50.9226 89.0699 50.6479 88.9041 50.6479C88.7384 50.6479 88.6027 50.2359 88.6027 49.7323C88.6027 49.2288 88.4671 48.8167 88.3014 48.8167C88.1356 48.8167 88 48.5421 88 48.2063C88 47.8706 87.8644 47.5959 87.6986 47.5959C87.5329 47.5959 87.3973 47.3802 87.3973 47.1165C87.3973 46.6999 86.7138 45.7434 86.4392 45.7763C86.3862 45.7828 86.1731 45.983 85.9658 46.2213ZM24.7123 46.5494C24.7123 47.2471 25.7596 47.5959 27.8553 47.5959H30.137V48.5115V49.4271H27.8553C25.5088 49.4271 24.7123 49.7696 24.7123 50.7789C24.7123 51.0426 24.5767 51.2583 24.411 51.2583C24.2452 51.2583 24.1096 51.533 24.1096 51.8687C24.1096 52.2045 24.2452 52.4791 24.411 52.4791C24.5767 52.4791 24.7123 52.8323 24.7123 53.2638C24.7123 54.6454 25.313 54.9207 28.3288 54.9207C30.3148 54.9207 31.2044 54.799 31.5145 54.4846C32.1302 53.8614 32.1302 47.4345 31.5145 46.8113C31.196 46.4884 30.2575 46.3751 27.8981 46.3751C26.1459 46.3751 24.7123 46.4536 24.7123 46.5494ZM33.1507 50.6479V54.9207H34.0548H34.9589V51.2583V47.5959H37.3699C39.5798 47.5959 39.7808 47.545 39.7808 46.9855C39.7808 46.4121 39.5798 46.3751 36.4658 46.3751H33.1507V50.6479ZM40.7603 46.8317C40.4914 47.1409 40.3836 48.7093 40.3836 52.3137V57.3623H41.2877C42.1415 57.3623 42.1918 57.2946 42.1918 56.1415V54.9207H44.3014C45.5068 54.9207 46.411 54.7898 46.411 54.6155C46.411 54.4477 46.6822 54.3103 47.0137 54.3103C47.4154 54.3103 47.6164 54.1068 47.6164 53.6999C47.6164 53.3642 47.7521 53.0895 47.9178 53.0895C48.0953 53.0895 48.2192 52.0168 48.2192 50.4816C48.2192 48.1194 48.1496 47.8029 47.4793 47.1244C46.7982 46.4344 46.5185 46.3761 43.9382 46.3867C41.9079 46.3953 41.0333 46.5177 40.7603 46.8317ZM50.4041 46.8317C50.1971 47.0701 50.0274 47.4769 50.0274 47.7357C50.0274 47.9945 49.8918 48.2063 49.726 48.2063C49.5539 48.2063 49.4247 49.1219 49.4247 50.3427C49.4247 51.5635 49.5539 52.4791 49.726 52.4791C49.8918 52.4791 50.0274 52.6949 50.0274 52.9586C50.0274 53.5754 50.7531 54.3103 51.3622 54.3103C51.6225 54.3103 51.8356 54.4477 51.8356 54.6155C51.8356 54.7898 52.7397 54.9207 53.9452 54.9207C55.1507 54.9207 56.0548 54.7898 56.0548 54.6155C56.0548 54.4477 56.2679 54.3103 56.5282 54.3103C57.1373 54.3103 57.863 53.5754 57.863 52.9586C57.863 52.6949 57.9986 52.4791 58.1644 52.4791C58.3365 52.4791 58.4658 51.5635 58.4658 50.3427C58.4658 49.1219 58.3365 48.2063 58.1644 48.2063C57.9986 48.2063 57.863 47.9317 57.863 47.5959C57.863 47.1891 57.662 46.9855 57.2603 46.9855C56.9288 46.9855 56.6575 46.8482 56.6575 46.6803C56.6575 46.1728 50.855 46.3132 50.4041 46.8317ZM106.082 46.9855C106.082 47.5422 106.283 47.5959 108.364 47.5959C110.71 47.5959 111.507 47.9384 111.507 48.9477C111.507 49.3411 111.099 49.4271 109.233 49.4271C107.22 49.4271 106.874 49.5132 106.219 50.1764C105.191 51.2174 105.191 53.1304 106.219 54.1715C106.896 54.8576 107.191 54.9207 109.706 54.9207C111.686 54.9207 112.574 54.799 112.884 54.4846C113.399 53.9633 113.519 47.5959 113.014 47.5959C112.848 47.5959 112.712 47.3213 112.712 46.9855C112.712 46.4121 112.511 46.3751 109.397 46.3751C106.283 46.3751 106.082 46.4121 106.082 46.9855ZM114.521 50.6479V54.9207H115.425H116.329V53.0895V51.2583H118.438H120.548V53.0895V54.9207H121.452H122.356V50.6479V46.3751H121.452C120.568 46.3751 120.548 46.409 120.548 47.9011V49.4271H118.438H116.329V47.9011C116.329 46.409 116.309 46.3751 115.425 46.3751H114.521V50.6479ZM123.562 50.6479V54.9207H124.466H125.37V50.6479V46.3751H124.466H123.562V50.6479ZM127.555 48.0705C126.685 48.9779 125.973 50.0003 125.973 50.3424C125.973 51.2739 129.689 54.9207 130.638 54.9207C131.056 54.9207 131.397 54.8414 131.397 54.7443C131.397 54.647 130.855 54.0399 130.192 53.3947C129.529 52.7495 128.986 52.0555 128.986 51.8523C128.986 51.649 128.681 51.2077 128.308 50.8717C127.848 50.4572 127.751 50.2164 128.007 50.1236C128.214 50.0482 128.384 49.7815 128.384 49.5303C128.384 49.2794 128.926 48.5463 129.589 47.9011C130.252 47.2559 130.795 46.6489 130.795 46.5516C130.795 46.4545 130.421 46.3855 129.966 46.398C129.375 46.4142 128.682 46.8952 127.555 48.0705ZM5.28753 47.7348C5.93458 48.3898 6.0274 48.7566 6.0274 50.6559C6.0274 52.889 5.67178 53.6999 4.69263 53.6999C4.43225 53.6999 4.21918 53.8373 4.21918 54.0051C4.21918 54.173 3.81233 54.3103 3.31507 54.3103C2.81781 54.3103 2.41096 54.173 2.41096 54.0051C2.41096 53.8373 2.13973 53.6999 1.80822 53.6999C1.40649 53.6999 1.20548 53.4964 1.20548 53.0895C1.20548 52.7538 1.06986 52.4791 0.904109 52.4791C0.725397 52.4791 0.60274 51.36 0.60274 49.7323V46.9855H2.57521C4.268 46.9855 4.65285 47.0918 5.28753 47.7348ZM13.7259 47.7348C14.1327 48.1468 14.4658 48.8335 14.4658 49.2608C14.4658 50.0354 14.4585 50.0375 11.7534 50.0375C9.05104 50.0375 9.0411 50.0348 9.0411 49.2636C9.0411 47.1879 12.1759 46.1649 13.7259 47.7348ZM73.1036 47.4217C73.3405 47.6613 73.5342 48.0733 73.5342 48.3373C73.5342 48.601 73.6699 48.8167 73.8356 48.8167C74.0014 48.8167 74.137 49.5782 74.137 50.5091C74.137 51.8993 74.0047 52.3357 73.3971 52.9507C72.7624 53.5937 72.3776 53.6999 70.6848 53.6999H68.7123V50.3427V46.9855H70.6926C72.0072 46.9855 72.8179 47.132 73.1036 47.4217ZM81.9726 47.2907C81.9726 47.4586 82.2438 47.5959 82.5753 47.5959C83.1311 47.5959 83.1781 47.7995 83.1781 50.2118C83.1781 53.0807 82.8876 53.6999 81.5419 53.6999C81.1158 53.6999 80.7671 53.8373 80.7671 54.0051C80.7671 54.173 80.4959 54.3103 80.1644 54.3103C79.8329 54.3103 79.5616 54.173 79.5616 54.0051C79.5616 53.8373 79.2129 53.6999 78.7868 53.6999C77.4412 53.6999 77.1507 53.0807 77.1507 50.2118C77.1507 47.7995 77.1977 47.5959 77.7534 47.5959C78.0849 47.5959 78.3562 47.4586 78.3562 47.2907C78.3562 47.1211 79.1599 46.9855 80.1644 46.9855C81.1688 46.9855 81.9726 47.1211 81.9726 47.2907ZM45.9803 48.0321C46.5671 48.626 46.5671 52.0595 45.9803 52.6534C45.7103 52.9272 44.9243 53.0895 43.8707 53.0895H42.1918V50.7877C42.1918 49.3807 42.3382 48.3174 42.5685 48.0525C43.0645 47.4821 45.4234 47.4678 45.9803 48.0321ZM55.9177 48.3452C56.4864 48.9208 56.6575 49.4155 56.6575 50.4816C56.6575 51.2446 56.5219 51.8687 56.3562 51.8687C56.1904 51.8687 56.0548 52.1434 56.0548 52.4791C56.0548 52.886 55.8538 53.0895 55.4521 53.0895C55.1205 53.0895 54.8493 53.2269 54.8493 53.3947C54.8493 53.5626 54.4425 53.6999 53.9452 53.6999C53.4479 53.6999 53.0411 53.5626 53.0411 53.3947C53.0411 53.2269 52.828 53.0895 52.5676 53.0895C51.1141 53.0895 50.6476 49.7333 51.911 48.3666C52.8774 47.3216 54.8963 47.3106 55.9177 48.3452ZM99.5548 47.9774C99.6699 48.2656 99.7926 48.2469 100.055 47.9011C100.317 47.5554 100.44 47.5367 100.555 47.8248C100.639 48.0348 100.909 48.2063 101.156 48.2063C102.014 48.2063 102.466 49.0463 102.466 50.64C102.466 51.891 102.319 52.3506 101.726 52.9507C101.319 53.3627 100.703 53.6999 100.356 53.6999C100.01 53.6999 99.3933 53.3627 98.9864 52.9507C98.3629 52.3195 98.2466 51.9093 98.2466 50.3437C98.2466 49.2919 98.4099 48.2979 98.6233 48.0525C99.0949 47.5102 99.3589 47.4888 99.5548 47.9774ZM30.137 51.8687V53.0895H28.3288H26.5205V51.8687V50.6479H28.3288H30.137V51.8687ZM111.507 51.8687V53.0895H109.397C107.339 53.0895 107.288 53.0709 107.288 52.3137C107.288 51.0569 107.865 50.6724 109.774 50.6595L111.507 50.6479V51.8687ZM89.8836 59.9642C89.1081 60.8028 89.0093 61.7853 89.6361 62.4198C90.4839 63.2786 91.6164 62.5803 91.6164 61.199C91.6164 60.6179 91.46 60.4143 91.0137 60.4143C90.6822 60.4143 90.4109 60.277 90.4109 60.1091C90.4109 59.9413 90.5466 59.8039 90.7123 59.8039C90.8781 59.8039 91.0137 59.6666 91.0137 59.4987C91.0137 59.0104 90.6129 59.1755 89.8836 59.9642ZM40.9863 60.7195C40.9863 60.8874 41.2575 61.0247 41.589 61.0247C41.9205 61.0247 42.1918 60.8874 42.1918 60.7195C42.1918 60.5517 41.9205 60.4143 41.589 60.4143C41.2575 60.4143 40.9863 60.5517 40.9863 60.7195ZM46.411 60.7195C46.411 60.8874 46.6822 61.0247 47.0137 61.0247C47.4154 61.0247 47.6164 61.2283 47.6164 61.6351C47.6164 62.042 47.4154 62.2455 47.0137 62.2455C46.612 62.2455 46.411 62.4491 46.411 62.8559C46.411 63.6476 46.5824 63.6253 47.4793 62.7171C47.8862 62.305 48.2192 61.6183 48.2192 61.1911C48.2192 60.5315 48.083 60.4143 47.3151 60.4143C46.8178 60.4143 46.411 60.5517 46.411 60.7195ZM53.0411 61.3299C53.0411 61.8335 52.9055 62.2455 52.7397 62.2455C52.574 62.2455 52.4384 62.1082 52.4384 61.9403C52.4384 61.7725 52.3027 61.6351 52.137 61.6351C51.9712 61.6351 51.8356 61.9098 51.8356 62.2455C51.8356 62.7204 52.0366 62.8559 52.7397 62.8559C53.5935 62.8559 53.6438 62.7882 53.6438 61.6351C53.6438 60.9637 53.5082 60.4143 53.3425 60.4143C53.1767 60.4143 53.0411 60.8263 53.0411 61.3299ZM57.863 61.0247C57.863 61.7004 58.3289 61.8515 58.5685 61.2536C58.6839 60.9649 58.7961 60.9814 59.029 61.3211C59.1984 61.568 59.4283 61.6776 59.5401 61.5646C59.821 61.2799 58.9151 60.4143 58.3365 60.4143C58.064 60.4143 57.863 60.6731 57.863 61.0247ZM63.2877 61.6351C63.2877 62.3066 63.3615 62.8559 63.4519 62.8559C63.5423 62.8559 63.9492 62.5187 64.356 62.1067C65.1049 61.3482 65.3469 60.4143 64.7945 60.4143C64.6288 60.4143 64.4931 60.689 64.4931 61.0247C64.4931 61.3605 64.3575 61.6351 64.1918 61.6351C64.026 61.6351 63.8904 61.3605 63.8904 61.0247C63.8904 60.689 63.7548 60.4143 63.589 60.4143C63.4233 60.4143 63.2877 60.9637 63.2877 61.6351ZM69.3151 61.6351C69.3151 62.7802 69.3696 62.8559 70.1942 62.8559C70.6776 62.8559 71.1335 63.0278 71.2077 63.2374C71.2857 63.4593 71.4539 63.5057 71.6094 63.3482C71.7649 63.1907 71.7191 63.0204 71.5 62.9414C71.2857 62.8639 71.1233 62.2898 71.1233 61.6098C71.1233 60.9521 70.9877 60.4143 70.8219 60.4143C70.6562 60.4143 70.5205 60.8263 70.5205 61.3299C70.5205 61.8335 70.3849 62.2455 70.2192 62.2455C70.0534 62.2455 69.9178 61.8335 69.9178 61.3299C69.9178 60.8263 69.7822 60.4143 69.6164 60.4143C69.4507 60.4143 69.3151 60.9637 69.3151 61.6351ZM76.5479 60.7195C76.5479 60.8874 76.2767 61.0247 75.9452 61.0247C75.4763 61.0247 75.3425 61.2283 75.3425 61.9403C75.3425 62.4439 75.4781 62.8559 75.6438 62.8559C75.8096 62.8559 75.9452 62.5812 75.9452 62.2455C75.9452 61.9098 76.0808 61.6351 76.2466 61.6351C76.4123 61.6351 76.5479 61.9098 76.5479 62.2455C76.5479 62.5812 76.6836 62.8559 76.8493 62.8559C77.0151 62.8559 77.1507 62.3066 77.1507 61.6351C77.1507 60.9637 77.0151 60.4143 76.8493 60.4143C76.6836 60.4143 76.5479 60.5517 76.5479 60.7195ZM82.0479 61.185C81.3476 61.9425 81.1417 62.8559 81.6712 62.8559C81.837 62.8559 81.9726 62.5812 81.9726 62.2455C81.9726 61.9098 82.1082 61.6351 82.274 61.6351C82.4397 61.6351 82.5753 61.9098 82.5753 62.2455C82.5753 62.5812 82.711 62.8559 82.8767 62.8559C83.0425 62.8559 83.1781 62.3066 83.1781 61.6351C83.1781 60.2355 82.9939 60.1619 82.0479 61.185ZM95.2329 61.0247C95.2329 61.3605 95.3685 61.6351 95.5342 61.6351C95.973 61.6351 95.904 63.3906 95.4589 63.5518C95.2519 63.6266 95.1774 63.7917 95.2937 63.9186C95.577 64.2275 96.4384 63.3293 96.4384 62.725C96.4384 62.4613 96.574 62.2455 96.7397 62.2455C96.9055 62.2455 97.0411 61.8335 97.0411 61.3299C97.0411 60.8263 96.9055 60.4143 96.7397 60.4143C96.574 60.4143 96.4384 60.689 96.4384 61.0247C96.4384 61.3605 96.3027 61.6351 96.137 61.6351C95.9712 61.6351 95.8356 61.3605 95.8356 61.0247C95.8356 60.689 95.7 60.4143 95.5342 60.4143C95.3685 60.4143 95.2329 60.689 95.2329 61.0247ZM101.26 60.7195C101.26 60.8874 101.396 61.0247 101.562 61.0247C101.727 61.0247 101.863 61.2994 101.863 61.6351C101.863 61.9708 101.727 62.2455 101.562 62.2455C101.396 62.2455 101.26 62.1082 101.26 61.9403C101.26 61.7725 101.125 61.6351 100.959 61.6351C100.793 61.6351 100.658 62.0471 100.658 62.5507C100.658 63.0543 100.793 63.4663 100.959 63.4663C101.125 63.4663 101.26 63.329 101.26 63.1611C101.26 62.9933 101.531 62.8559 101.863 62.8559C102.195 62.8559 102.466 62.9933 102.466 63.1611C102.466 63.329 102.601 63.4663 102.767 63.4663C102.933 63.4663 103.068 63.1916 103.068 62.8559C103.068 62.5202 102.933 62.2455 102.767 62.2455C102.601 62.2455 102.466 61.8335 102.466 61.3299C102.466 60.6179 102.332 60.4143 101.863 60.4143C101.531 60.4143 101.26 60.5517 101.26 60.7195ZM106.082 60.7195C106.082 60.8874 106.218 61.0247 106.384 61.0247C106.549 61.0247 106.685 61.2994 106.685 61.6351C106.685 61.9708 106.821 62.2455 106.986 62.2455C107.423 62.2455 107.357 63.3903 106.911 63.5518C106.704 63.6266 106.629 63.7917 106.746 63.9186C107.096 64.3004 107.89 63.2606 107.89 62.4198C107.89 61.9882 108.026 61.6351 108.192 61.6351C108.358 61.6351 108.493 61.3605 108.493 61.0247C108.493 60.689 108.358 60.4143 108.192 60.4143C108.026 60.4143 107.89 60.689 107.89 61.0247C107.89 61.3605 107.785 61.6351 107.656 61.6351C107.526 61.6351 107.225 61.3605 106.986 61.0247C106.52 60.3701 106.082 60.2224 106.082 60.7195ZM112.11 61.6351V62.8559H113.315C113.978 62.8559 114.521 62.9933 114.521 63.1611C114.521 63.329 114.656 63.4663 114.822 63.4663C114.988 63.4663 115.123 62.7796 115.123 61.9403C115.123 61.101 114.988 60.4143 114.822 60.4143C114.656 60.4143 114.521 60.8263 114.521 61.3299C114.521 61.8335 114.385 62.2455 114.219 62.2455C114.053 62.2455 113.918 61.8335 113.918 61.3299C113.918 60.8263 113.782 60.4143 113.616 60.4143C113.451 60.4143 113.315 60.8263 113.315 61.3299C113.315 61.8335 113.179 62.2455 113.014 62.2455C112.848 62.2455 112.712 61.8335 112.712 61.3299C112.712 60.8263 112.577 60.4143 112.411 60.4143C112.245 60.4143 112.11 60.9637 112.11 61.6351ZM118.74 61.199C118.74 61.6309 118.933 62.1802 119.17 62.4198C119.664 62.92 120.548 63.0039 120.548 62.5507C120.548 62.3829 120.277 62.2455 119.945 62.2455C119.614 62.2455 119.342 62.1082 119.342 61.9403C119.342 61.7725 119.614 61.6351 119.945 61.6351C120.347 61.6351 120.548 61.4316 120.548 61.0247C120.548 60.5498 120.347 60.4143 119.644 60.4143C118.874 60.4143 118.74 60.5306 118.74 61.199ZM124.767 61.6351C124.767 62.3066 124.903 62.8559 125.068 62.8559C125.234 62.8559 125.37 62.4439 125.37 61.9403C125.37 61.4368 125.505 61.0247 125.671 61.0247C125.837 61.0247 125.973 60.8874 125.973 60.7195C125.973 60.5517 125.701 60.4143 125.37 60.4143C124.867 60.4143 124.767 60.6179 124.767 61.6351ZM129.589 61.6351C129.589 62.7882 129.639 62.8559 130.493 62.8559C131.347 62.8559 131.397 62.7882 131.397 61.6351C131.397 60.4821 131.347 60.4143 130.493 60.4143C129.639 60.4143 129.589 60.4821 129.589 61.6351ZM91.0137 61.6351C91.0137 62.042 90.8127 62.2455 90.4109 62.2455C90.0092 62.2455 89.8082 62.042 89.8082 61.6351C89.8082 61.2283 90.0092 61.0247 90.4109 61.0247C90.8127 61.0247 91.0137 61.2283 91.0137 61.6351ZM130.795 61.6351C130.795 61.9708 130.659 62.2455 130.493 62.2455C130.327 62.2455 130.192 61.9708 130.192 61.6351C130.192 61.2994 130.327 61.0247 130.493 61.0247C130.659 61.0247 130.795 61.2994 130.795 61.6351ZM57.2603 62.8559C57.2603 63.1916 57.3959 63.4663 57.5616 63.4663C57.7274 63.4663 57.863 63.329 57.863 63.1611C57.863 62.9933 58.1342 62.8559 58.4658 62.8559C58.7973 62.8559 59.0685 62.9933 59.0685 63.1611C59.0685 63.329 59.2041 63.4663 59.3699 63.4663C59.5356 63.4663 59.6712 63.1916 59.6712 62.8559C59.6712 62.3472 59.4702 62.2455 58.4658 62.2455C57.4613 62.2455 57.2603 62.3472 57.2603 62.8559Z" fill="#575757"/>
</svg>
