<svg width="65" height="79" viewBox="0 0 65 79" fill="none" xmlns="http://www.w3.org/2000/svg">
<path fill-rule="evenodd" clip-rule="evenodd" d="M15.7962 0.355867C15.5414 0.651824 15.4738 8.86688 15.4738 39.5354C15.4738 73.6773 15.5202 78.3881 15.8607 78.7363C16.2044 79.0879 16.2906 79.0879 16.6343 78.7363C17.2056 78.152 17.2239 0.922195 16.6527 0.338194C16.2091 -0.115765 16.2019 -0.115502 15.7962 0.355867ZM0 38.887C0 62.3507 0.0479688 65.7284 0.386845 66.075C0.730622 66.4266 0.816759 66.4266 1.16054 66.075C1.49941 65.7284 1.54738 62.3507 1.54738 38.887V12.095H0.773691H0V38.887ZM30.9476 38.887C30.9476 62.3507 30.9956 65.7284 31.3345 66.075C31.6782 66.4266 31.7644 66.4266 32.1082 66.075C32.447 65.7284 32.495 62.3507 32.495 38.887V12.095H31.7213H30.9476V38.887ZM51.5794 26.0751C51.5794 26.2202 51.8115 26.3389 52.0952 26.3389C52.3789 26.3389 52.611 26.2202 52.611 26.0751C52.611 25.9301 52.3789 25.8114 52.0952 25.8114C51.8115 25.8114 51.5794 25.9301 51.5794 26.0751ZM37.1371 28.7129C37.1371 30.3834 37.1861 30.5593 37.6529 30.5593C38.2195 30.5593 38.3578 30.1402 37.8487 29.9666C37.6158 29.8872 37.646 29.7374 37.9593 29.4172C38.6531 28.7076 39.2003 28.8622 39.2003 29.768C39.2003 30.2032 39.3164 30.5593 39.4582 30.5593C39.6055 30.5593 39.7161 29.768 39.7161 28.7129C39.7161 27.6578 39.6055 26.8665 39.4582 26.8665C39.3164 26.8665 39.2003 27.2226 39.2003 27.6578C39.2003 28.2732 39.0858 28.4491 38.6845 28.4491C38.3874 28.4491 38.1687 28.2732 38.1687 28.0347C38.1687 27.6348 37.5872 26.8665 37.2844 26.8665C37.2034 26.8665 37.1371 27.6974 37.1371 28.7129ZM40.8122 27.5325C40.228 28.1706 40.0101 29.5042 40.4898 29.5042C40.6317 29.5042 40.7477 29.6907 40.7477 29.9186C40.7477 30.5045 41.387 31.0869 42.0305 31.0869C42.8521 31.0869 43.8425 29.9337 43.8425 28.9767C43.8425 27.9909 42.8382 26.8593 41.9843 26.8826C41.6589 26.8915 41.1315 27.1841 40.8122 27.5325ZM44.3583 28.9767V31.0869H45.3899C46.2494 31.0869 46.4214 30.9991 46.4214 30.5593C46.4214 30.2692 46.512 30.0318 46.6223 30.0318C46.733 30.0318 46.9906 30.2692 47.1951 30.5593C47.4136 30.869 47.8628 31.0869 48.2837 31.0869C48.8284 31.0869 49.0004 30.9603 49.0004 30.5593C49.0004 29.9798 48.5906 29.8384 48.4209 30.3591C48.2788 30.7949 47.453 29.969 47.453 29.3911C47.453 28.7256 48.2187 28.9121 49.0004 29.768C49.3978 30.2032 49.7927 30.5593 49.8775 30.5593C49.9626 30.5593 50.032 29.7284 50.032 28.7129C50.032 27.6578 49.9214 26.8665 49.7741 26.8665C49.6323 26.8665 49.5162 27.3413 49.5162 27.9216C49.5162 28.5019 49.4001 28.9767 49.2583 28.9767C49.1165 28.9767 49.0004 28.858 49.0004 28.7129C49.0004 28.5678 48.8181 28.4491 48.5952 28.4491C48.074 28.4491 47.453 27.814 47.453 27.2809C47.453 27.053 47.337 26.8665 47.1951 26.8665C47.0533 26.8665 46.9372 27.46 46.9372 28.1854C46.9372 28.9107 46.8212 29.5042 46.6793 29.5042C46.5375 29.5042 46.4214 29.0803 46.4214 28.5623C46.4214 27.4505 45.9392 26.8665 45.0213 26.8665C44.3645 26.8665 44.3583 26.886 44.3583 28.9767ZM52.611 27.394C52.611 27.6842 52.4949 27.9216 52.3531 27.9216C52.2112 27.9216 52.0952 28.159 52.0952 28.4491C52.0952 28.7393 52.2112 28.9767 52.3531 28.9767C52.4949 28.9767 52.611 29.4515 52.611 30.0318C52.611 30.6121 52.727 31.0869 52.8689 31.0869C53.0192 31.0869 53.1268 30.2077 53.1268 28.9767C53.1268 27.7456 53.0192 26.8665 52.8689 26.8665C52.727 26.8665 52.611 27.1039 52.611 27.394ZM42.8109 27.9216C42.8109 28.2117 42.9269 28.4491 43.0688 28.4491C43.5449 28.4491 43.3326 29.2584 42.6819 29.9239L42.0372 30.5833L41.3924 29.9239C40.7418 29.2584 40.5295 28.4491 41.0056 28.4491C41.1474 28.4491 41.2635 28.2117 41.2635 27.9216C41.2635 27.5111 41.4355 27.394 42.0372 27.394C42.6389 27.394 42.8109 27.5111 42.8109 27.9216ZM45.9056 27.9216C45.9056 28.2732 45.7336 28.4491 45.3899 28.4491C45.0461 28.4491 44.8741 28.2732 44.8741 27.9216C44.8741 27.57 45.0461 27.394 45.3899 27.394C45.7336 27.394 45.9056 27.57 45.9056 27.9216ZM50.5478 27.6578C50.5478 27.8029 50.7799 27.9216 51.0636 27.9216C51.3473 27.9216 51.5794 27.8029 51.5794 27.6578C51.5794 27.5127 51.3473 27.394 51.0636 27.394C50.7799 27.394 50.5478 27.5127 50.5478 27.6578ZM51.0636 29.5042C51.0636 29.7944 50.9475 30.0318 50.8057 30.0318C50.6638 30.0318 50.5478 30.1505 50.5478 30.2956C50.5478 30.6873 51.3042 30.6147 51.7266 30.1824C52.2636 29.6335 52.1831 28.9767 51.5794 28.9767C51.2356 28.9767 51.0636 29.1526 51.0636 29.5042ZM45.9056 30.0318C45.9056 30.3834 45.7336 30.5593 45.3899 30.5593C45.0461 30.5593 44.8741 30.3834 44.8741 30.0318C44.8741 29.6802 45.0461 29.5042 45.3899 29.5042C45.7336 29.5042 45.9056 29.6802 45.9056 30.0318ZM4.64214 39.264V45.3308H6.96322C8.33858 45.3308 9.28429 45.2235 9.28429 45.0671C9.28429 44.922 9.57829 44.8033 9.93754 44.8033C10.664 44.8033 12.379 43.2346 12.379 42.5699C12.379 42.3475 12.4951 42.1655 12.6369 42.1655C12.7932 42.1655 12.8948 41.0226 12.8948 39.264C12.8948 37.5054 12.7932 36.3624 12.6369 36.3624C12.4951 36.3624 12.379 36.1812 12.379 35.9599C12.379 35.7383 11.8599 35.0261 11.2252 34.3772L10.0716 33.1971H7.35677H4.64214V39.264ZM21.1475 33.6115C21.1475 34.4487 21.8366 34.7798 23.5793 34.7798C25.032 34.7798 25.2739 34.8468 25.2739 35.249C25.2739 35.5073 25.0418 35.8895 24.7581 36.0986C24.4744 36.3078 24.2423 36.6639 24.2423 36.89C24.2423 37.116 24.0102 37.4721 23.7265 37.6813C23.4428 37.8905 23.2107 38.2218 23.2107 38.4178C23.2107 38.9519 23.8761 39.5277 24.4935 39.5277C24.7937 39.5277 25.3242 39.8192 25.6723 40.1753C27.0611 41.5955 26.0401 43.7482 23.9777 43.7482C22.8762 43.7482 22.1791 43.2953 22.1791 42.5799C22.1791 42.0658 21.9922 42.0552 21.5161 42.5424C21.0934 42.9745 21.0225 43.7482 21.4054 43.7482C21.5473 43.7482 21.6633 43.9856 21.6633 44.2757C21.6633 44.6273 21.8354 44.8033 22.1791 44.8033C22.4628 44.8033 22.6949 44.922 22.6949 45.0671C22.6949 45.2121 23.3371 45.3308 24.1219 45.3308C25.4065 45.3308 25.6383 45.2396 26.4429 44.4163C27.2948 43.5453 27.3371 43.4137 27.3371 41.6348C27.3371 40.0039 27.2569 39.6855 26.7039 39.1202C26.3558 38.7641 25.8916 38.4726 25.6723 38.4726C25.074 38.4726 25.162 37.0891 25.7897 36.6262C26.0734 36.417 26.3055 36.0609 26.3055 35.8349C26.3055 35.6088 26.5376 35.2527 26.8213 35.0435C27.124 34.8201 27.3371 34.3606 27.3371 33.9301V33.1971H24.2423C21.6009 33.1971 21.1475 33.2578 21.1475 33.6115ZM37.7174 34.9182C36.937 35.771 36.9592 36.9958 37.7703 37.8251C38.1184 38.1812 38.6489 38.4726 38.9491 38.4726C39.452 38.4726 40.2319 37.9227 40.2319 37.5681C40.2319 37.2696 39.2408 37.4252 39.1382 37.7399C39.0711 37.9459 38.7843 37.8074 38.3431 37.3561C37.6545 36.6518 37.4224 35.8349 37.9108 35.8349C38.0527 35.8349 38.1687 35.5975 38.1687 35.3073C38.1687 34.9003 38.3408 34.7798 38.921 34.7798C39.3347 34.7798 39.7249 34.9283 39.7883 35.1095C39.8515 35.291 39.991 35.3559 40.0983 35.254C40.4114 34.9565 39.5505 34.2506 38.8963 34.2683C38.5672 34.2773 38.0367 34.5698 37.7174 34.9182ZM40.7477 34.516C40.7477 34.6611 40.8638 34.7798 41.0056 34.7798C41.1529 34.7798 41.2635 35.5711 41.2635 36.6262C41.2635 37.6813 41.3741 38.4726 41.5214 38.4726C41.6635 38.4726 41.7793 37.7887 41.7793 36.9483C41.7793 35.7265 41.8817 35.3482 42.2951 35.0435C43.0683 34.4735 42.9241 34.2522 41.7793 34.2522C41.2119 34.2522 40.7477 34.3709 40.7477 34.516ZM43.8425 34.7798C43.8425 35.0699 43.7264 35.3073 43.5846 35.3073C43.4427 35.3073 43.3267 35.7821 43.3267 36.3624C43.3267 36.9427 43.2106 37.4175 43.0688 37.4175C42.9269 37.4175 42.8109 37.6549 42.8109 37.9451C42.8109 38.2352 42.9014 38.4726 43.0118 38.4726C43.1224 38.4726 43.3801 38.2352 43.5846 37.9451C43.9686 37.4001 44.8741 37.215 44.8741 37.6813C44.8741 37.8264 44.9901 37.9451 45.132 37.9451C45.2738 37.9451 45.3899 37.589 45.3899 37.1538C45.3899 36.7185 45.2738 36.3624 45.132 36.3624C44.9901 36.3624 44.8741 36.0572 44.8741 35.6843C44.8741 35.0731 44.3673 34.2522 43.9897 34.2522C43.9087 34.2522 43.8425 34.4896 43.8425 34.7798ZM45.9056 36.0986C45.9056 37.1538 46.0163 37.9451 46.1635 37.9451C46.3054 37.9451 46.4214 37.7586 46.4214 37.5307C46.4214 37.3025 46.5873 36.9464 46.79 36.7394C47.5015 36.0113 47.9688 36.2801 47.9688 37.4175C47.9688 37.9978 48.0849 38.4726 48.2267 38.4726C48.3771 38.4726 48.4846 37.5935 48.4846 36.3624C48.4846 35.1314 48.3771 34.2522 48.2267 34.2522C48.0849 34.2522 47.9688 34.6083 47.9688 35.0435C47.9688 35.747 47.8829 35.8349 47.1951 35.8349C46.5073 35.8349 46.4214 35.747 46.4214 35.0435C46.4214 34.6083 46.3054 34.2522 46.1635 34.2522C46.0163 34.2522 45.9056 35.0435 45.9056 36.0986ZM49.5162 35.8349C49.5162 36.714 49.4017 37.4175 49.2583 37.4175C49.1165 37.4175 49.0004 37.7736 49.0004 38.2089C49.0004 38.6441 49.1165 39.0002 49.2583 39.0002C49.4001 39.0002 49.5162 38.8815 49.5162 38.7364C49.5162 38.3487 51.5157 38.4106 51.6469 38.8024C51.7168 39.0107 52.0475 38.8166 52.5455 38.2748C53.478 37.2606 53.795 37.2176 54.4851 38.011C54.8353 38.4136 55.0388 38.4985 55.1172 38.2748C55.1809 38.0936 55.4553 37.9451 55.7271 37.9451C56.0495 37.9451 56.2215 37.7615 56.2215 37.4175C56.2215 37.1137 56.3935 36.89 56.6267 36.89C57.2356 36.89 57.7689 36.2213 57.7689 35.4579C57.7689 34.9557 57.9027 34.7798 58.2847 34.7798C58.7515 34.7798 58.8005 34.9557 58.8005 36.6262C58.8005 37.6813 58.9111 38.4726 59.0584 38.4726C59.2056 38.4726 59.3163 37.6813 59.3163 36.6262C59.3163 34.9557 59.3653 34.7798 59.8321 34.7798C60.1158 34.7798 60.3479 34.6611 60.3479 34.516C60.3479 34.1251 57.8419 34.1865 57.6614 34.5819C57.5412 34.8457 57.4808 34.8457 57.3606 34.5819C57.1564 34.1346 56.0126 34.1644 55.5585 34.6291C55.1396 35.0573 55.0563 36.3624 55.4478 36.3624C55.5897 36.3624 55.7057 36.5998 55.7057 36.89C55.7057 37.2416 55.5337 37.4175 55.1899 37.4175C54.7886 37.4175 54.6741 37.2416 54.6741 36.6262C54.6741 36.191 54.5581 35.8349 54.4162 35.8349C54.2744 35.8349 54.1583 35.4788 54.1583 35.0435C54.1583 34.4282 54.0438 34.2522 53.6425 34.2522C53.2413 34.2522 53.1268 34.4282 53.1268 35.0435C53.1268 35.4788 53.0107 35.8349 52.8689 35.8349C52.727 35.8349 52.611 36.1401 52.611 36.513C52.611 37.1242 52.1042 37.9451 51.7266 37.9451C51.6457 37.9451 51.5794 37.1142 51.5794 36.0986V34.2522H50.5478H49.5162V35.8349ZM9.80008 35.0435C9.80008 35.1886 10.0322 35.3073 10.3159 35.3073C10.6597 35.3073 10.8317 35.4833 10.8317 35.8349C10.8317 36.125 10.9477 36.3624 11.0896 36.3624C11.2314 36.3624 11.3475 36.5998 11.3475 36.89C11.3475 37.1801 11.4635 37.4175 11.6054 37.4175C11.7526 37.4175 11.8633 38.2089 11.8633 39.264C11.8633 40.3191 11.7526 41.1104 11.6054 41.1104C11.4635 41.1104 11.3475 41.2924 11.3475 41.5148C11.3475 41.7374 10.9451 42.3309 10.4533 42.8337C9.61569 43.6904 9.45321 43.7482 7.87437 43.7482H6.18952V39.264V34.7798H7.9948C9.02639 34.7798 9.80008 34.8929 9.80008 35.0435ZM51.0636 36.3624C51.0636 37.7691 51.0063 37.9451 50.5478 37.9451C50.0892 37.9451 50.032 37.7691 50.032 36.3624C50.032 34.9557 50.0892 34.7798 50.5478 34.7798C51.0063 34.7798 51.0636 34.9557 51.0636 36.3624ZM56.8846 35.1567C57.3753 35.6584 57.3537 36.3624 56.8479 36.3624C56.6249 36.3624 56.2705 36.1862 56.0601 35.9712C55.7439 35.6479 55.7359 35.512 56.0139 35.1899C56.4353 34.7014 56.4394 34.7012 56.8846 35.1567ZM44.5055 36.2118C45.0053 36.7227 44.9692 36.89 44.3583 36.89C44.0145 36.89 43.8425 36.714 43.8425 36.3624C43.8425 35.7375 44.006 35.7006 44.5055 36.2118ZM54.1583 36.3624C54.1583 36.714 53.9863 36.89 53.6425 36.89C53.2988 36.89 53.1268 36.714 53.1268 36.3624C53.1268 36.0108 53.2988 35.8349 53.6425 35.8349C53.9863 35.8349 54.1583 36.0108 54.1583 36.3624ZM62.9268 40.8466C62.9268 40.9917 63.1589 41.1104 63.4426 41.1104C63.7263 41.1104 63.9584 40.9917 63.9584 40.8466C63.9584 40.7015 63.7263 40.5828 63.4426 40.5828C63.1589 40.5828 62.9268 40.7015 62.9268 40.8466ZM37.4595 41.505C37.2718 41.7232 37.1371 42.6002 37.1371 43.6052C37.1371 45.1549 37.1898 45.3308 37.6529 45.3308C38.0999 45.3308 38.1687 45.1549 38.1687 44.0119C38.1687 43.2866 38.0527 42.6931 37.9108 42.6931C37.769 42.6931 37.6529 42.5744 37.6529 42.4293C37.6529 42.2842 38.0011 42.1655 38.4266 42.1655C39.0283 42.1655 39.2003 42.0484 39.2003 41.638C39.2003 41.236 39.0317 41.1128 38.4911 41.1204C38.1012 41.126 37.637 41.299 37.4595 41.505ZM40.7477 41.3742C40.7477 41.5193 40.5156 41.638 40.2319 41.638C39.8881 41.638 39.7161 41.8139 39.7161 42.1655C39.7161 42.4557 39.6001 42.6931 39.4582 42.6931C39.3164 42.6931 39.2003 43.0492 39.2003 43.4844C39.2003 43.9196 39.3164 44.2757 39.4582 44.2757C39.6001 44.2757 39.7161 44.5131 39.7161 44.8033C39.7161 45.1472 39.8881 45.3308 40.2105 45.3308C40.4823 45.3308 40.7725 45.4793 40.8553 45.6605C40.9754 45.9243 41.0358 45.9243 41.156 45.6605C41.2387 45.4793 41.5289 45.3308 41.8007 45.3308C42.1231 45.3308 42.2951 45.1472 42.2951 44.8033C42.2951 44.5131 42.4111 44.2757 42.553 44.2757C42.6948 44.2757 42.8109 43.9196 42.8109 43.4844C42.8109 43.0492 42.6948 42.6931 42.553 42.6931C42.4111 42.6931 42.2951 42.4557 42.2951 42.1655C42.2951 41.8139 42.1231 41.638 41.7793 41.638C41.4956 41.638 41.2635 41.5193 41.2635 41.3742C41.2635 41.2291 41.1474 41.1104 41.0056 41.1104C40.8638 41.1104 40.7477 41.2291 40.7477 41.3742ZM43.649 41.505C43.2625 41.9542 43.2055 45.3308 43.5846 45.3308C43.7264 45.3308 43.8425 45.0934 43.8425 44.8033C43.8425 44.4733 44.0145 44.2757 44.3013 44.2757C44.5537 44.2757 44.9274 44.0383 45.132 43.7482C45.6348 43.0344 45.9056 43.0848 45.9056 43.8919C45.9056 44.5643 46.9238 45.8584 47.453 45.8584C47.6078 45.8584 48.0191 45.5669 48.3673 45.2108C48.8333 44.7344 49.0004 44.2784 49.0004 43.4844C49.0004 42.6904 48.8333 42.2344 48.3673 41.758C47.5515 40.9234 47.2978 40.9421 46.4214 41.9017C45.5719 42.8321 45.3899 42.8785 45.3899 42.1655C45.3899 41.8139 45.2178 41.638 44.8741 41.638C44.5904 41.638 44.3583 41.5193 44.3583 41.3742C44.3583 41.0028 44.0289 41.0634 43.649 41.505ZM49.8386 41.505C49.6508 41.7232 49.5162 42.6002 49.5162 43.6052C49.5162 44.5799 49.404 45.3308 49.2583 45.3308C49.1165 45.3308 49.0004 45.5682 49.0004 45.8584C49.0004 46.1485 49.0909 46.3859 49.2013 46.3859C49.3119 46.3859 49.5696 46.1485 49.7741 45.8584C50.1571 45.3147 51.5794 45.1071 51.5794 45.5946C51.5794 45.7397 51.6954 45.8584 51.8373 45.8584C52.2594 45.8584 52.1602 41.9305 51.7266 41.4873C51.2588 41.0086 50.2579 41.0178 49.8386 41.505ZM53.1912 41.7764C52.3678 42.6762 52.3933 44.3409 53.2441 45.2108C53.9706 45.9541 54.3035 46.0114 54.8214 45.4814C55.3449 44.9462 55.2828 44.8033 54.5269 44.8033C53.7191 44.8033 53.1268 44.2451 53.1268 43.4844C53.1268 42.7237 53.7191 42.1655 54.5269 42.1655C55.2828 42.1655 55.3449 42.0225 54.8214 41.4873C54.3071 40.9614 53.8659 41.0397 53.1912 41.7764ZM59.1229 41.505C58.9457 41.711 58.8005 42.0626 58.8005 42.2863C58.8005 42.51 58.6844 42.6931 58.5426 42.6931C58.4007 42.6931 58.2847 43.0492 58.2847 43.4844C58.2847 43.9196 58.4007 44.2757 58.5426 44.2757C58.6844 44.2757 58.8005 44.5131 58.8005 44.8033C58.8005 45.1472 58.9725 45.3308 59.2949 45.3308C59.5667 45.3308 59.8568 45.4793 59.9396 45.6605C60.0598 45.9243 60.1201 45.9243 60.2403 45.6605C60.3231 45.4793 60.6132 45.3308 60.8851 45.3308C61.2074 45.3308 61.3795 45.1472 61.3795 44.8033C61.3795 44.5131 61.4955 44.2757 61.6374 44.2757C61.7792 44.2757 61.8952 43.9196 61.8952 43.4844C61.8952 43.0492 61.7792 42.6931 61.6374 42.6931C61.4955 42.6931 61.3795 42.4557 61.3795 42.1655C61.3795 41.8139 61.2074 41.638 60.8637 41.638C60.58 41.638 60.3479 41.5193 60.3479 41.3742C60.3479 40.9827 59.494 41.0737 59.1229 41.505ZM56.2215 43.4844C56.2215 44.5395 56.3322 45.3308 56.4794 45.3308C56.6213 45.3308 56.7373 45.0934 56.7373 44.8033C56.7373 44.1259 56.946 44.1367 57.5469 44.8455C57.8127 45.1591 58.106 45.3377 58.1988 45.243C58.2914 45.148 58.1168 44.8481 57.8102 44.5762C57.5028 44.3034 57.2531 43.7709 57.2531 43.3876C57.2531 43.0056 57.1371 42.6931 56.9952 42.6931C56.8534 42.6931 56.7373 42.4557 56.7373 42.1655C56.7373 41.8754 56.6213 41.638 56.4794 41.638C56.3322 41.638 56.2215 42.4293 56.2215 43.4844ZM57.2531 42.1655C57.2531 42.7904 57.4166 42.8273 57.9162 42.3161C58.416 41.8052 58.3799 41.638 57.7689 41.638C57.4251 41.638 57.2531 41.8139 57.2531 42.1655ZM62.411 42.4293C62.411 42.8645 62.5271 43.2206 62.6689 43.2206C62.8108 43.2206 62.9268 42.8645 62.9268 42.4293C62.9268 41.9941 62.8108 41.638 62.6689 41.638C62.5271 41.638 62.411 41.9941 62.411 42.4293ZM63.9584 42.1655C63.9584 42.4557 63.8424 42.6931 63.7005 42.6931C63.5587 42.6931 63.4426 42.9305 63.4426 43.2206C63.4426 43.5722 63.2706 43.7482 62.9268 43.7482C62.5255 43.7482 62.411 43.9241 62.411 44.5395C62.411 44.9747 62.5271 45.3308 62.6689 45.3308C62.8108 45.3308 62.9268 45.1475 62.9268 44.9233C62.9268 44.5435 64.0198 43.2206 64.3337 43.2206C64.411 43.2206 64.4742 43.458 64.4742 43.7482C64.4742 44.0383 64.3582 44.2757 64.2163 44.2757C64.0745 44.2757 63.9584 44.5131 63.9584 44.8033C63.9584 45.1549 64.1304 45.3308 64.4742 45.3308C64.9023 45.3308 64.99 45.1549 64.99 44.2976C64.99 43.7292 64.8451 43.1953 64.6676 43.1106C64.4097 42.9877 64.4097 42.926 64.6676 42.8031C65.2054 42.5464 65.0545 41.638 64.4742 41.638C64.1304 41.638 63.9584 41.8139 63.9584 42.1655ZM41.9266 42.5424C42.7229 43.3567 42.1336 44.8033 41.0056 44.8033C39.9039 44.8033 39.3043 43.4129 40.0385 42.5601C40.4578 42.0729 41.4587 42.0637 41.9266 42.5424ZM44.8741 42.6931C44.8741 43.0447 44.702 43.2206 44.3583 43.2206C44.0145 43.2206 43.8425 43.0447 43.8425 42.6931C43.8425 42.3414 44.0145 42.1655 44.3583 42.1655C44.702 42.1655 44.8741 42.3414 44.8741 42.6931ZM48.4846 43.1075C48.4846 44.2193 48.0023 44.8033 47.0845 44.8033C46.4606 44.8033 46.4214 44.7252 46.4214 43.4844V42.1655H47.453C48.464 42.1655 48.4846 42.1842 48.4846 43.1075ZM51.5794 43.4844C51.5794 44.774 51.5621 44.8033 50.8057 44.8033C50.3802 44.8033 50.032 44.6846 50.032 44.5395C50.032 44.3944 50.148 44.2757 50.2899 44.2757C50.4317 44.2757 50.5478 43.8009 50.5478 43.2206C50.5478 42.3414 50.6337 42.1655 51.0636 42.1655C51.5105 42.1655 51.5794 42.3414 51.5794 43.4844ZM61.0109 42.5424C61.8073 43.3567 61.218 44.8033 60.09 44.8033C58.9882 44.8033 58.3886 43.4129 59.1229 42.5601C59.5422 42.0729 60.5431 42.0637 61.0109 42.5424ZM37.1371 49.2875C37.1371 49.7227 37.2532 50.0788 37.395 50.0788C37.5369 50.0788 37.6529 50.2608 37.6529 50.4832C37.6529 50.9925 39.4309 52.8374 39.6689 52.5749C39.7656 52.4681 39.7001 52.3275 39.5227 52.2629C39.3455 52.198 39.2003 51.9176 39.2003 51.6396C39.2003 51.3616 39.0843 51.1339 38.9424 51.1339C38.4609 51.1339 38.6812 49.748 39.2416 49.2508C39.5482 48.9789 39.7228 48.6789 39.6302 48.584C39.5374 48.4893 39.2442 48.6679 38.9783 48.9815C38.3663 49.7032 37.6529 49.7259 37.6529 49.0237C37.6529 48.7335 37.5369 48.4961 37.395 48.4961C37.2532 48.4961 37.1371 48.8522 37.1371 49.2875ZM40.2319 50.6064V52.7166H41.2635C42.1231 52.7166 42.2951 52.6287 42.2951 52.189C42.2951 51.8989 42.4111 51.6615 42.553 51.6615C42.6948 51.6615 42.8109 51.8989 42.8109 52.189C42.8109 52.4792 42.9269 52.7166 43.0688 52.7166C43.2106 52.7166 43.3267 52.4792 43.3267 52.189C43.3267 51.7786 43.4987 51.6615 44.1004 51.6615C44.5259 51.6615 44.8741 51.7802 44.8741 51.9252C44.8741 52.0703 44.9901 52.189 45.132 52.189C45.2738 52.189 45.3899 51.8329 45.3899 51.3977C45.3899 50.9625 45.2738 50.6064 45.132 50.6064C44.9901 50.6064 44.8741 50.3012 44.8741 49.9282C44.8741 49.317 44.3673 48.4961 43.9897 48.4961C43.9087 48.4961 43.8425 48.7335 43.8425 49.0237C43.8425 49.3139 43.7264 49.5513 43.5846 49.5513C43.4427 49.5513 43.3267 50.0261 43.3267 50.6064C43.3267 51.1867 43.2604 51.6615 43.1794 51.6615C42.7015 51.6615 42.2951 50.7607 42.2951 49.7019V48.4961H41.2635H40.2319V50.6064ZM45.9056 50.3426C45.9056 51.3977 46.0163 52.189 46.1635 52.189C46.3054 52.189 46.4214 51.9516 46.4214 51.6615C46.4214 51.2708 46.5935 51.1339 47.0845 51.1339C47.4494 51.1339 47.9136 50.9643 48.1161 50.757C48.3188 50.5499 48.4846 50.0751 48.4846 49.7019C48.4846 48.9287 48.6244 48.8652 49.1477 49.4006C49.5644 49.8266 49.6539 51.6615 49.2583 51.6615C49.1165 51.6615 49.0004 51.7802 49.0004 51.9252C49.0004 52.0703 49.2325 52.189 49.5162 52.189C49.9747 52.189 50.032 52.0131 50.032 50.6064C50.032 49.7272 50.1465 49.0237 50.2899 49.0237C50.4317 49.0237 50.5478 48.905 50.5478 48.7599C50.5478 48.3756 48.555 48.4363 48.3771 48.8259C48.2569 49.0896 48.1965 49.0896 48.0764 48.8259C47.9936 48.6444 47.4716 48.4961 46.9158 48.4961H45.9056V50.3426ZM53.1268 49.0237C53.1268 49.3139 53.0107 49.5513 52.8689 49.5513C52.727 49.5513 52.611 49.7887 52.611 50.0788C52.611 50.369 52.727 50.6064 52.8689 50.6064C53.0107 50.6064 53.1268 51.0812 53.1268 51.6615C53.1268 52.2418 53.2428 52.7166 53.3847 52.7166C53.535 52.7166 53.6425 51.8374 53.6425 50.6064C53.6425 49.3753 53.535 48.4961 53.3847 48.4961C53.2428 48.4961 53.1268 48.7335 53.1268 49.0237ZM54.4807 48.8908C54.1333 49.2943 54.0268 52.189 54.3592 52.189C54.4699 52.189 54.7275 51.9516 54.932 51.6615C55.1365 51.3713 55.4605 51.1339 55.6521 51.1339C55.8437 51.1339 56.1663 50.9643 56.3688 50.757C56.7915 50.3249 56.8624 49.5513 56.4794 49.5513C56.3376 49.5513 56.2215 49.3139 56.2215 49.0237C56.2215 48.6217 56.0529 48.4985 55.5123 48.5062C55.1224 48.5117 54.6581 48.6847 54.4807 48.8908ZM57.2531 50.6064V52.7166H57.9698C58.3907 52.7166 58.8399 52.4987 59.0584 52.189C59.2629 51.8989 59.5205 51.6615 59.6312 51.6615C59.7416 51.6615 59.8321 51.8989 59.8321 52.189C59.8321 52.4792 59.9481 52.7166 60.09 52.7166C60.2403 52.7166 60.3479 51.8374 60.3479 50.6064C60.3479 49.3753 60.2403 48.4961 60.09 48.4961C59.9481 48.4961 59.8321 48.9709 59.8321 49.5513C59.8321 50.4304 59.7462 50.6064 59.3163 50.6064C59.0326 50.6064 58.8005 50.4877 58.8005 50.3426C58.8005 50.1975 58.5684 50.0788 58.2847 50.0788C57.8834 50.0788 57.7689 49.9029 57.7689 49.2875C57.7689 48.8522 57.6528 48.4961 57.511 48.4961C57.3606 48.4961 57.2531 49.3753 57.2531 50.6064ZM41.7793 49.5513C41.7793 49.9029 41.6073 50.0788 41.2635 50.0788C40.9197 50.0788 40.7477 49.9029 40.7477 49.5513C40.7477 49.1996 40.9197 49.0237 41.2635 49.0237C41.6073 49.0237 41.7793 49.1996 41.7793 49.5513ZM47.6189 49.4194C47.9626 49.771 47.9626 49.8591 47.6189 50.2107C46.9653 50.8791 46.4214 50.6995 46.4214 49.815C46.4214 48.9306 46.9653 48.751 47.6189 49.4194ZM51.0636 50.8701C51.0636 51.8857 51.1299 52.7166 51.2108 52.7166C51.5136 52.7166 52.0952 51.9482 52.0952 51.5483C52.0952 51.3204 52.2112 51.1339 52.3531 51.1339C52.4949 51.1339 52.611 51.0152 52.611 50.8701C52.611 50.7251 52.3789 50.6064 52.0952 50.6064C51.6939 50.6064 51.5794 50.4304 51.5794 49.815C51.5794 49.3798 51.4633 49.0237 51.3215 49.0237C51.1742 49.0237 51.0636 49.815 51.0636 50.8701ZM55.8716 49.4194C56.2153 49.771 56.2153 49.8591 55.8716 50.2107C55.0275 51.074 54.2091 50.3328 54.9965 49.4183C55.404 48.9451 55.4079 48.9451 55.8716 49.4194ZM44.3583 50.6064C44.3583 50.8965 44.2422 51.1339 44.1004 51.1339C43.9585 51.1339 43.8425 50.8965 43.8425 50.6064C43.8425 50.3162 43.9585 50.0788 44.1004 50.0788C44.2422 50.0788 44.3583 50.3162 44.3583 50.6064ZM58.8005 51.0208C58.8005 51.4206 58.2189 52.189 57.9162 52.189C57.8352 52.189 57.7689 51.8329 57.7689 51.3977C57.7689 50.7823 57.8834 50.6064 58.2847 50.6064C58.5818 50.6064 58.8005 50.7823 58.8005 51.0208ZM37.1371 51.6615C37.1371 52.0131 37.3092 52.189 37.6529 52.189C38.2639 52.189 38.3 52.0218 37.8002 51.5108C37.3007 50.9996 37.1371 51.0366 37.1371 51.6615ZM42.2951 51.2845C42.2951 51.3676 42.1293 51.605 41.9266 51.8121C41.3899 52.3613 40.7477 52.279 40.7477 51.6615C40.7477 51.251 40.9197 51.1339 41.5214 51.1339C41.9469 51.1339 42.2951 51.2017 42.2951 51.2845Z" fill="#575757"/>
</svg>
