<svg width="82" height="39" viewBox="0 0 82 39" fill="none" xmlns="http://www.w3.org/2000/svg">
<path fill-rule="evenodd" clip-rule="evenodd" d="M38.5209 0.559524C38.5209 0.867435 38.2413 1.32317 37.8996 1.57258C37.5579 1.82199 37.2783 2.27773 37.2783 2.58564C37.2783 2.89323 37.1385 3.14516 36.9676 3.14516C36.7968 3.14516 36.657 3.55812 36.657 4.0626C36.657 4.56709 36.4824 5.06245 36.2687 5.16341C35.958 5.30998 35.958 5.38357 36.2687 5.53014C36.4824 5.6311 36.657 5.92202 36.657 6.17678C36.657 6.43123 37.4958 7.47322 38.5209 8.49194L40.3848 10.3441V12.4061C40.3848 13.5707 40.2497 14.4677 40.0742 14.4677C39.9033 14.4677 39.7635 14.7508 39.7635 15.0968C39.7635 15.4427 39.8381 15.7258 39.9291 15.7258C40.314 15.7258 42.2487 13.5047 42.2487 13.0628C42.2487 12.7977 42.3885 12.5806 42.5594 12.5806C42.7302 12.5806 42.87 12.2976 42.87 11.9516C42.87 11.6056 43.0098 11.3226 43.1807 11.3226C43.3515 11.3226 43.4913 10.8209 43.4913 10.2076C43.4913 9.10273 42.4041 7.54839 41.6312 7.54839C41.1198 7.54839 39.1422 5.43264 39.1422 4.88538C39.1422 4.62024 39.0024 4.40323 38.8316 4.40323C38.6607 4.40323 38.5209 3.8371 38.5209 3.14516C38.5209 2.45323 38.6607 1.8871 38.8316 1.8871C39.0024 1.8871 39.1422 1.4625 39.1422 0.943548C39.1422 0.424597 39.0024 0 38.8316 0C38.6607 0 38.5209 0.251927 38.5209 0.559524ZM25.4735 16.6694C25.4735 16.8423 25.6931 16.9839 25.9615 16.9839C26.5894 16.9839 27.3374 17.7412 27.3374 18.3769C27.3374 18.6486 27.4772 18.871 27.6481 18.871C27.8189 18.871 27.9587 19.154 27.9587 19.5C27.9587 19.846 28.0985 20.129 28.2694 20.129C28.4402 20.129 28.58 20.5536 28.58 21.0726C28.58 21.5915 28.7198 22.0161 28.8907 22.0161C29.0615 22.0161 29.2013 22.2992 29.2013 22.6452C29.2013 22.9911 29.3411 23.2742 29.512 23.2742C29.6828 23.2742 29.8226 23.6988 29.8226 24.2177C29.8226 24.7367 29.9624 25.1613 30.1333 25.1613C30.3041 25.1613 30.4439 25.4444 30.4439 25.7903C30.4439 26.1363 30.5837 26.4194 30.7546 26.4194C30.9254 26.4194 31.0652 26.844 31.0652 27.3629C31.0652 27.8819 31.205 28.3065 31.3759 28.3065C31.5468 28.3065 31.6865 28.5895 31.6865 28.9355C31.6865 29.2815 31.8263 29.5645 31.9972 29.5645C32.1681 29.5645 32.3079 29.9891 32.3079 30.5081C32.3079 31.027 32.4476 31.4516 32.6185 31.4516C32.7894 31.4516 32.9292 31.7347 32.9292 32.0806C32.9292 32.4266 33.069 32.7097 33.2398 32.7097C33.4107 32.7097 33.5505 32.9927 33.5505 33.3387C33.5505 33.6847 33.6903 33.9677 33.8611 33.9677C34.032 33.9677 34.1718 34.3923 34.1718 34.9113C34.1718 35.4302 34.3116 35.8548 34.4824 35.8548C34.6533 35.8548 34.7931 36.215 34.7931 36.6553C34.7931 37.0956 35.1363 37.8033 35.5557 38.2279C36.2771 38.9585 36.511 39 39.9049 39H43.4913V37.7419C43.4913 37.05 43.6311 36.4839 43.802 36.4839C43.9729 36.4839 44.1126 36.2008 44.1126 35.8548C44.1126 35.5089 44.2524 35.2258 44.4233 35.2258C44.5942 35.2258 44.734 34.8012 44.734 34.2823C44.734 33.7633 44.8737 33.3387 45.0446 33.3387C45.2155 33.3387 45.3553 33.0556 45.3553 32.7097C45.3553 32.3637 45.495 32.0806 45.6659 32.0806C45.8368 32.0806 45.9766 31.656 45.9766 31.1371C45.9766 30.6181 46.1164 30.1935 46.2872 30.1935C46.4581 30.1935 46.5979 29.9105 46.5979 29.5645C46.5979 29.2185 46.7377 28.9355 46.9085 28.9355C47.0794 28.9355 47.2192 28.5109 47.2192 27.9919C47.2192 27.473 47.359 27.0484 47.5298 27.0484C47.7007 27.0484 47.8405 26.7653 47.8405 26.4194C47.8405 26.0734 47.9803 25.7903 48.1511 25.7903C48.322 25.7903 48.4618 25.3657 48.4618 24.8468C48.4618 24.3278 48.6016 23.9032 48.7724 23.9032C48.9433 23.9032 49.0831 23.4786 49.0831 22.9597C49.0831 22.4407 49.2229 22.0161 49.3937 22.0161C49.5646 22.0161 49.7044 21.7331 49.7044 21.3871C49.7044 21.0411 49.8442 20.7581 50.015 20.7581C50.1859 20.7581 50.3257 20.475 50.3257 20.129C50.3257 19.7831 50.4655 19.5 50.6363 19.5C50.8072 19.5 50.947 19.2739 50.947 18.9971C50.947 18.7206 51.3664 18.0976 51.879 17.6129C52.3915 17.1282 52.8109 16.6467 52.8109 16.5432C52.8109 16.4394 52.1119 16.3548 51.2577 16.3548C50.4034 16.3548 49.7044 16.4964 49.7044 16.6694C49.7044 16.8423 49.4248 16.9839 49.0831 16.9839C48.669 16.9839 48.4618 17.1937 48.4618 17.6129C48.4618 17.9589 48.322 18.2419 48.1511 18.2419C47.9803 18.2419 47.8405 18.525 47.8405 18.871C47.8405 19.4824 47.6333 19.5 40.3848 19.5C33.1364 19.5 32.9292 19.5176 32.9292 20.129C32.9292 20.475 32.7894 20.7581 32.6185 20.7581C32.4476 20.7581 32.3079 20.3335 32.3079 19.8145C32.3079 19.2956 32.1681 18.871 31.9972 18.871C31.8263 18.871 31.6865 18.6486 31.6865 18.3769C31.6865 18.1048 31.4868 17.6802 31.2426 17.4333C30.9988 17.1861 30.5794 16.9839 30.3107 16.9839C30.0423 16.9839 29.8226 16.8423 29.8226 16.6694C29.8226 16.4898 28.8907 16.3548 27.6481 16.3548C26.4055 16.3548 25.4735 16.4898 25.4735 16.6694ZM22.367 19.8145C22.367 19.9875 22.5068 20.129 22.6776 20.129C22.8761 20.129 22.9883 22.8549 22.9883 27.6774C22.9883 32.4999 22.8761 35.2258 22.6776 35.2258C22.5068 35.2258 22.367 35.3673 22.367 35.5403C22.367 35.7199 23.2989 35.8548 24.5415 35.8548C25.7842 35.8548 26.7161 35.7199 26.7161 35.5403C26.7161 35.3673 26.5763 35.2258 26.4055 35.2258C26.2069 35.2258 26.0948 32.4999 26.0948 27.6774C26.0948 22.8549 26.2069 20.129 26.4055 20.129C26.5763 20.129 26.7161 19.9875 26.7161 19.8145C26.7161 19.6349 25.7842 19.5 24.5415 19.5C23.2989 19.5 22.367 19.6349 22.367 19.8145ZM51.5683 20.129C51.5683 20.475 51.7081 20.7581 51.879 20.7581C52.0765 20.7581 52.1896 23.2742 52.1896 27.6774C52.1896 32.0806 52.0765 34.5968 51.879 34.5968C51.7081 34.5968 51.5683 34.8798 51.5683 35.2258C51.5683 35.7111 51.7755 35.8548 52.4745 35.8548C52.9728 35.8548 53.462 35.6781 53.5618 35.4617C53.7065 35.1472 53.7792 35.1472 53.924 35.4617C54.1504 35.9527 60.8879 36.0288 60.8879 35.5403C60.8879 35.3673 61.1038 35.2258 61.3678 35.2258C61.9894 35.2258 63.3731 33.825 63.3731 33.1956C63.3731 32.9283 63.5129 32.7097 63.6838 32.7097C63.8546 32.7097 63.9944 32.002 63.9944 31.1371C63.9944 30.2722 63.8546 29.5645 63.6838 29.5645C63.5129 29.5645 63.3731 29.3412 63.3731 29.0682C63.3731 28.7949 62.8139 28.0278 62.1305 27.3629C60.7335 26.0039 60.6098 25.5032 61.5092 24.8468C61.9419 24.531 62.1305 24.0325 62.1305 23.2047C62.1305 22.5511 61.9907 22.0161 61.8198 22.0161C61.649 22.0161 61.5092 21.7938 61.5092 21.522C61.5092 20.8864 60.7611 20.129 60.1333 20.129C59.8649 20.129 59.6453 19.9875 59.6453 19.8145C59.6453 19.3305 54.1486 19.406 53.924 19.8931C53.7792 20.2077 53.7065 20.2077 53.5618 19.8931C53.462 19.6771 52.9728 19.5 52.4745 19.5C51.7755 19.5 51.5683 19.6437 51.5683 20.129ZM47.2192 20.7581C47.2192 21.104 47.0794 21.3871 46.9085 21.3871C46.7377 21.3871 46.5979 21.6702 46.5979 22.0161C46.5979 22.3621 46.4581 22.6452 46.2872 22.6452C46.1164 22.6452 45.9766 22.3621 45.9766 22.0161C45.9766 21.6702 46.1164 21.3871 46.2872 21.3871C46.4581 21.3871 46.5979 21.104 46.5979 20.7581C46.5979 20.4121 46.7377 20.129 46.9085 20.129C47.0794 20.129 47.2192 20.4121 47.2192 20.7581ZM63.9944 20.7581C63.9944 21.104 64.1342 21.3871 64.3051 21.3871C64.5017 21.3871 64.6157 23.6934 64.6157 27.6774C64.6157 31.6614 64.5017 33.9677 64.3051 33.9677C64.1342 33.9677 63.9944 34.2508 63.9944 34.5968C63.9944 34.9427 64.1342 35.2258 64.3051 35.2258C64.4759 35.2258 64.6157 35.0843 64.6157 34.9113C64.6157 34.7279 65.6511 34.5968 67.1009 34.5968C68.5507 34.5968 69.5861 34.7279 69.5861 34.9113C69.5861 35.3938 71.747 35.2846 72.2487 34.7764C72.7508 34.2684 72.8586 32.0806 72.382 32.0806C72.2112 32.0806 72.0714 32.3637 72.0714 32.7097C72.0714 33.2862 71.8642 33.3387 69.5861 33.3387H67.1009V30.5081V27.6774H69.2755H71.4501V26.7339C71.4501 26.2149 71.3103 25.7903 71.1394 25.7903C70.9686 25.7903 70.8288 25.9319 70.8288 26.1048C70.8288 26.2797 70.0002 26.4194 68.9648 26.4194H67.1009V23.9032V21.3871H68.8962C70.3351 21.3871 70.7806 21.512 71.1394 22.0161C71.7961 22.9386 72.6927 22.8348 72.6927 21.8365C72.6927 20.3237 72.1462 20.129 67.8996 20.129C64.2016 20.129 63.9944 20.1624 63.9944 20.7581ZM13.6687 21.0726C13.6687 21.2456 13.8085 21.3871 13.9794 21.3871C14.1502 21.3871 14.29 21.6702 14.29 22.0161C14.29 22.3621 14.1502 22.6452 13.9794 22.6452C13.8085 22.6452 13.6687 22.9282 13.6687 23.2742C13.6687 23.6202 13.5289 23.9032 13.3581 23.9032C13.1872 23.9032 13.0474 24.3278 13.0474 24.8468C13.0474 25.3657 12.9076 25.7903 12.7367 25.7903C12.5659 25.7903 12.4261 26.0734 12.4261 26.4194C12.4261 26.7653 12.2863 27.0484 12.1154 27.0484C11.9446 27.0484 11.8048 27.473 11.8048 27.9919C11.8048 28.5109 11.665 28.9355 11.4941 28.9355C11.3233 28.9355 11.1835 29.2185 11.1835 29.5645C11.1835 29.9105 11.0437 30.1935 10.8728 30.1935C10.702 30.1935 10.5622 30.4766 10.5622 30.8226C10.5622 31.1685 10.4823 31.4516 10.3848 31.4516C10.0704 31.4516 9.31957 30.5647 9.31957 30.1935C9.31957 29.7331 8.53673 28.9355 8.08504 28.9355C7.73587 28.9355 6.21305 27.54 6.21305 27.2198C6.21305 27.1254 6.43268 27.0484 6.70108 27.0484C7.61223 27.0484 8.07696 26.1986 8.07696 24.5323C8.07696 22.866 7.61223 22.0161 6.70108 22.0161C6.43268 22.0161 6.21305 21.8746 6.21305 21.7016C6.21305 21.5129 4.97044 21.3871 3.10652 21.3871H0V22.3306C0 22.8496 0.139794 23.2742 0.310652 23.2742C0.503878 23.2742 0.621305 25.0566 0.621305 27.9919C0.621305 30.9273 0.503878 32.7097 0.310652 32.7097C0.139794 32.7097 0 32.9927 0 33.3387C0 33.8045 0.207205 33.9677 0.798687 33.9677C2.1289 33.9677 2.48522 33.3032 2.48522 30.8226C2.48522 29.295 2.62719 28.4323 2.92914 28.1269C3.43799 27.6114 4.34913 27.5249 4.34913 27.9919C4.34913 28.1649 4.56348 28.3065 4.82536 28.3065C5.44387 28.3065 7.45566 30.3433 7.45566 30.9695C7.45566 31.2346 7.59545 31.4516 7.76631 31.4516C7.93717 31.4516 8.07696 31.6702 8.07696 31.9375C8.07696 32.5669 9.46061 33.9677 10.0822 33.9677C10.3463 33.9677 10.5622 34.1093 10.5622 34.2823C10.5622 34.4552 10.8418 34.5968 11.1835 34.5968C12.0002 34.5968 12.0002 33.6202 11.1835 33.0242C10.8418 32.7748 10.5622 32.4606 10.5622 32.3257C10.5622 32.191 10.8418 32.0806 11.1835 32.0806C11.5976 32.0806 11.8048 31.8709 11.8048 31.4516C11.8048 31.1056 11.9446 30.8226 12.1154 30.8226C12.2863 30.8226 12.4261 30.6002 12.4261 30.3285C12.4261 29.5088 13.2484 28.9355 14.4233 28.9355C15.0334 28.9355 15.5326 28.794 15.5326 28.621C15.5326 28.448 15.8122 28.3065 16.1539 28.3065C16.568 28.3065 16.7752 28.5162 16.7752 28.9355C16.7752 29.2815 16.915 29.5645 17.0859 29.5645C17.2567 29.5645 17.3965 29.9891 17.3965 30.5081C17.3965 31.027 17.5363 31.4516 17.7072 31.4516C17.878 31.4516 18.0178 31.7347 18.0178 32.0806C18.0178 32.4266 18.1576 32.7097 18.3285 32.7097C18.4994 32.7097 18.6391 32.9283 18.6391 33.1956C18.6391 33.9599 20.0831 35.2258 20.9551 35.2258C21.39 35.2258 21.7457 35.0843 21.7457 34.9113C21.7457 34.7383 21.6059 34.5968 21.435 34.5968C21.2642 34.5968 21.1244 34.3137 21.1244 33.9677C21.1244 33.6218 20.9846 33.3387 20.8137 33.3387C20.6429 33.3387 20.5031 32.9141 20.5031 32.3952C20.5031 31.8762 20.3633 31.4516 20.1924 31.4516C20.0215 31.4516 19.8818 31.1685 19.8818 30.8226C19.8818 30.4766 19.742 30.1935 19.5711 30.1935C19.4002 30.1935 19.2605 29.769 19.2605 29.25C19.2605 28.731 19.1207 28.3065 18.9498 28.3065C18.7789 28.3065 18.6391 28.0234 18.6391 27.6774C18.6391 27.3315 18.4994 27.0484 18.3285 27.0484C18.1576 27.0484 18.0178 26.6238 18.0178 26.1048C18.0178 25.5859 17.878 25.1613 17.7072 25.1613C17.5363 25.1613 17.3965 24.8782 17.3965 24.5323C17.3965 24.1863 17.2567 23.9032 17.0859 23.9032C16.915 23.9032 16.7752 23.5431 16.7752 23.1028C16.7752 22.0721 15.4773 20.7581 14.4593 20.7581C14.0244 20.7581 13.6687 20.8996 13.6687 21.0726ZM58.58 21.2075C58.8242 21.4544 59.024 22.2394 59.024 22.9515C59.024 24.4832 57.9575 25.7903 56.708 25.7903C56.2731 25.7903 55.9174 25.9319 55.9174 26.1048C55.9174 26.2778 55.6379 26.4194 55.2961 26.4194C54.7339 26.4194 54.6748 26.2096 54.6748 24.2177C54.6748 22.9597 54.8081 22.0161 54.9855 22.0161C55.1563 22.0161 55.2961 21.7331 55.2961 21.3871C55.2961 20.8499 55.5033 20.7581 56.7161 20.7581C57.5328 20.7581 58.325 20.949 58.58 21.2075ZM33.5505 22.0161C33.5505 22.3621 33.6903 22.6452 33.8611 22.6452C34.032 22.6452 34.1718 22.9282 34.1718 23.2742C34.1718 23.6202 34.032 23.9032 33.8611 23.9032C33.6903 23.9032 33.5505 23.6202 33.5505 23.2742C33.5505 22.9282 33.4107 22.6452 33.2398 22.6452C33.069 22.6452 32.9292 22.3621 32.9292 22.0161C32.9292 21.6702 33.069 21.3871 33.2398 21.3871C33.4107 21.3871 33.5505 21.6702 33.5505 22.0161ZM74.9449 21.8576C74.7315 22.1033 74.5566 22.5225 74.5566 22.7892C74.5566 23.0559 74.4168 23.2742 74.2459 23.2742C74.0512 23.2742 73.9353 25.266 73.9353 28.621V33.9677H74.8672C75.3798 33.9677 75.7992 33.8262 75.7992 33.6532C75.7992 33.4802 76.2186 33.3387 76.7311 33.3387C77.2437 33.3387 77.6631 33.4802 77.6631 33.6532C77.6631 34.153 81.0576 34.0357 81.5683 33.5183C82.2151 32.8638 82.1182 32.0806 81.3909 32.0806C81.0492 32.0806 80.7696 32.2222 80.7696 32.3952C80.7696 32.5747 79.8377 32.7097 78.5951 32.7097H76.4205V27.3629C76.4205 24.008 76.5364 22.0161 76.7311 22.0161C76.902 22.0161 77.0418 21.8746 77.0418 21.7016C77.0418 21.2254 75.3876 21.3484 74.9449 21.8576ZM4.34913 22.3306C4.34913 22.5036 4.56877 22.6452 4.83717 22.6452C5.52713 22.6452 6.21305 23.4248 6.21305 24.2096C6.21305 24.983 4.90955 26.4194 4.20779 26.4194C3.94373 26.4194 3.72783 26.5609 3.72783 26.7339C3.72783 26.9069 3.44824 27.0484 3.10652 27.0484C2.54424 27.0484 2.48522 26.8386 2.48522 24.8468C2.48522 22.8549 2.54424 22.6452 3.10652 22.6452C3.44824 22.6452 3.72783 22.5036 3.72783 22.3306C3.72783 22.1577 3.86762 22.0161 4.03848 22.0161C4.20934 22.0161 4.34913 22.1577 4.34913 22.3306ZM45.9766 23.9032C45.9766 24.2492 45.8368 24.5323 45.6659 24.5323C45.495 24.5323 45.3553 24.8153 45.3553 25.1613C45.3553 25.5073 45.2155 25.7903 45.0446 25.7903C44.8737 25.7903 44.734 26.2149 44.734 26.7339C44.734 27.2528 44.5942 27.6774 44.4233 27.6774C44.2524 27.6774 44.1126 27.9605 44.1126 28.3065C44.1126 28.6524 43.9729 28.9355 43.802 28.9355C43.6311 28.9355 43.4913 29.2185 43.4913 29.5645C43.4913 29.9105 43.3515 30.1935 43.1807 30.1935C43.0098 30.1935 42.87 29.9105 42.87 29.5645C42.87 29.2185 43.0098 28.9355 43.1807 28.9355C43.3515 28.9355 43.4913 28.6524 43.4913 28.3065C43.4913 27.9605 43.6311 27.6774 43.802 27.6774C43.9729 27.6774 44.1126 27.2528 44.1126 26.7339C44.1126 26.2149 44.2524 25.7903 44.4233 25.7903C44.5942 25.7903 44.734 25.5073 44.734 25.1613C44.734 24.8153 44.8737 24.5323 45.0446 24.5323C45.2155 24.5323 45.3553 24.2492 45.3553 23.9032C45.3553 23.5573 45.495 23.2742 45.6659 23.2742C45.8368 23.2742 45.9766 23.5573 45.9766 23.9032ZM15.5326 25.4497C15.5326 25.9542 15.706 26.4253 15.9181 26.497C16.5587 26.7131 15.3739 27.6774 14.4674 27.6774C13.7871 27.6774 13.6687 27.5378 13.6687 26.7339C13.6687 26.2149 13.8085 25.7903 13.9794 25.7903C14.1502 25.7903 14.29 25.5073 14.29 25.1613C14.29 24.742 14.4972 24.5323 14.9113 24.5323C15.3907 24.5323 15.5326 24.742 15.5326 25.4497ZM34.7931 25.1613C34.7931 25.5073 34.9329 25.7903 35.1037 25.7903C35.2746 25.7903 35.4144 26.2149 35.4144 26.7339C35.4144 27.2528 35.5542 27.6774 35.725 27.6774C35.8959 27.6774 36.0357 27.9605 36.0357 28.3065C36.0357 28.6524 36.1755 28.9355 36.3463 28.9355C36.5172 28.9355 36.657 29.3601 36.657 29.879C36.657 30.398 36.7968 30.8226 36.9676 30.8226C37.1385 30.8226 37.2783 31.1056 37.2783 31.4516C37.2783 31.7976 37.4181 32.0806 37.5889 32.0806C37.7598 32.0806 37.8996 32.4936 37.8996 32.9981C37.8996 33.5026 38.0745 33.9784 38.2879 34.0558C38.5016 34.1329 38.5781 34.303 38.4581 34.4339C38.1661 34.7521 37.2783 33.8265 37.2783 33.2038C37.2783 32.932 37.1385 32.7097 36.9676 32.7097C36.7968 32.7097 36.657 32.2851 36.657 31.7661C36.657 31.2472 36.5172 30.8226 36.3463 30.8226C36.1755 30.8226 36.0357 30.398 36.0357 29.879C36.0357 29.3601 35.8959 28.9355 35.725 28.9355C35.5542 28.9355 35.4144 28.6524 35.4144 28.3065C35.4144 27.9605 35.2746 27.6774 35.1037 27.6774C34.9329 27.6774 34.7931 27.2528 34.7931 26.7339C34.7931 26.2149 34.6533 25.7903 34.4824 25.7903C34.3116 25.7903 34.1718 25.5073 34.1718 25.1613C34.1718 24.8153 34.3116 24.5323 34.4824 24.5323C34.6533 24.5323 34.7931 24.8153 34.7931 25.1613ZM59.8108 28.1388C60.7565 29.0959 60.8879 29.4236 60.8879 30.8226C60.8879 32.2215 60.7565 32.5493 59.8108 33.5063C58.4315 34.9028 56.6316 35.034 55.4375 33.8246C54.7951 33.1745 54.6748 32.7515 54.6748 31.1424C54.6748 29.4164 54.7724 29.1289 55.6844 28.1618C57.0855 26.6766 58.3598 26.6697 59.8108 28.1388ZM42.87 31.4516C42.87 31.7976 42.7302 32.0806 42.5594 32.0806C42.3885 32.0806 42.2487 32.3637 42.2487 32.7097C42.2487 33.0556 42.1089 33.3387 41.9381 33.3387C41.7672 33.3387 41.6274 33.6218 41.6274 33.9677C41.6274 34.3137 41.4876 34.5968 41.3168 34.5968C41.1459 34.5968 41.0061 34.3137 41.0061 33.9677C41.0061 33.6218 41.1459 33.3387 41.3168 33.3387C41.4876 33.3387 41.6274 33.0556 41.6274 32.7097C41.6274 32.3637 41.7672 32.0806 41.9381 32.0806C42.1089 32.0806 42.2487 31.7976 42.2487 31.4516C42.2487 31.1056 42.3885 30.8226 42.5594 30.8226C42.7302 30.8226 42.87 31.1056 42.87 31.4516Z" fill="#575757"/>
</svg>
