<svg width="96" height="39" viewBox="0 0 96 39" fill="none" xmlns="http://www.w3.org/2000/svg">
<path fill-rule="evenodd" clip-rule="evenodd" d="M28.8727 0.45756C28.6729 0.688217 28.5091 1.0819 28.5091 1.33234C28.5091 1.58279 28.3782 1.78775 28.2182 1.78775C28.0582 1.78775 27.9273 2.18645 27.9273 2.67376C27.9273 3.16106 27.7964 3.55976 27.6364 3.55976C27.4764 3.55976 27.3455 3.90973 27.3455 4.33738C27.3455 4.7727 27.0615 5.36485 26.7002 5.68293C26.1524 6.16521 26.1196 6.29634 26.482 6.5521C26.8055 6.78039 26.8209 6.88967 26.5455 7.00308C26.1146 7.18087 26.0518 8.28513 26.4727 8.28513C26.6327 8.28513 26.7636 8.68383 26.7636 9.17113C26.7636 9.86015 26.8928 10.0571 27.3455 10.0571C27.6655 10.0571 27.9273 10.19 27.9273 10.3525C27.9273 10.5149 28.1891 10.6478 28.5091 10.6478C28.8291 10.6478 29.0909 10.5149 29.0909 10.3525C29.0909 10.19 29.2916 10.0571 29.5369 10.0571C30.27 10.0571 32 8.09316 32 7.2612C32 6.8498 32.1309 6.51312 32.2909 6.51312C32.4509 6.51312 32.5818 6.24731 32.5818 5.92244C32.5818 5.59758 32.7127 5.33177 32.8727 5.33177C33.0327 5.33177 33.1636 5.06597 33.1636 4.7411C33.1636 4.41623 33.2945 4.15043 33.4545 4.15043C33.6145 4.15043 33.7455 3.75173 33.7455 3.26443C33.7455 2.77712 33.8764 2.37842 34.0364 2.37842C34.1964 2.37842 34.3273 2.12355 34.3273 1.81226C34.3273 1.50098 34.4896 1.19147 34.6883 1.12413C35.1136 0.980303 34.2929 0.0157382 33.7455 0.0157382C33.2643 0.0157382 32.5818 0.782724 32.5818 1.32378C32.5818 1.57895 32.4509 1.78775 32.2909 1.78775C32.1309 1.78775 32 2.13772 32 2.56537C32 3.00069 31.7161 3.59284 31.3548 3.91092C30.8212 4.38079 30.782 4.52433 31.1273 4.7411C31.4726 4.95788 31.4333 5.10141 30.8998 5.57129C30.5449 5.88376 30.2545 6.29929 30.2545 6.4951C30.2545 6.99894 29.5075 7.69446 28.9661 7.69446C28.6269 7.69446 28.5091 7.39026 28.5091 6.51312C28.5091 5.86338 28.64 5.33177 28.8 5.33177C28.96 5.33177 29.0909 5.06597 29.0909 4.7411C29.0909 4.41623 29.2218 4.15043 29.3818 4.15043C29.5418 4.15043 29.6727 3.75173 29.6727 3.26443C29.6727 2.77712 29.8036 2.37842 29.9636 2.37842C30.1236 2.37842 30.2545 2.12384 30.2545 1.81226C30.2545 1.50098 30.4169 1.19147 30.6156 1.12413C30.8783 1.03524 30.8442 0.867485 30.4911 0.508948C29.9034 -0.0876291 29.3603 -0.104759 28.8727 0.45756ZM37.8182 0.311074C37.8182 0.473508 37.5564 0.606409 37.2364 0.606409C36.5897 0.606409 36.4532 1.05266 37.0182 1.32023C37.3091 1.45786 37.3091 1.52697 37.0182 1.6646C36.8183 1.7594 36.6545 2.09165 36.6545 2.40293C36.6545 2.83501 36.8611 2.96909 37.5273 2.96909C38.206 2.96909 38.4 3.10022 38.4 3.55976C38.4 3.88463 38.2691 4.15043 38.1091 4.15043C37.9491 4.15043 37.8182 4.54914 37.8182 5.03644C37.8182 5.52374 37.6873 5.92244 37.5273 5.92244C37.3673 5.92244 37.2364 6.18825 37.2364 6.51312C37.2364 6.83798 37.1055 7.10379 36.9455 7.10379C36.7855 7.10379 36.6545 7.63539 36.6545 8.28513C36.6545 9.26948 36.5577 9.46647 36.0727 9.46647C35.7527 9.46647 35.4909 9.59937 35.4909 9.7618C35.4909 10.2148 37.5145 10.1124 37.9843 9.6351C38.2129 9.40327 38.4 8.87166 38.4 8.45376C38.4 8.03616 38.5309 7.69446 38.6909 7.69446C38.8509 7.69446 38.9818 7.42865 38.9818 7.10379C38.9818 6.77892 39.1127 6.51312 39.2727 6.51312C39.4327 6.51312 39.5636 6.11441 39.5636 5.62711C39.5636 5.13981 39.6945 4.7411 39.8545 4.7411C40.0145 4.7411 40.1455 4.5323 40.1455 4.27713C40.1455 3.68026 40.846 2.96909 41.4339 2.96909C41.6969 2.96909 41.8909 2.71865 41.8909 2.37842C41.8909 2.05355 42.0218 1.78775 42.1818 1.78775C42.3418 1.78775 42.4727 1.38905 42.4727 0.901744V0.0157382H40.1455C38.7878 0.0157382 37.8182 0.138893 37.8182 0.311074ZM45.4545 1.35922C44.7744 2.07452 44.2182 2.86248 44.2182 3.10997C44.2182 3.35716 44.0873 3.55976 43.9273 3.55976C43.7673 3.55976 43.6364 3.95846 43.6364 4.44577C43.6364 4.93307 43.5055 5.33177 43.3455 5.33177C43.1837 5.33177 43.0545 6.11943 43.0545 7.10379C43.0545 8.08814 43.1837 8.8758 43.3455 8.8758C43.5055 8.8758 43.6364 9.1416 43.6364 9.46647C43.6364 9.86015 43.8304 10.0571 44.2182 10.0571C44.5382 10.0571 44.8 10.19 44.8 10.3525C44.8 10.5149 45.3236 10.6478 45.9636 10.6478C46.6036 10.6478 47.1273 10.5149 47.1273 10.3525C47.1273 10.19 47.3891 10.0571 47.7091 10.0571C48.0291 10.0571 48.2909 9.92424 48.2909 9.7618C48.2909 9.59937 48.4931 9.46647 48.7404 9.46647C49.3225 9.46647 50.6182 8.15104 50.6182 7.56008C50.6182 7.30904 50.7491 7.10379 50.9091 7.10379C51.0691 7.10379 51.2 6.83798 51.2 6.51312C51.2 6.18825 51.3309 5.92244 51.4909 5.92244C51.657 5.92244 51.7818 5.03644 51.7818 3.8551C51.7818 2.67376 51.657 1.78775 51.4909 1.78775C51.3309 1.78775 51.2 1.52195 51.2 1.19708C51.2 0.803398 51.006 0.606409 50.6182 0.606409C50.2982 0.606409 50.0364 0.473508 50.0364 0.311074C50.0364 0.145981 49.2989 0.025189 48.3636 0.0370024C46.7788 0.0573805 46.626 0.126784 45.4545 1.35922ZM56.2182 0.45756C56.0183 0.688217 55.8545 1.2148 55.8545 1.62768C55.8545 2.04056 55.7236 2.37842 55.5636 2.37842C55.4036 2.37842 55.2727 2.77712 55.2727 3.26443C55.2727 3.75173 55.1418 4.15043 54.9818 4.15043C54.8218 4.15043 54.6909 4.41623 54.6909 4.7411C54.6909 5.06597 54.56 5.33177 54.4 5.33177C54.24 5.33177 54.1091 5.73048 54.1091 6.21778C54.1091 6.70508 53.9782 7.10379 53.8182 7.10379C53.6582 7.10379 53.5273 7.36959 53.5273 7.69446C53.5273 8.01933 53.3964 8.28513 53.2364 8.28513C53.0764 8.28513 52.9455 8.55093 52.9455 8.8758C52.9455 9.20067 52.8145 9.46647 52.6545 9.46647C52.4945 9.46647 52.3636 9.59937 52.3636 9.7618C52.3636 9.939 53.5273 10.0571 55.2727 10.0571C57.9878 10.0571 58.1818 10.0179 58.1818 9.46647C58.1818 9.1416 58.3127 8.8758 58.4727 8.8758C58.6327 8.8758 58.7636 8.61 58.7636 8.28513C58.7636 7.77331 58.5696 7.69446 57.3091 7.69446C55.8868 7.69446 55.8545 7.67467 55.8545 6.80845C55.8545 6.32115 55.9855 5.92244 56.1455 5.92244C56.3055 5.92244 56.4364 5.52374 56.4364 5.03644C56.4364 4.54914 56.5673 4.15043 56.7273 4.15043C56.8873 4.15043 57.0182 3.88463 57.0182 3.55976C57.0182 3.23489 57.1491 2.96909 57.3091 2.96909C57.4691 2.96909 57.6 2.58161 57.6 2.1076C57.6 1.63388 57.7623 1.19147 57.961 1.12413C58.2237 1.03524 58.1897 0.867485 57.8365 0.508948C57.2489 -0.0876291 56.7057 -0.104759 56.2182 0.45756ZM64.5818 0.311074C64.5818 0.473508 64.32 0.606409 64 0.606409C63.3533 0.606409 63.2169 1.05266 63.7818 1.32023C64.0727 1.45786 64.0727 1.52697 63.7818 1.6646C63.582 1.7594 63.4182 2.09165 63.4182 2.40293C63.4182 2.71422 63.2873 2.96909 63.1273 2.96909C62.9673 2.96909 62.8364 3.23489 62.8364 3.55976C62.8364 3.88463 62.7055 4.15043 62.5455 4.15043C62.3855 4.15043 62.2545 4.54914 62.2545 5.03644C62.2545 5.52374 62.1236 5.92244 61.9636 5.92244C61.8036 5.92244 61.6727 6.32115 61.6727 6.80845C61.6727 7.29575 61.5418 7.69446 61.3818 7.69446C61.2218 7.69446 61.0909 8.09316 61.0909 8.58046C61.0909 9.06777 60.96 9.46647 60.8 9.46647C60.64 9.46647 60.5091 9.59937 60.5091 9.7618C60.5091 10.2101 61.9485 10.1147 62.4207 9.6351C62.6493 9.40327 62.8364 9.00456 62.8364 8.7491C62.8364 8.49393 62.9673 8.28513 63.1273 8.28513C63.2873 8.28513 63.4182 7.88642 63.4182 7.39912C63.4182 6.91182 63.5491 6.51312 63.7091 6.51312C63.8691 6.51312 64 6.11441 64 5.62711C64 5.13981 64.1309 4.7411 64.2909 4.7411C64.4509 4.7411 64.5818 4.4753 64.5818 4.15043C64.5818 3.82556 64.7127 3.55976 64.8727 3.55976C65.0327 3.55976 65.1636 3.16106 65.1636 2.67376C65.1636 2.18645 65.2945 1.78775 65.4545 1.78775C65.6145 1.78775 65.7455 1.38905 65.7455 0.901744C65.7455 0.212727 65.6163 0.0157382 65.1636 0.0157382C64.8436 0.0157382 64.5818 0.148639 64.5818 0.311074ZM69.3091 1.35922C68.6289 2.07452 68.0727 2.81375 68.0727 3.00128C68.0727 3.18912 67.7824 3.59845 67.4275 3.91092C66.8797 4.3932 66.8468 4.52433 67.2093 4.78009C67.5328 5.00838 67.5482 5.11766 67.2727 5.23106C66.8317 5.41299 66.7625 8.8758 67.2 8.8758C67.36 8.8758 67.4909 9.1416 67.4909 9.46647C67.4909 9.86015 67.6849 10.0571 68.0727 10.0571C68.3927 10.0571 68.6545 10.19 68.6545 10.3525C68.6545 10.5149 69.3091 10.6478 70.1091 10.6478C71.3696 10.6478 71.5636 10.569 71.5636 10.0571C71.5636 9.73227 71.6945 9.46647 71.8545 9.46647C72.0145 9.46647 72.1455 9.06777 72.1455 8.58046C72.1455 8.09316 72.2764 7.69446 72.4364 7.69446C72.5964 7.69446 72.7273 7.42865 72.7273 7.10379C72.7273 6.77892 72.8582 6.51312 73.0182 6.51312C73.1782 6.51312 73.3091 6.38021 73.3091 6.21778C73.3091 6.05535 72.7855 5.92244 72.1455 5.92244C71.2815 5.92244 70.9818 6.04206 70.9818 6.38642C70.9818 6.98329 70.2813 7.69446 69.6934 7.69446C69.3452 7.69446 69.2364 7.37579 69.2364 6.3557C69.2364 5.22161 69.3908 4.86012 70.2449 3.99302C71.1526 3.07128 71.4141 2.96909 72.8631 2.96909C74.2554 2.96909 74.4727 2.8926 74.4727 2.40293C74.4727 2.09165 74.6327 1.78273 74.8282 1.71657C75.0554 1.63979 74.9027 1.31137 74.4049 0.806056C73.7489 0.140074 73.3839 0.0189869 72.0858 0.0370024C70.6577 0.0570852 70.4553 0.153364 69.3091 1.35922ZM78.3273 0.45756C78.1274 0.688217 77.9636 1.0819 77.9636 1.33234C77.9636 1.58279 77.8327 1.78775 77.6727 1.78775C77.5127 1.78775 77.3818 2.18645 77.3818 2.67376C77.3818 3.16106 77.2509 3.55976 77.0909 3.55976C76.9309 3.55976 76.8 3.95846 76.8 4.44577C76.8 4.93307 76.6691 5.33177 76.5091 5.33177C76.3491 5.33177 76.2182 5.73048 76.2182 6.21778C76.2182 6.70508 76.0873 7.10379 75.9273 7.10379C75.7673 7.10379 75.6364 7.36959 75.6364 7.69446C75.6364 8.01933 75.5055 8.28513 75.3455 8.28513C75.1855 8.28513 75.0545 8.55093 75.0545 8.8758C75.0545 9.20067 74.9236 9.46647 74.7636 9.46647C74.6036 9.46647 74.4727 9.59937 74.4727 9.7618C74.4727 9.92424 74.9964 10.0571 75.6364 10.0571C76.606 10.0571 76.8 9.95879 76.8 9.46647C76.8 9.1416 76.9309 8.8758 77.0909 8.8758C77.2509 8.8758 77.3818 8.61 77.3818 8.28513C77.3818 7.96026 77.5127 7.69446 77.6727 7.69446C77.8327 7.69446 77.9636 7.42865 77.9636 7.10379C77.9636 6.64424 78.1577 6.51312 78.8364 6.51312C79.6122 6.51312 79.7091 6.61146 79.7091 7.39912C79.7091 7.88642 79.5782 8.28513 79.4182 8.28513C79.2582 8.28513 79.1273 8.55093 79.1273 8.8758C79.1273 9.20067 78.9964 9.46647 78.8364 9.46647C78.6764 9.46647 78.5454 9.59937 78.5454 9.7618C78.5454 9.92424 79.0691 10.0571 79.7091 10.0571C80.6787 10.0571 80.8727 9.95879 80.8727 9.46647C80.8727 9.1416 81.0036 8.8758 81.1636 8.8758C81.3236 8.8758 81.4545 8.4771 81.4545 7.98979C81.4545 7.50249 81.5854 7.10379 81.7455 7.10379C81.9054 7.10379 82.0364 6.83798 82.0364 6.51312C82.0364 6.18825 82.1673 5.92244 82.3273 5.92244C82.4873 5.92244 82.6182 5.65664 82.6182 5.33177C82.6182 5.00691 82.7491 4.7411 82.9091 4.7411C83.0691 4.7411 83.2 4.3424 83.2 3.8551C83.2 3.36779 83.3309 2.96909 83.4909 2.96909C83.6509 2.96909 83.7818 2.58161 83.7818 2.1076C83.7818 1.63388 83.9441 1.19147 84.1428 1.12413C84.5681 0.980303 83.7475 0.0157382 83.2 0.0157382C82.7188 0.0157382 82.0364 0.782724 82.0364 1.32378C82.0364 1.57895 81.9054 1.78775 81.7455 1.78775C81.5854 1.78775 81.4545 2.18645 81.4545 2.67376C81.4545 3.51044 81.39 3.55976 80.2909 3.55976C79.6509 3.55976 79.1273 3.42686 79.1273 3.26443C79.1273 3.10199 79.2582 2.96909 79.4182 2.96909C79.5782 2.96909 79.7091 2.58161 79.7091 2.1076C79.7091 1.63388 79.8714 1.19147 80.0701 1.12413C80.3328 1.03524 80.2988 0.867485 79.9456 0.508948C79.358 -0.0876291 78.8148 -0.104759 78.3273 0.45756ZM87.0545 0.45756C86.8547 0.688217 86.6909 1.0819 86.6909 1.33234C86.6909 1.58279 86.56 1.78775 86.4 1.78775C86.24 1.78775 86.1091 2.05355 86.1091 2.37842C86.1091 2.83796 86.3031 2.96909 86.9818 2.96909C87.7577 2.96909 87.8545 3.06744 87.8545 3.8551C87.8545 4.3424 87.7236 4.7411 87.5636 4.7411C87.4036 4.7411 87.2727 5.00691 87.2727 5.33177C87.2727 5.65664 87.1418 5.92244 86.9818 5.92244C86.8218 5.92244 86.6909 6.32115 86.6909 6.80845C86.6909 7.29575 86.56 7.69446 86.4 7.69446C86.24 7.69446 86.1091 8.09316 86.1091 8.58046C86.1091 9.06777 85.9782 9.46647 85.8182 9.46647C85.6582 9.46647 85.5273 9.59937 85.5273 9.7618C85.5273 9.92424 86.0509 10.0571 86.6909 10.0571C87.79 10.0571 87.8545 10.0078 87.8545 9.17113C87.8545 8.68383 87.9855 8.28513 88.1455 8.28513C88.3055 8.28513 88.4364 8.01933 88.4364 7.69446C88.4364 7.36959 88.5673 7.10379 88.7273 7.10379C88.8873 7.10379 89.0182 6.70508 89.0182 6.21778C89.0182 5.73048 89.1491 5.33177 89.3091 5.33177C89.4691 5.33177 89.6 4.99007 89.6 4.57247C89.6 3.78185 90.1897 2.96909 90.7636 2.96909C91.2355 2.96909 91.9273 2.20595 91.9273 1.68586C91.9273 1.44398 92.0896 1.19147 92.2883 1.12413C92.551 1.03524 92.5169 0.867485 92.1638 0.508948C91.5238 -0.140494 87.6073 -0.180069 87.0545 0.45756ZM16.0727 1.04823C15.4182 1.80281 15.6384 2.37842 16.5818 2.37842C17.0618 2.37842 17.4545 2.51132 17.4545 2.67376C17.4545 2.83619 16.9309 2.96909 16.2909 2.96909C15.6509 2.96909 15.1273 3.10199 15.1273 3.26443C15.1273 3.42686 14.4727 3.55976 13.6727 3.55976C12.8727 3.55976 12.2182 3.69266 12.2182 3.8551C12.2182 4.01753 12.6109 4.15043 13.0909 4.15043C13.5709 4.15043 13.9636 4.28333 13.9636 4.44577C13.9636 4.6082 14.2255 4.7411 14.5455 4.7411C14.8655 4.7411 15.1273 4.874 15.1273 5.03644C15.1273 5.19887 14.8655 5.33177 14.5455 5.33177C14.2255 5.33177 13.9636 5.46467 13.9636 5.62711C13.9636 5.78954 13.7018 5.92244 13.3818 5.92244C13.0618 5.92244 12.8 6.05535 12.8 6.21778C12.8 6.38021 12.4073 6.51312 11.9273 6.51312C11.4473 6.51312 11.0545 6.64602 11.0545 6.80845C11.0545 6.97266 11.8304 7.10379 12.8 7.10379C13.7696 7.10379 14.5455 7.23491 14.5455 7.39912C14.5455 7.56156 14.1527 7.69446 13.6727 7.69446C13.1927 7.69446 12.8 7.82736 12.8 7.98979C12.8 8.15223 12.5382 8.28513 12.2182 8.28513C11.8304 8.28513 11.6364 8.48212 11.6364 8.8758C11.6364 9.21602 11.8304 9.46647 12.0934 9.46647C12.5344 9.46647 13.3818 10.1324 13.3818 10.4792C13.3818 10.5719 12.7273 10.6478 11.9273 10.6478C11.1273 10.6478 10.4727 10.7807 10.4727 10.9431C10.4727 11.1056 9.94909 11.2385 9.30909 11.2385C8.66909 11.2385 8.14545 11.3714 8.14545 11.5338C8.14545 11.6962 8.8 11.8292 9.6 11.8292C10.4 11.8292 11.0545 11.9051 11.0545 11.9978C11.0545 12.3445 10.2071 13.0105 9.76611 13.0105C9.51476 13.0105 9.30909 13.1434 9.30909 13.3058C9.30909 13.4683 8.78545 13.6012 8.14545 13.6012C7.50545 13.6012 6.98182 13.7341 6.98182 13.8965C6.98182 14.0589 7.63636 14.1918 8.43636 14.1918C9.23636 14.1918 9.89091 14.2677 9.89091 14.3605C9.89091 14.6593 9.07055 15.3732 8.72727 15.3732C8.384 15.3732 7.56364 16.087 7.56364 16.3859C7.56364 16.4786 7.82545 16.5545 8.14545 16.5545C8.46545 16.5545 8.72727 16.6874 8.72727 16.8499C8.72727 17.0123 8.98909 17.1452 9.30909 17.1452C9.62909 17.1452 9.89091 17.2781 9.89091 17.4405C9.89091 17.6047 9.11505 17.7359 8.14545 17.7359C7.17585 17.7359 6.4 17.867 6.4 18.0312C6.4 18.1936 5.87636 18.3265 5.23636 18.3265C4.59636 18.3265 4.07273 18.4594 4.07273 18.6219C4.07273 18.7843 4.67113 18.9172 5.40247 18.9172C6.57018 18.9172 7.56364 19.3826 7.56364 19.9299C7.56364 20.0226 7.04 20.0985 6.4 20.0985C5.76 20.0985 5.23636 20.2314 5.23636 20.3939C5.23636 20.5563 4.71273 20.6892 4.07273 20.6892C3.43273 20.6892 2.90909 20.8221 2.90909 20.9845C2.90909 21.147 3.56364 21.2799 4.36364 21.2799C5.16364 21.2799 5.81818 21.4128 5.81818 21.5752C5.81818 21.7377 6.08 21.8706 6.4 21.8706C6.72 21.8706 6.98182 22.0035 6.98182 22.1659C6.98182 22.3283 6.32727 22.4612 5.52727 22.4612C4.72727 22.4612 4.07273 22.5941 4.07273 22.7566C4.07273 22.919 3.54909 23.0519 2.90909 23.0519C2.26909 23.0519 1.74545 23.1848 1.74545 23.3472C1.74545 23.5097 2.4 23.6426 3.2 23.6426C4 23.6426 4.65455 23.7755 4.65455 23.9379C4.65455 24.1003 5.17818 24.2332 5.81818 24.2332C6.45818 24.2332 6.98182 24.3661 6.98182 24.5286C6.98182 24.6972 6.10909 24.8239 4.94545 24.8239C3.78182 24.8239 2.90909 24.9506 2.90909 25.1192C2.90909 25.2817 2.25455 25.4146 1.45455 25.4146C0.654545 25.4146 0 25.5475 0 25.7099C0 25.8723 0.654545 26.0052 1.45455 26.0052C2.25455 26.0052 2.90909 26.1381 2.90909 26.3006C2.90909 26.463 3.17091 26.5959 3.49091 26.5959C3.81091 26.5959 4.07273 26.7288 4.07273 26.8913C4.07273 27.0537 4.79709 27.1866 5.68233 27.1866C7.13135 27.1866 7.39287 27.0844 8.30051 26.1627C8.85527 25.5998 9.30909 24.9352 9.30909 24.686C9.30909 24.437 9.44 24.2332 9.6 24.2332C9.76 24.2332 9.89091 23.9674 9.89091 23.6426C9.89091 23.3177 10.0218 23.0519 10.1818 23.0519C10.3418 23.0519 10.4727 22.7861 10.4727 22.4612C10.4727 22.1364 10.6036 21.8706 10.7636 21.8706C10.9236 21.8706 11.0545 21.6653 11.0545 21.4143C11.0545 21.1632 11.376 20.6316 11.7687 20.2329C12.4154 19.5761 12.7171 19.5079 14.9687 19.5079C16.336 19.5079 17.4545 19.5838 17.4545 19.6765C17.4545 20.2238 16.4611 20.6892 15.2934 20.6892C14.562 20.6892 13.9636 20.8221 13.9636 20.9845C13.9636 21.147 14.6182 21.2799 15.4182 21.2799C16.2182 21.2799 16.8727 21.4128 16.8727 21.5752C16.8727 21.7377 17.2655 21.8706 17.7455 21.8706C18.2255 21.8706 18.6182 22.0035 18.6182 22.1659C18.6182 22.3283 18.2255 22.4612 17.7455 22.4612C17.2655 22.4612 16.8727 22.5941 16.8727 22.7566C16.8727 22.919 16.2182 23.0519 15.4182 23.0519C14.6182 23.0519 13.9636 23.1848 13.9636 23.3472C13.9636 23.5097 14.6182 23.6426 15.4182 23.6426C16.2182 23.6426 16.8727 23.7755 16.8727 23.9379C16.8727 24.1003 17.5273 24.2332 18.3273 24.2332C19.1273 24.2332 19.7818 24.3661 19.7818 24.5286C19.7818 24.6928 19.006 24.8239 18.0364 24.8239C17.0668 24.8239 16.2909 24.955 16.2909 25.1192C16.2909 25.2817 15.7673 25.4146 15.1273 25.4146C14.4873 25.4146 13.9636 25.5475 13.9636 25.7099C13.9636 25.8723 14.4873 26.0052 15.1273 26.0052C15.7673 26.0052 16.2909 26.1381 16.2909 26.3006C16.2909 26.463 16.8145 26.5959 17.4545 26.5959C18.0945 26.5959 18.6182 26.6718 18.6182 26.7646C18.6182 27.1113 17.7708 27.7773 17.3297 27.7773C16.7092 27.7773 16.7555 28.0478 17.4863 28.6913C18.0384 29.1774 18.0553 29.277 17.6527 29.6857C17.4065 29.9356 16.8687 30.1399 16.457 30.1399C16.0457 30.1399 15.7091 30.2158 15.7091 30.3086C15.7091 30.6553 16.5565 31.3213 16.9975 31.3213C17.2489 31.3213 17.4545 31.4542 17.4545 31.6166C17.4545 31.7791 17.1927 31.912 16.8727 31.912C16.5527 31.912 16.2909 32.0449 16.2909 32.2073C16.2909 32.3697 16.0291 32.5026 15.7091 32.5026C15.3213 32.5026 15.1273 32.6996 15.1273 33.0933C15.1273 33.5528 15.3213 33.684 16 33.684C16.48 33.684 16.8727 33.7599 16.8727 33.8526C16.8727 34.285 15.9674 34.8653 15.2934 34.8653C14.7395 34.8653 14.5455 35.0186 14.5455 35.456C14.5455 35.8497 14.7395 36.0466 15.1273 36.0466C15.5151 36.0466 15.7091 36.2436 15.7091 36.6373C15.7091 37.1296 15.5151 37.228 14.5455 37.228C13.5759 37.228 13.3818 37.3263 13.3818 37.8187C13.3818 38.2123 13.5759 38.4093 13.9636 38.4093C14.2836 38.4093 14.5455 38.5422 14.5455 38.7047C14.5455 38.8925 16.8727 39 20.9455 39H27.3455V37.8187C27.3455 37.1689 27.4764 36.6373 27.6364 36.6373C27.7964 36.6373 27.9273 36.3715 27.9273 36.0466C27.9273 35.7218 28.0582 35.456 28.2182 35.456C28.3782 35.456 28.5091 35.0573 28.5091 34.57C28.5091 34.0827 28.64 33.684 28.8 33.684C28.96 33.684 29.0909 33.2853 29.0909 32.798V31.912H25.3091H21.5273V31.1526C21.5273 29.7215 22.0268 29.5493 26.1818 29.5493C30.4797 29.5493 30.8364 29.404 30.8364 27.6506C30.8364 27.0705 30.9673 26.5959 31.1273 26.5959C31.2873 26.5959 31.4182 26.3301 31.4182 26.0052C31.4182 25.6804 31.5491 25.4146 31.7091 25.4146C31.8691 25.4146 32 25.0159 32 24.5286C32 24.0413 32.1309 23.6426 32.2909 23.6426C32.4509 23.6426 32.5818 23.3768 32.5818 23.0519C32.5818 22.4893 32.3878 22.4612 28.5091 22.4612C25.9878 22.4612 24.4364 22.3487 24.4364 22.1659C24.4364 22.0035 24.5673 21.8706 24.7273 21.8706C24.8873 21.8706 25.0182 21.4718 25.0182 20.9845V20.0985H29.3818C33.5514 20.0985 33.7455 20.0723 33.7455 19.5079C33.7455 19.183 33.8764 18.9172 34.0364 18.9172C34.1964 18.9172 34.3273 18.5185 34.3273 18.0312C34.3273 17.5439 34.4582 17.1452 34.6182 17.1452C34.7782 17.1452 34.9091 16.6136 34.9091 15.9638C34.9091 15.3141 35.04 14.7825 35.2 14.7825C35.36 14.7825 35.4909 14.5276 35.4909 14.2163C35.4909 13.9051 35.6532 13.5956 35.8519 13.5282C36.1146 13.4393 36.0806 13.2716 35.7274 12.913C35.3085 12.4877 34.4975 12.4198 29.8388 12.4198C26.4311 12.4198 24.4364 12.5288 24.4364 12.7152C24.4364 12.8776 24.1745 13.0105 23.8545 13.0105C23.328 13.0105 23.2727 12.8135 23.2727 10.9431C23.2727 9.7618 23.3975 8.8758 23.5636 8.8758C23.7399 8.8758 23.8545 7.59611 23.8545 5.62711C23.8545 3.65811 23.9692 2.37842 24.1455 2.37842C24.3055 2.37842 24.4364 1.97972 24.4364 1.49241V0.606409L20.4364 0.617632C17.3568 0.626196 16.3526 0.725429 16.0727 1.04823ZM49.0388 3.39113C49.6352 3.99656 49.5508 5.13095 48.8727 5.62711C48.5527 5.86131 48.2909 6.23225 48.2909 6.45169C48.2909 7.5335 46.6022 8.08961 45.7975 7.27242C45.3251 6.79309 45.2311 5.33177 45.6727 5.33177C45.8327 5.33177 45.9636 5.1277 45.9636 4.87814C45.9636 4.17938 47.1936 3.00719 47.9479 2.98711C48.3194 2.97736 48.8105 3.15899 49.0388 3.39113ZM19.2 7.98979C19.2 8.15223 18.9382 8.28513 18.6182 8.28513C18.2982 8.28513 18.0364 8.15223 18.0364 7.98979C18.0364 7.82736 18.2982 7.69446 18.6182 7.69446C18.9382 7.69446 19.2 7.82736 19.2 7.98979ZM18.6182 9.7618C18.6182 9.92424 18.88 10.0571 19.2 10.0571C19.52 10.0571 19.7818 10.19 19.7818 10.3525C19.7818 10.5149 19.2582 10.6478 18.6182 10.6478C17.9782 10.6478 17.4545 10.7807 17.4545 10.9431C17.4545 11.1056 17.3236 11.2385 17.1636 11.2385C16.7558 11.2385 16.8009 10.4104 17.2364 9.90829C17.655 9.42542 18.6182 9.32353 18.6182 9.7618ZM18.6182 12.4198C18.6182 12.8135 18.4241 13.0105 18.0364 13.0105C17.7164 13.0105 17.4545 13.1434 17.4545 13.3058C17.4545 13.4683 17.0618 13.6012 16.5818 13.6012C15.9895 13.6012 15.7091 13.455 15.7091 13.1458C15.7091 12.3495 16.4023 11.8519 17.5273 11.8404C18.4279 11.8312 18.6182 11.9322 18.6182 12.4198ZM83.2 12.7152C83.2 12.8776 82.8073 13.0105 82.3273 13.0105C81.6486 13.0105 81.4545 13.1416 81.4545 13.6012C81.4545 14.0607 81.2605 14.1918 80.5818 14.1918C79.6957 14.1918 79.4103 14.5917 80.0727 14.9057C80.3636 15.0433 80.3636 15.1124 80.0727 15.25C79.8729 15.3448 79.7091 15.9319 79.7091 16.5545C79.7091 17.1771 79.8729 17.7642 80.0727 17.859C80.3636 17.9966 80.3636 18.0657 80.0727 18.2034C79.5625 18.4453 79.6192 18.9172 80.1585 18.9172C80.4058 18.9172 80.9373 19.2512 81.3393 19.6594C82.4262 20.7628 81.7734 21.2799 79.2934 21.2799H77.3818V22.4367C77.3818 23.095 77.2262 23.6461 77.0208 23.7155C76.7581 23.8044 76.7921 23.9722 77.1456 24.3307C77.5005 24.6913 78.1452 24.8239 79.543 24.8239C80.6234 24.8239 81.4545 24.6954 81.4545 24.5286C81.4545 24.3661 81.7164 24.2332 82.0364 24.2332C82.3564 24.2332 82.6182 24.1003 82.6182 23.9379C82.6182 23.7755 82.8239 23.6426 83.0752 23.6426C83.6631 23.6426 84.3636 22.9314 84.3636 22.3345C84.3636 22.0794 84.4945 21.8706 84.6545 21.8706C84.8145 21.8706 84.9454 21.1266 84.9454 20.217C84.9454 18.7607 84.8413 18.4647 84.0727 17.7359C82.8625 16.5882 82.9213 15.9638 84.2388 15.9638C85.3263 15.9638 86.1091 15.4266 86.1091 14.6806C86.1091 14.4387 86.2714 14.1862 86.4701 14.1189C86.9507 13.9562 86.0399 13.0105 85.4025 13.0105C85.1511 13.0105 84.9454 12.8776 84.9454 12.7152C84.9454 12.5527 84.5527 12.4198 84.0727 12.4198C83.5927 12.4198 83.2 12.5527 83.2 12.7152ZM92.5091 12.7152C92.5091 12.8776 92.1164 13.0105 91.6364 13.0105C90.9577 13.0105 90.7636 13.1416 90.7636 13.6012C90.7636 13.9948 90.5696 14.1918 90.1818 14.1918C89.794 14.1918 89.6 14.3888 89.6 14.7825C89.6 15.1074 89.4691 15.3732 89.3091 15.3732C88.8852 15.3732 88.9521 17.6552 89.3818 17.859C89.6727 17.9966 89.6727 18.0657 89.3818 18.2034C88.8716 18.4453 88.9283 18.9172 89.4676 18.9172C89.7149 18.9172 90.2464 19.2512 90.6484 19.6594C91.7353 20.7628 91.0825 21.2799 88.6025 21.2799H86.6909V22.4367C86.6909 23.095 86.5353 23.6461 86.3299 23.7155C86.0672 23.8044 86.1012 23.9722 86.4547 24.3307C86.8096 24.6913 87.4542 24.8239 88.8521 24.8239C89.9325 24.8239 90.7636 24.6954 90.7636 24.5286C90.7636 24.3661 91.0967 24.2332 91.504 24.2332C92.3206 24.2332 93.6727 23.0445 93.6727 22.3268C93.6727 22.0758 93.8036 21.8706 93.9636 21.8706C94.128 21.8706 94.2545 21.0268 94.2545 19.9299C94.2545 17.9343 93.8895 17.1452 92.9661 17.1452C92.7031 17.1452 92.5091 16.8947 92.5091 16.5545C92.5091 16.0427 92.7031 15.9638 93.9636 15.9638C95.3859 15.9638 95.4182 15.9441 95.4182 15.0778C95.4182 14.5905 95.5491 14.1918 95.7091 14.1918C95.8691 14.1918 96 13.926 96 13.6012C96 13.1416 95.806 13.0105 95.1273 13.0105C94.6473 13.0105 94.2545 12.8776 94.2545 12.7152C94.2545 12.5527 93.8618 12.4198 93.3818 12.4198C92.9018 12.4198 92.5091 12.5527 92.5091 12.7152ZM38.4 13.2813C38.4 13.4302 38.5638 13.6195 38.7636 13.7019C39.0374 13.8144 39.0193 13.9302 38.6909 14.1694C38.3031 14.4517 38.3031 14.52 38.6909 14.7825C39.0787 15.0451 39.0787 15.1133 38.6909 15.3956C38.3625 15.6348 38.3444 15.7506 38.6182 15.8631C38.8201 15.9464 38.9818 16.5164 38.9818 17.1452C38.9818 17.7678 38.8183 18.3549 38.6182 18.4497C38.3273 18.5873 38.3273 18.6564 38.6182 18.794C39.1831 19.0616 39.0467 19.5079 38.4 19.5079C38.0122 19.5079 37.8182 19.7049 37.8182 20.0985C37.8182 20.4922 37.6241 20.6892 37.2364 20.6892C36.8724 20.6892 36.6545 20.8862 36.6545 21.2146C36.6545 21.5037 36.3927 21.9317 36.0727 22.1659C35.7527 22.4001 35.4909 22.828 35.4909 23.1172C35.4909 23.406 35.36 23.6426 35.2 23.6426C35.04 23.6426 34.9091 23.7755 34.9091 23.9379C34.9091 24.1003 35.3757 24.2332 35.9462 24.2332C36.8079 24.2332 37.223 23.9834 38.4 22.7566C39.1793 21.9444 39.8906 21.2799 39.9811 21.2799C40.0716 21.2799 40.1455 21.6677 40.1455 22.1414C40.1455 22.6151 40.3092 23.0802 40.5091 23.175C40.8 23.3127 40.8 23.3818 40.5091 23.5194C39.7711 23.8691 40.1789 24.2332 41.3091 24.2332H42.4727V21.2799C42.4727 19.5079 42.5891 18.3265 42.7636 18.3265C42.9236 18.3265 43.0545 18.1142 43.0545 17.8543C43.0545 17.5947 43.4473 17.0096 43.9273 16.5545C44.4073 16.0994 44.8 15.5436 44.8 15.32C44.8 15.0961 45.0618 14.7214 45.3818 14.4872C45.7018 14.253 45.9636 13.825 45.9636 13.5359C45.9636 13.1023 45.7097 13.0105 44.5091 13.0105C43.2486 13.0105 43.0545 13.0893 43.0545 13.6012C43.0545 13.926 42.9236 14.1918 42.7636 14.1918C42.6036 14.1918 42.4727 14.4576 42.4727 14.7825C42.4727 15.1762 42.2787 15.3732 41.8909 15.3732C41.406 15.3732 41.3091 15.1762 41.3091 14.1918V13.0105H39.8545C39.0545 13.0105 38.4 13.1325 38.4 13.2813ZM50.0364 13.5766C50.0364 13.8879 49.8729 14.2101 49.6727 14.2925C49.3972 14.406 49.4127 14.5152 49.7361 14.7435C50.0986 14.9993 50.0657 15.1304 49.518 15.6127C49.0726 16.0046 48.8727 16.5132 48.8727 17.2536C48.8727 18.1295 48.766 18.3265 48.2909 18.3265C47.6442 18.3265 47.5078 18.7728 48.0727 19.0404C48.3636 19.178 48.3636 19.2471 48.0727 19.3847C47.8729 19.4795 47.7091 19.8118 47.7091 20.1231C47.7091 20.4346 47.5782 20.6892 47.4182 20.6892C47.2582 20.6892 47.1273 21.0879 47.1273 21.5752C47.1273 22.0625 46.9964 22.4612 46.8364 22.4612C46.6764 22.4612 46.5455 22.727 46.5455 23.0519C46.5455 23.3768 46.4145 23.6426 46.2545 23.6426C46.0945 23.6426 45.9636 23.7755 45.9636 23.9379C45.9636 24.3909 47.9872 24.2885 48.457 23.8112C48.6857 23.5794 48.8727 23.1807 48.8727 22.9252C48.8727 22.67 49.0036 22.4612 49.1636 22.4612C49.3236 22.4612 49.4545 22.1195 49.4545 21.7019C49.4545 20.5814 50.1053 20.0985 51.6157 20.0985C52.3471 20.0985 52.9455 19.9656 52.9455 19.8032C52.9455 19.6408 53.1511 19.5079 53.4025 19.5079C53.9904 19.5079 54.6909 18.7967 54.6909 18.1998C54.6909 17.9447 54.8218 17.7359 54.9818 17.7359C55.1418 17.7359 55.2727 17.4701 55.2727 17.1452C55.2727 16.8203 55.4036 16.5545 55.5636 16.5545C55.7236 16.5545 55.8545 16.1558 55.8545 15.6685C55.8545 15.1812 55.7236 14.7825 55.5636 14.7825C55.4036 14.7825 55.2727 14.5737 55.2727 14.3185C55.2727 13.3419 54.5039 13.0105 52.2388 13.0105C50.2621 13.0105 50.0364 13.0687 50.0364 13.5766ZM59.9273 13.5766C59.9273 13.8879 59.7638 14.2101 59.5636 14.2925C59.2881 14.406 59.3036 14.5152 59.6271 14.7435C59.9895 14.9993 59.9567 15.1304 59.4089 15.6127C58.9635 16.0046 58.7636 16.5132 58.7636 17.2536C58.7636 18.1295 58.6569 18.3265 58.1818 18.3265C57.5351 18.3265 57.3987 18.7728 57.9636 19.0404C58.2545 19.178 58.2545 19.2471 57.9636 19.3847C57.7638 19.4795 57.6 19.8118 57.6 20.1231C57.6 20.4346 57.4691 20.6892 57.3091 20.6892C57.1491 20.6892 57.0182 21.0879 57.0182 21.5752C57.0182 22.0625 56.8873 22.4612 56.7273 22.4612C56.5673 22.4612 56.4364 22.727 56.4364 23.0519C56.4364 23.3768 56.3055 23.6426 56.1455 23.6426C55.9855 23.6426 55.8545 23.7755 55.8545 23.9379C55.8545 24.3909 57.8781 24.2885 58.3479 23.8112C58.5766 23.5794 58.7636 23.1807 58.7636 22.9252C58.7636 22.67 58.8945 22.4612 59.0545 22.4612C59.2145 22.4612 59.3455 22.1954 59.3455 21.8706C59.3455 21.5457 59.4764 21.2799 59.6364 21.2799C59.7964 21.2799 59.9273 21.0141 59.9273 20.6892C59.9273 20.2955 60.1213 20.0985 60.5091 20.0985C60.9617 20.0985 61.0909 20.2955 61.0909 20.9845C61.0909 21.4718 61.2218 21.8706 61.3818 21.8706C61.5418 21.8706 61.6727 22.1251 61.6727 22.4367C61.6727 22.748 61.8365 23.0802 62.0364 23.175C62.3273 23.3127 62.3273 23.3818 62.0364 23.5194C61.2378 23.8977 61.7504 24.2332 63.1273 24.2332C63.9273 24.2332 64.5818 24.1003 64.5818 23.9379C64.5818 23.7755 64.4509 23.6426 64.2909 23.6426C64.1309 23.6426 64 23.111 64 22.4612C64 21.8115 63.8691 21.2799 63.7091 21.2799C63.1715 21.2799 63.4004 19.6511 64 19.2125C64.32 18.9783 64.5818 18.5504 64.5818 18.2613C64.5818 17.9724 64.7127 17.7359 64.8727 17.7359C65.0327 17.7359 65.1636 17.3484 65.1636 16.8744C65.1636 16.4006 65.3274 15.9355 65.5273 15.8407C65.8182 15.7031 65.8182 15.634 65.5273 15.4963C65.3274 15.4015 65.1636 14.9934 65.1636 14.5891C65.1636 13.3327 64.5446 13.0105 62.1297 13.0105C60.153 13.0105 59.9273 13.0687 59.9273 13.5766ZM70.9818 13.3058C70.9818 13.4683 71.1127 13.6012 71.2727 13.6012C71.4327 13.6012 71.5636 13.7341 71.5636 13.8965C71.5636 14.0589 71.3018 14.1918 70.9818 14.1918C70.3351 14.1918 70.1987 14.6381 70.7636 14.9057C71.0545 15.0433 71.0545 15.1124 70.7636 15.25C70.5638 15.3448 70.4 15.6771 70.4 15.9884C70.4 16.2999 70.2691 16.5545 70.1091 16.5545C69.9491 16.5545 69.8182 16.9532 69.8182 17.4405C69.8182 17.9278 69.6873 18.3265 69.5273 18.3265C69.3673 18.3265 69.2364 18.5923 69.2364 18.9172C69.2364 19.2421 69.1055 19.5079 68.9454 19.5079C68.7855 19.5079 68.6545 19.7737 68.6545 20.0985C68.6545 20.4234 68.5236 20.6892 68.3636 20.6892C68.2036 20.6892 68.0727 21.0879 68.0727 21.5752C68.0727 22.0625 67.9418 22.4612 67.7818 22.4612C67.6218 22.4612 67.4909 22.727 67.4909 23.0519C67.4909 23.3768 67.36 23.6426 67.2 23.6426C67.04 23.6426 66.9091 23.7755 66.9091 23.9379C66.9091 24.1183 68.2668 24.2332 70.4 24.2332H73.8909V23.3472C73.8909 22.8599 74.0218 22.4612 74.1818 22.4612C74.3418 22.4612 74.4727 22.1954 74.4727 21.8706C74.4727 21.3454 74.2787 21.2799 72.7273 21.2799C71.1758 21.2799 70.9818 21.2143 70.9818 20.6892C70.9818 20.1585 71.1758 20.0985 72.8934 20.0985C74.8591 20.0985 75.6364 19.7279 75.6364 18.7905C75.6364 18.5353 75.7673 18.3265 75.9273 18.3265C76.0873 18.3265 76.2182 18.0607 76.2182 17.7359C76.2182 17.2013 76.0241 17.1452 74.1818 17.1452C73.0618 17.1452 72.1455 17.0693 72.1455 16.9766C72.1455 16.3357 73.1529 15.9638 74.8884 15.9638C76.606 15.9638 76.8 15.9039 76.8 15.3732C76.8 15.0483 76.9309 14.7825 77.0909 14.7825C77.2509 14.7825 77.3818 14.5167 77.3818 14.1918C77.3818 13.867 77.5127 13.6012 77.6727 13.6012C77.8327 13.6012 77.9636 13.4683 77.9636 13.3058C77.9636 13.1254 76.606 13.0105 74.4727 13.0105C72.3395 13.0105 70.9818 13.1254 70.9818 13.3058ZM18.0364 14.4872C18.0364 14.6496 17.3818 14.7825 16.5818 14.7825C15.7818 14.7825 15.1273 14.6496 15.1273 14.4872C15.1273 14.3247 15.7818 14.1918 16.5818 14.1918C17.3818 14.1918 18.0364 14.3247 18.0364 14.4872ZM28.5091 15.0778C28.5091 15.255 27.3455 15.3732 25.6 15.3732C23.8545 15.3732 22.6909 15.255 22.6909 15.0778C22.6909 14.9006 23.8545 14.7825 25.6 14.7825C27.3455 14.7825 28.5091 14.9006 28.5091 15.0778ZM53.5273 16.5545C53.5273 17.0468 53.3332 17.1452 52.3636 17.1452C51.394 17.1452 51.2 17.0468 51.2 16.5545C51.2 16.0622 51.394 15.9638 52.3636 15.9638C53.3332 15.9638 53.5273 16.0622 53.5273 16.5545ZM63.4182 16.5545C63.4182 17.0468 63.2241 17.1452 62.2545 17.1452C61.2849 17.1452 61.0909 17.0468 61.0909 16.5545C61.0909 16.0622 61.2849 15.9638 62.2545 15.9638C63.2241 15.9638 63.4182 16.0622 63.4182 16.5545ZM23.2727 17.4405C23.2727 17.603 23.0109 17.7359 22.6909 17.7359C22.3709 17.7359 22.1091 17.603 22.1091 17.4405C22.1091 17.2781 22.3709 17.1452 22.6909 17.1452C23.0109 17.1452 23.2727 17.2781 23.2727 17.4405ZM22.1091 24.5286C22.1091 24.691 21.9782 24.8239 21.8182 24.8239C21.6582 24.8239 21.5273 24.691 21.5273 24.5286C21.5273 24.3661 21.6582 24.2332 21.8182 24.2332C21.9782 24.2332 22.1091 24.3661 22.1091 24.5286ZM22.1091 26.8913C22.1091 27.0537 21.8473 27.1866 21.5273 27.1866C21.2073 27.1866 20.9455 27.0537 20.9455 26.8913C20.9455 26.7288 21.2073 26.5959 21.5273 26.5959C21.8473 26.5959 22.1091 26.7288 22.1091 26.8913Z" fill="#575757"/>
</svg>
