<svg width="99" height="43" viewBox="0 0 99 43" fill="none" xmlns="http://www.w3.org/2000/svg">
<path fill-rule="evenodd" clip-rule="evenodd" d="M33.5351 0.298651C33.5351 0.462909 33.2648 0.597303 32.9345 0.597303C32.6041 0.597303 32.3339 0.731696 32.3339 0.895954C32.3339 1.06021 32.0636 1.19461 31.7333 1.19461C31.4029 1.19461 31.1327 1.329 31.1327 1.49326C31.1327 1.65751 30.8624 1.79191 30.5321 1.79191C30.2017 1.79191 29.9315 1.9263 29.9315 2.09056C29.9315 2.25482 29.6909 2.38921 29.3973 2.38921C29.1033 2.38921 28.6681 2.658 28.43 2.98651C28.1919 3.31503 27.8108 3.58382 27.5832 3.58382C27.3558 3.58382 26.7907 3.98699 26.3279 4.47977C25.8651 4.97254 25.336 5.37572 25.1525 5.37572C24.7267 5.37572 19.1208 10.9363 19.1208 11.3586C19.1208 11.5324 18.7811 12.0124 18.3661 12.4251C17.6982 13.0893 17.5601 13.1245 17.1649 12.7315C16.9193 12.4872 16.7184 12.0763 16.7184 11.8179C16.7184 11.5599 16.5832 11.3487 16.4181 11.3487C16.2529 11.3487 16.1178 11.08 16.1178 10.7514C16.1178 10.4229 15.9826 10.1541 15.8175 10.1541C15.6523 10.1541 15.5172 9.91492 15.5172 9.62284C15.5172 9.33046 15.2469 8.89772 14.9166 8.66089C14.5863 8.42406 14.316 8.04805 14.316 7.82496C14.316 7.60187 13.7755 6.90303 13.1148 6.27168C12.4541 5.64033 11.9136 4.91192 11.9136 4.65239C11.9136 4.38032 11.6599 4.18112 11.313 4.18112C10.9127 4.18112 10.7124 3.98192 10.7124 3.58382C10.7124 3.0116 10.9127 2.98651 15.4508 2.98651C19.8448 2.98651 20.2207 2.94321 20.6222 2.38921C20.8604 2.06069 21.2955 1.79191 21.5895 1.79191C21.8832 1.79191 22.1237 1.65751 22.1237 1.49326C22.1237 1.30033 18.7205 1.19461 12.5142 1.19461C7.22896 1.19461 2.90467 1.27136 2.90467 1.36514C2.90467 1.6599 3.7476 2.38921 4.08814 2.38921C4.5512 2.38921 10.1118 7.97668 10.1118 8.44168C10.1118 8.65402 10.3821 9.02136 10.7124 9.25819C11.0427 9.49502 11.313 9.8982 11.313 10.1541C11.313 10.4101 11.5833 10.8133 11.9136 11.0501C12.2439 11.2869 12.5142 11.7197 12.5142 12.0121C12.5142 12.3041 12.6493 12.5434 12.8145 12.5434C12.9797 12.5434 13.1148 12.9465 13.1148 13.4393C13.1148 13.9321 13.2499 14.3353 13.4151 14.3353C13.5803 14.3353 13.7154 14.7384 13.7154 15.2312C13.7154 15.724 13.8505 16.1272 14.0157 16.1272C14.1809 16.1272 14.316 16.6647 14.316 17.3218C14.316 17.9788 14.4511 18.5164 14.6163 18.5164C14.7983 18.5164 14.9166 19.8104 14.9166 21.8015C14.9166 23.7927 14.7983 25.0867 14.6163 25.0867C14.4511 25.0867 14.316 25.6243 14.316 26.2813C14.316 26.9383 14.1809 27.4759 14.0157 27.4759C13.8505 27.4759 13.7154 27.7447 13.7154 28.0732C13.7154 28.4017 13.5803 28.6705 13.4151 28.6705C13.2499 28.6705 13.1148 29.0737 13.1148 29.5665C13.1148 30.0593 12.9797 30.4624 12.8145 30.4624C12.6493 30.4624 12.5142 30.7016 12.5142 30.9937C12.5142 31.2861 12.2439 31.7189 11.9136 31.9557C11.5833 32.1925 11.313 32.5596 11.313 32.7716C11.313 33.2748 5.13198 39.422 4.62598 39.422C4.41276 39.422 4.0437 39.6908 3.80556 40.0193C3.56743 40.3478 3.16202 40.6166 2.90467 40.6166C2.64731 40.6166 2.24191 40.8854 2.00377 41.2139C1.76564 41.5424 1.38846 41.8112 1.16534 41.8112C0.621503 41.8112 -0.228641 42.6814 0.0572429 42.9455C0.182167 43.0607 0.344628 42.9873 0.418201 42.7818C0.492074 42.5763 0.811291 42.4085 1.1278 42.4085C1.44432 42.4085 1.70348 42.2741 1.70348 42.1098C1.70348 41.9456 1.97374 41.8112 2.30407 41.8112C2.6344 41.8112 2.90467 41.6768 2.90467 41.5125C2.90467 41.3483 3.17494 41.2139 3.50526 41.2139C3.83559 41.2139 4.10586 41.0795 4.10586 40.9152C4.10586 40.751 4.3464 40.6166 4.64009 40.6166C4.93408 40.6166 5.36921 40.3478 5.60735 40.0193C5.84549 39.6908 6.22656 39.422 6.45419 39.422C6.68151 39.422 7.24668 39.0188 7.70943 38.526C8.17219 38.0332 8.70132 37.6301 8.8851 37.6301C9.35417 37.6301 14.316 32.6462 14.316 32.1752C14.316 31.9629 14.5863 31.5952 14.9166 31.3584C15.2469 31.1216 15.5172 30.6888 15.5172 30.3964C15.5172 30.1043 15.5944 29.8651 15.6886 29.8651C16.0412 29.8651 16.7184 30.7351 16.7184 31.1879C16.7184 31.4459 16.8535 31.657 17.0187 31.657C17.1838 31.657 17.319 31.9258 17.319 32.2543C17.319 32.5829 17.4541 32.8516 17.6193 32.8516C17.7844 32.8516 17.9196 33.1204 17.9196 33.4489C17.9196 33.7775 18.0547 34.0462 18.2199 34.0462C18.385 34.0462 18.5202 34.261 18.5202 34.5238C18.5202 34.7863 18.9256 35.3779 19.4211 35.8382C19.9165 36.2984 20.3219 36.8333 20.3219 37.0268C20.3219 37.22 20.8625 37.8947 21.5231 38.526C22.1838 39.1574 22.7243 39.7514 22.7243 39.8466C22.7243 39.9416 19.4811 40.0193 15.5172 40.0193C10.9127 40.0193 8.31003 40.1271 8.31003 40.3179C8.31003 40.4822 8.10132 40.6166 7.84607 40.6166C7.41364 40.6166 5.90765 41.8823 5.90765 42.2457C5.90765 42.3353 11.5833 42.4085 18.5202 42.4085C25.457 42.4085 31.1327 42.3353 31.1327 42.2457C31.1327 41.9501 29.6651 40.6166 29.3396 40.6166C28.918 40.6166 24.5261 36.2398 24.5261 35.8196C24.5261 35.6399 23.9856 34.9762 23.3249 34.3449C22.6643 33.7136 22.1237 32.9851 22.1237 32.7256C22.1237 32.4664 21.9886 32.2543 21.8234 32.2543C21.6583 32.2543 21.5231 31.9856 21.5231 31.657C21.5231 31.3285 21.388 31.0597 21.2228 31.0597C21.0577 31.0597 20.9225 30.7909 20.9225 30.4624C20.9225 30.1339 20.7874 29.8651 20.6222 29.8651C20.4571 29.8651 20.3219 29.5963 20.3219 29.2678C20.3219 28.9393 20.1868 28.6705 20.0217 28.6705C19.8565 28.6705 19.7214 28.1329 19.7214 27.4759C19.7214 26.8189 19.5862 26.2813 19.4211 26.2813C19.2541 26.2813 19.1208 25.4848 19.1208 24.4894C19.1208 23.494 18.9874 22.6975 18.8205 22.6975C18.6553 22.6975 18.5202 22.1599 18.5202 21.5029C18.5202 20.8459 18.6553 20.3083 18.8205 20.3083C18.9874 20.3083 19.1208 19.5118 19.1208 18.5164C19.1208 17.521 19.2541 16.7245 19.4211 16.7245C19.5862 16.7245 19.7214 16.3213 19.7214 15.8285C19.7214 15.3357 19.8565 14.9326 20.0217 14.9326C20.1868 14.9326 20.3219 14.6638 20.3219 14.3353C20.3219 14.0067 20.4571 13.738 20.6222 13.738C20.7874 13.738 20.9225 13.4692 20.9225 13.1407C20.9225 12.8121 21.0577 12.5434 21.2228 12.5434C21.388 12.5434 21.5231 12.3041 21.5231 12.0121C21.5231 11.7197 21.7934 11.2869 22.1237 11.0501C22.4541 10.8133 22.7243 10.4459 22.7243 10.2336C22.7243 9.76351 28.2873 4.18112 28.7561 4.18112C28.9396 4.18112 29.4687 3.77794 29.9315 3.28516C30.3942 2.79239 30.9594 2.38921 31.1867 2.38921C31.4144 2.38921 31.7954 2.12042 32.0336 1.79191C32.2717 1.46339 32.7068 1.19461 33.0008 1.19461C33.2945 1.19461 33.5351 1.06021 33.5351 0.895954C33.5351 0.731696 33.8053 0.597303 34.1357 0.597303C34.466 0.597303 34.7362 0.462909 34.7362 0.298651C34.7362 0.134393 34.466 0 34.1357 0C33.8053 0 33.5351 0.134393 33.5351 0.298651ZM32.9345 21.2042C32.9345 26.6794 32.9555 26.8786 33.5351 26.8786C34.0855 26.8786 34.1357 26.6794 34.1357 24.4894C34.1357 23.1753 34.2128 22.1002 34.3071 22.1002C34.6597 22.1002 35.3368 22.9702 35.3368 23.4229C35.3368 23.681 35.472 23.8921 35.6371 23.8921C35.8023 23.8921 35.9374 24.0982 35.9374 24.3499C35.9374 24.9445 37.8822 26.8786 38.4801 26.8786C39.1158 26.8786 39.056 26.496 38.3398 25.9827C38.0095 25.7458 37.7392 25.3427 37.7392 25.0867C37.7392 24.8308 37.469 24.4276 37.1386 24.1908C36.8083 23.9539 36.538 23.5212 36.538 23.2288C36.538 22.9367 36.4029 22.6975 36.2377 22.6975C36.0726 22.6975 35.9374 22.478 35.9374 22.2098C35.9374 21.9416 35.6516 21.4757 35.3023 21.1744L34.6669 20.6264L35.9029 19.4455C36.5825 18.7959 37.1386 18.1063 37.1386 17.9131C37.1386 17.7196 37.544 17.1847 38.0395 16.7245C39.053 15.7831 39.1467 15.5299 38.4822 15.5299C37.9596 15.5299 35.3368 18.0317 35.3368 18.5298C35.3368 18.8718 34.6053 19.711 34.3071 19.711C34.2128 19.711 34.1357 18.7702 34.1357 17.6204C34.1357 15.7291 34.0786 15.5299 33.5351 15.5299C32.9555 15.5299 32.9345 15.7291 32.9345 21.2042ZM42.544 16.7245C42.544 17.3815 42.4089 17.9191 42.2437 17.9191C42.0785 17.9191 41.9434 18.4566 41.9434 19.1137C41.9434 19.7707 41.8083 20.3083 41.6431 20.3083C41.4779 20.3083 41.3428 20.8459 41.3428 21.5029C41.3428 22.1599 41.2077 22.6975 41.0425 22.6975C40.8773 22.6975 40.7422 23.2351 40.7422 23.8921C40.7422 24.5491 40.6071 25.0867 40.4419 25.0867C40.2767 25.0867 40.1416 25.4899 40.1416 25.9827C40.1416 26.6794 40.2749 26.8786 40.7422 26.8786C41.2428 26.8786 41.3428 26.6794 41.3428 25.684C41.3428 25.027 41.4779 24.4894 41.6431 24.4894C41.8083 24.4894 41.9434 23.9518 41.9434 23.2948C41.9434 22.6378 42.0785 22.1002 42.2437 22.1002C42.4089 22.1002 42.544 21.5626 42.544 20.9056C42.544 20.2486 42.6791 19.711 42.8443 19.711C43.0095 19.711 43.1446 19.1734 43.1446 18.5164C43.1446 17.8593 43.2218 17.3218 43.3161 17.3218C43.8185 17.3218 44.3458 18.3052 44.3458 19.2418C44.3458 19.8284 44.4809 20.3083 44.6461 20.3083C44.8112 20.3083 44.9464 20.7115 44.9464 21.2042C44.9464 21.697 45.0815 22.1002 45.2467 22.1002C45.4118 22.1002 45.547 22.6378 45.547 23.2948C45.547 23.9518 45.6821 24.4894 45.8473 24.4894C46.0124 24.4894 46.1476 25.027 46.1476 25.684C46.1476 26.6794 46.2476 26.8786 46.7482 26.8786C47.2154 26.8786 47.3488 26.6794 47.3488 25.9827C47.3488 25.4899 47.2136 25.0867 47.0485 25.0867C46.8833 25.0867 46.7482 24.5491 46.7482 23.8921C46.7482 23.2351 46.613 22.6975 46.4479 22.6975C46.2827 22.6975 46.1476 22.1599 46.1476 21.5029C46.1476 20.8459 46.0124 20.3083 45.8473 20.3083C45.6821 20.3083 45.547 19.7707 45.547 19.1137C45.547 18.4566 45.4118 17.9191 45.2467 17.9191C45.0815 17.9191 44.9464 17.5735 44.9464 17.1512C44.9464 16.1714 44.3013 15.5299 43.3161 15.5299C42.6155 15.5299 42.544 15.6404 42.544 16.7245ZM49.1505 21.2042C49.1505 24.3251 49.2277 26.8786 49.322 26.8786C49.4166 26.8786 49.7193 26.6543 49.9953 26.3799C50.3598 26.0173 50.395 25.8477 50.1238 25.7578C49.5719 25.5747 49.6343 22.4723 50.2016 21.9082C50.6019 21.5101 50.7022 21.5101 51.1025 21.9082C51.3502 22.1546 51.5529 22.7017 51.5529 23.1243C51.5529 23.5466 51.6881 23.8921 51.8532 23.8921C52.0184 23.8921 52.1535 24.0982 52.1535 24.3499C52.1535 25.1025 54.1505 26.8786 54.9964 26.8786C55.4148 26.8786 55.7571 27.013 55.7571 27.1773C55.7571 27.3415 56.0274 27.4759 56.3577 27.4759C56.688 27.4759 56.9583 27.3415 56.9583 27.1773C56.9583 27.013 57.3006 26.8786 57.7189 26.8786C58.5649 26.8786 60.5619 25.1025 60.5619 24.3499C60.5619 24.0982 60.697 23.8921 60.8622 23.8921C61.0396 23.8921 61.1625 22.819 61.1625 21.2702C61.1625 18.9909 61.0841 18.5919 60.5619 18.2177C60.2315 17.9809 59.9613 17.6058 59.9613 17.3839C59.9613 16.8371 59.2102 16.1272 58.6313 16.1272C58.3718 16.1272 58.1595 15.9928 58.1595 15.8285C58.1595 15.6598 57.3042 15.5299 56.194 15.5299C54.5073 15.5299 54.1238 15.6338 53.4914 16.2631C53.086 16.6662 52.7541 17.1739 52.7541 17.3917C52.7541 17.6091 52.4839 17.9809 52.1535 18.2177C51.801 18.4707 51.5529 18.9909 51.5529 19.4783C51.5529 20.2014 51.437 20.3083 50.652 20.3083C49.7526 20.3083 49.7511 20.3056 49.7511 18.5412C49.7511 17.4 49.883 16.7304 50.1238 16.6507C50.395 16.5608 50.3598 16.3912 49.9953 16.0286C49.7193 15.7542 49.4166 15.5299 49.322 15.5299C49.2277 15.5299 49.1505 18.0833 49.1505 21.2042ZM62.3637 17.9191C62.3637 19.3129 62.4889 20.3083 62.664 20.3083C62.8291 20.3083 62.9643 20.5159 62.9643 20.7697C62.9643 21.4954 64.36 22.6975 65.203 22.6975C65.6234 22.6975 65.9672 22.5631 65.9672 22.3988C65.9672 22.2346 66.2375 22.1002 66.5678 22.1002C67.1183 22.1002 67.1684 22.2994 67.1684 24.4894C67.1684 26.6794 67.2186 26.8786 67.769 26.8786C68.3486 26.8786 68.3696 26.6794 68.3696 21.2042C68.3696 15.7291 68.3486 15.5299 67.769 15.5299C67.2216 15.5299 67.1684 15.7291 67.1684 17.7832C67.1684 19.7776 67.0837 20.121 66.4312 20.7697C66.0258 21.1729 65.4081 21.5029 65.0585 21.5029C63.8609 21.5029 63.5648 20.8261 63.5648 18.0896C63.5648 15.7291 63.518 15.5299 62.9643 15.5299C62.4138 15.5299 62.3637 15.7291 62.3637 17.9191ZM69.9462 15.9766C69.7288 16.2224 69.5708 17.2116 69.5708 18.3294C69.5708 19.5808 69.7026 20.3196 69.9462 20.4328C70.2465 20.572 70.2465 20.6419 69.9462 20.7811C69.387 21.0406 69.4327 25.888 69.9999 26.4518C70.296 26.7466 71.1324 26.8786 72.7026 26.8786C73.9531 26.8786 74.9762 26.8019 74.9762 26.7081C74.9762 26.1024 73.9419 25.684 72.445 25.684H70.772V23.5935V21.5029H72.445C73.9419 21.5029 74.9762 21.0845 74.9762 20.4788C74.9762 20.385 74.2233 20.3083 73.3032 20.3083C71.2339 20.3083 70.772 19.9033 70.772 18.0896V16.7245H72.5738C74.1753 16.7245 74.3756 16.6582 74.3756 16.1272C74.3756 15.5878 74.1792 15.5311 72.3486 15.5412C70.9861 15.549 70.1984 15.6917 69.9462 15.9766ZM76.5527 15.9766C75.9789 16.6247 76.0263 25.8751 76.6065 26.4518C76.8846 26.7287 77.6806 26.8786 78.8722 26.8786C80.4221 26.8786 80.8242 26.7639 81.4461 26.1454C81.8515 25.7422 82.1833 25.2047 82.1833 24.9508C82.1833 24.697 82.3185 24.4894 82.4836 24.4894C82.6488 24.4894 82.7839 24.0862 82.7839 23.5935C82.7839 23.1007 82.6488 22.6975 82.4836 22.6975C82.3185 22.6975 82.1833 22.4583 82.1833 22.1662C82.1833 21.8738 81.913 21.4411 81.5827 21.2042C80.9638 20.7607 80.7275 19.1137 81.2824 19.1137C81.4476 19.1137 81.5827 18.7105 81.5827 18.2177C81.5827 17.725 81.4476 17.3218 81.2824 17.3218C81.1173 17.3218 80.9821 17.1106 80.9821 16.8526C80.9821 16.5943 80.789 16.1911 80.553 15.9566C79.9809 15.3874 77.0611 15.4023 76.5527 15.9766ZM83.9851 21.2042V26.8786H86.2509C88.2562 26.8786 88.6016 26.7944 89.2538 26.1454C89.6592 25.7422 89.9911 25.2047 89.9911 24.9508C89.9911 24.697 90.1262 24.4894 90.2914 24.4894C90.4565 24.4894 90.5917 24.0862 90.5917 23.5935C90.5917 23.1007 90.4565 22.6975 90.2914 22.6975C90.1262 22.6975 89.9911 22.4899 89.9911 22.2361C89.9911 21.9822 89.6592 21.4447 89.2538 21.0415C88.6487 20.4394 88.2193 20.3083 86.8514 20.3083H85.1863V17.9191C85.1863 15.7291 85.1361 15.5299 84.5857 15.5299C84.0061 15.5299 83.9851 15.7291 83.9851 21.2042ZM91.1923 21.2042C91.1923 26.6794 91.2133 26.8786 91.7928 26.8786C92.3724 26.8786 92.3934 26.6794 92.3934 21.2042C92.3934 15.7291 92.3724 15.5299 91.7928 15.5299C91.2133 15.5299 91.1923 15.7291 91.1923 21.2042ZM94.1952 21.2042V26.8786H96.5976C98.7997 26.8786 99 26.8287 99 26.2813C99 25.7503 98.7997 25.684 97.1982 25.684H95.3964V23.5935V21.5029H96.7691C97.9745 21.5029 99 21.0322 99 20.4788C99 20.385 98.3823 20.3083 97.6273 20.3083C95.882 20.3083 95.3964 19.8254 95.3964 18.0896V16.7245H97.1982C98.7997 16.7245 99 16.6582 99 16.1272C99 15.5797 98.7997 15.5299 96.5976 15.5299H94.1952V21.2042ZM58.9201 17.7599C59.7153 18.5504 59.9613 19.0444 59.9613 19.8505C59.9613 20.4307 60.0964 20.9056 60.2616 20.9056C60.4267 20.9056 60.5619 21.1744 60.5619 21.5029C60.5619 21.8314 60.4267 22.1002 60.2616 22.1002C60.0964 22.1002 59.9613 22.4407 59.9613 22.8567C59.9613 23.322 59.5601 24.0122 58.9201 24.6486C58.0063 25.5577 57.6934 25.684 56.3577 25.684C55.022 25.684 54.7091 25.5577 53.7953 24.6486C52.7917 23.6505 52.7541 23.5325 52.7541 21.3634C52.7541 20.0628 52.8808 19.1137 53.0544 19.1137C53.2196 19.1137 53.3547 18.9073 53.3547 18.655C53.3547 18.4029 53.6586 17.8734 54.0304 17.4786C54.5727 16.9028 55.0193 16.7573 56.2925 16.7427C57.7141 16.7263 57.9874 16.8323 58.9201 17.7599ZM79.7809 17.3218C79.7809 17.6503 79.9161 17.9191 80.0812 17.9191C80.6317 17.9191 80.3905 18.833 79.6443 19.5751C79.2389 19.9783 78.5632 20.3083 78.1428 20.3083C77.4089 20.3083 77.3785 20.2372 77.3785 18.5164V16.7245H78.5797C79.5806 16.7245 79.7809 16.8239 79.7809 17.3218ZM80.9821 22.1002C80.9821 22.4287 81.1173 22.6975 81.2824 22.6975C81.8683 22.6975 81.5716 24.229 80.8455 24.9508C80.2791 25.5144 79.7924 25.684 78.7434 25.684H77.3785V23.5935V21.5029H79.1803C80.7818 21.5029 80.9821 21.5692 80.9821 22.1002ZM88.7899 22.1002C88.7899 22.4287 88.925 22.6975 89.0902 22.6975C89.676 22.6975 89.3794 24.229 88.6532 24.9508C88.0869 25.5144 87.6001 25.684 86.5511 25.684H85.1863V23.5935V21.5029H86.9881C88.5896 21.5029 88.7899 21.5692 88.7899 22.1002ZM32.9345 35.2409C32.9345 42.2093 32.9513 42.4085 33.5351 42.4085C34.1023 42.4085 34.1357 42.2093 34.1357 38.8247V35.2409H35.8008C37.1687 35.2409 37.5981 35.1097 38.2032 34.5077C38.6086 34.1045 38.9404 33.4439 38.9404 33.0395C38.9404 32.6351 39.1095 32.2257 39.3158 32.1298C39.6161 31.9906 39.6161 31.9207 39.3158 31.7816C39.1095 31.6857 38.9404 31.2763 38.9404 30.8719C38.9404 30.0542 37.7221 28.6705 37.002 28.6705C36.7467 28.6705 36.538 28.5361 36.538 28.3719C36.538 28.2058 35.7371 28.0732 34.7362 28.0732H32.9345V35.2409ZM41.3428 35.2409V42.4085H44.0455C46.3022 42.4085 46.7482 42.3311 46.7482 41.9393C46.7482 40.9914 45.9458 40.6166 43.9167 40.6166H41.9434V37.9287V35.2409H44.3458C46.5479 35.2409 46.7482 35.191 46.7482 34.6435C46.7482 34.1069 46.5479 34.0462 44.7749 34.0462C42.2941 34.0462 41.9434 33.7345 41.9434 31.5289V29.8651H44.3458H46.7482V28.9692V28.0732H44.0455H41.3428V35.2409ZM49.1505 35.2409V42.4085H54.1268C58.0394 42.4085 59.1949 42.3174 59.5321 41.9817C59.8787 41.6374 59.9613 40.2582 59.9613 34.8141C59.9613 28.2724 59.9436 28.0732 59.3607 28.0732C58.7796 28.0732 58.7601 28.2724 58.7601 34.2168C58.7601 39.5573 58.6946 40.4257 58.2586 40.8594C57.894 41.2219 57.7234 41.2569 57.6331 40.9872C57.5625 40.7764 57.0021 40.6166 56.3328 40.6166H55.1565V34.3449C55.1565 28.2724 55.1376 28.0732 54.5559 28.0732C53.9742 28.0732 53.9553 28.2724 53.9553 34.3449V40.6166H52.1535H50.3517V34.3449C50.3517 28.2724 50.3328 28.0732 49.7511 28.0732C49.1674 28.0732 49.1505 28.2724 49.1505 35.2409ZM62.739 28.52C62.1589 29.1752 62.2075 41.3999 62.7928 41.9817C63.0976 42.2851 63.9651 42.4085 65.7958 42.4085C67.9354 42.4085 68.3696 42.3293 68.3696 41.9393C68.3696 40.9914 67.5672 40.6166 65.5381 40.6166H63.5648V37.9287V35.2409H65.9672C68.1693 35.2409 68.3696 35.191 68.3696 34.6435C68.3696 34.1069 68.1693 34.0462 66.3964 34.0462C63.9156 34.0462 63.5648 33.7345 63.5648 31.5289V29.8651H65.9672H68.3696V28.9692V28.0732L65.742 28.0846C63.8603 28.0926 63.0078 28.2163 62.739 28.52ZM70.5468 28.52C69.9666 29.1752 70.0152 41.3999 70.6005 41.9817C70.8363 42.2164 71.1065 42.4085 71.2011 42.4085C71.2954 42.4085 71.3726 40.9878 71.3726 39.2514C71.3726 35.3224 71.4363 35.2409 74.5044 35.2409H76.778V38.3979C76.778 40.736 76.8894 41.666 77.2071 41.9817C77.4428 42.2164 77.7131 42.4085 77.8077 42.4085C77.902 42.4085 77.9791 39.183 77.9791 35.2409C77.9791 31.2987 77.902 28.0732 77.8077 28.0732C77.7131 28.0732 77.4428 28.2653 77.2071 28.5C76.902 28.8031 76.778 29.6659 76.778 31.4865V34.0462H74.5044C71.5137 34.0462 71.3726 33.8921 71.3726 30.633C71.3726 28.0646 71.2432 27.7334 70.5468 28.52ZM80.9821 35.2409C80.9821 41.5579 81.0383 42.4085 81.4539 42.4085C82.0608 42.4085 82.7839 41.6893 82.7839 41.0858C82.7839 40.8277 82.919 40.6166 83.0842 40.6166C83.2494 40.6166 83.3845 40.3773 83.3845 40.0853C83.3845 39.7929 83.6548 39.3601 83.9851 39.1233C84.3154 38.8865 84.5857 38.4537 84.5857 38.1614C84.5857 37.8693 84.7208 37.6301 84.886 37.6301C85.0512 37.6301 85.1863 37.3908 85.1863 37.0988C85.1863 36.8064 85.4566 36.3736 85.7869 36.1368C86.1172 35.9 86.3875 35.4672 86.3875 35.1749C86.3875 34.8828 86.5226 34.6435 86.6878 34.6435C86.8529 34.6435 86.9881 34.4043 86.9881 34.1122C86.9881 33.8199 87.2583 33.3871 87.5887 33.1503C87.919 32.9135 88.1893 32.4807 88.1893 32.1883C88.1893 31.8562 88.4142 31.657 88.7899 31.657C89.1902 31.657 89.3905 31.8562 89.3905 32.2543C89.3905 32.5829 89.2553 32.8516 89.0902 32.8516C88.9037 32.8516 88.7899 34.5014 88.7899 37.2033C88.7899 40.6733 88.8812 41.646 89.2403 42.0032C89.6406 42.4013 89.7409 42.4013 90.1412 42.0032C90.7463 41.4014 90.8157 30.6162 90.2163 30.3379C89.916 30.1987 89.916 30.1288 90.2163 29.9897C90.7241 29.7537 90.6898 29.0241 90.1451 28.4824C89.7499 28.0893 89.6118 28.1246 88.9439 28.7888C88.5289 29.2015 88.1893 29.7173 88.1893 29.935C88.1893 30.1524 87.919 30.5243 87.5887 30.7611C87.2583 30.9979 86.9881 31.4307 86.9881 31.723C86.9881 32.0151 86.8529 32.2543 86.6878 32.2543C86.5226 32.2543 86.3875 32.4936 86.3875 32.7856C86.3875 33.078 86.1172 33.5108 85.7869 33.7476C85.4566 33.9844 85.1863 34.4172 85.1863 34.7095C85.1863 35.0016 85.0512 35.2409 84.886 35.2409C84.7208 35.2409 84.5857 35.4801 84.5857 35.7722C84.5857 36.0645 84.3154 36.4973 83.9851 36.7341C83.6548 36.9709 83.3845 37.4037 83.3845 37.6961C83.3845 37.9881 83.2494 38.2274 83.0842 38.2274C82.919 38.2274 82.7839 38.4961 82.7839 38.8247C82.7839 39.1532 82.6488 39.422 82.4836 39.422C82.2938 39.422 82.1833 37.3314 82.1833 33.7476C82.1833 28.2724 82.1623 28.0732 81.5827 28.0732C80.9989 28.0732 80.9821 28.2724 80.9821 35.2409ZM94.7958 28.3719C94.7958 28.5361 94.5835 28.6705 94.3241 28.6705C93.6151 28.6705 92.994 29.4276 92.994 30.2919C92.994 30.7142 92.8589 31.0597 92.6937 31.0597C92.5286 31.0597 92.3934 31.4629 92.3934 31.9557C92.3934 32.4485 92.5286 32.8516 92.6937 32.8516C92.8589 32.8516 92.994 33.0592 92.994 33.3131C92.994 33.8447 94.3048 35.2409 94.8036 35.2409C94.988 35.2409 95.3469 35.4475 95.6009 35.7002C96.0165 36.1135 95.9991 36.2142 95.4292 36.7057C95.0808 37.0062 94.7958 37.4715 94.7958 37.7397C94.7958 38.0079 94.6607 38.2274 94.4955 38.2274C94.3304 38.2274 94.1952 38.4961 94.1952 38.8247C94.1952 39.1532 94.0601 39.422 93.8949 39.422C93.7298 39.422 93.5946 39.6612 93.5946 39.9533C93.5946 40.2457 93.3244 40.6784 92.994 40.9152C92.2802 41.4271 92.1955 42.4085 92.8652 42.4085C93.4442 42.4085 94.1952 41.6986 94.1952 41.1518C94.1952 40.9299 94.4655 40.5548 94.7958 40.3179C95.1262 40.0811 95.3964 39.6483 95.3964 39.356C95.3964 39.0639 95.5316 38.8247 95.6967 38.8247C95.8619 38.8247 95.997 38.5559 95.997 38.2274C95.997 37.8988 96.1322 37.6301 96.2973 37.6301C96.4625 37.6301 96.5976 37.4189 96.5976 37.1609C96.5976 36.7081 97.2748 35.8382 97.6273 35.8382C97.7216 35.8382 97.7988 37.3165 97.7988 39.1233C97.7988 40.9302 97.876 42.4085 97.9703 42.4085C98.0649 42.4085 98.3351 42.2164 98.5709 41.9817C98.9156 41.6389 99 40.3149 99 35.2409C99 30.1668 98.9156 28.8428 98.5709 28.5C98.0772 28.0087 94.7958 27.8973 94.7958 28.3719ZM37.3101 30.2919C38.5738 31.5483 37.1699 34.0462 35.2002 34.0462H34.1357V31.9557V29.8651H35.5083C36.2978 29.8651 37.0636 30.0464 37.3101 30.2919ZM97.7988 31.9557V34.0462H96.4261C95.009 34.0462 94.1952 33.5639 94.1952 32.7235C94.1952 32.4655 94.0601 32.2543 93.8949 32.2543C93.7298 32.2543 93.5946 31.9856 93.5946 31.657C93.5946 31.3285 93.7298 31.0597 93.8949 31.0597C94.0601 31.0597 94.1952 30.7909 94.1952 30.4624C94.1952 29.9314 94.3955 29.8651 95.997 29.8651H97.7988V31.9557Z" fill="#575757"/>
</svg>
