<svg width="140" height="16" viewBox="0 0 140 16" fill="none" xmlns="http://www.w3.org/2000/svg">
<path fill-rule="evenodd" clip-rule="evenodd" d="M75.5349 0.964124C75.5349 1.74365 75.6794 1.96652 76.1861 1.96652C76.9482 1.96652 77.0498 1.13453 76.372 0.439205C75.6941 -0.256789 75.5349 -0.156884 75.5349 0.964124ZM78.7907 0.964124C78.7907 1.74365 78.9353 1.96652 79.4419 1.96652C80.204 1.96652 80.3056 1.13453 79.6278 0.439205C78.9499 -0.256789 78.7907 -0.156884 78.7907 0.964124ZM91.814 2.96891C91.814 3.15268 91.4428 3.30304 90.9893 3.30304C90.0721 3.30304 87.907 5.29011 87.907 6.13212C87.907 6.41379 87.7605 6.64434 87.5814 6.64434C87.3883 6.64434 87.2558 7.8696 87.2558 9.65152C87.2558 11.4334 87.3883 12.6587 87.5814 12.6587C87.7605 12.6587 87.907 12.8909 87.907 13.1749C87.907 13.8435 89.3571 15.3317 90.0086 15.3317C90.2853 15.3317 90.5116 15.4821 90.5116 15.6659C90.5116 15.8567 91.4884 16 92.7907 16C94.093 16 95.0698 15.8567 95.0698 15.6659C95.0698 15.4821 95.3 15.3317 95.5813 15.3317C96.2393 15.3317 97.0233 14.5272 97.0233 13.8519C97.0233 13.5632 97.1698 13.327 97.3488 13.327C97.5279 13.327 97.6744 13.0262 97.6744 12.6587C97.6744 12.2912 97.8209 11.9904 98 11.9904C98.1791 11.9904 98.3256 11.8401 98.3256 11.6563C98.3256 11.4725 97.886 11.3222 97.3488 11.3222C96.5193 11.3222 96.3721 11.4505 96.3721 12.1725C96.3721 12.6403 96.0123 13.3921 95.5728 13.8432C94.8995 14.5345 94.4622 14.6635 92.7907 14.6635C91.1192 14.6635 90.6819 14.5345 90.0086 13.8432C89.5691 13.3921 89.2093 12.7907 89.2093 12.5067C89.2093 12.2227 89.0628 11.9904 88.8837 11.9904C88.6978 11.9904 88.5581 10.988 88.5581 9.65152C88.5581 8.315 88.6978 7.31261 88.8837 7.31261C89.0628 7.31261 89.2093 7.08038 89.2093 6.79637C89.2093 6.12778 90.6594 4.63956 91.3109 4.63956C91.5877 4.63956 91.814 4.4892 91.814 4.30543C91.814 4.12166 92.2535 3.9713 92.7907 3.9713C93.3279 3.9713 93.7674 4.12166 93.7674 4.30543C93.7674 4.4892 94.0015 4.63956 94.288 4.63956C94.5742 4.63956 95.2192 5.09064 95.7209 5.64195C96.7019 6.71952 97.6744 6.96377 97.6744 6.13212C97.6744 5.29011 95.5093 3.30304 94.5921 3.30304C94.1386 3.30304 93.7674 3.15268 93.7674 2.96891C93.7674 2.78514 93.3279 2.63478 92.7907 2.63478C92.2535 2.63478 91.814 2.78514 91.814 2.96891ZM0 9.65152V16H3.90698H7.81395V14.3293V12.6587H5.86047H3.90698V7.98087V3.30304H1.95349H0V9.65152ZM9.11628 9.65152V16H12.8836C16.9039 16 17.5814 15.7591 17.5814 14.3293C17.5814 13.0747 16.8173 12.6587 14.5115 12.6587C12.5893 12.6587 12.3721 12.5909 12.3721 11.9904C12.3721 11.4114 12.5893 11.3222 14 11.3222H15.6279V9.65152V7.98087H14C12.4082 7.98087 12.3721 7.95848 12.3721 6.97847V5.97608H14.9767H17.5814V4.63956V3.30304H13.3488H9.11628V9.65152ZM18.8837 9.65152V16H20.5116H22.1395V9.65152V3.30304H20.5116H18.8837V9.65152ZM26.3721 3.9713C26.1139 4.33884 25.705 4.63956 25.4631 4.63956C24.8669 4.63956 24.093 5.47522 24.093 6.11943C24.093 6.40811 23.9465 6.64434 23.7674 6.64434C23.576 6.64434 23.4419 7.81681 23.4419 9.49314V12.3423L24.8985 13.8368C25.6994 14.6591 26.5785 15.3317 26.852 15.3317C27.1252 15.3317 27.3488 15.4821 27.3488 15.6659C27.3488 15.8496 28.0814 16 28.9767 16H30.6047V14.8068C30.6047 13.4579 30.002 12.6587 28.9852 12.6587C28.6062 12.6587 27.9365 12.2895 27.497 11.8384C26.0608 10.3649 26.5212 6.64434 28.1397 6.64434C28.421 6.64434 28.6512 6.49399 28.6512 6.31021C28.6512 6.12644 29.0907 5.97608 29.6279 5.97608C30.5503 5.97608 30.6047 5.90191 30.6047 4.63956V3.30304H28.7231C27.215 3.30304 26.7481 3.43569 26.3721 3.9713ZM31.907 9.65152V16H33.5349H35.1628V13.6611V11.3222H36.7907H38.4186V13.6611V16H39.9068C40.8631 16 41.5898 15.8005 41.9391 15.442C42.3344 15.0364 42.3725 14.8466 42.0785 14.746C41.778 14.6431 41.6744 13.1586 41.6744 8.95553V3.30304H40.0465H38.4186V5.64195V7.98087H36.7907H35.1628V5.64195V3.30304H33.5349H31.907V9.65152ZM42.9767 4.63956V5.97608H44.2791H45.5814V10.988V16H47.2093H48.8372V10.988V5.97608H50.1395H51.4419V4.63956V3.30304H47.2093H42.9767V4.63956ZM59.2558 9.65152C59.2558 15.7771 59.2786 16 59.907 16C60.4917 16 60.5581 15.7771 60.5581 13.8171C60.5581 11.7716 60.6294 11.5611 61.6869 10.4758C62.9547 9.17438 63.1628 9.0865 63.1628 9.85166C63.1628 10.1454 63.6023 10.8073 64.1395 11.3222C64.6767 11.8371 65.1163 12.4659 65.1163 12.7188C65.1163 12.9721 65.4093 13.3961 65.7674 13.6611C66.1256 13.9261 66.4186 14.3457 66.4186 14.594C66.4186 15.3157 67.2788 16 68.1862 16C69.4097 16 69.243 15.162 67.7209 13.6611C67.0047 12.9547 66.4186 12.1729 66.4186 11.9233C66.4186 11.6737 66.1256 11.253 65.7674 10.988C65.4093 10.7231 65.1163 10.2941 65.1163 10.0348C65.1163 9.77515 64.8089 9.28932 64.4332 8.95486C63.7508 8.34741 63.7514 8.34574 66.0611 6.00816C67.3322 4.72176 68.3721 3.58705 68.3721 3.48614C68.3721 3.38557 68.0003 3.30304 67.5458 3.30304C66.9373 3.30304 65.953 4.09626 63.814 6.31021C62.216 7.96416 60.83 9.31739 60.7333 9.31739C60.6369 9.31739 60.5581 7.96416 60.5581 6.31021C60.5581 3.5259 60.51 3.30304 59.907 3.30304C59.2786 3.30304 59.2558 3.5259 59.2558 9.65152ZM72.9302 8.4971C72.9302 13.5665 72.9494 13.7112 73.7295 14.5114C74.1691 14.9625 74.7551 15.3317 75.0319 15.3317C75.3086 15.3317 75.5349 15.4821 75.5349 15.6659C75.5349 15.8567 76.5116 16 77.814 16C79.1163 16 80.093 15.8567 80.093 15.6659C80.093 15.4821 80.3232 15.3317 80.6045 15.3317C81.2625 15.3317 82.0465 14.5272 82.0465 13.8519C82.0465 13.5632 82.193 13.327 82.3721 13.327C82.5746 13.327 82.6977 11.4334 82.6977 8.315C82.6977 3.5259 82.6687 3.30304 82.0465 3.30304C81.4263 3.30304 81.3953 3.5259 81.3953 7.98087C81.3953 10.8768 81.2713 12.6587 81.0698 12.6587C80.8907 12.6587 80.7442 12.8949 80.7442 13.1836C80.7442 14.2224 79.8707 14.6635 77.814 14.6635C75.7573 14.6635 74.8837 14.2224 74.8837 13.1836C74.8837 12.8949 74.7372 12.6587 74.5581 12.6587C74.3566 12.6587 74.2326 10.8768 74.2326 7.98087C74.2326 3.5259 74.2016 3.30304 73.5814 3.30304C72.9582 3.30304 72.9302 3.5259 72.9302 8.4971ZM102.233 9.65152V16H103.209H104.186V12.9928V9.98565H107.442H110.698V12.9928C110.698 15.7771 110.746 16 111.349 16C111.977 16 112 15.7771 112 9.65152C112 3.5259 111.977 3.30304 111.349 3.30304C110.752 3.30304 110.698 3.5259 110.698 5.97608V8.64913H107.442H104.186V5.97608V3.30304H103.209H102.233V9.65152ZM117.209 9.65152V16H121.442C125.457 16 125.674 15.9656 125.674 15.3317C125.674 14.7099 125.457 14.6635 122.558 14.6635C118.792 14.6635 118.512 14.4683 118.512 11.8471V9.98565H121.767C124.806 9.98565 125.023 9.94121 125.023 9.31739C125.023 8.69357 124.806 8.64913 121.767 8.64913H118.512V6.64434V4.63956H122.093C125.457 4.63956 125.674 4.59913 125.674 3.9713C125.674 3.33745 125.457 3.30304 121.442 3.30304H117.209V9.65152ZM130.233 9.65152C130.233 15.7771 130.255 16 130.884 16C131.506 16 131.535 15.7771 131.535 10.988C131.535 8.23146 131.619 5.97608 131.721 5.97608C132.103 5.97608 132.837 6.94941 132.837 7.45595C132.837 7.74464 132.984 7.98087 133.163 7.98087C133.342 7.98087 133.488 8.2485 133.488 8.57528C133.488 8.9024 133.781 9.38655 134.14 9.65152C134.498 9.91648 134.791 10.3676 134.791 10.6539C134.791 10.9403 135.084 11.3913 135.442 11.6563C135.8 11.9213 136.093 12.3723 136.093 12.6587C136.093 12.945 136.386 13.3961 136.744 13.6611C137.102 13.9261 137.395 14.3457 137.395 14.594C137.395 15.3157 138.256 16 139.163 16H140V9.65152V3.30304H139.023C138.486 3.30304 138.047 3.4534 138.047 3.63717C138.047 3.82094 138.193 3.9713 138.372 3.9713C138.574 3.9713 138.698 5.75322 138.698 8.64913C138.698 11.2219 138.618 13.327 138.52 13.327C138.124 13.327 136.744 11.6513 136.744 11.1701C136.744 10.8861 136.598 10.6539 136.419 10.6539C136.24 10.6539 136.093 10.3863 136.093 10.0595C136.093 9.73238 135.8 9.24822 135.442 8.98326C135.084 8.71829 134.791 8.26722 134.791 7.98087C134.791 7.69452 134.498 7.24344 134.14 6.97847C133.781 6.71351 133.488 6.26243 133.488 5.97608C133.488 5.68973 133.195 5.23866 132.837 4.97369C132.479 4.70873 132.186 4.22457 132.186 3.89746C132.186 3.45975 131.929 3.30304 131.209 3.30304H130.233V9.65152Z" fill="#575757"/>
</svg>
