<svg width="114" height="14" viewBox="0 0 114 14" fill="none" xmlns="http://www.w3.org/2000/svg">
<path fill-rule="evenodd" clip-rule="evenodd" d="M9.91304 1.16667C9.91304 1.80833 9.77364 2.33333 9.60326 2.33333C9.43288 2.33333 9.29348 2.53458 9.29348 2.78046C9.29348 3.36117 7.28733 5.25 6.67055 5.25C6.4094 5.25 6.19565 5.38125 6.19565 5.54167C6.19565 5.70208 5.77745 5.83333 5.2663 5.83333C4.75516 5.83333 4.33696 5.96458 4.33696 6.125C4.33696 6.29154 3.40761 6.41667 2.16848 6.41667C0.975815 6.41667 0 6.49162 0 6.58321C0 6.90229 0.887837 7.58333 1.30357 7.58333C1.53373 7.58333 1.92282 7.84583 2.16848 8.16667C2.41414 8.4875 2.86301 8.75 3.16629 8.75C3.46926 8.75 3.71739 8.88125 3.71739 9.04167C3.71739 9.20208 3.96553 9.33333 4.26849 9.33333C4.57177 9.33333 5.02065 9.59583 5.2663 9.91667C5.51196 10.2375 5.90198 10.5 6.13339 10.5C6.36479 10.5 7.08968 11.025 7.74457 11.6667C8.39945 12.3083 9.12434 12.8333 9.35574 12.8333C9.58715 12.8333 9.97717 13.0958 10.2228 13.4167C10.5806 13.8842 11.0249 14 12.4598 14C13.4467 14 14.25 13.869 14.25 13.7083C14.25 13.5479 14.6682 13.4167 15.1793 13.4167C15.6905 13.4167 16.1087 13.2854 16.1087 13.125C16.1087 12.9646 16.3875 12.8333 16.7283 12.8333C17.069 12.8333 17.3478 12.7021 17.3478 12.5417C17.3478 12.3812 17.56 12.25 17.8193 12.25C18.0786 12.25 19.0544 11.531 19.9878 10.6522C20.9212 9.77346 21.6848 8.85471 21.6848 8.61058C21.6848 8.36646 21.8242 8.16667 21.9946 8.16667C22.1649 8.16667 22.3043 7.90417 22.3043 7.58333C22.3043 7.2625 22.4437 7 22.6141 7C22.7845 7 22.9239 6.7375 22.9239 6.41667C22.9239 6.09583 23.0633 5.83333 23.2337 5.83333C23.4041 5.83333 23.5435 5.30833 23.5435 4.66667C23.5435 4.025 23.6829 3.5 23.8533 3.5C24.3356 3.5 24.2231 0.889875 23.7204 0.416792C23.466 0.177042 22.6761 0 21.8617 0H20.4457V1.45833C20.4457 2.26042 20.3062 2.91667 20.1359 2.91667C19.9655 2.91667 19.8261 3.31042 19.8261 3.79167C19.8261 4.27292 19.6867 4.66667 19.5163 4.66667C19.3459 4.66667 19.2065 4.90029 19.2065 5.18554C19.2065 5.47108 18.9277 5.89371 18.587 6.125C18.2462 6.35629 17.9674 6.72262 17.9674 6.93933C17.9674 7.44712 17.2032 8.16667 16.6638 8.16667C16.4337 8.16667 16.0446 8.42917 15.7989 8.75C15.399 9.27267 14.25 9.583 14.25 9.16854C14.25 9.07783 14.947 8.36471 15.7989 7.58333C16.6508 6.80196 17.3478 5.95758 17.3478 5.70646C17.3478 5.45533 17.4872 5.25 17.6576 5.25C17.828 5.25 17.9674 4.85625 17.9674 4.375C17.9674 3.89375 18.1068 3.5 18.2772 3.5C18.4494 3.5 18.587 2.72212 18.587 1.75V0H17.038C15.6958 0 15.4891 0.077875 15.4891 0.583333C15.4891 0.904167 15.3497 1.16667 15.1793 1.16667C15.009 1.16667 14.8696 1.69167 14.8696 2.33333C14.8696 2.975 14.7302 3.5 14.5598 3.5C14.3894 3.5 14.25 3.70037 14.25 3.94508C14.25 4.52404 11.6203 7 11.0053 7C10.3198 7 10.4164 6.75267 11.462 5.83333C11.9731 5.38387 12.3913 4.80608 12.3913 4.54971C12.3913 4.29304 12.5307 4.08333 12.7011 4.08333C12.8715 4.08333 13.0109 3.68958 13.0109 3.20833C13.0109 2.72708 13.1503 2.33333 13.3207 2.33333C13.491 2.33333 13.6304 1.80833 13.6304 1.16667V0H11.7717H9.91304V1.16667ZM79.3043 2.04167C79.3043 2.20208 78.9168 2.33333 78.4435 2.33333C77.9379 2.33333 77.3983 2.57425 77.1359 2.91667C76.8902 3.2375 76.5011 3.5 76.271 3.5C75.7316 3.5 74.9674 4.21954 74.9674 4.72733C74.9674 4.94404 74.6886 5.31037 74.3478 5.54167C73.9841 5.78871 73.7283 6.29679 73.7283 6.77279C73.7283 7.21846 73.5889 7.58333 73.4185 7.58333C73.2481 7.58333 73.1087 8.10833 73.1087 8.75C73.1087 9.39167 73.2481 9.91667 73.4185 9.91667C73.5889 9.91667 73.7283 10.1194 73.7283 10.3673C73.7283 10.9509 75.108 12.25 75.7279 12.25C75.9912 12.25 76.2065 12.3812 76.2065 12.5417C76.2065 12.7117 77.239 12.8333 78.6848 12.8333C80.1305 12.8333 81.163 12.7117 81.163 12.5417C81.163 12.3812 81.5812 12.25 82.0924 12.25C82.6035 12.25 83.0217 12.1187 83.0217 11.9583C83.0217 11.7979 83.237 11.6667 83.5004 11.6667C84.1202 11.6667 85.5 10.3676 85.5 9.78396C85.5 9.53604 85.6394 9.33333 85.8098 9.33333C85.9802 9.33333 86.1196 8.93958 86.1196 8.45833C86.1196 7.97708 86.259 7.58333 86.4293 7.58333C86.6016 7.58333 86.7391 6.80546 86.7391 5.83333C86.7391 4.86121 86.6016 4.08333 86.4293 4.08333C86.259 4.08333 86.1196 3.82083 86.1196 3.5C86.1196 3.11121 85.9129 2.91667 85.5 2.91667C85.1592 2.91667 84.8804 2.78542 84.8804 2.625C84.8804 2.46458 84.6016 2.33333 84.2609 2.33333C83.9201 2.33333 83.6413 2.20208 83.6413 2.04167C83.6413 1.87512 82.712 1.75 81.4728 1.75C80.2337 1.75 79.3043 1.87512 79.3043 2.04167ZM93.5543 2.04167C93.5543 2.20208 93.1361 2.33333 92.625 2.33333C92.1139 2.33333 91.6956 2.46458 91.6956 2.625C91.6956 2.78542 91.4828 2.91667 91.2229 2.91667C90.608 2.91667 87.9783 5.39262 87.9783 5.97158C87.9783 6.21629 87.8389 6.41667 87.6685 6.41667C87.4981 6.41667 87.3587 6.93058 87.3587 7.55912C87.3587 8.18767 87.1846 8.778 86.9715 8.87162C86.6617 9.00754 86.6617 9.07579 86.9715 9.21171C87.1846 9.30533 87.3587 9.70521 87.3587 10.1001C87.3587 10.8987 88.6155 12.25 89.3583 12.25C89.6217 12.25 89.837 12.3812 89.837 12.5417C89.837 12.7146 90.9729 12.8333 92.625 12.8333C94.2771 12.8333 95.413 12.7146 95.413 12.5417C95.413 12.3812 95.6918 12.25 96.0326 12.25C96.3734 12.25 96.6522 12.1187 96.6522 11.9583C96.6522 11.7979 96.8675 11.6667 97.1308 11.6667C97.7507 11.6667 99.1304 10.3676 99.1304 9.78396C99.1304 9.53604 99.2698 9.33333 99.4402 9.33333C99.6106 9.33333 99.75 9.07083 99.75 8.75C99.75 8.42917 99.8894 8.16667 100.06 8.16667C100.23 8.16667 100.37 7.77292 100.37 7.29167C100.37 6.81042 100.509 6.41667 100.679 6.41667C100.85 6.41667 100.989 6.15417 100.989 5.83333C100.989 5.5125 100.85 5.25 100.679 5.25C100.509 5.25 100.37 4.91604 100.37 4.50771C100.37 3.55192 99.0753 2.33333 98.0601 2.33333C97.6264 2.33333 97.2717 2.20208 97.2717 2.04167C97.2717 1.8795 96.4455 1.75 95.413 1.75C94.3805 1.75 93.5543 1.8795 93.5543 2.04167ZM25.7894 2.76967C25.5766 2.99746 25.4022 3.5175 25.4022 3.92525C25.4022 4.333 25.2628 4.66667 25.0924 4.66667C24.922 4.66667 24.7826 5.19167 24.7826 5.83333C24.7826 6.475 24.6432 7 24.4728 7C24.3024 7 24.163 7.39375 24.163 7.875C24.163 8.35625 24.0236 8.75 23.8533 8.75C23.6829 8.75 23.5435 9.275 23.5435 9.91667C23.5435 10.5583 23.4041 11.0833 23.2337 11.0833C23.0633 11.0833 22.9239 11.3458 22.9239 11.6667C22.9239 12.1946 23.1305 12.25 25.0924 12.25H27.2609V11.375C27.2609 10.8937 27.4003 10.5 27.5707 10.5C27.741 10.5 27.8804 9.975 27.8804 9.33333V8.16667H29.7391H31.5978V9.04167C31.5978 9.52292 31.4584 9.91667 31.288 9.91667C31.1177 9.91667 30.9783 10.3104 30.9783 10.7917C30.9783 11.2729 30.8389 11.6667 30.6685 11.6667C30.4981 11.6667 30.3587 11.7979 30.3587 11.9583C30.3587 12.1249 31.288 12.25 32.5272 12.25C34.489 12.25 34.6957 12.1946 34.6957 11.6667C34.6957 11.3458 34.8351 11.0833 35.0054 11.0833C35.1758 11.0833 35.3152 10.6896 35.3152 10.2083C35.3152 9.72708 35.4546 9.33333 35.625 9.33333C35.7954 9.33333 35.9348 8.93958 35.9348 8.45833C35.9348 7.97708 36.0742 7.58333 36.2446 7.58333C36.4149 7.58333 36.5543 7.05833 36.5543 6.41667C36.5543 5.775 36.6937 5.25 36.8641 5.25C37.0345 5.25 37.1739 4.85625 37.1739 4.375C37.1739 3.89375 37.3133 3.5 37.4837 3.5C37.6541 3.5 37.7935 3.2375 37.7935 2.91667C37.7935 2.38875 37.5869 2.33333 35.625 2.33333H33.4565V3.20833C33.4565 3.68958 33.3171 4.08333 33.1467 4.08333C32.9764 4.08333 32.837 4.47708 32.837 4.95833V5.83333H30.9783C29.3262 5.83333 29.1196 5.76858 29.1196 5.25C29.1196 4.92917 29.259 4.66667 29.4293 4.66667C29.5997 4.66667 29.7391 4.14167 29.7391 3.5V2.33333L27.9579 2.34442C26.8204 2.35142 26.0366 2.50513 25.7894 2.76967ZM40.2717 2.625C40.2717 2.78542 39.9929 2.91667 39.6522 2.91667C39.2392 2.91667 39.0326 3.11121 39.0326 3.5C39.0326 3.82083 39.172 4.08333 39.3424 4.08333C39.5128 4.08333 39.6522 4.34583 39.6522 4.66667C39.6522 4.9875 39.7916 5.25 39.962 5.25C40.1323 5.25 40.2717 5.11875 40.2717 4.95833C40.2717 4.78829 41.3042 4.66667 42.75 4.66667H45.2283V5.54167C45.2283 6.22212 45.0907 6.41667 44.6087 6.41667C44.2679 6.41667 43.9891 6.28542 43.9891 6.125C43.9891 5.96283 43.1629 5.83333 42.1304 5.83333C41.0979 5.83333 40.2717 5.96283 40.2717 6.125C40.2717 6.28542 39.9186 6.41667 39.4871 6.41667C39.0044 6.41667 38.2885 6.80633 37.6284 7.42787C36.6835 8.31746 36.5543 8.61787 36.5543 9.92775C36.5543 11.4616 37.02 12.25 37.9264 12.25C38.194 12.25 38.413 12.3812 38.413 12.5417C38.413 12.7021 38.8312 12.8333 39.3424 12.8333C39.8535 12.8333 40.2717 12.7021 40.2717 12.5417C40.2717 12.3812 40.8176 12.25 41.4852 12.25C42.1527 12.25 42.7797 12.0861 42.8792 11.8854C43.0235 11.5938 43.096 11.5938 43.2404 11.8854C43.3596 12.1255 44.1527 12.25 45.5638 12.25H47.7065V11.375C47.7065 10.8937 47.8459 10.5 48.0163 10.5C48.1867 10.5 48.3261 9.975 48.3261 9.33333C48.3261 8.69167 48.4655 8.16667 48.6359 8.16667C48.8062 8.16667 48.9456 7.77292 48.9456 7.29167C48.9456 6.81042 49.0851 6.41667 49.2554 6.41667C49.4258 6.41667 49.5652 5.82021 49.5652 5.09104C49.5652 4.07225 49.3893 3.59946 48.8047 3.04937C48.0783 2.36512 47.8713 2.33333 44.158 2.33333C41.7736 2.33333 40.2717 2.44592 40.2717 2.625ZM51.4239 2.91667C51.4239 3.2375 51.2845 3.5 51.1141 3.5C50.9437 3.5 50.8043 4.025 50.8043 4.66667C50.8043 5.30833 50.6649 5.83333 50.4946 5.83333C50.3242 5.83333 50.1848 6.22708 50.1848 6.70833C50.1848 7.18958 50.0454 7.58333 49.875 7.58333C49.7046 7.58333 49.5652 8.10833 49.5652 8.75C49.5652 9.39167 49.4258 9.91667 49.2554 9.91667C49.0851 9.91667 48.9456 10.3104 48.9456 10.7917C48.9456 11.2729 48.8062 11.6667 48.6359 11.6667C48.4655 11.6667 48.3261 11.7979 48.3261 11.9583C48.3261 12.1249 49.2554 12.25 50.4946 12.25C52.4564 12.25 52.663 12.1946 52.663 11.6667C52.663 11.3458 52.8024 11.0833 52.9728 11.0833C53.1432 11.0833 53.2826 10.6896 53.2826 10.2083C53.2826 9.72708 53.422 9.33333 53.5924 9.33333C53.7628 9.33333 53.9022 8.80833 53.9022 8.16667C53.9022 7.525 54.0416 7 54.212 7C54.3823 7 54.5217 6.79729 54.5217 6.54937C54.5217 5.8905 55.9365 4.66667 56.6983 4.66667C57.0589 4.66667 57.5533 4.85421 57.7964 5.08346C58.2995 5.55683 58.3996 7 57.9293 7C57.759 7 57.6196 7.39375 57.6196 7.875C57.6196 8.35625 57.4802 8.75 57.3098 8.75C57.1394 8.75 57 9.14375 57 9.625C57 10.1062 56.8606 10.5 56.6902 10.5C56.5198 10.5 56.3804 10.8937 56.3804 11.375V12.25H58.5489H60.7174V11.0833C60.7174 10.4417 60.8568 9.91667 61.0272 9.91667C61.1976 9.91667 61.337 9.52292 61.337 9.04167C61.337 8.56042 61.4764 8.16667 61.6467 8.16667C61.8171 8.16667 61.9565 7.77292 61.9565 7.29167C61.9565 6.81042 62.0959 6.41667 62.2663 6.41667C62.7585 6.41667 62.643 3.22962 62.1334 2.75012C61.613 2.25983 57 2.14754 57 2.625C57 2.78542 56.7212 2.91667 56.3804 2.91667C56.0397 2.91667 55.7609 2.78542 55.7609 2.625C55.7609 2.45846 54.8315 2.33333 53.5924 2.33333C51.6305 2.33333 51.4239 2.38875 51.4239 2.91667ZM64.4348 2.91667C64.4348 3.2375 64.2954 3.5 64.125 3.5C63.9546 3.5 63.8152 4.025 63.8152 4.66667C63.8152 5.30833 63.6758 5.83333 63.5054 5.83333C63.3351 5.83333 63.1956 6.22708 63.1956 6.70833C63.1956 7.18958 63.0562 7.58333 62.8859 7.58333C62.7155 7.58333 62.5761 7.97708 62.5761 8.45833C62.5761 8.93958 62.4367 9.33333 62.2663 9.33333C62.0959 9.33333 61.9565 9.85833 61.9565 10.5C61.9565 11.1417 61.8171 11.6667 61.6467 11.6667C61.4764 11.6667 61.337 11.7979 61.337 11.9583C61.337 12.1249 62.2663 12.25 63.5054 12.25C65.4673 12.25 65.6739 12.1946 65.6739 11.6667C65.6739 11.3458 65.8133 11.0833 65.9837 11.0833C66.1541 11.0833 66.2935 10.5583 66.2935 9.91667C66.2935 8.94454 66.3966 8.75 66.913 8.75C67.3006 8.75 67.5326 8.94454 67.5326 9.26887C67.5326 9.55442 67.8114 9.97704 68.1522 10.2083C68.4929 10.4396 68.7717 10.806 68.7717 11.0227C68.7717 11.8831 69.6447 12.25 71.6927 12.25C72.8432 12.25 73.7283 12.1231 73.7283 11.9583C73.7283 11.7979 73.5889 11.6667 73.4185 11.6667C73.2481 11.6667 73.1087 11.433 73.1087 11.1478C73.1087 10.8622 72.8299 10.4396 72.4891 10.2083C72.1484 9.97704 71.8696 9.58329 71.8696 9.33333C71.8696 9.08337 71.5908 8.68962 71.25 8.45833C70.9092 8.22704 70.6304 7.86654 70.6304 7.65712C70.6304 7.203 73.2596 4.66667 73.7304 4.66667C74.0607 4.66667 76.2065 2.77929 76.2065 2.48879C76.2065 2.40333 75.122 2.33333 73.7967 2.33333C71.7422 2.33333 71.3209 2.41937 70.9402 2.91667C70.6946 3.2375 70.2764 3.5 70.0109 3.5C69.7454 3.5 69.3272 3.7625 69.0815 4.08333C68.4533 4.90379 68.1522 4.80929 68.1522 3.79167C68.1522 3.31042 68.2916 2.91667 68.462 2.91667C68.6323 2.91667 68.7717 2.78542 68.7717 2.625C68.7717 2.45846 67.8424 2.33333 66.6033 2.33333C64.6414 2.33333 64.4348 2.38875 64.4348 2.91667ZM102.615 2.76967C102.403 2.99746 102.228 3.5175 102.228 3.92525C102.228 4.333 102.089 4.66667 101.918 4.66667C101.748 4.66667 101.609 5.06042 101.609 5.54167C101.609 6.02292 101.469 6.41667 101.299 6.41667C101.129 6.41667 100.989 6.94167 100.989 7.58333C100.989 8.225 100.85 8.75 100.679 8.75C100.509 8.75 100.37 9.14375 100.37 9.625C100.37 10.1062 100.23 10.5 100.06 10.5C99.8894 10.5 99.75 11.025 99.75 11.6667V12.8333H101.609C103.261 12.8333 103.467 12.7686 103.467 12.25C103.467 11.9292 103.607 11.6667 103.777 11.6667C103.948 11.6667 104.087 11.2729 104.087 10.7917C104.087 10.3104 104.226 9.91667 104.397 9.91667C104.567 9.91667 104.707 9.65417 104.707 9.33333C104.707 9.0125 104.782 8.75 104.875 8.75C105.185 8.75 106.565 10.1768 106.565 10.4965C106.565 10.6695 107.048 11.2662 107.639 11.8221C108.606 12.7324 108.884 12.8333 110.427 12.8333C111.935 12.8333 112.141 12.763 112.141 12.25C112.141 11.9292 112.002 11.6667 111.832 11.6667C111.661 11.6667 111.522 11.433 111.522 11.1478C111.522 10.8622 111.243 10.4396 110.902 10.2083C110.561 9.97704 110.283 9.58329 110.283 9.33333C110.283 9.08337 110.004 8.68962 109.663 8.45833C108.915 7.95054 108.803 6.41667 109.514 6.41667C109.936 6.41667 114 2.85425 114 2.48471C114 2.40129 112.945 2.33333 111.656 2.33333H109.313L107.804 3.79167C106.974 4.59375 106.217 5.25 106.121 5.25C106.024 5.25 105.946 4.9875 105.946 4.66667C105.946 4.34583 106.085 4.08333 106.255 4.08333C106.426 4.08333 106.565 3.68958 106.565 3.20833C106.565 2.33625 106.559 2.33333 104.784 2.34442C103.646 2.35142 102.863 2.50513 102.615 2.76967ZM82.5791 5.08346C83.0821 5.55683 83.1822 7 82.712 7C82.5416 7 82.4022 7.33396 82.4022 7.74229C82.4022 8.15062 82.0599 8.80687 81.6417 9.20062C81.0174 9.78862 80.5745 9.91667 79.1634 9.91667H77.4456V8.30433C77.4456 6.88304 77.5652 6.57387 78.4524 5.69917C79.283 4.88046 79.6934 4.70312 80.7978 4.68679C81.571 4.67513 82.3235 4.84254 82.5791 5.08346ZM96.2095 5.08346C96.7101 5.5545 96.8176 7.58333 96.3424 7.58333C96.172 7.58333 96.0326 7.78604 96.0326 8.03396C96.0326 8.28187 95.6903 8.80687 95.2721 9.20062C94.6479 9.78862 94.2049 9.91667 92.7938 9.91667H91.0761V8.45833C91.0761 7.65625 91.2155 7 91.3859 7C91.5562 7 91.6956 6.79846 91.6956 6.552C91.6956 6.30583 92.0091 5.78871 92.3927 5.40312C93.2102 4.58121 95.4747 4.39133 96.2095 5.08346ZM44.6087 8.62487C44.6087 9.21433 43.8627 9.91667 43.2367 9.91667C42.969 9.91667 42.75 10.0479 42.75 10.2083C42.75 10.6511 41.2172 10.5569 40.7144 10.0832C39.6023 9.03642 40.5391 8.19204 42.8274 8.17775C44.2453 8.169 44.6087 8.26029 44.6087 8.62487Z" fill="#575757"/>
</svg>
