<svg width="35" height="35" viewBox="0 0 35 35" fill="none" xmlns="http://www.w3.org/2000/svg">
<path fill-rule="evenodd" clip-rule="evenodd" d="M15.7237 0.0965201C15.2415 0.16536 14.5772 0.266998 14.2474 0.322334L13.6477 0.423007L13.7058 9.11748C13.7378 13.8994 13.8003 18.0247 13.8446 18.2849C13.9633 18.9815 14.2967 19.6357 14.8093 20.1779C15.5644 20.9765 16.4343 21.3635 17.4745 21.3635C19.5382 21.3635 21.1443 19.895 21.2691 17.894C21.3933 15.9027 20.2567 14.3617 18.3318 13.9118L17.8715 13.8043V12.3796C17.8715 11.0782 17.8863 10.9416 18.0426 10.8002C18.1955 10.6617 18.2631 10.6569 18.6782 10.7542C19.4703 10.9401 20.5081 11.3503 21.1466 11.7296C21.8692 12.1592 22.8709 13.1288 23.3531 13.8656C23.7729 14.5073 24.2219 15.6731 24.3644 16.4911C24.4921 17.2251 24.4273 18.6484 24.2324 19.3904C23.8992 20.6583 22.9587 22.0786 21.8721 22.9541C21.233 23.4691 20.5864 23.8125 19.581 24.1708C18.9207 24.4061 18.6276 24.4589 17.7838 24.4947C16.4367 24.5519 15.7416 24.4015 14.4901 23.7823C12.2252 22.6616 10.8922 20.6652 10.6037 17.9619C10.4847 16.8457 10.4828 13.8134 10.6003 12.2871C10.6948 11.0597 10.7004 3.25449 10.6076 2.14007L10.5513 1.46403L9.99463 1.74053L9.43803 2.01694L9.50115 5.92435C9.54349 8.54177 9.52929 10.7147 9.45819 12.5063C9.34458 15.3694 9.42111 17.8227 9.66789 19.2226C10.2089 22.2917 12.7436 24.8438 15.8974 25.495C18.6454 26.0623 21.4525 25.1847 23.4006 23.1491C24.4384 22.0647 25.0506 20.9915 25.4281 19.5953C25.7118 18.5453 25.7109 16.724 25.4259 15.6692C25.0532 14.2902 24.3997 13.1069 23.4499 12.0911C22.159 10.7107 20.662 9.95207 18.3756 9.51991L17.8715 9.42459V8.04445C17.8715 6.32152 17.8726 6.3195 18.7133 6.3929C19.5305 6.4642 20.8874 6.8212 21.7361 7.18829C24.7818 8.50546 27.4018 11.3058 28.2914 14.1946C28.804 15.8598 28.9433 18.19 28.6198 19.6938C28.1212 22.0116 27.116 23.8672 25.4562 25.5338C23.2598 27.7392 20.6154 28.8487 17.5647 28.8447C14.4683 28.8407 11.784 27.6808 9.49282 25.357C8.29248 24.1395 7.2922 22.5036 6.74437 20.8618C6.47909 20.0669 6.40396 18.3598 6.34557 11.8048C6.31787 8.69383 6.2722 5.69976 6.24414 5.15123L6.19312 4.15397L5.45023 4.88815C2.20506 8.09523 0.522287 11.5766 0.0785162 16.0015C-0.311602 19.8908 0.765826 24.1046 3.00344 27.4406C5.26236 30.8083 8.63973 33.2797 12.6158 34.4744C14.3002 34.9805 14.4787 35 17.4332 35C20.3591 35 20.7805 34.9603 22.1879 34.5521C24.7621 33.8056 27.2074 32.4834 29.1892 30.7665C31.4901 28.7732 33.2316 26.0994 34.2568 22.9858C34.9437 20.8993 35 20.4914 35 17.5926C35 14.7255 34.9409 14.2816 34.3006 12.3341C33.3762 9.52263 31.9623 7.21565 29.8865 5.13203C27.5852 2.82224 25.0961 1.41746 21.8235 0.581646C19.7752 0.0585484 17.3438 -0.134818 15.7237 0.0965201Z" fill="white"/>
</svg>
