<svg width="79" height="58" viewBox="0 0 79 58" fill="none" xmlns="http://www.w3.org/2000/svg">
<path d="M13 17C13 13.6863 15.6863 11 19 11H60C63.3137 11 66 13.6863 66 17V33C66 36.3137 63.3137 39 60 39H21.5339H23.3851H19C15.6863 39 13 36.3137 13 33V17Z" fill="#DA4450"/>
<path d="M18.4142 33.3412C17.6332 32.5602 17.6332 31.2938 18.4142 30.5128L26.5129 22.4141C27.2939 21.6331 28.5602 21.6331 29.3413 22.4141L37.8266 30.8994C38.6076 31.6805 38.6076 32.9468 37.8266 33.7278L30.0732 41.4813L30.4548 41.0996L29.7279 41.8265C28.9469 42.6075 27.6805 42.6075 26.8995 41.8265L18.4142 33.3412Z" fill="#DA4450"/>
<g filter="url(#filter0_d_1086_6045)">
<path d="M13 15C13 11.6863 15.6863 9 19 9H60C63.3137 9 66 11.6863 66 15V31C66 34.3137 63.3137 37 60 37H21.5339H23.3851H19C15.6863 37 13 34.3137 13 31V15Z" fill="url(#paint0_linear_1086_6045)"/>
<path d="M18.4142 31.3412C17.6332 30.5602 17.6332 29.2938 18.4142 28.5128L26.5129 20.4141C27.2939 19.6331 28.5602 19.6331 29.3413 20.4141L37.8266 28.8994C38.6076 29.6805 38.6076 30.9468 37.8266 31.7278L30.0732 39.4813L30.4548 39.0996L29.7279 39.8265C28.9469 40.6075 27.6805 40.6075 26.8995 39.8265L18.4142 31.3412Z" fill="url(#paint1_linear_1086_6045)"/>
</g>
<path d="M33.8453 30H23.5553V27.27L28.4273 22.125C28.9593 21.551 29.3233 21.11 29.5193 20.802C29.7293 20.48 29.8343 20.165 29.8343 19.857C29.8343 19.479 29.7153 19.185 29.4773 18.975C29.2533 18.751 28.9383 18.639 28.5323 18.639C27.6503 18.639 26.9923 19.15 26.5583 20.172L23.3243 18.366C23.7863 17.288 24.4723 16.455 25.3823 15.867C26.3063 15.279 27.3423 14.985 28.4903 14.985C29.8903 14.985 31.0873 15.405 32.0813 16.245C33.0893 17.071 33.5933 18.205 33.5933 19.647C33.5933 20.459 33.4043 21.229 33.0263 21.957C32.6483 22.671 32.0533 23.448 31.2413 24.288L29.2463 26.367H33.8453V30ZM45.3585 28.236C44.2945 29.622 42.8035 30.315 40.8855 30.315C38.9675 30.315 37.4695 29.622 36.3915 28.236C35.3275 26.836 34.7955 24.974 34.7955 22.65C34.7955 20.312 35.3275 18.457 36.3915 17.085C37.4555 15.685 38.9535 14.985 40.8855 14.985C42.8035 14.985 44.2945 15.685 45.3585 17.085C46.4365 18.485 46.9755 20.34 46.9755 22.65C46.9755 24.96 46.4365 26.822 45.3585 28.236ZM40.8855 18.639C39.3315 18.639 38.5545 19.976 38.5545 22.65C38.5545 25.324 39.3315 26.661 40.8855 26.661C42.4395 26.661 43.2165 25.324 43.2165 22.65C43.2165 19.976 42.4395 18.639 40.8855 18.639ZM47.2954 16.728L51.2854 15.3H54.5194V30H50.7604V19.248L48.1984 19.899L47.2954 16.728Z" fill="white"/>
<defs>
<filter id="filter0_d_1086_6045" x="0" y="0" width="79" height="57.4124" filterUnits="userSpaceOnUse" color-interpolation-filters="sRGB">
<feFlood flood-opacity="0" result="BackgroundImageFix"/>
<feColorMatrix in="SourceAlpha" type="matrix" values="0 0 0 0 0 0 0 0 0 0 0 0 0 0 0 0 0 0 127 0" result="hardAlpha"/>
<feOffset dy="4"/>
<feGaussianBlur stdDeviation="6.5"/>
<feComposite in2="hardAlpha" operator="out"/>
<feColorMatrix type="matrix" values="0 0 0 0 0 0 0 0 0 0 0 0 0 0 0 0 0 0 0.25 0"/>
<feBlend mode="normal" in2="BackgroundImageFix" result="effect1_dropShadow_1086_6045"/>
<feBlend mode="normal" in="SourceGraphic" in2="effect1_dropShadow_1086_6045" result="shape"/>
</filter>
<linearGradient id="paint0_linear_1086_6045" x1="43.4392" y1="9" x2="31.5725" y2="46.1064" gradientUnits="userSpaceOnUse">
<stop stop-color="#FF5065"/>
<stop offset="1" stop-color="#F54B5C"/>
</linearGradient>
<linearGradient id="paint1_linear_1086_6045" x1="43.4392" y1="9" x2="31.5725" y2="46.1064" gradientUnits="userSpaceOnUse">
<stop stop-color="#FF5065"/>
<stop offset="1" stop-color="#F54B5C"/>
</linearGradient>
</defs>
</svg>
