<svg xmlns="http://www.w3.org/2000/svg" xmlns:xlink="http://www.w3.org/1999/xlink" width="0" height="0" style="position:absolute">
  <symbol id="arrow-right" viewBox="0 0 25 13">
    <path d="M24.5775 7.03033C24.8704 6.73744 24.8704 6.26256 24.5775 5.96967L19.8045 1.1967C19.5116 0.903807 19.0367 0.903807 18.7438 1.1967C18.4509 1.48959 18.4509 1.96447 18.7438 2.25736L22.9865 6.5L18.7438 10.7426C18.4509 11.0355 18.4509 11.5104 18.7438 11.8033C19.0367 12.0962 19.5116 12.0962 19.8045 11.8033L24.5775 7.03033ZM0.769653 7.25L24.0471 7.25L24.0471 5.75L0.769653 5.75L0.769653 7.25Z"/>
  </symbol>
  <symbol id="youtube" viewBox="0 0 56 24">
    <path d="M20.9 19.3H18.78V18.06C17.98 19 17.28 19.46 16.55 19.46C15.89 19.46 15.45 19.16 15.21 18.59C15.09 18.24 14.99 17.71 14.99 16.92V7.90001H17.11V17.16C17.16 17.46 17.29 17.58 17.56 17.58C17.96 17.58 18.34 17.21 18.79 16.58V7.90001H20.91V19.3H20.9ZM13.4 11.62C13.4 10.4 13.17 9.49001 12.74 8.92001C12.18 8.12001 11.29 7.82001 10.39 7.82001C9.37 7.82001 8.59 8.12001 8.04 8.92001C7.6 9.49001 7.37 10.42 7.37 11.62V15.69C7.37 16.89 7.57 17.73 8.01 18.29C8.57 19.09 9.49 19.49 10.38 19.49C11.28 19.49 12.2 19.09 12.78 18.29C13.18 17.73 13.38 16.89 13.38 15.69V11.6L13.4 11.62ZM11.3 15.92C11.4 17.05 11.05 17.62 10.4 17.62C9.74 17.62 9.4 17.05 9.5 15.92V11.4C9.4 10.27 9.74 9.74001 10.4 9.74001C11.05 9.74001 11.4 10.27 11.3 11.4V15.92ZM5.03 13.1V19.3H2.8V13.1C2.8 13.1 0.47 5.46001 0 4.04001H2.35L3.92 10L5.48 4.05001H7.82L5.02 13.09" fill="#111111"/>
    <path d="M42.74 9.70001C42.41 9.70001 42.04 9.90001 41.69 10.22V17.08C42.02 17.42 42.39 17.58 42.73 17.58C43.33 17.58 43.58 17.16 43.58 16.03V11.17C43.58 10.04 43.31 9.71001 42.72 9.71001L42.74 9.70001ZM51.08 11.07C51.08 10.02 50.81 9.71001 50.14 9.71001C49.47 9.71001 49.18 10.01 49.18 11.06V12.31H51.08V11.08" fill="#E62117"/>
    <path d="M55.67 5.28001C55.67 5.28001 55.34 2.98001 54.34 1.95001C53.07 0.600012 51.64 0.600012 51 0.530012C46.33 0.200012 39.32 0.200012 39.32 0.200012H39.3C39.3 0.200012 32.3 0.200012 27.63 0.530012C26.98 0.610012 25.55 0.610012 24.28 1.95001C23.28 2.97001 22.96 5.28001 22.96 5.28001C22.96 5.28001 22.62 8.00001 22.62 10.72V13.27C22.62 15.99 22.96 18.7 22.96 18.7C22.96 18.7 23.28 21.02 24.28 22.04C25.55 23.38 27.22 23.34 27.96 23.47C30.63 23.73 39.31 23.81 39.31 23.81C39.31 23.81 46.34 23.81 51.01 23.47C51.66 23.39 53.08 23.39 54.35 22.05C55.35 21.03 55.68 18.71 55.68 18.71C55.68 18.71 56 16 56 13.27V10.72C56 8.00001 55.67 5.28001 55.67 5.28001ZM29.95 19.3H27.72V6.30001H25.37V4.18001H32.41V6.30001H29.96V19.3H29.95ZM38 19.3H35.88V18.06C35.08 19 34.38 19.46 33.65 19.46C32.99 19.46 32.55 19.16 32.31 18.59C32.19 18.24 32.09 17.71 32.09 16.92V8.00001H34.21V17.17C34.26 17.47 34.39 17.59 34.66 17.59C35.06 17.59 35.44 17.22 35.89 16.59V8.00001H38V19.3ZM45.7 15.92C45.7 16.96 45.63 17.7 45.5 18.18C45.22 19.02 44.63 19.45 43.83 19.45C43.11 19.45 42.37 19.01 41.69 18.17V19.31H39.67V4.18001H41.67V9.10001C42.33 8.30001 43.07 7.83001 43.82 7.83001C44.62 7.83001 45.16 8.30001 45.42 9.13001C45.57 9.60001 45.7 10.33 45.7 11.4V15.92ZM50.16 17.59C50.66 17.59 50.96 17.31 51.06 16.76C51.08 16.66 51.08 16.16 51.08 15.34H53.2V15.66C53.2 16.32 53.15 16.79 53.13 16.99C53.06 17.45 52.9 17.86 52.66 18.22C52.1 19.04 51.26 19.44 50.21 19.44C49.16 19.44 48.36 19.06 47.77 18.28C47.34 17.71 47.07 16.88 47.07 15.68V11.72C47.07 10.52 47.32 9.58001 47.75 9.00001C48.33 8.23001 49.15 7.82001 50.17 7.82001C51.19 7.82001 51.99 8.22001 52.57 9.00001C52.97 9.58001 53.22 10.46 53.22 11.67V14H49.2V16.02C49.2 17.07 49.5 17.59 50.18 17.59H50.16Z" fill="#E62117"/>    
  </symbol>
  <symbol id="pdf" viewBox="0 0 32 32">
    <g clip-path="url(#clip0_716_953)">
      <path d="M28.704 29.1429C28.704 30.7209 27.4223 32 25.8412 32H6.15877C4.57765 32 3.2959 30.7208 3.2959 29.1429V2.85713C3.2959 1.27919 4.57765 0 6.15877 0H18.4117C18.982 0 19.5288 0.226375 19.9316 0.62925L28.0768 8.7755C28.4785 9.17719 28.704 9.72156 28.704 10.2891V29.1429Z" fill="#F9F8F9"/>
      <path d="M8.09009 32H6.15852C4.57784 32 3.2959 30.7206 3.2959 29.1426V2.85744C3.2959 1.27938 4.57784 0 6.15852 0H8.09009C6.5094 0 5.22746 1.27938 5.22746 2.85744V29.1425C5.22746 30.7206 6.5094 32 8.09009 32Z" fill="#E3E0E4"/>
      <path d="M28.704 10.2889V11.3346H21.2378C19.1053 11.3346 17.3707 9.59937 17.3707 7.46687V0H18.4119C18.9817 0 19.529 0.226625 19.9314 0.629062L28.0769 8.77525C28.4787 9.177 28.704 9.72169 28.704 10.2889Z" fill="#E3E0E4"/>
      <path d="M28.5116 9.40294H21.2378C20.169 9.40294 19.3024 8.53632 19.3024 7.46682V0.193756C19.5348 0.298694 19.7479 0.445506 19.9314 0.629006L28.0769 8.77519C28.2604 8.95863 28.4066 9.17113 28.5116 9.40294Z" fill="#DC4955"/>
      <path d="M27.5251 27.7505H4.47485C3.05248 27.7505 1.89941 26.5973 1.89941 25.175V15.7746C1.89941 14.3522 3.05254 13.1991 4.47485 13.1991H27.5252C28.9475 13.1991 30.1006 14.3523 30.1006 15.7746V25.175C30.1006 26.5974 28.9475 27.7505 27.5251 27.7505Z" fill="#DC4955"/>
      <path d="M6.08448 27.7505H4.47485C3.05254 27.7505 1.89941 26.5973 1.89941 25.175V15.7746C1.89941 14.3523 3.0526 13.1991 4.47485 13.1991H6.08454C4.66223 13.1991 3.5091 14.3523 3.5091 15.7746V25.175C3.50904 26.5973 4.66216 27.7505 6.08448 27.7505Z" fill="#C42430"/>
      <path d="M24.2544 17.3148C24.5211 17.3148 24.7373 17.0987 24.7373 16.8319C24.7373 16.5652 24.5211 16.3491 24.2544 16.3491H21.3015C21.0348 16.3491 20.8186 16.5652 20.8186 16.8319V24.1178C20.8186 24.3845 21.0348 24.6006 21.3015 24.6006C21.5682 24.6006 21.7844 24.3845 21.7844 24.1178V20.8888H24.0199C24.2865 20.8888 24.5027 20.6726 24.5027 20.4059C24.5027 20.1391 24.2865 19.923 24.0199 19.923H21.7844V17.3148H24.2544Z" fill="#F9F8F9"/>
      <path d="M16.1716 16.4307H14.1544C14.0261 16.4307 13.9032 16.4817 13.8126 16.5724C13.7221 16.6632 13.6713 16.7862 13.6715 16.9144V16.9207V16.921V23.9204C13.6715 23.9602 13.6768 23.9986 13.6859 24.0356V24.0378C13.6864 24.1659 13.7378 24.2886 13.8286 24.3788C13.9191 24.4686 14.0414 24.519 14.1688 24.519H14.1706C14.2315 24.5187 15.6671 24.5132 16.2391 24.5033C17.2088 24.4863 18.0723 24.0469 18.6706 23.2659C19.2253 22.542 19.5308 21.5507 19.5308 20.4749C19.5308 18.0559 18.1809 16.4307 16.1716 16.4307ZM16.2223 23.5376C15.8629 23.5438 15.1359 23.5484 14.6501 23.5509C14.6474 22.7544 14.6425 21.1836 14.6425 20.4669C14.6425 19.8679 14.6398 18.2211 14.6383 17.3965H16.1717C17.9363 17.3965 18.5651 18.9866 18.5651 20.4749C18.565 22.2541 17.6016 23.5134 16.2223 23.5376Z" fill="#F9F8F9"/>
      <path d="M9.14604 16.3403H7.0856C6.66397 16.3403 6.64172 16.5239 6.64172 16.784V24.1838C6.64172 24.4288 6.84035 24.6275 7.08541 24.6275C7.33041 24.6275 7.5291 24.4289 7.5291 24.1838V21.4108C8.01022 21.408 8.77385 21.4041 9.14585 21.4041C10.5645 21.4041 11.7187 20.2683 11.7187 18.8721C11.7186 17.4761 10.5647 16.3403 9.14604 16.3403ZM9.14604 20.5168C8.77647 20.5168 8.02404 20.5206 7.5411 20.5234C7.53835 20.0288 7.53441 19.249 7.53441 18.8722C7.53441 18.5556 7.53216 17.7413 7.5306 17.2276H9.14597C10.0596 17.2276 10.8314 17.9807 10.8314 18.8722C10.8315 19.7637 10.0596 20.5168 9.14604 20.5168Z" fill="#F9F8F9"/>
    </g>
    <defs>
      <clipPath id="clip0_716_953">
      <rect width="32" height="32" fill="white"/>
      </clipPath>
    </defs>
  </symbol>
  <symbol id="clip" viewBox="0 0 19 21">
    <path d="M17.2739 12.9428L8.89121 4.40111C7.62719 3.12271 5.58681 3.12657 4.32753 4.40979C3.06824 5.69301 3.06446 7.77218 4.31901 9.06022L11.1772 16.0509C11.4577 16.3369 11.9127 16.3369 12.1934 16.0509C12.4739 15.7649 12.4739 15.3014 12.1934 15.0154L5.33518 8.02474C4.63375 7.30998 4.63375 6.15135 5.33518 5.43659C6.0366 4.72184 7.17361 4.72184 7.87504 5.43659L16.2595 13.9782C17.5222 15.2654 17.5218 17.352 16.2587 18.6386C14.9955 19.9252 12.948 19.9248 11.6852 18.6376L2.79484 9.57789C1.01871 7.71141 1.04128 4.73791 2.84532 2.89941C4.64953 1.06107 7.56755 1.03808 9.39921 2.84797L17.0196 10.6134C17.2012 10.7982 17.4658 10.8704 17.7136 10.8027C17.9616 10.7351 18.1553 10.5378 18.2218 10.2851C18.2882 10.0324 18.2172 9.76293 18.0358 9.57789L10.4154 1.81264C8.02886 -0.608148 4.16976 -0.603646 1.78877 1.82277C-0.592385 4.24903 -0.596803 8.18149 1.77883 10.6134L10.671 19.6731C12.505 21.4682 15.4115 21.4383 17.2094 19.6056C19.0074 17.773 19.036 14.8112 17.2739 12.9428Z"/>
  </symbol>
  <symbol id="feedback" viewBox="0 0 21 23">
    <path d="M7.01204 20.6708H4.18549C3.27279 20.6708 2.53012 19.9218 2.53012 19.0012V3.9986C2.53012 3.07804 3.27279 2.32897 4.18549 2.32897H14.576C15.4889 2.32897 16.2314 3.07804 16.2314 3.9986V9.24091C16.2314 9.73112 16.6255 10.1284 17.1113 10.1284C17.5973 10.1284 17.9912 9.73112 17.9912 9.24091V3.9986C17.9912 2.09924 16.4591 0.553955 14.576 0.553955H4.18572C2.30235 0.553955 0.770264 2.09924 0.770264 3.9986V19.0012C0.770264 20.9006 2.30258 22.4458 4.18572 22.4458H7.01227C7.49806 22.4458 7.8922 22.0485 7.8922 21.5583C7.8922 21.0681 7.49806 20.6708 7.01204 20.6708Z"/>
    <path d="M13.7309 5.66846H5.02601C4.54021 5.66846 4.14608 6.06576 4.14608 6.55597C4.14608 7.04618 4.54021 7.44348 5.02601 7.44348H13.7309C14.2169 7.44348 14.6108 7.04618 14.6108 6.55597C14.6108 6.06576 14.2169 5.66846 13.7309 5.66846Z"/>
    <path d="M14.6108 9.96548C14.6108 9.4755 14.2169 9.07797 13.7309 9.07797H5.02601C4.54021 9.07797 4.14608 9.4755 4.14608 9.96548C4.14608 10.4557 4.54021 10.853 5.02601 10.853H13.7309C14.2169 10.853 14.6108 10.4557 14.6108 9.96548Z"/>
    <path d="M5.02601 12.4877C4.53998 12.4877 4.14608 12.885 4.14608 13.3752C4.14608 13.8654 4.53998 14.2627 5.02601 14.2627H10.3129C10.7987 14.2627 11.1929 13.8654 11.1929 13.3752C11.1929 12.885 10.7987 12.4877 10.3129 12.4877H5.02601Z"/>
    <path d="M19.4782 12.906C18.4761 11.8951 16.8455 11.8954 15.8441 12.9054L11.2041 17.5747C11.1017 17.678 11.0258 17.8051 10.9836 17.9452L9.97332 21.3004C9.88006 21.6101 9.96118 21.9464 10.1853 22.178C10.3533 22.3515 10.5813 22.4458 10.8152 22.4458C10.8936 22.4458 10.9724 22.4352 11.0501 22.4135L14.4612 21.4606C14.6074 21.4197 14.7405 21.3413 14.8478 21.2334L19.4782 16.5721C20.4802 15.5614 20.4802 13.9167 19.4782 12.906ZM18.2339 14.161C18.5497 14.4798 18.5497 14.9984 18.2344 15.3164L18.0953 15.4565L16.9493 14.3006L17.0877 14.161C17.4037 13.8426 17.9177 13.8426 18.2339 14.161ZM13.7685 19.8122L12.122 20.2721L12.6035 18.6742L15.7034 15.5542L16.8496 16.7103L13.7685 19.8122Z"/>
  </symbol>
  <symbol id="quotes" viewBox="0 0 25 18">
    <path d="M25 17.8594H13.8125V11.1562C13.8125 7.09375 16.375 3.375 21.5 0L24.2188 2.25C22.0938 4.375 20.9375 6.3125 20.75 8.0625H25V17.8594ZM11.0781 17.8594H0.078125V11.1562C0.078125 7.09375 2.64062 3.375 7.76562 0L10.4844 2.25C8.35938 4.375 7.20312 6.3125 7.01562 8.0625H11.0781V17.8594Z"/>
  </symbol>
  <symbol id="arrow-up" viewBox="0 0 12 14">
    <path class="st0" d="M6.5,0.5c-0.3-0.3-0.8-0.3-1.1,0L0.7,5.2C0.4,5.5,0.4,6,0.7,6.3c0.3,0.3,0.8,0.3,1.1,0L6,2.1l4.2,4.2c0.3,0.3,0.8,0.3,1.1,0c0.3-0.3,0.3-0.8,0-1.1L6.5,0.5z M6.8,14V1H5.3v13H6.8z"/>
  </symbol>
  <symbol id="instagram-sm" viewBox="0 0 13 13">
    <path fill-rule="evenodd" clip-rule="evenodd" d="M4.32789 0.0323957C2.56445 0.133088 1.71649 0.463334 0.982676 1.33522C0.142635 2.3333 0 3.08244 0 6.49672C0 10.955 0.572316 12.2099 2.87379 12.7978C3.93187 13.0681 9.06895 13.0672 10.1285 12.7965C11.7434 12.384 12.7023 11.2066 12.9215 9.36709C13.0262 8.48901 13.0262 4.50442 12.9215 3.62634C12.6784 1.58639 11.4872 0.327003 9.58338 0.0970935C8.84398 0.00780699 5.48318 -0.0335722 4.32789 0.0323957ZM8.82172 1.05941C10.896 1.18009 11.7525 1.98484 11.9322 3.98196C12.0103 4.85019 11.9828 8.75367 11.8943 9.36412C11.6802 10.8395 10.8575 11.7064 9.50722 11.8793C8.51931 12.0057 4.56375 12.0059 3.50275 11.8796C2.21904 11.7267 1.35731 10.8807 1.13057 9.5509C0.993314 8.74582 0.972698 4.5745 1.10132 3.62578C1.23078 2.6707 1.61554 1.99197 2.2772 1.55151C2.85582 1.16632 3.29421 1.0828 5.03878 1.02532C5.55612 1.00825 8.38023 1.0337 8.82172 1.05941Z"/>
    <path fill-rule="evenodd" clip-rule="evenodd" d="M6.10511 3.34893C3.81717 3.66477 2.58588 6.14386 3.74699 8.09689C5.21734 10.5701 8.90822 9.98407 9.56472 7.17311C10.0479 5.1042 8.19852 3.05993 6.10511 3.34893ZM7.76945 8.2037C9.20039 7.11794 8.7177 4.81973 6.97364 4.41475C5.6082 4.09769 4.33393 5.10288 4.33441 6.49672C4.33502 8.26418 6.36214 9.27153 7.76945 8.2037Z"/>
    <path d="M9.78223 2.37635C9.19925 2.58467 9.09569 3.33003 9.60263 3.66901C10.2005 4.06876 10.9568 3.43527 10.6662 2.77815C10.5166 2.43955 10.1155 2.25727 9.78223 2.37635Z"/>
  </symbol>
  <symbol id="phone-sm" viewBox="0 0 13 13">
    <path d="M10.2796 8.05304C10.0131 7.77592 9.6916 7.62776 9.35088 7.62776C9.01291 7.62776 8.68867 7.77318 8.41115 8.0503L7.54286 8.91457C7.47142 8.87616 7.39998 8.84049 7.33129 8.80483C7.23237 8.75544 7.13895 8.70879 7.05926 8.65941C6.24593 8.14358 5.50679 7.47137 4.79787 6.6016C4.4544 6.16809 4.22359 5.80318 4.05598 5.43277C4.2813 5.22699 4.49012 5.01298 4.69346 4.8072C4.77039 4.73037 4.84733 4.65081 4.92427 4.57398C5.50129 3.9978 5.50129 3.2515 4.92427 2.67532L4.17413 1.92628C4.08895 1.84122 4.00103 1.75342 3.91859 1.66562C3.75373 1.49551 3.58062 1.31991 3.40202 1.15528C3.13549 0.891886 2.81675 0.751955 2.48153 0.751955C2.1463 0.751955 1.82207 0.891886 1.54729 1.15528C1.54455 1.15803 1.54455 1.15803 1.5418 1.16077L0.607566 2.10187C0.255855 2.45307 0.0552704 2.8811 0.0113065 3.37771C-0.0546392 4.17888 0.181666 4.92518 0.363017 5.41357C0.808151 6.61258 1.4731 7.72379 2.46504 8.91457C3.66855 10.3495 5.11661 11.4827 6.77075 12.2811C7.40273 12.5802 8.24629 12.9342 9.18876 12.9945C9.24646 12.9973 9.30691 13 9.36187 13C9.9966 13 10.5297 12.7723 10.9473 12.3196C10.9501 12.3141 10.9556 12.3113 10.9583 12.3058C11.1012 12.133 11.2661 11.9766 11.4392 11.8092C11.5573 11.6967 11.6782 11.5787 11.7964 11.4553C12.0684 11.1727 12.2113 10.8434 12.2113 10.5059C12.2113 10.1657 12.0656 9.83921 11.7881 9.56484L10.2796 8.05304ZM11.2633 10.9422C11.2606 10.9449 11.2606 10.9422 11.2633 10.9422C11.1561 11.0574 11.0462 11.1617 10.9281 11.2769C10.7495 11.447 10.5681 11.6254 10.3978 11.8257C10.1202 12.122 9.79327 12.2619 9.36462 12.2619C9.3234 12.2619 9.27944 12.2619 9.23822 12.2592C8.42214 12.2071 7.66376 11.8888 7.09498 11.6172C5.53976 10.8654 4.17413 9.79806 3.03932 8.4454C2.10234 7.31772 1.47585 6.2751 1.06094 5.15565C0.805404 4.47246 0.71198 3.94018 0.753197 3.43807C0.780674 3.11706 0.904322 2.85091 1.13238 2.62318L2.06936 1.68757C2.204 1.56136 2.34689 1.49276 2.48702 1.49276C2.66013 1.49276 2.80026 1.59703 2.88819 1.68483C2.89094 1.68757 2.89369 1.69031 2.89643 1.69306C3.06405 1.84945 3.22342 2.01133 3.39103 2.18419C3.47621 2.27199 3.56414 2.35979 3.65206 2.45033L4.4022 3.19937C4.69346 3.49021 4.69346 3.75909 4.4022 4.04993C4.32251 4.1295 4.24557 4.20906 4.16589 4.28589C3.93508 4.52185 3.71526 4.74135 3.47621 4.95536C3.47071 4.96085 3.46522 4.96359 3.46247 4.96908C3.22616 5.20504 3.27013 5.43552 3.31959 5.59191C3.32233 5.60014 3.32508 5.60837 3.32783 5.6166C3.52292 6.08852 3.79769 6.53301 4.21535 7.06255L4.2181 7.0653C4.97647 7.99817 5.77607 8.72526 6.65809 9.28224C6.77075 9.35357 6.88615 9.41119 6.99606 9.46607C7.09498 9.51545 7.18841 9.5621 7.26809 9.61148C7.27908 9.61697 7.29007 9.6252 7.30106 9.63069C7.39449 9.67733 7.48241 9.69928 7.57309 9.69928C7.80115 9.69928 7.94403 9.55661 7.99075 9.50996L8.93047 8.57161C9.0239 8.47832 9.17227 8.36583 9.34538 8.36583C9.51574 8.36583 9.65588 8.47283 9.74106 8.56612C9.7438 8.56886 9.7438 8.56886 9.74655 8.57161L11.2606 10.0834C11.5436 10.3633 11.5436 10.6514 11.2633 10.9422Z"/>
    <path d="M7.02628 3.09234C7.74619 3.21307 8.40015 3.55329 8.92222 4.0746C9.44429 4.59591 9.78226 5.24892 9.90591 5.96778C9.93614 6.14887 10.0928 6.27508 10.2714 6.27508C10.2933 6.27508 10.3126 6.27234 10.3346 6.26959C10.5379 6.23667 10.6725 6.04461 10.6396 5.84157C10.4912 4.9718 10.079 4.17886 9.44979 3.55055C8.82056 2.92223 8.02646 2.51067 7.15543 2.36251C6.95209 2.32959 6.7625 2.46403 6.72678 2.66432C6.69106 2.86461 6.82295 3.05942 7.02628 3.09234Z"/>
    <path d="M12.9943 5.73457C12.7498 4.30234 12.0739 2.99906 11.0352 1.96193C9.99656 0.924799 8.69138 0.24984 7.25706 0.00564702C7.05648 -0.0300216 6.86688 0.107165 6.83116 0.307458C6.79819 0.510495 6.93283 0.699812 7.13616 0.735481C8.41661 0.952236 9.5844 1.5586 10.5131 2.48324C11.4419 3.41062 12.0464 4.57671 12.2634 5.85529C12.2937 6.03638 12.4503 6.16259 12.6289 6.16259C12.6509 6.16259 12.6701 6.15985 12.6921 6.15711C12.8927 6.12692 13.0301 5.93486 12.9943 5.73457Z"/>
  </symbol>
</svg>
