<svg width="36" height="36" viewBox="0 0 36 36" fill="none" xmlns="http://www.w3.org/2000/svg">
<g clip-path="url(#clip0_716_682)">
<path d="M35.2196 4.0136C35.0963 3.72292 34.794 3.54995 34.4813 3.59094C34.3071 3.61365 30.1977 4.17989 28.5865 6.97128C27.4142 9.00118 27.9367 11.5609 28.3557 12.9139C26.5593 14.7982 26.6048 17.809 26.7009 18.9749C25.5485 20.1271 24.906 21.6896 24.5988 22.6361C21.8109 23.088 19.7204 25.7869 19.5536 26.0076L18.0639 27.8698L16.6493 26.0147C16.526 25.85 14.3191 22.9577 11.3918 22.6069C11.082 21.6603 10.4411 20.1165 9.29909 18.9749C9.39521 17.8089 9.44071 14.7977 7.64425 12.9138C8.06333 11.5608 8.58583 9.00118 7.41355 6.97136C5.80231 4.17989 1.69288 3.61365 1.51871 3.59094C1.20609 3.55023 0.903743 3.72292 0.780412 4.0136C0.711153 4.1768 -0.897491 8.04435 0.715372 10.8387C0.778022 10.9472 0.846718 11.0532 0.91865 11.1577C0.65005 11.2297 0.445647 11.4547 0.404865 11.7352C0.380115 11.9056 -0.165241 15.8572 1.96366 18.1632C1.42336 18.3775 1.0841 18.5584 1.06153 18.5706C0.787514 18.718 0.642949 19.028 0.706161 19.3327C0.74188 19.5046 1.61377 23.5596 4.53898 24.9233C4.87437 25.08 5.23298 25.1982 5.61204 25.2792C5.22074 25.6945 4.99412 25.9958 4.9776 26.0179C4.79147 26.2674 4.7914 26.6096 4.9776 26.859C5.08264 26.9998 7.58674 30.3058 10.8147 30.3058C13.1563 30.3058 15.1167 28.5663 16.057 27.5572L17.1585 29.0017L15.3416 31.2729C15.099 31.5761 15.1482 32.0185 15.4514 32.2612C15.7533 32.5027 16.1962 32.4559 16.4398 32.1514L18.0374 30.1543L19.5504 32.1385C19.7871 32.4489 20.2286 32.5057 20.5359 32.2713C20.8447 32.0358 20.9041 31.5946 20.6687 31.2858L18.9429 29.0225L20.1276 27.5417C20.612 28.0629 21.3733 28.7859 22.3189 29.3607C22.433 29.43 22.559 29.4631 22.6835 29.4631C22.9209 29.4631 23.1526 29.3428 23.285 29.1251C23.4867 28.7932 23.3812 28.3607 23.0494 28.159C22.1502 27.6124 21.4292 26.8891 21.0262 26.4388C22.1211 25.2162 23.7364 23.9776 25.3831 23.9776C27.0263 23.9776 28.652 25.2206 29.7406 26.4384C29.419 26.7982 28.8944 27.3319 28.2387 27.8101C27.9249 28.039 27.856 28.4788 28.0848 28.7926C28.3135 29.1063 28.7534 29.1751 29.0672 28.9465C30.3588 28.0046 31.1857 26.9055 31.2203 26.8591C31.4063 26.6097 31.4064 26.2676 31.2203 26.0182C31.2034 25.9954 30.9633 25.6762 30.5497 25.241C30.869 25.1624 31.1737 25.0576 31.4607 24.9237C34.3864 23.5598 35.2583 19.5048 35.294 19.3328C35.3573 19.0282 35.2127 18.7182 34.9387 18.5707C34.916 18.5585 34.5768 18.3776 34.0365 18.1634C36.1654 15.8574 35.6201 11.9057 35.5953 11.7353C35.5546 11.4549 35.3502 11.2299 35.0816 11.1579C35.1536 11.0532 35.2222 10.9472 35.2849 10.8387C36.8975 8.04435 35.2888 4.1768 35.2196 4.0136ZM1.88603 5.08954C2.94264 5.32446 5.23509 6.01051 6.19571 7.67464C6.98077 9.03395 6.7313 10.8442 6.44238 11.9898C5.23347 11.3128 3.82641 11.1046 2.70744 11.068C2.38645 10.7822 2.12608 10.4695 1.93328 10.1356C0.97251 8.47094 1.55063 6.12541 1.88603 5.08954ZM1.74899 12.484C1.94031 12.4731 2.17347 12.4659 2.43476 12.4684C6.0894 12.5078 7.89781 14.1691 7.92783 17.9719C7.8881 17.952 7.84845 17.932 7.80837 17.9133C6.63447 17.3659 5.15753 17.2834 3.52118 17.6701C3.3648 17.5576 3.21946 17.4363 3.08924 17.306C1.73 15.9468 1.68964 13.5557 1.74899 12.484ZM2.22508 19.5761C3.7253 18.933 5.72848 18.4953 7.21393 19.1879C8.53661 19.8051 9.41328 21.2859 9.91997 22.6549C8.96749 22.829 8.00264 23.2788 7.03941 23.9991C6.31616 24.0186 5.67539 23.902 5.13362 23.649C3.39124 22.8367 2.53573 20.6032 2.22508 19.5761ZM10.8146 28.8995C8.89261 28.8995 7.1735 27.2378 6.45756 26.4381C8.93641 23.6653 10.965 24.0018 11.027 23.9873C11.0295 23.9868 11.0318 23.9859 11.0344 23.9852C12.8667 24.1036 14.4827 25.6692 15.1714 26.4384C14.4548 27.2387 12.736 28.8995 10.8146 28.8995ZM29.8043 7.67443C30.7649 6.01023 33.0578 5.32425 34.1139 5.0894C34.4494 6.12583 35.0274 8.47101 34.0667 10.1354C33.8739 10.4694 33.6135 10.7821 33.2926 11.0679C32.1736 11.1044 30.7666 11.3127 29.5577 11.9897C29.2687 10.8442 29.0193 9.03381 29.8043 7.67443ZM30.8662 23.649C30.3748 23.8783 29.8014 23.9952 29.161 24.0015C28.1346 23.2327 27.1058 22.7706 26.0916 22.6235C26.6013 21.2604 27.4736 19.8002 28.7859 19.188C30.2691 18.4963 32.2678 18.9305 33.7759 19.5772C33.4674 20.6039 32.6161 22.8333 30.8662 23.649ZM32.9107 17.306C32.7805 17.4363 32.6351 17.5576 32.4787 17.6702C30.8422 17.2835 29.3655 17.366 28.1914 17.9136C28.1514 17.9322 28.1118 17.9521 28.0722 17.972C28.0845 16.4152 28.4405 14.6617 29.6206 13.6494C30.7326 12.6964 32.3795 12.4813 33.5652 12.4685C33.8264 12.466 34.0597 12.4732 34.251 12.484C34.3103 13.5563 34.2698 15.947 32.9107 17.306Z" fill="white"/>
<path d="M25.7346 30.3042C26.1229 30.3042 26.4377 29.9894 26.4377 29.6011C26.4377 29.2127 26.1229 28.8979 25.7346 28.8979C25.3463 28.8979 25.0315 29.2127 25.0315 29.6011C25.0315 29.9894 25.3463 30.3042 25.7346 30.3042Z" fill="white"/>
<path d="M13.7404 9.6H15.1804V18H13.5244V11.352L11.9404 11.796L11.5324 10.38L13.7404 9.6ZM19.821 18.168C18.773 18.168 17.949 17.772 17.349 16.98C16.757 16.18 16.461 15.12 16.461 13.8C16.461 12.48 16.757 11.424 17.349 10.632C17.949 9.832 18.773 9.432 19.821 9.432C20.877 9.432 21.701 9.832 22.293 10.632C22.885 11.424 23.181 12.48 23.181 13.8C23.181 15.12 22.885 16.18 22.293 16.98C21.701 17.772 20.877 18.168 19.821 18.168ZM18.549 15.852C18.837 16.316 19.261 16.548 19.821 16.548C20.381 16.548 20.805 16.312 21.093 15.84C21.389 15.368 21.537 14.688 21.537 13.8C21.537 12.904 21.389 12.22 21.093 11.748C20.805 11.276 20.381 11.04 19.821 11.04C19.261 11.04 18.837 11.276 18.549 11.748C18.261 12.22 18.117 12.904 18.117 13.8C18.117 14.696 18.261 15.38 18.549 15.852Z" fill="#FAFCFD"/>
</g>
<defs>
<clipPath id="clip0_716_682">
<rect width="36" height="36" fill="white"/>
</clipPath>
</defs>
</svg>
